<mxfile host="65bd71144e">
    <diagram id="E9tp2nmqqtSn3L4lfB3y" name="Page-1">
        <mxGraphModel dx="1243" dy="766" grid="1" gridSize="10" guides="1" tooltips="1" connect="1" arrows="1" fold="1" page="1" pageScale="1" pageWidth="850" pageHeight="1100" math="0" shadow="0">
            <root>
                <mxCell id="0"/>
                <mxCell id="1" parent="0"/>
                <mxCell id="2" value="" style="shape=image;verticalLabelPosition=bottom;labelBackgroundColor=default;verticalAlign=top;aspect=fixed;imageAspect=0;image=data:image/jpeg,/9j/4AAQSkZJRgABAQAAAQABAAD/2wCEAAYGBgYHBgcICAcKCwoLCg8ODAwODxYQERAREBYiFRkVFRkVIh4kHhweJB42KiYmKjY+NDI0PkxERExfWl98fKcBBgYGBgcGBwgIBwoLCgsKDw4MDA4PFhAREBEQFiIVGRUVGRUiHiQeHB4kHjYqJiYqNj40MjQ+TERETF9aX3x8p//CABEIBQAEggMBIgACEQEDEQH/xAAuAAADAQEBAAAAAAAAAAAAAAAAAQIDBAUBAQEBAQAAAAAAAAAAAAAAAAABAgP/2gAMAwEAAhADEAAAAtmLMYmCGJoGCpghghgAAAAADABogaKBgACaBgA0A0DEDAAAAAAAAAAAAAGAJghgmACYAAAAMQ0AAAAADQAA0AAAAAA0AAA0DEwAENAAAAAABCYUCAGgBwgBMBNANAJgmAAAmCYCGCBiApIITAAAAAAAQxAxKrJChA2kNoGIGCG0DEDEAAMAAAABoGJgAAAAAmAAAAAAMExDBDAGIAaAAYgAAAAAAAAAAAAAAAAAAAAABoAAAAAAEwBQwKQwE0AEAAJgACGCAAAABoYgAABMAAzaYAAAAAAhyVSYAAIYIYIYJUCKCSgksIKCSwkbJKCXQSUElBJQSUEtgikIYIYKpYyQokLICiQpwFkMokKJCiQokKJCiWUQxiBiBiYCYIBgAAAmAmAAAAAAAAAAAAmAEgwAAAAAIAKQwBAAABACGAAMBBmCKEDAEDEAJzdJgAAAAAAAADTAaAAAAaAAYADEDAAAAAABgAAmAAAAAmAAAAAAAAA0DAEMAAAAAAAQwQwkoJKCVYSUEjZDoJKCSgkoJKQmANAxIoljJAGgaBiAlghhQkUJCYh1LBgIYIYS0QDDMQNNA0DE6ABKkUpCiQsgKcBZAWSiyAt5ssgLICyAskKcBZAWQynIUSFEsbhlEsBMYgYmCaAGAgYmAAAhgDEDAAAAQwAAAAAYhggAABpiGgAAAAAaAAAAAYmBDAY0AMQAmmAAmAS5LExDCSgztMBgJoQKGIMgAaBiAaYwKESMYIGIYCGIbEJgADljCShAxIskKcotyi3mGhIUkDEDEDBADAABMQ0AAAAMAABghgigQ2SMEMEwAAYgYgokKJBuQokKJCiQYgYgYgYkU5YxMACGBQgYgABNMAABAnJTSKJYwZDAYkVIQCBgGIAAAAAFDTJaYACqWMmhNMGmTU0AAnNDlytiaE1JQmCclgDQigYJoYAmqAEJpg0E1NAAJzQhoYMSpAUgmkJ0EFyCsIKZJQS1QikSxiVoltklAhgipAYAgYgZIUkDJYADQFJAAAAIpCYCGCGCm0JUEFBDaFYxMYlShAwATFArEwAoaAAEmyc9mvFa0XPbn6kz15LOmTIdzRongbPINMN8ha5htGmAtMw3i8jSsdhjhNBUIclCAc0NCBwykgKgLJAqGUhFkhQgoQNCKEikItAJpgATUsbTJpAwAc0IaGDEmA0xJgAE0qEDIYxKpG0xJgDQJoYBLGSrDNtkFoRQQtJJLCKmgaBoAAgATnYKNAwVDAABNMYC8OXR5693VlonN0ef6AYRzncZbLthrklHHqdXP0civbz9z0efTkTojipfTM0jrg6zqhBbcpokFAgFQqSObTh2O3HbAe3J0k6cXWTpnzHbPKjsrm3NBBSaDDfkK6YsJyR0VOB0QQW8WWKxPHoIrHUY8yqVCVAhsgqRgxDQDQmmMAljBNAIKQihA0IoQJpgCFUhUtDEDTBDCBgMQAA0DAOdsiWwQykMEMEmwG15eT1OQy016TyK9OjzL9GTzezz+smO+jyL9KzzT04I4vSDh16Uee/RDzX6Mnkrv2ML2kl0JJQIoJaslsOPTdj4e0OHtKOGusMVuzjOtHNpugEjUlj4uzBd4x1Mkw7OHqyM+zlYs+uR8/TBj242c9ZM7OPsyTSoYxSaOKHLkbTBKTRICpC0kNyxpAOaGmhiYBJSAHNCBksABiGgBDTRIwAATBMAAMhkICkwAABhDVAApndIqEDVKcnZzHP34dAhoVTSCaGDVKpKBDQik0E0kBghgACaoAZLVCGhVNAAJphNSNgIaGwGmhgxKpVphNzSAMljBMJaYkwQMkqRjCZ0kFQSUhNhDKIKZDGS2yWMQQXKociGxFJBZANyFkClQy1CNKySaymMaAEMTEAQwEMEmAAAwgfIvUubUuuLuAbSLVKhhIUkjCaGJVI2ATUrSYJUgGCVIBhLGCYk0qENkUqJGyGUIYJpgmAAAgoSKQixA00MEFSxiAcsbgG4ZSEDQNCGACaG5YJooQJpgAJpgAAmE1IFISuRphLGAxZY0SoJG1mdJE2IlUlAACGIGIJAAAEwTAYCzxdvOR0qjk6+XqFcWKpYxAqljQA0DmpKABOS0AJoYAJyUAIGAAqmhiBVNIAE1LGIFUsaEU0wTkY0CcluApJGiQF5sshjeVjEA4opCGTQkwYAJyUIGmhgyWMSYRQxDZDKJm0JsFOkiKCG2SUEjZJSEwBNDAFNIaaAEMAACGgYmJjEwABZasjm7A4+ookaJYwTCWqEMEMEqQwYpuQKQlSAYJUgYCGAMJZRLYRSskoIG0koJCiVaAbEqQTeC2sKXVvJNJqTRwFGdDvNhebLcIohjcBVZM0UiWTiurxs0JRoSk0Jkqs6KeYU4ZRMlVmyiQtyFQ5LEKJwluGFQLZANyxy801SauXKUAAIBoYgkTAAGAwFACbhlJAqhlJIHOZsc7NazookKchUiLJIuUFAhy1VCYTUlOKAAYAmqAAVTQAEsYgETTBMGwBNK+fp55Us+lXz7c5ppjrZDaMegg0dYF3nsih4rs8Nkrn00JeGwzHYMtoKzWg8t8F0V5JoqzKrPQGhBpgnRnQBNSrGCm0ItEFJEUiCmslBBTInRArCS5KTEQ0AAAEAA0FIYNCsTiLi6AcRU1WUvY5I1zrR8PpRy7aUZRp553uOiMVvylnL6JktkZvUrFGhm9gynog5ndGOpqDnQzVslqyKVCGyHjqBEmjVpJaApCVpRWGWjRmahzVsjN6MwW9HMukMdGzNaBOerM3bOZ7ow1aHUhkaovDYMFulvJ2nL0QyyRCoZRAXWQaSktkhSSLIC1IUIRMaoYIGJUhgAqhKBAANNCGGYAxMYgbRKwKm86KEQql1N46GO2HRXjeyiFXLuZ8fpSO8w04eqTyfZlmigjXn0deT1vpNCQqGHmKugvpwCt8tBRTXDoz0Floi2UmVLU59ZgjoVCVyjGCVSMErmpKEDlpGAo4ZTyRooYwBOaBNDqAtIKEJUuF0MwuUjQhg5pAQKpRSkUqGWhFCaEaZqACYFACaoQwllEq5AYJNJSAAAExAEAAAMTGBKwLIuLViBVNAAc3Rz7CLgy2jURUjYDQDACaRSYTOiINAznZHLtGlY9eOhTThVFgmE1NklCQUyVaIGyW0MbJm5UVIU3gaGHSJUkAZKuSU6XOlSJsJpMExUNpKtKlaMnpBQCAIpCUvKxy5G4oHINyxzFGiSSpQWZ2owKE0mppWIFUsctDaEJuBjQACAAAgAAAacMTpoCbhlCAqGUIOfi7YtrTXA0uHFJItwFpI0IZSSLcBcoLJCpGedl6GVbPTE3IqC82WSDrJmjzaOoZSQJyFJI0SY5crSAMtsKL5djRuZKEgBhzXpbkZbGonJEXnbuqiKIaWpavLSSlGiMAFOZusdrcN+PY2MKKvHSKM6KpUZLZBj0cNnWstoiegWG0jAE0wAVNNBORqgU0hgCAEMEMMwAABhA06ACNM9AAVVFIwDn6Obop8/Rzrq1UYRNzWzyyTrJdlAAElgACKaBoRl0c3RRlcmgEk0mrEyWmg0A5oYgBMlUhqgStCbBDSqdAhWklWGTpHN1UVitmZ1RHKuqqjPZRKsXN2kk0FlVKBQZR0K2aojBbsyndpyz1O3nrYJqXAmh8XdFc3U2lCIE5AQFSxiFHLRoRRIOWikwQ0A0ABCYIYAMAATCKVKmMik0Ygw3587ezLj6jaoqHFhwb10TXKWi3lpZcwk2Eilx9ZYgaQZb8PRTryPWNCXBUUNoE5YwEVSxiAcsqWiyQpIKcsctLSBCWhgCaBphNS1AETljQigFFUoxgpuRpgIBgE1NKACaY0BNTSCaKBDlyUgGhFCZNJgAqaaCqRgBNSMABMAAAITBDBMBgQJhFxdoDJqaBpnNw+g68/tz1NKmoYIsTBORsDHPrlYw6c4p3NgZ5L1Jic/netnXn+nnoaMcRc0ABNJiGkKigTQqljTRQAJobQObhQyVmoyEVmNqhKgnPWFbjUgaQVIamV2VCAwU3IDRIxUNpLKWGxJClkoIY0U2hFISuVSoBUInQSwGAKpYJoYIctFJggYmmABmAAAADAABYZQhhNKhDDDbDeljtga0qhFICgkqRsBoRaAJWRcx0q0JM9+bSrnLQ0JUO8maGbHWdFJIdZUlqQdQykgsQORFCRQgeFRbprloj5ujMjRYre+WyTcEtIEji9DC3O9gYiKlJNEkUkixMSaVgJNxQ0AmqEMWWmgnJSYJUgTBAFksTTGIHWdjQiiRXFwlIAaBiYCDMTAGAmMHKIZFxdABNJgAc+2WdZ7cHWdVTUNNFCYJyWJgnJYA4qS0IE0YOc6XX5nebDUJqhDCamhphLTQAE0xoCgAmpKABVJTQCclACuGNAQMEUEKmSrkStEK4GUElSWhkjBDFzbpE2yGNUMIbZM6SS20SqRjCVaJdCoKSVaJYxKkA2JVJSYAIYIokIGgABjBoVgEMolsJaoRQYa5bVnl1cxqNwlSGMENDKCVcFAxKpGMEqRlvhvWL0gscwqljJaFRSsQKpaAIGmCEaEhSEUIKkRZItJCUIByxiYgABCctXIikkVFSUgBNDABpgCE0wJYVnYxIdQypEUhJSSLaATQ2mTU0MkFUsctDcouUFAhiBiIYgSZQDEMABWAZ6RYARNTVDQYb4b0c3TzG4nDTkoENEmgIcuSxIuSTQkKSkjo5t6QszpIcFZ0lJAVDViYqgS0kLTKikIsTAUmogcuShCsTSgCWgYBFKgBkTpmoY7kzMrvLhLTgZjS6meiJiGUGcjBUjn6MNwm0Iy2EPI0FQikMbEMEUkTVCVITVCVIRQQXJQgAAAhgEgqYmDTGBKJqopUgmyWqVDzIebK5zWqNXGS1yA2DGOmDKqZC6EYHRJmMEUyCpMtue61xcnS8tokKE4oVTQVDGSDJQ6hlpSW4RoQjWsQ2UBopCpQW4ZTikohFvKyiUtSM5+mWZTrS4bVmRbCc9oBKwvPVAAx1WZGts5aulxjpyFjtSqK0TBuSqz3OfphpTgLEgchZDHWbSkkWIHLktAAAxAxAgYAA0wYAmiLiwBk1NKsnqZ8fTZ43qRpW0aOOLj9fjL6aBef6KPH6OfvOhUh8naHj+hh0ljBKkeYuryq9TabFrltEskz25tleW8I6civPUxrHVW8EdCnE6Tm2NJQlmG4wBjxNFnzr3VLQrGywCalowFVJgqkpACaAYJNDGE0mAMlgJgRSolUhMBTcgMIKkBhBTJGzNujMtGZbIVoToRFSUANADAQAgYADBqAQAVFzaSUEMpVnojl3cVXNvqZGxGa2RmtwwXQjg36QwXQjJdAcp1SZPSAmAjfKK1zWxOtqIbYp0RDGCGTQzCeoON9VLlO8pGPULxX1IzNUkxWC9eG+aZmua26E5+mGU82Os2WRgdF8HWWpE0JCpSXQgS0kuhCSqzpaJRTzpKICnlS1Ii0gcuUoSVy5ShCjkG0hVIMSKeVFJIsllS0UAg0DAAAkAYMAFYEAFTeVlEgVnRU50VXNZtKzNjDYYIsQNNDACaQwAQDAJHibLLQB5U9coNjnk6znsvPNmmkBTXOdXNTTZwo1T5a6a59pWnJQA5clNAJoBolpjExVNCz0Dn1x3pjUUEpNZ6K4Js1MaXUCSbiTZcfYstNAJV1GiTLzXUx2RJoaQrkEHhraPOooy0E86KJ0ObR2E3mU+fqOd7YGwCAAAAAIYAIoTVgAATedw01SmkRfJ11z7bEYLeTm12QlSBsEqQDBK5BsJVyDcmOuHRTYQlTOaewri21ozy6Q5q1qMs+krLHptOTPukllQsOhEukqVIRQSrkaoJKQikQykmk1VSww6HXJewATJpz6Vbhu0E6EculOsejLQkITn7Ja5rVxUMFpmyJ2VTrJDlozoms70kye0mbujEuiefpgnRoty4PO9Ga5OjWS5FDGIgAAACEBTEwYDE1BAqzsYgKgNJlFvNlJIskKSRoSFSgsljQi0mNCLEEU0NoFUsbQKooYgVS0YAnNAmhOaBNDACakpMFNStAAmAmEtMGmTSoBMmpaCcliaiclNAJoYImppEMWKVCAIuaBNFAAqkoAJqRgyWqEmEsYJhDGIaQBkzcFACYCGABEiKbQNpg01AQqmgTQPKTfLXlXa40RS+Ou2Qi5qSxA5eZqIRy5WhiKblRsQmpGULLmxDCamxDCXNIDCWqJKCGUJUgKQlUgUEqpVjCSgQwhlElCQ21koJc2im5BtKKkDeJTx3AEKjMt5aiaoljIpUJNFAAmihA5aShAOWrEhuGMQDkGhIwQ5clAAAAAARAFMAYmMAASlRQ5bPOXZO3RlpPOxtF2Pn3wsl3orQpKBDw347ezDbBNVcRO+Wg8niumvJ02XIo0Sgy6uPe2lpjGuegMEZXEV1ASTU0AgTVAmhsBKpGAE0lGAhpGAs1NAmJFJma1ztjbLQqbUmMt6ukvCOubUOLyJx6ufTXWbzJYE0mA0S1QTUlABNSUIHLRQgVS1YgVRQNAnNIJyVLBTUjGhiYhkABmBTEwaBtA0IdSxiCgFJaKBI5cloQ5qSmgfJ0RWoEOWigBoRaEZaNFNAE0NDJqaAAljMtBkhRJQQyiSpBsEqQDBKpGMJbBDZDGIbIYxZ7M5dbdJUozumSrkRQJUhxbICiSkRQySghqyVcgqBKkCoFNyMGSxiGEMYhiyxopuQKQlUlACGABAMMWimAMTATAEOoZSSLcBSlGqgLkk0JCpQaEBcpGiljSRoSFJI0IC5SNCGNwyyGOs2WSBWdFEsHLGIByxy0UIHLRQIctFAAANAJpjEyWqAATTBOSgATQwQ00MAmpYxAOWABNTQTUjAHFIYATUlACaBgCc0CaE0wTQDAi4LTQAABAMMhFMAAQ2mE1JTljlyWAE1I2gM9IHQhrDYsmgjm2rYlw0c51KUWRRQgqRFnNpWj5tTUCJuca6GlBUsaEK87BoE1QprnNmwSqRjBTSBqhNUJVgaOLB5bEjAMOkihim5ApAqkFQJUgBkVNktoTTAYQxiVIRSBUhFApuQbZCtCKCGUSrSyOkgYItEq5GNDEAAABi0xiYIAYDloYAJyWIHLRQgl5OjbHaMtQM7z1rDXItcapJjpkwvfERdGOrcGWsmV6FZdHPvGWlKJx6IrYiYusNS+XVUbcm5jeoLHokvl6uY2iEU5qsa3zrXONcseiWXjaHSyHpJVpvNxrQqN8LS3lUUpRoSjSYZZkGsiKSAqKG4RTzZZLBwFIRRLGgGACclkg0SWCFUsaTE0ikIpwFS5LEDAEAAwxEwAAAYA4qSmmEXBYAJyWAPm6EUAE1JTQVJJYgc1JYgJqCwAQFNITTAGS5oMdipuXDECqWMAVJjQixA5aGDCakYwQwGkDljQEtUCYS0wVSNMEqkBghpWmJNTQhsgdEFBm21kpCbEJtEtsmdIApElITYSNklBDGIpEsYhosQMQMTgAMQKGmAIbTCWhjZM3xHYZbkq8TQw6AVIYwSclpIpJLo8w0UBqQJcCLJZUiLJBuKGJBUsZINxQxAVDKJY3AWkFEhSQWSxoRaQMkKEhuWNCCoZSATljQinIOWihAJyWSA5YxAVDKSBOWMEDQMgLIZcpFiQxItJDcsaQFQykgbljlyWIGIGBAAYsKGmAAADi4NBMOTskz2aDi7pOXqvmWqx3FjrnZdZ2aS8CH081vTCUaKNIoYhNSUMEmhgCqLBMJqaEwJpMBhNJgNCaY5aKABNFCClIWCGkDAJqWUgJYAmE3DKlyWkwmpKchUuSkAnNCAFUUNDJaYAA86HNSMAE5LedAmhghuGNATUsbkKJCoaKEDEDE4YgyB0ADEDEwmoKYwTRQAKpKmmvJvpJlPS7OetZgnQIjZW549bIy6JhFCKbkYwSYA0JqgQBUMokG4obkG4oZIOs2UkixIuVJqQxyQbKEaPNlkMHAWSinAWQDJC1IW4C0kWpY0SaGdA4C0gVQyyWDilciG4pGkLQklSkU4C1IWpAqGWpYOAqSS3AaSkWxDAgaBgGQFAAADACag0AHLRYgctFghpooAJqRgxJyWIHNSUAE1JQAJoYBNywAE5oYmTU0AAmmAIKljlooAJaKEDlyU0A0DQCaoQBNTQhghUE1JTAU3I2ApqRgyRUDQKpoBMlqlSEDmkE0UICagoaEmAAJpgAS0wmkAwJuCwAEQxMYggToAAAABxUlDAm5GxiVSNjEqkYwQ0MYSrkGwSqRqgSpArCVSAYTSoQwhlEthLVCYE0mCYS2CVIBsU0gGCVSMYSNDBkUmDQKpYxAVLHLRRIXMot5haSLJAqGUSDSBuUFQLooaNwFJI0IZcOSyQaTKSAcsYkDTHIFEscNFAABA0wAMxlAAAAAEXJYgc1JYATUliYTUlAwTkoQOWigBy5LBDlyWIHIFCZNJgATSoE0KpoABOaBNA0wmpKACakoAE5KEgAAAVRQ3IFSxiAqKHBJaGJOSgBoRaAm4oYSMihoQOKHNIGAlSBgOagoAlgAAnNAAJpgnI2ARSKTQNOAAAKgQMAAQxMIuVBtEqkZSCblWwQTQxgJoaYJUgGAqQDBKkBQQ2CbZDKJbZBTJGyBskpE0qEqRLKJVyNjFNyCtELSQGEtgigzoYhhLKErRmWyFcjGCVIBglcg2EKmQ2yWUQaIypsktCLRJSEUEqpGMJBktsgYA0JphNIGIc1JaYJhAAAFZgDQxADEDipKAHLlbAQmpLEDlooAE0UgVppGACclNA05KaATBgCqKGIB52MQDljBCqaBNADFNwU5C4EW5YS0UAITGATU0ABNTQCAqKHFSUmgTQwRUpFiBVFg0A5oaEKoocUigQ05KACakYBNJiYhNUIAmpoE5KACLkoCAAAAArMAAYhoABxcDGCVSrGCVIYNEqQDZKuQKBKkAwSpDGyZ0kBsSpANmbbJVhnRRIwTVCGEsoSpCGCnSAVhBcg2CKQFIljEUEMokbITYhshlCVSMYKbkCgmdIGqCKGIYRSoRQQ1RKuBtgKkMYSrkapEMoQwkbJKRLGJUhNglUloIAAAACoQAxDBAApNQU5Y5clgAnmaOKRy0tOWCMzVy0ctLRLRy0U5ZUVJQACYwBOaAAmlQhoTmgAE5oE0NphNQUNBNIoAE5LQCc0MQTSYAhNMaAVSxy0UACaG0DipKAJaoTETSYNBNTQKpG0wmpKExy0UgE5oABVNAmEtME0MAU3I2EAIAAAIAoTBDSgARcnOqwXbXHZMt+ezbn25100GhMCmubHjpkXvzdBeemSQXC7zNpm52WpvNLJ0SRgDBBRIwllElcxrXP0iVcp0ONBJgE6ElSMASoAoJnTzzp1yseGlBTxNGZGj5uokVkpyN5agOCymQtJEUEq0ItEjogsIKozLDNuiFaErZE6SJsErkCmZsoQwmkxiZI2SrkCgmdIKAgQAMEMMxghqhMEMEqk5+L0PJa9HfjaT2cFGnN2YFdHF3KuauY78s9jXzu7I5fR5+k35p50NlivZrPOmx5voL150kd4aoxIsQFRQxILzoryfV4FddfMlaYs5/S83sXl2TToz14RdHRxD1xk7SWWIL87v4TuOLpOVrQ6ePtxJYiOjBnP0Y9pzZ9nGs9PPqdnD35JZz7lJIskGhFpIKgLJArOinnQVDWiZNCRKlyUAEtFCBVLGIE5RZIOs6LlSaEMqXJaahiBgCAJAAChNANAmhcvXxq+zk6jN6iLLbiXk6q7DOdkTzdoYXrJxL0AyupOddYcE+jB5noVYTUpQAJobQKpoABVNAAFSxpgnNAmgBhFyY3qBnrAwBoRaATmxAycd6MNaDk6KYNIrKwctDTCVUFACmkDATmgTCaVAAsUqFFyBSBVKUMFNyCoIaolgQ2ySgilRKtAUElSUChiKpAMQSBAAAFIAE0FQLckmhIlcvQLy9qBy5LJCkgpwypEWSFS5KEI0SWSDEFCBXDKJBuWUSDqGUSDedFqQpwFykaEhSQWhkq5GIFcMbQFSFEgVDKkQ3DKkRZIOWhiAQFJAqllEsVS1YgVSxzUlCEctFCFcuS0gVS0BAqljQgqQqQKEDikUmCaBgDEENOAAAABAmqyxjZay1sd8fSWmiwAmpGACaGwCWigAmkMaCLlKAEmhtMm4sABVFDEyamgAJpME0NpgnJYgc1JTkKSBtMTixiBVFDJoloGhA0wTRQgJqSk0IAYgVTQACvOlpIFU0EtFCEcuS0CiclIBOWjQCqaGhCc0CclNMM7koCENUNAAEgQNA00NAAC+f351WnL0c5z9UdQ5aKchUiLSBoRTmRWkaEhUiLEDipLJEqRFkgXDKIFdZ0WQwedFkodY2WpC3AXIkslFyIpIKSDRSxXmy5QOs6BoCoC1IUSFJIpwFqQtJDJC3AOoFozoVQyzNjrKi5UmikLkk0IDSUjRSA4CyBKcBZAU4C5SLJC5AoAAAAAAkCBoGIUABNDc1TlyUACclghzUlAgVSMea5bY7FAI5aKACagoBBNLQAqmgziJdzGzRyrKlJdpvEq8aHWAdMtJc1KUAE1IwAVSNgKpoEwmpoTAlqhDQABNIYATSVphICNoVVNCGklqlQ0JphNSMYJVIxgk0MAljEqRNJohyNgE3IxoEwYEAMQ0IoM2moJgACeRosNSqzyrpnKTpfO42WKOk52brJV0GSNpyR0HEpe6eVV2PGU3RJoSFSQaCRSQW4Cqzs5dZ0moejRZ6lkFUZGoc9auVTasrLQGiUsQNOSiWNEliAqKGIByxiAcUNCGIGhFABLRSEoIShCjljECaYCAcsaEU0ipaKQhoRSEDkKEInNAmhuWOWloQgmhsIABiYAECFYAABy9XM1056YsxuctdfLjkesDhKpLEDlqqADHbBdqRI8N8V1ATHSQ0Aoyrml7BO5QC0AK4oOXrUqadgAKpYxAOaBOShA5cGghBCKchUtFkgVLGIVVDSiWJyxoQ3LHLRZLCakoQIEtACqKAATmxJoGmKaQwBy5NEgEAxMlpgIQcUNCWhA0IoQjSYxOAAAYAGYCjTAAObpxXbKqSXldeX6NSbmNGizg6TCo2iEaIdTj04y26SPO8V6VmJntc1WWrjON5pppEMUYCYxCollCVIljEMJpMRUgUEK8ixoaUlBQJg0xEFLLGSNkk2SxolUjMdlFSE2CTSMYSNKxUTSoQwhqhDCW2TNyAwUWhUwlUgYEgxDCKTBMAAE0MYTSaUJwADEwAXMAGAABNNefbm6QDFNL8rsrpzvzjt08z0DUCBNFABjtiuzQjw2xXcCwmpKaIcVNMFABTaZNTQZ3zS9FTlZuZ6k81zNdIO5ilmaznoUMFw9XPNdqZc4cnZ586d23N1XmlUpTTJqaUGhNNMdeLtVPn0Nc9cTl7sOgSuRpQLPbjO8y1Jw2xN65tiqwo1AOTTLsJeWoNA4qSkMU3IwBAwTCGqEAS1UJUgGUTSGwJaoGnAAgDAC3MFDaAGhtJeffLUIsTyvUpVU0Hm9uqGACaGMgx2yt0G0nPbBdSmkLSQKCVSEUhAwGE0rMZ6Bc892mdsFhvRJSIm6MquQKBTcjGCz1kl2oSpUFBDKEUEYdNHPWwc+lslXJNUhTaE2CVwCoM6YIoMjRiGznu6MjVEjZM6QBTIVyBQQNklBDKIKCG6IVoRRCVKgoIqaGBAADAADPLUObQS7gIYaczXWgZGqrC/I7DvFwnXXjewWHCbbeZ6hQEPHbFdWhHhvgu4FhNSWICakpME5qAAVTVMQKpYxAqmgEyaiwmoLEDipKEDlooTBNFCZNTYACqWMTJaYJobQCaGAE1IwBADAE5oYkK4oaYIAJqRsAi5GAS0wAE5oACaVCVIBqBVNUmEVNAMgEwBDEENMzNAAAaZydGOyjVWeft1SPDoZ5/Vqh8faHJpvIDBZ7Yy6NiLHoxWy1ZJSAYKbkYyJGxDBOaoTBMYhwN8/SJsIpUKbgafObq4GnI20BQJUgKCaVCGyGIY2QyiZ04zqGyVcgVkWgGNmbVCGEsYsdsw0KJbCRoFMmpQSqRjV2ZVQZxMGmmPSZx0ZhcaCWkktshVI1QRc0DRDQxNMBBm0xiYAAAvPvhuJrOzl38v1TomuEfZ5XomsacBp0+T6RXP0+QejfJ2LqBIZa4LuAjlqmCHLIYgVTQACakw6cs2unPTOzeagx6MtgCEKw3CbgWW+Uu01FnNnvxzp6RhvedOWNElMQVDKJoSJLjSC3NERrBoSyoaMzaTDdyU4ZF4bky2OpkzN8TW87GIG4o5l1QWJFEyapIqUD4O/Mx6Yot5g3myyUaEBSkKEDFQMIQANAwEzAUABpgAuOmegpt2TnshzYcHXpI8tmef1bSGPQji6Kk0HMPPWFooSVU0xkIaAoIZQhgk6EMpNMM9Q59xkxqGOjZKuTmrpSwWkiqCFpJJYQtIAoJZRBTIkk1tMQMU2gYyRoBhKtE08iNs9gYCaYAE1NADJqaFNSVLCRopMEUgGhNMTAlpjQigQTUlCYCYxOGIGIAYZNAwAaYALlcUNMTk6vH9CuvLXmDbyfXKT8s6ujzPTDm6/HOjo5O5csdeBPYOfoWgEJqSgIFSGATSYACqaAATmqAQOaBpA4ocuDQkGhFOAuRFEhUiinIFQVRnYVDGSxuGUkinmy0kWSFJI0IC5SNCWDljEA5ZTzY3DKkRQgcgUkilIaEop5s0UsTQAgpyDlqKEUmqgBgAAAxBk0DaYADAM1rytdDm2fO6ehUTZHD2VNPPUOLrqSotkTqjny7heHq0lEUEq0IoiRgDCaVCGyKVGVzayx2JXgtmPQktgmMSvnNjLUQc69LlyAIoASpDAJy1zqrJG1JbTMNsdxJMGpLTgsx1GqkpMEmiiKBPM1agtxY0qJqGNOSgAmoKGhIYyaJrMLjSC3nYJoGiGmhgEtMYAADEDEGTAYAxAwATkpywmpLExKoLEDlqqABNDABNDABNDAhNAwCbihkhROa49mYsaRSa53lU7824pA0ciUlmR0Y1NY8vo8rXTphsxUiSyQpCKcsWGzqEIl6BbkMd8qMeiEaZ6MU3ICsxNZNJICs9Tm6oY89EXkpE7ZnWkkUaGdAS5svLTnOmGGW2VGOzYotjQEawxoRRLhomrcqBzQDQADAGIMwAYAAAA5qQYCQDbBZ6867DESpDGUlWRZGpIwBsU2hFBDYIoiRskoJaoAZNJ0MCWmAIGmCaM9gBNFSyEmhgAmhgCqaoAE0wWcmlZ2NOSyQaiygQlclBJU1EaCZLiqZMFuaBpA89AmpKM7HlrBYIaMTdMIqaAQDmgTAAglzVoUKpoYgaAYgACQAaYmAAAmh5a5rjuCxvGiRy9vMtNQXjtIVcBEdRmx2J57FAI5cliAERSAVSFCQVFDcg3FUxIKhjEDcscuSyQuUFkg0IoSikgolivOqoQDlkZb4hRBrNMItFLKynnQrhhKyNpWgPLQGsyjSAGwytlPKwIoow2Fj0Ym+WkmmOmZWmbG4CiAblwxBQmKbkFQRc0AANMBAwCRMAAaYAAnI2UTOkgUCw6EvPrqGZpKGexWbuQKQTSAYJVJQwkZCYE0mABLGTUaVNTUCriXTfn6qScJTmhxeBquTola4e5dQLkmphgxKkMATm6ACamgAE5oJqRgCVSY9GOwTSBgLPSRUwxNKAAmkwAJTsU3mRsMU3IwATQDCWAmBNJwhyUAE1JQBFTYAAIBpiGENA3LGCGAOWhtMJaKaBy0WIBCqyQqSTRSFIRQkUhFOQHLGIFcMYnBm81rXm3JLituHu5pX0Z1YZ6Ym7ztDn6JVVQcB2k0wVw0IokhiKolg5Y3INwyiAdQypEUSFJIslFpIsQOSSxIKhGgkFZo0ExVNBNIBgS0MYIABhIMQwllRBUjGCm0IoIuKGIAAGgYghgDTAAaYJUhMYpuRsYlU1QwSqSgAmpKACakoAE0MATmgAJqaGAK4saFCqKpiBVLGhFCYTUlNATUjAEmhgQgBtOpqWMAmpoQwlphlriaw+c6lEG2euJvLyL0EPDaSNBxyGirfPQMdYZntjuY7JghFAhy0UmgJZQkFRQJqJvOxzSGCGhFIQqmgAAAYgBhAANMAAAHLQVIVIi3IUiTQkKkVWSFSIskKkRYkUhFCBVDKJAqKGSwco0IY6zoogG4C0kW8w1mQskKSRZIVIiiSKSVWSwcMpyA5YxAOagy0KzqwjDqkMtwibRlq0CaHSYotiVBBTMNaDOVuSrkCglUhFolUySghlRJSJYxK5GDJBgNE3FAAAANAwIgCgAAYAAmgc0CclgAqgsAJqaoCBNUwATRQIARQBNTQAEuaAAVTQxAqljECqWOWhjAQimgJqSgAmkNBACqhAOaAATTGghNME0Nopy5KTBTUjACakoAVTQAgqaAEKooc1IwAmpKEyWAxBNS4AQOWVIi0gHLKJBXFgCAYJgAC5tCMAGgABoBVDKkRoSFSItyFSKrJIpIq0gaSNEgaEWSA5ZSQKoY3IFQGizobhlCAcspJFuGVJJZLGhFEsaQUIgAoYE0qEMJaYKiIZRJSEx0lUgUhKkIpCm5GMJYxDBNA1QQNiVSMoJVIBhIUIZEBQk0NpgmhgCaYAE3FgAAAA1ADEYgADTAAEwm4octFCYTUlgAnJTTCakoChOSgATQwCamgAJqWMAlqhMCamgAE0wTQ3LHNIYATUlAhy5KAAAYAqmgAJqaAAmk4E0MChORjAmoKAFNIYAmmABLVAAS0xy0NMBCLJIHDKSAcsaaG5Y0IoQKpY0wm5oAAABgoIjJp2AAxAxA00TedFIkskLkRbhlSIsQVIiyQqRVYgcgUJBUMokCoZRIFQyhAqljEBUBSSLJY0IoAE1AMFNzQxwgBgyWOkMEFEthDHCKQmOpVyAwSpAqCVcDKRLGSUiWqhDmhpwJyUACaKQCc0DSCs7GkixBUtFCBNMByDVAJgADTlkkJAsYgYgYmABNRY00DTCaksQNOS3DKkRTQORFiKBAwBOLGSxVDKEA4sTQKoZQgHNBNSUJgmhgQJyUCHLksQAgoQFSwculUMoTE5cNCKJY0iqJByTGhAVIihAnDLcMV5UXIhuWNElmdFyItIE5CyQKigQi0MQ0MaE1QlUlAAwAAGnLgBKwNZGgaAGgYgmooYgbkLlBZIVIimgaSNCQpSVZJFSKrJAcsKkBy4qQCoqmJwgdJgS2xTcgxhNIBkJVIxglUjGhDCWwTVCG6gdRIwkYE2hDBDQKkKbkCgkYAwkGKpB1lZRKLJY4aKEDQikAnNDQCaYJyU0wAGAKoocuDQAGmAIYnLzgTX//xAAC/9oADAMBAAIAAwAAACGYoo4QXVCTxxW6zAC3G2U2FWmk0lT2FHGF31WkUAlCzxzDzxygwgDAF1Q6gzTL+O6bqY5qIKrwbL7rt/PRyWXW3WEEHEEF21jHFHBDH3GUV03X02zATiBTCBDSwDBCDSggaDRTZ7MKorqoJYL76oqJOcm0H0010G1H3En2G03X32V3mn20321mHXmXnEnQQghwBAggQxzxwSigDzzkOXE014YLI7Y4Pv8A5hNFBFxRl5RJ5RFRx99hBhBhZR95FNtBxhJ1NgMpgcAYoEQldsoU4kk4xpV9lhlltpuyGW7h115xFttF9pJNNxld9xtZtJ9NJR5NpBV0MBBFBVM4x98ox9pQlNMcg00o5VlpNJpBx1VuO+mP7BFFxFV5N9tFhddllNRR5115BJ1NV9NBN1Z9tpVMQsIlIAZhB59hIA0MM9VNFlh9JVNfOCyr39px11ZVpxJdcJBJVxN4FNxF1h5tdhZplNhhxRRN111p5NUtBlFJFwRQhdxNtJV1pxJpTaCSLBBdB4kqdcBAMN9ltY8FZFNRVdRFVtVVpBhF9dZRlplpJh5Jp5t5JRVpplNNJxt5BxhhdR2znOthRVo2mBhUdpYYb6qLcpVVVt7t15LbZ1RtlNpd15pptFNZ19h9dN1BVFRhh5FlVxp51l9swij159BIASUCBsNAUIcERQ9FxpldNDzRvBpBQUOI+yygIJBdpZxFVx1ZR9hRlxN5tZFllZNJgArNtNRZ0d1QUQ0dp40EcUZxBNRJZlBRNFlplB50wBZxVd95Fh9dBNpZt599JZlV5R04cFBxFI8hpdNxgU85gQRN19tc88UoAodlZh55RhBJpV11x1hx9t9NxlhxpxFRtVNdF1hZ5wBRYkRVhFMMVxRlAIo08UMsYUUckcggEg48YExBlNlZxFxxBldpptxdVJ5x99h9hNhR5dlVBt5VFV9h5dtgwlNplco0QswQwQU4IU0o8wM0MAkoARxZxZhJ8Vko0gskYgs9pE4lVpt1915tBE1pkE49cF1F0MZ51AkAY8UQKY8w0+K244UMQ0QUAcUpd5l87LKNRhcVIZZVkp9kwQAFRZlMAQ0llwY08Iwx1Rwxt5k606gZkDdVLrzfptxUPLg9EIIAoRxFwgB5JZJlwt8JlogpZkBdN95pMMAcQhwwQwMll9FwJJR2UYy0FYiMgRtVPN9AOP3Ng8MItNg1xh0gMF4IIEAY0EgBUsI4pFlEsENE8sU8sI08JdBp9V9JWBQMkMmmc08osYMAkeogg4cMtx1plpMUu6RJXi7lBIRgw0NNeqCC8MYLVAkJ4IkYlh1Bpwdh7ZdhxVxEEAAskYQkYAKgAYMQMp1RldREcgOtN7QeXQyPI6PNjsGoG+05Rf111V4VlxZBt489pjpxpA91dUcnfgwkwogeoIJ0IllZRht9xt4uJJL9V/xT8dyFN8i2rc4swyZNB5hoNBN9Z11wZxdNZUo5F4uYFuuUZEZw+UUYMgcxtJ9VRdpQZdNFRs/dNQ111dJBs0QYpx1BxFJlMF1NJ5JB9R1tHb84ooE48sIk8UHYcWwUosMk1tdt9BJxk1jLrdccbRVdNdJARUpYwlRNAcBx1Vp1xxR5pBBRV9I0csMMsogwk8MQdRCIk0kcoUp9p9x5l5aNLehgxeMAdxFp0BldRwBBRx55F15pBMVdtJNZxd6a0M088OsAIkIkAEEqE80QQ8QFJ1JFdNFtlFtJ1Bnhxlx1ZxsxxIwwU5Vth0Z1xRJZxEU8FNxsAQkMQUAEcAMQEIAQeMIkw5AEh1x5Nl9FAJx9RVhIQcUwwcwk4MwAAwVZhVp5FpZp99MKyZB18AgG8sQgUE0MUMUscm08gN9Ewl1xpN9Rdo5t1Bx9kZZcxo1sEx5tUFk4kwA1JVZFlhN8OC1JxCU1ZcqrYYYkRthhZppUwY8M4YcsgEo8kAQIURN5A89Vckssc811sMolB8hMEkIFd9FdwMN5FthVd5EzKgEI0Yr8kkgAUsVQ4xkUo8g4AxgkgIAo9088cows0EYEg4oow4og4IoEwsFV1Mh9JFAOMBx8EMQMUIhhRRB1+As00wU8QhoFc4R4V9gZoIOq1pQDCFw0JdMwY101oEkg0A84A9sABl5wW8IAISmOSsEggQ4o+mq4IOEqAwLHlOk8Msk08IAusgLutgBLi16L2D5yXI+i24RSqtF8wMx1cAwOUqsi+2oooM0g8ukGGE8E+QJf5fOI4wUEkZoAgsnEUiSkdomGmsOQsGycw2k8a8A58sO9JxIMYw0osoosc44wYMcKEogscFBJBJp1NRsAQYMowIlvY8siEnA6+kcc0McoIc8I8pp9NowCFtpoEAQCUY0qQMENMBAxN4A0oANhphNBlpxsMwM8hwyLHm+ljy26q648AQcJJYkssEpxt9sA+Bxd1sIqSu4Fwh1klzLSV1LSieKKJpN5Bhh9IgFEIRH4kT080eKTtFlRVhdd5NsMIspBRp1I6OVJllNF5wIVx1xtR9Z1Z1DtZZlfTPdx5lNJNNlh5FJfzFLbX9brfl95JFdJddNBBl4tVF9t4Gyt1JpplhppVVh5N/5pxhNr7RZVFJzRgBRJJl99VdVJZTBnxhljBdNFxxd9ZFVJtBJVVhxVV8eCFN1hxNNxBt9zrzVznXrzrRFdp1lXHp7PHLDX3vfbvf8A5W9RWU+b7TQfbcRcVZVUQQGTZVdTfPKWXdSVbTUfVyw8SFR14V50QV1wy3/dYZ76Ybz0f4RpnS45Yzx0U63w1+yQQTYVXeUdcQXbQfMCcdQUedQZQT8UYU3fz1+2x/2zzRx5z8392+1/wzx20234y5/ynZ6W4ZhhUeRdVaccXYTTQTSskedaSUTw1/8AEEVerqoFntstPeN9vO9s+P8A/wC83/8AcNc9P/8AvTD3PTxrR3nxt9NlFVxRl9pFNNS+lpB9Bd/3jHZ5tJQW2RVxr3DzXhnz3nffPrJLHPD3XnTzHbXPT9L7/Z9LvFJBp5VFd1pZJNN7PZ1JZl9ZNxY05PHQoSZRRJfTdHf73Trvv3frnTv73zXz3rznT3L/AF90Vig6MQZSdUWTdcTYQpguYXQZfWTXRcUUefXddZ8Qf57XQb0X/wCNkEs0+cctM+vNkeWe33le0NPq7PM02VH133133Vl7o4X33FF1GkHkU2k3WU3WtEl0MHuvu2euffsvX/fPmWH/ALBTBNlhx39V9k5phZV9ZFBFRJJd9+q+xBNdRBVx1ZFZFBRxdFfhdJ3vzVDhPf7T37Zl9h9JllJRvRtRbdt1RFZZNl1F9xxJ9hFhZdrDBFBFRo5l1QlNxBJx9BNJhppVrTNRlhB5xtdd5FthtNRVx9B5tl959NxltBphNJNpVFFd1NVjLBlZ9Nd9MBBNdRxcBxlthtZ19BZFdlp1R1Ndx9BdBpFplNdBh1hZJhRVRxVhBJ9hlZtpFBVP7D9d519Vhg8oJR5xxZp1JRZRp1h5NZ9xVd1xBdpFlBxJdp5tBdxVNlNldJl9BBhFpNVhFNttf/P9dlF4k4EwkpQswlY991R959d5hBZ1ZRBFh5BlZ5Fx1xRN9dNFRJ9lxNlhtB5ZZJxhZFNN5rHf+NR0oA4x1M1g0RYRxpYUZ59Z9dJldNVZpN5BNNZ9pFZ5ZtZtZh1RZZ5RtZdthxJNBNBVd9jfyy7hRxlUStHoccJUx41sYNtRBFlWrVoXx5xpx9dbprtD+uhRtNxVlt5pAklBxJxhJF1ZdZlXPD/DhV1NUkxEE8ck8s8scNZRtRhB9Fh9hpxdVVNR55hrxpF5Blpx5JZhIoM0FBFZpt95t5Rh/NVxDHt95kEBsAU8ooAAgxF95xhVVdB1ZJNNN5phBl1FNpBp9N555d1J48kUNJQcchJhdlZFRRtBBrHDHdmII8AU84gYgQ0xB9pphNZ5h199p9RBJpZJpJBt95J1RJNpRgEgYNZcg4R9xFpF5ZD1lB7vXfqkgwQscYohsEcwQFRFhM4A0EgsMhFRJ5RtZpRhddl5p19tgw4goE4Q0AYgNB9NVFBV99xzrGyyQU0sEQEgs08Ics9UEkHKNgM48EZdx9t9BRJh5hd9NYwVsolQgcs8s4ocw0BFlBV5Db3zqKKT/NVPrblFV7Flkco08sIriVJ1mpFlx1ZF9h1FJNBdtx9cpAUk0ocgkAUcUEB515QFljzLDGCma/8AWEtjmAIL0g0yCgbEDNsPJHEIHJEYVeXdROSQaffQdbZNDPEPKONGFOOGHVbBLPSSx+w1qlrc6ZXbf89W/wAMeWMFXCxSxBRRySBDCyiAh1jgDwW0yyAnWAiAjyjByxiDQzgCQgywTkt8sJ7L+spYBgR64b6Z6AApi4CjyO1BbiTzDYzyGWmwQEBBQzRAASQgAzQARhjBwBDizrbhyCipPswabcPbazwwgTcwgTDACiRwTizGxESxjhizQYgDQCzwBTRiRTgxCQjRQxQhwDTCjzDz4wBw77L7stcp6h6wizjdK5ZDwzhArbgyQyjhgAhDzAiAhhQRjyCSDzSjjxwgDBTyBRxyhjSiD6RizIoY6tPPsdjQjggAWKtaSjjAJJJwnT32CAS0RyDyzwjBjDgQTwSQggQAjCjTTQjgijCQyShxSi5oo75LfZtzAyCCBwxO74iRo6aZPPQzgX3TsTHkgBBgCQRgSRCRTiDzgCDwiQwyRiRwAyACjBCL64NJLtJfwwwSjCBUeLKQ77L45vkWW31CCRDmSiRQAgyxSACjzjzjxTyTjjxiBTjSywxwTwhBoY744Ks4dqBBgRQxjmyxT7ILb6sMhTiRgQDCxCw64DCzhCAiDwgxjDDBAAwyBgxwRhCAiDoDLoJY6ap/doYg6wxxiBTEDjK46IuvY1B3VyUmS64LI7yzSSCSQBzRTRDhRhwyiwiTgAzEQy4J77L447ZY7P8AO+amOYU48gMIauqvfa2rQMU0heReeOqqYo0s4M80owYQ4kIQAsssMws84gI8KEme2+yO22++SHzjXv7Blxo4Y4gyXzTb1w0sgoJYSKGS+AAAE80I8EUEWKIQUkYAU4AMQoMoYqU2yPfP/Wq26mjwy/zf2jJpwU4KSHHrmYlgwAE0YAoWKasAAsmwo4QkEI0kwkME0k0cIowsT7KWef8A6zwyluvjk880ohwVNGKPANqpz5+a50DfEe29PusgmDLFCEEGCGIGMONNCOBKEPJPBLJphnguwz6fTjhlikuomgrDBHINMIPIIOg2hJ/DCILDtIDoCFKHDIENPNLIDDCALKAEPHIKKLFCpgsshj/bTcqlkspvqpMJAEIHAAPHLOELBiNJDBFINCLCqqBAKMNPNJBLDAHoCGPABNEACDDBrkhh1v8A/wBNxGqS+emOmGGYcoEc0gw88oY0kIEcwEAckIQuMYcs40KMwYg4hcgU8U44cAI0Y46ie2K62G/9tDS27CWemWmC0+o8oEsAEAc88AkIgIwIg044eEMc48e2ykMY88cc00IEsAIEI8Iqm6eeuPvHxhMmCv8AigsgnquPqELEIAEEKJKHLHPDCFOIOKAoIMIDEvqiBNKBFDNPAMFPMOBGAmqquvtvqjyWPdtqkkrinvgrqkvJPAMNIJAGIKFEKGMJFBDNENAAKBNogJMBICFFLGMOIMPCnvnsqptpmgo3YDoljjlphniqusgnnMGBJCDDLEIIBLCHACqkKjy1PEIPrgJPGEJBDNOoUpsunupiqkkz9pmyUegUhjmgngtvnorionsBKGCPFGNLDONPKFphjzz2wqKMNsnqCPh08z46k2pnjmlj6637xygl4wavkol7ytulmvmsjvmDhDGIX24XlAMNCHPtsx544/8AgpZZI4oZe8vN/wDPKSKOua+bD3jjXuWTpFex/8QAAv/aAAwDAQACAAMAAAAQj/PH9kEtdB1AnBFt84AogBY08wABUgQo1IVM4kNkNtNdNBdfdxJhNUwhjld1rO6vDX7z7n6KMbrDXGii1tYEg8EgEEcwshNNsEsRNEYgE0gJkAcRNZtxZJVlZxxxR1dV97p5VLjKbTvvXLj7SCzHfKeYANAUgFNVx15L4pBpoMdlE+vFdN8oBdtcYQoAJ9/tdx1J5pBpBFBdxN1lAiQ8MsrPbDPfzC7j5xhR15NxBtrXbf5tZJthxkoMBljMxxMY8c0IwVhYRpd5BxtcEhN1xtBV0dlxNcEhw4fyPTCRp5R9d9ddf7rD73LjchRhx94EoW5fdxA59QwU04Zp+AxpiuOpo8JJFhlZ0co0tNdxxxsnO/7C2hZpd5d59vn3fbfzvX05EzCyS2uyvyVokwUAUEYxdXhoBvq+8s04BhxFBQs9kNV99h1yvOfCGBxZlJlBJNnfaT3/AL9x8UnTjkoP4Gu1rlm2Zx766BLErEjmenirGOMRHSJNbPeXwe44EQqwzwiJZXWMtSubX70xyt4rk5lpM3okrrRozbNS9Y3y4a+fEiIuWLD14wKZweFWSZcRbRV/VJPKzwr0LDUzABZ3qDq6plSBaCs6Xe46Uxy4TU454w4+6x88zc8/xe6yw7yVV1UaTWXYbURWz25XJcV7qTAVwE0G1Mg6t7ny7vnp/wDsNfdcnGMEu/sr6yowwSZrsec2uHf2VUONl2mllFFVmE2kvVAUMYjV2G3xUXibYg3VjywyStGHl9FFEI4RuW30vnI7+ld8tvPddNf/AH77X/LJZZV5FxAoo1txlJzt1F9BMK+Vkk9thVhEIAIccYN5dPpeiAJhFF55hlzfb/8A94yx4z60/wDMutc9VcXGA2FTS2kES88E3Hkz7p4azQDQTiBQChyQjDSRw/t/sz2m0UGWuWscs+//APvDn7XT/r3777HTBxZZ5hd911kfPpJxBgk4IAUYUoMYMUEMsqk880oAw9xIDNNJRcVZ7uGCe+27SD+Tj7vLLHnzz45F880xgZpg1Pt1BUYEAks2soElRXfGII2m2cA0Mgo/HbpM2vHs0MqW2GfmLL247XOf/fHW+Cst9UEYYU8RNs9s1ZsO8KdpbUoZf37PJ90HWVh8AAAh17jRcFsU9ijbbO3e2/juby42Tv3HCwsUs9088I0ltVUxkpNuoEiAk0gfPM0s68iR1GXo84SROdWHbHUy672eGeya2yiXyiy+bfz6yg5y8cMoMwUwpNlK+w4hWV8Eckq2S0gIJtVp5Bt8cK4qFXTbv9aGaaDLFY9znWf6y+/r8MUcuGTVPcQBg4gwtVl4+/A8CBRFVFdOyCtw0ssoKcsBQ4ikctNbLnfmOIsvLNuiR2UZiW5frAUsq4yu7fWl5BghJRV5ID/odCdNh0N9vmz2a18oAg0CQwlYIZ555T/fvnOo/H7hlFfR+zAP3k0ir2UK+6/z11hUBFxRxEyD8so510415uospDCkE5kU+qEwQkc1FrLTprpKDDz/AFzsb03o678y92ovhl38zw01/YORYYQXbgLUNG9wGFMNljKGHPVIhbKBauICBtUdzw9axdrbcSXx5uU0n7656vyo2sk795mr2VbZfdbaQKAcYQQdGJEFIgrBNGMJdOTCmENLNHIGz72wS951CRfMRnxgGi1y82s59+/mU2c2f+fVbcTMWPLDOedSmiANNMsGPBHOAMAVBNqFGMLkAzy+6/y83/241905d5z051y4vz9kviu7Zf8AxkFG3n3iWU3HWGxARBjBApjwBCSQCwSDiDQA2p7vft/OvFtJ8susOfKo5JyJII4KoYqJJX2H0GW333UmQncJXlFQCjrzwDZjCySCDyShCqBREWIr8O39ucG96dd8/POcqi8ZTJo5pZ1NifwJoZPEkVnnkCmvIX0kJw1nyhjvVnly2xlej7mlUpkKZ7ohZSro5r4ptsvat9ji7cTtIqMr1zwijW7ZIgnVGFj0XCGEnFWlnhTkMivDdDwXNCIGAdP1qvNkAxRcw4neb9ZM6Kaa7pra6Kb5qKZYi66IDCTQxGFhkQPz1gLiX0C9FlUlV5iQAwwn/wB3OXaOmCwqktpdFsnSmy+q7zWls3uKr36+yTubWmuisYE0w0thAVBEqEEI4cUQgmUAc40KkOc8s0UGiiBRNsuGeuO22eCquuj+Hgj9OboF0ZPYt0gQwrNIEtw9Nx9NQAMOAMKWMqckowoEWs6skaIo6kpBLPEK2mCia3uGwOh8Uu2K10OIEIgiuwM4KAsEQoOw9R/1lFY4UoyW626ugawiw6SIqmuSur3LXfTrnbKWS2WOiavBu+uoGZi88u222yGueO6SUhZ/w15P1FxokUuEsVwQCs6JW1KjH2GKe6fXe2zfHPveWe6iHWQBRUUvFCxtIsWq6KiX1S26eM1xh81d+dRVJo4sV6Rl+j/KxJV+bfzmG+A4Haa6nn37Su/6OL9KEpUuW2mRrHTfrvLrTHy+ui5BRB0J3yhNhJ9FFgQpPNLnH575jXbjvXvtjFaqqCjTvnb/AO929cyQY9e8WST71y3208326529tz8whNc/zQcebWbbTSY02x6T788zvEewx5/mCu6nl+1zw6/+y80Vwc926cx2zzw7z3671w3yw7z/AGpwnfN3EHEVnl3XDO2Vm+GNWnBp1GME4qwTbwam2VW0k8ddUt93ceOkuGM/8Ou+Of8A7njzmTLfjlM99dpJ5N995Lz5rtZoXp1Prp3TXxrVJ9VzzXT9HfbzNus7p5rJ5Z/Blp9V5HL/AB074x8+9x7XaCccVafSeReacWw53zb0YZZSZeaW4V/x83wyW7VRy914/wBM0f30GysntH9Bwdf+cOufe+cv+0wzM8Uk2mn29G2Fvsv0ywgPfFXGkHOM3tWEVPW1W3M+dednnXsnMWWkU9VNn3e/t8Osvd/8u1U3wPOn1EEH18WNbTuFs6TbsPM1ElGmf3WFHH1FEcVF2EuNHU1GWmUXMUXEdvH3/vevvcOOvsNvnjoLEEmXvsskMT9keMxJIc/sOXF82km0kk33nEH90102F3m3lE0mFF3GWfBzEI++t+3dknf+uVOfMV3FXVk3HnWuOdvePMtk+umVN+vneEEWPcEMEm31XGkltmv2N9u0N0lixmXucP8ARhx977Xhvfz5BhtRBVpFpRJnTr7jbNXHrh39tVDNN1BpVftJ9LjfxFnJ7TPfTBTXzWDfvfV5ZRdt1bJb0/jzRV9lpF9115xxrvDHHTl/fr1lx/hbR1lJJBDPH/LH/fPTpTLzxXzz7znz3LtFl1r3xbP5R5iC8JRhpST71y95PbXP3j77fvLP9hrPXr77/Lz/AB9p05/z84z/ANM8eces8v8AHXLxt1fr3THblVJ+Kxd5hJP/ABsTwacZ8s57/wDf/tsv8dccPd9vOu+ts4547sp65twtP+f+3v8AHbjVlRJrvjTPvFpzD39pZ1ZVNcMe5jZ153PrD7bHdrbnjHPKIFXt3tfVoYKYYwE/sZF/VVtLRJXDzFldRBbfJDhJT7iMdlFsSqYImtKotteHPh9lJZZtplvBp1xj8RUbBMogE8Y1Lk5tV1RtllLPp3d1VVNdFZtR13HuPpRAESzWpUhwMswawec01JVR1xTDbV7dncpIHPHAlV7XJXVdFN1dlRTP7RPNBBBFVhxNpVbCDDHV1xlmNjg7XiOTGnKWY95h1Brc57+VzDTlUDDx7RT9cQH9XNdZ9RljiWJVB9NVBh9pVlBzrCyXtFB36eNu3PfDvmeW+xlhhtdfHjHTfLHTRh7dbh/1nTLPL/RRlpFBC2ew9hR9pF5FZ5BdvtdBXzB9tU0RIMugCuu+m9t9p5lNzfjDfPnfZLNxVttjT3TfX1BpZBhdQq6mjfksABd11ttBlxtRB7zLHh8CYgwsQK6me6w9N19JVPLzf3TzHtvJphdR/PDbjLBvFxdZlI+62xX4McFR5F9JtRDxpxbnXfqaam8sA8GgV4o0UZdZh8saSDBuC3tthZJddTzzjTblDV9dOkyeU8Ug4QgQJd1VB5pBJRBnHKOiIQY0kFk1Ec44wMp4UYXPzdMA1BptNl1lBZtrBDBZliYtESx0kEQgEEEgAUFt9xd5/wC1/uqp1rqEK/65QPa4JZIFfMBGVtkScW5MIcYSfXW1WUUYcYRa9BfKPEPKPJOALMDCUYYYNcc/y/ytk+H1N2873fWPs/h7TjSDJM1PEFAJLBLXbSfZaPR3aaWSUXUIDPGHEGONAIOJLacMCCSS10z+sy4/6GsbQ02bzzm+a/JePINQDLbJJOCcBcGmYANAIeXEIMSUPABCCIIPOIEAECKEEAIBW73/AKKdrT7+fuu+vOKvpxyYz7QDXpCkNhVVQ+HYHG3yQUqZD6YwJyDyRTKKRhgCBCDhxbqRABD7/wDwzrnkeGbBbRh+NRFYkwYYA4pAFBNEVl0NINTEwc8y+OSEMokMUc04wYA8Qk8MMAI44OM4Iyeu+X3Kcbo8efbTSHvWg0MMQCCEBJBwEsk40UM8oQ6Im6g4EasqcMUgAEAgksIkgcEcUI2UkYyqW+6nKv6RmQ3Ff47mmU8McyyuNAxxFFgQV0RgwYckoiwA2YWgSoAgQoIAMAU8a/2HO84J94IWKiOrLC6vxTjP3v7Mnr2Y0aOebb6gE4s00357QAg8E0CqUCIqiGo4QIcwEQCgec+D791tNtMYmOGDq/viaBZhvJtZ17+T5/DK3vS4MdgwBUh40RxFZgwokoMlKEUpRBw1Y6o84gNBlXt5FtRxQuKmyu3W+Jnr9jl33amcR1zTDzjCSB1Bp9lIZtNN/vN5FMIddJJxlZBZFZJYg0JN95NJRNlX9za62yXzmP8AO8c5cTXWePXcf/x7wr2rANcJRCNP7z74yGTSEA+YZVSZfVbdbTAEONXQTYFeb844x01/5zz1tj/667zYSfTUeR418ql+66TbCblu+n8yyzaX/slqKi1RQTWSQ+6vlljLDdbQYc9Rz481w25x197o56mwtEcIfURdU8gj6rIUcz9/cQy+xw0fAGjvrOlCNayxbeDDFGPDJJbWXYVwS90lkjo6618yI0aNYS4vRHfRT17hzg0UBb8m+WVaZ9z/AGDzbBKQ4VmVlUF2PtxIldfWUW37Y+tOrbp/MN/vO/LKJo8rTlVlQBDeeIIfjZpHzwVZ41PvO9jDihwFzSnEEVnkmHVGlGUwn3WU+/ucfIM3/OeufNMN+NMOknRiT0GyFmXNNvGLBj1zBHEm+13GUhwkEnXE03m3SG13FEkEhlF2kO9d/Os560yMMtPtMPshnHyRzXywX302V2611W1wiTi2i/8ABNIAgZHddNNRhjNsWXBBxJ0dFpbzzTKXG8uEwbDPTb3bGmLEgc4xEV5FsZ99MpFFwRMkJlNrB99B8IiI1tRJ0tNcIVZdlRpwwFz3LjbL3HMdt/fb6H7H/wA5svM7TEBIfYDGPFDBZRQfLDNddfwXAOFHjrrFcTbSeCFNaXYdeCJTZ65z123svURcLw4sw13hoptDiXLWHDWddaUXSUUefRcdeaQ8daNREvpqKRQebZRPAWefcceSW+wz/wD88MtAXwzP+s/sNerZJ6oYBxigyBkUHU0UlUGQFl31Xmk0kQgSJpQjAU3mk1k0m1lGlNN/Pfstv8ONyXT8usMGeMPfKpaJ46gxzBw2U13XGWVn3XWdOVv5LXlmGdOxAykEXEHGPSet+MM8Ms8c4Jufoo2bLd+u/OsPvY4IYaraiiRkEUUmF1VE330s+do7aaclXlPvvHF/6roooN6u9vsM8JIJpYau/wAgBkytFeuBZlzvu2CWKIyYFNwWuM7RtxNtJbrC+PyvKJzrXbTr/OCmuaWuP/fbLnTIaG6ayLHMgE4N/8QALxEAAQMCAwgCAQUAAwAAAAAAAQACERAxEiFBAyAwMkBQYHFRgSITQmFwcjOQof/aAAgBAgEBPwD/AKBD4WKFRuxxBw47WTuzSVKlAqd/VCKa9Br2c+CR4QL0P9KQVhPUFfK+FpwjQ0nrzyhRCOZUKAoUIbgR5inceKR2t/7PSuURBO4TutCdzFPs2o7y+49BNuE7mPvgtTuYp1hxQCUREZg1Ha33b/lM5gjc8EXTuco8n3vjeZM5JzTkRllNQEDhLgnNGEQMzRoBFqRQCURBpGSAgj2nM/I56rCcMotzhEEV2bMRTmx0+0u3/IWz5lrSd9t0/nKPJ98aT81aQDmnOlxKxumaFzcAaB738WUQpKxFA3QfGixGux2n6bwVtH43Yo6faXHoJmvqsboo262nOUeUe+zHpn3HpNs71vQtatT+co/8f3xQsIi9ACd2D2d/7fSbyv8AXBCCfzI8g98Zo+bIxhHymmGGLyokkhPjFXYkY2yNUS2TA7M+7fSbZ3rhBbTm+gjy7h6EEgyOzvuPSZyu9cILac30jyfffH8ybyv9cILaXHoI8n3085dkbcI3Kbyu9cN9x6Q5HdNqVGSHFHTNuEblN5Xetwb7tELO9VCNdaz1p6E3rmjBzmFIAIB4ZExCsDO/ChRSOCGkpzSLjsxBgKD8IAlFrhccG5EojNMEvaP5Rbm5DZy/DOsBFhBKDBMH5hRLWidUGSCSYgwmtb+QI0NGML3ABEQSOE0kJ2lAJICIgoNkJzSKASiIgg0FAiCEFCgothxCgqCDBUGYRFACbBOa5sSOKLpwIY2flF2aDiDITnyAAIHB2mRHoUBIMhY75DNF7i6dUHuGqxGZQeQg6JkTN1jBa6RmTRrsJB4YIFwseYyyiIo12EzqnEEkhBxRe0loNgnluUJsSJTy0nJaIUDv4RMmaEiFiBwzoVjnFOqxIu/OUxwbOh+USMP3TZbTAZT9oXmXX6GOCSTc97CwmYq1kiZXzujrygo64ZFP2mydsvxAxkflVl7wnObidAuEKNALH/ITZg5gIXTgJQaSJCe0ANOpuKNiRK2rfyLhymyuNEFqg0kwR0AIT5nNBOEOLDGQTW4qCEDs/wBBwz5gj2UEBrs8yI3BQnIDek/KMSYtxwR8JzyZoXEmSdyco6wbw348CbcK5REULCGtJBzUINcQSAoPwoKhQiwhObAmaBpLSfioRuatEnchQaBpKgzCIIMFapzS10HtLW/mIsSnc7vaJlH/AFKfJawi2GEHbPPPPDATNq1sEaM/9Kx4mwSMULEwNaLkSiWlom6aQAc/pFzCCZzMJ8SADkjGgTXwxzTqEBJRWyLWuBOhsncxMzKnKIQORC2Zgu9FYThmM5RABaRFgEXMc5wgfx9KAACTJlPMx/kIRhPygJZl85oYTtMzonEkkm6Y6CE8y9x+Se0te5sweODBnuzWkzGgREQgE9paYPgzXkAjQnNFxJJKa7DPwQnvLg2dBEoJoEWkojILZtxPa35K/FwcMIEDIprQYkxKILSQdDxR2I9IEHRGSLiU0kGQpOabtHNspvPZD52PKz/Wx8JPdB0w4J7UNwoLShQUIIjgBFaI8COAOyhHekoFHwAf0gEd/TwkW4M5qaE1B6U9u17qagZdDGc91KHhBQWvRaipvumjiUO1ik0Jnqh20ihCCPgYpNJQPggoUKDNFBG+8d0X4JJxeMDrhc0IQRQRQRWngAvQmkyp3J8TC13giDPjR642Qpr2Ad6ndlAzPaJU9QKEbwbBJ7OfCD4Sf6SPhJ8JNcQ8GNZ8F0qViC//xAA0EQABAwEGBAUEAQMFAAAAAAABAAIREgMQITFBUTBAUGEgIjJgcRNScIFCBCOAU2KQkaH/2gAIAQMBAT8A/wAnh7nGBRucAAEAiBsgFCCcEM0QOrx4witU7JBE4ILRNyTkFgh4x1ebiUCpUouVSBUqbp5Tbqx/AY9yhMZU4CUbPzADXJUmJ4EXsAcQEQJwUdFgqFBUKOQCsvUFgPpY6lBsteJAxRa2ukFQK3YYBQHAH5lU+UlGBCDJYSUWkAFfxHcothEQVZ+oKIJCZn+ioMISjwTyYRMYAIFElBzgpduqnbqp26L37qt+6qduqnbqoqewWmSaATBREFBEReQRoqTt4AgSCqjgqzj3ReSqjJQfGiD4EQpVRiFOEKrLsi7si6Y7KUHColNcBPwg4AN7IGDgU8tLiRzrhkfBioKAKMnRQdioOyx2UG7RMElOPmPymEDzFWlJJIOZyTSQPUFOKnuVImQUTJPVpKk3yVJ3UlSd1J3KqO6k9EII6LPRKjJvqMcyWWQAGuC+k4kwiPY7SZCfair41RNmQQCMk5oBgFFpQBKcxzYn2PXgRAxESgQ2zJb6pUkwCVRLS4HLMXAweUEQURBvgbjpwaTkE80toH7PMDqAJGR6EeRPST0A9JPiaASnNiDoUGTaBqgxMINKc2Bn8otIvgQoKdNRuLSIkKDxDxQAjnkp7BT2CnspGykfapbsvKvL3Xk7ryoAKBKIi4jkgYKc6WtGyFpTaNcNgnPqaBCDh5OyqGu8olsnGZRuwgYovkAaBVNnXEJrm1ScgEHAMYNZMqYaIzJThJJT4a9PpMEbY8qfSO9x8JyuHgEXO9LUArRuRAwjNNiMQUAJRzThFmzuZQsySB2lNsy5OsyI7hQU5pABuAlBk5mLiMJ5OTyoukqeylVHspVRVSqVXYKR9qluxXl7ryxneTJukxE+CvAAjLJC1IMwJiEHuGW0IPwgr6gwgZCFUKYTWtIzTC2CDqi9pBAOkKcIRMtA9xBOIM/+Xw0+yjzx6vZta50EpwFRjLkTyrBU4BPABwMi4CSAiOd0TC0O8yeWlxpy6MCQbtP8DhxWxr+PGtqcBKtGhroB9kAwQnuqcTEf8AIB2vg8sek6LUJyHpTpQbCcgnpud2RTih1zS45ILREooZBDJDAqU6JU4II+IePXh6dDHglSpKkqTdipU/lcTOCcSTjnwoUKFCLSAD1pnqGKtRFo7gssgWtJMSYCoH7iVTLZ2zTW446NlQSz9otkSPhPs2tbIORgqBT36c1pJgIgA5yg0lUlUHsqO4VPcKn/AHBQN0AN0LNn+ojZgYzIVI0PAJiwYYxDivqGmI/aDyGkQEHmoFViCAM19XLDIyUXHHuUHEAgajp1j6v0UwYokk5+NnquZmfg3OEgO7wbgybNzvCLQfTcwjMgjqtjg9qmHIjFYqEAPuChv3Lyryd0yidcl5e6s6ZXlnVOdIgCAmug5AovdjjxQ0kwLoRz6Uz1BWoi0d88BmvxczP9Hghk2T37QmgE4mEYnOVZNZS6cTQYuAkxMJwg5g3WEB7SdTAu/pWWRJqcJDSrUEPd89KbmFambR/zwG6/F1nn+jwRaOAjCNkHRoETimvLSY1BFwMaSiZuBIuBImNUST0dmYRg1iMskFZN/l/0EZngNyd8XM1PbrlRmbgrYSQ7ccBuvxcMGu4AWmVzRJgJ7C0ifA1jnDAXY9MCtPSz98But38DwGgkwE4B1m1rdCZTcjiE0GcE84gbCEE4AG5hIbJyGXygrJlk6xc4EV0kQnNIMHpYVp6GcButx9HAkqTcHEZFFxccUCRkiSczcbZ+Wm11TspWPTH+hvyeAzO4+kcjB5Y8x6rOJxB4AJBVQ+1F0xwAnAi5oBzMJzaTF4BKIIMFNYXGB7AYAc8laGsBwgQIhOJLfUmAl0iMFaRUYMokUxJuElWmIa/LSPhWLrIWTi7BxEAyngB0Dp5kXR5J8AaSYCIIMHkAU573RJ8Z6TZRW2d08yGk6EpwGgTY+m4EY4IMBLRGEShApaciEQDiBsn/ANuKTjKNJtDKeGgDEE9uHHEPSZUlSg8go2jzrCkzMoOcMiiSTieEERBNzGF3xqnhogjVQbmtqIC+li3GQVa2Js7NpIglxHsCzEEOdkCrRuJdOZQPkzCsXNAeCYkJxFLUJg+eBcxwa4FVYAbFP/qq7BjCJcNT0YfiI/gQeyQv37ICj2QFB9kBUFf/xABHEAABAwAIBAUCBAQEBQMEAgMBAAIRAxASICExQVEiQmFxBBMyUoFAkSMzYqEUcrHBMENTgiQ0RHOSY4PwUGDR4RWicIDx/9oACAEBAAE/Av8A/b+0FaG6tDdSN1I3UhSP/wDBJUKLkBQNlZGysjZWQrIUBWQrAVkKyrPUqz1UdVHVQd1B3UHdQd1juuLdYriXEuJcS4lJ2UnZSdlJ2Vrop6FSpVoK0FaG6kKQpH/3Gcv/AKZAUBWRsoCsjZWQrIUBQoUKOqjqsd1jusVisVxLFS7ZSdlJ2UnZT0KtdFaVoK0FIUhSsPrzVN6frjl/9lwoCgbKArIVkKyo6qOqjqoKx3WK4lxKX7KTspPtUnZWuhUqQrQVobqQpG6m8cqt0MrhyK6VDO6Voh9K7L/7kgKAoCsobVQd1HVQd1jusVxLFYrHZY7L4Xwp6K0pVoLBYbrBSPpCmnT/AO5zotb+ovm7AUBen6SFHVQd1B3UHdQd1B3UHdcW64t1xbrFcS4lxLi6Li6LiXF0XFsuJcS4tlJ2XFspOyk7KT7VJ2UnZT0KnorXQq0pCtBWgrQ3UhTVP/152i1vnMXzfdl9JKtBWgrQUq0FaCtBWm7qQrQ3UhSFIUjdSN1IUhSFKkLCuf8AHgKFAUBWQrKhQo6qz1UdVB3UHdcW6xWK4liuJcWyk7KTspOyk7KeilSpVoKQrQUhSP8A6A7Tutb5zF9192RQy+iJQGtZ0uc12KoCACgKBsiBCgbKyNlA2UDDBWRsrI2VkbKBKshWQrIQAVlR1UdV8qDuoO6x3XEuLouLopcsdljssdlJ2U9FKtdFaVpWgrQUhSFIUiqf8WFCgKArIVkKFCjqvlY7qDusVxLiWKxWKxU9FPRSpVpSFaCtDdSpFzM/4G181yprfkfo3ZIVnS5zXBmbjcqzlcOlwZ3BrcGQrNw5i5qbjcqzlVgoRGShQFAUYqyFChAKFHVfKx3WO6xWK4lisVJUlY7KeinpVPRSpVoKQpCkf4MVwoCgKyK4UdVjusVisViuLZSdlPRT0VropUq0FKkb1T1VsqS76N2SGVZ0UhSKua4NbgyrccFNZ0ua3BrcGQrdlc1FzU3BlWcrh0ua3BlWcrmouDWsrSva5GJUBQFZGygKyFAUZKyo6qOqx3WO64t1isVisdlJ2U9FPRSpClSFIUirC9FUKyNlZG30jsqvhPJVoqVaQJAxC8zFAqUXK3ig9SrSBwUolOxCBhB8qU52StJr1IVoAoPCtBWggQpCwqGVZuHMXNTcblWcrh0uam4K3ZXNRcGtwVnS5qbgyFeoub1nK5rcFZUKArIUBWQrPdR1UdVB3UHdYriXF0U/RuyWgrdmhGZVgs4w+SSnZFaqiogHvfmSipQAQs1TipwTXYpxgKQjEppqccbjvUmmsHPugoRChQoRyUBQoUYhQo6qDusVisVihksVijMLFY7LGqei+FK1KlSFKCmoxFzUXBrf2uC4Kzpc3rOSFetwZVm+bmtbt/ozkhUU4lUzuEN3KHEeiPpXMmZJ6ttmLQmoKZaauUVO9KJhNpWvydKaVIhFTgUHJuS1qBhBAZr0iYlNdaAI1WiGVbrlDSBzXPyFpyoqTzAXaTU6mAcWhpcdgqOktl2BBGhqNLRh1kvE1UVqxiay7hKa4OEgzXtcpKRweGMEuInsrVPR4vskaxpXIAkoVECE6y0ScAsFC1CiqKoUVCr5XysVisVKxWKxqlStlKlStSpqOVzUXBWbg1rNzWt2SGX0RyQrcE4mleNpVAItM1anua1pLjAVEDSUppSMNEyF4nxAHAzF39E/wdmicSeLNULrTAelQGCOC8Lxec7QuVI9zHUeGBMIjBeIgUblQPo2BxdM7QvDy+kfSaZBBUlLxWaPicm0L6ZzpccM1S+HNC23RvKoC40TC7MhUtKKLHXQKhd5TnMpMC8yKqMoOz7oJhkZVDSs16HsvDUDKSjo3OJjHhVI0eHpKN7PS50OCPCCdgvCj8Bh1diflU7iyloyMy4A9k82WPds0n7LwjWPoJc0GSZUijZ0AVG/8EPIjCVR0Xni3SOOOQGi8I58UjHGTRuiVT/iU7KKcALTlSuFDROc1vwmmQDuFKnK5QY+J8U7s1Uwc6jcG51UniKKjdZJx2CZRUZNs8U5TUyntvhrSRunva1uKMUrXMc0iRqvDkmjg5twKdTMbhM9sU1wfZIOCJAElNp6NzgJzyqdSsY6Ccdk0giRUHteDZKGVZ0uam4Kzpc1r0K0UBQFChQoq+ViisVisVrVKOSlSFK1rOSGX0RyQlYrFUoIaTGSoGCmdSfyprfFMpnehziMV/DOfjSuk6RkFR0vlDy6QQQrb6U2aL5KpfD+UxjmNmy6T1TvFMpG2WNJJwXgwbDm6tcohHxQmzRsLz0X8PTUmNKQB7Amk+Hc9pYS0mQURTeJabLIAylfxgIxo3WtQhR0j4fSCIyarEtLS3NMb4ugFjyhSN0KLPE0oggUbf3TKFtHAa1N83wxe3yi5jjIIRFLTACwWt6pj6ahbYdQl3tIVlwPm0me2ypQ+loZfDdQqGie9gcaR6oaLy59WO6ClWv0lTOhU4ZK0gU4q0razBG4XgvyWjYkLxLC8UQH+oJ7IwQQdVR+IbRsFHSAhzcMs07zC+ipjRmy05a903jZiIleBkUbmHNj140nyD3CPH4Y2dWYLwY/4dk7n+q8FP4zjmaTFUodReINNZtNcyD0UnxDogijGaoWPo22S6QMqpxFyh4fFeJbvDqjSNFvdokrwmNCKQ+p0yVS0hb5LGHEv/ZDNeB/LpP+4VT/AJ/hu5RxQc614xzNAI7heHo7VCPxTjmE1rWBrWjALxJmloKPlecfheMwZRuj00jVgSvCcXm02rnYdgg4jxHlgcIZPyVEghcfh2e5g+4TCC1pGoqtQibmpuDKs6XNb50uDWs5XNa9LmqgKAiBCGQ+idkhlWVRQzxdMz3AEKi4qWlpOsD4qIaSJAPeslrROAXnH+Lf5GNtfwz6TGmpJ/SMk1rWCGtgVNGFbsrmouQDMo+CoJmD91YFQuDKs1RVrVAUDZalQoRaCIOSAwChR1RndYqFHVRjmsVisVTUJe5rmuh7civ+MOEMHVMog1pGc59U2gpWCyylhvZfwzS3rM2tU22AJxKoqLymlo3lUtF5oaZhzTgVHiTm5vcJjQwQ0J1HRnNn2wTA1kANVJRCkpKJ/sVMzzKMt+ya4wLWaayloy4UcFpOuiommhp3WiXWmjHqrQT6Nz5FuG/umwxjWjIBWgsKpWG9WqmooVnSuVrcGVyf8LW5IrOdehQyH0TskMqzoqWgoqWLQyTWtaAGjCrWtobTPfaxDXRZVKB/F+HDQMLjfSK3ZXNrmpuD+9ZyQyrNzmFwZm4K3ZXNRc1NwZVkYXNRcGZvRXChcxUBQrKAwVlQsViuLdYrGVJWNyeilE9FKlbq0rQqlTVrWUFKlFSplFNy+idktKzpc1rf4fj8xj7DteqoaGy5z3OtP3uNyFZyuai5qbguCs/3uai4MzcGVZyubXBmbgyrOVzUXNTcGQrNzW4Mqzc1uDKtyE1jM1xgoChY1EKDusbmqkrFSm5fROyUdVHVR1Xyo6qOqjqtVHVfNQ1UHdR1WO6Exmsd6jV8rFair5WKxWKxWO6xWKxWKxWKx2RnZY7LHZT0WoUqVNUqQpQiKzlc2uam4Mqzlc1Fwa3BlWbnN8XBlW65rcGVZvm5rcGVZzUVty+idkvE05orAGZTXeOP+Sz7qlpPLo7VnHbqm0lO2lYymA4souc3xcGtwZCs3OYXN7grOSGVZuc1wZm4MqzlVAVkKMlCgKFGJUKFCGVZqhfNWO6xWKxkrFYrGrG9rVKlAqVKNzW4Mqzc1NZua3BlXrcbl9E7JePH4LTs5Np6elixQwDzOT6MOAnQyqU2/F0LPbxFEAgg5FMYGNDRkKua43W4MhWbmouam4KzkhW7+9zm+LgzNwZCs5XDmLgzNwHBTUcrmouam4Mqzpc1uDKs1QoUYqFChAKFFWKxWKxWNyei+FrXKBUi8MvonZLxn/LP+FQmaGi/kCpHto2FxyC8MwwaV3qpDPYJwlpE5hMbYaBanrVzKaxcGVZuai5qbgrOSFZ0ucwuDW4Mqzlc1FzUqa2ZVnK5qLgzKmsHAVm5zXBlW4i5rcGVZuYSb+twV4KAoChNy+idknMa5paRgU1jWgADJUvgxSvkvgaAJvhbJFqmc4bKAoCgLCVAUBQEAP3VkKBsoCgKAoCICgKArIUKyFAUKMSoUKFCjqo6r5Xysd1jujKxWKxWMrFcWyk7LGTgsdlJ2U9EDhkp6KUThkVKtK0i7EK0F5jN1bZ7gpEnFW2jVWhupQdCtA5FWhuEXCFKtN9wUqRIub3NKzW2ka/0la1TUMqzlc5rgyrNzW7NRzFwX25fROyuHMXOY3G1nJDIVn+9zmFzU3G1lCs3Oa4MzcGVZyuairxAkUbfc8IN8qlscjvSqUxRvPZQqN1poNQyqw2qwUDZQFAkYKAoCgIaqFC+VGGajqo6ozusVTz5cTmQPuqRkC0MC1QQVisZWKEqSrRlSpOytKeinFT0UqUHdFKlEqVKlA439QjVKCwqOlxv0TrhzFzmNxtZyQrNzmFwZm4KzkhWdO9zm+LgzNwZCs5XDmKvEZ0H/cC8VhRg7PC8QPwqb4TMWsPQLw/od/OU6laDGPU90PSmGkcSYFmYVI6yBAknJO82iLbbgWkx2TyGAlCQOJDFPdZgoZVWmzEoZmrLHZUH5DeyGQrKCp8KOfa4Go2vMG0Y1Uhh9D/NUMqzc5rgrNUKFGKhQoUKKsd1B3WKxQlYri2WKnop7qQm5fROqnop6KcQpUqVOJTqZoMYk7BeZS/6X7rzo9bHN/dA4K0FIUiFIhWgrQRIVoK0FaG6kSMVPVSKtTcCLmjMgVHK4dO9zmHa4NbgyFZyuairxUWGn9YXi6Iiic4vJKpmyymjZUYtUNHBjAfsqEUlmlhwwJnBUNHNGwkzrCM+XG+C8PjQt+Vn4nsxU7QaF8oiaSgadrRUSCF4c2qPsYTsadg0aJNVK6xRuKY3jZZyaMT1RDnl8GA3+qozbY124VN+TSdo+6sw2NgqMGlFozZ5R/dCMgckwzSvl3pwDf7o6VUoJongbJhpHNbwjLdc1VKOKh/nqo32/SMN6rbbVmcU8wPm5rcFZuaqKxlXrcFZ0uN+idp3ucwqc/Gy0S7+isUpzpY7BFlILX45w6KioaSyH+abR6Lyn/67/wBl5M50lJ90ygIfFp1jvkvJbu//AMl5LN3/APkvKYRIc/8A8kKFkDF/3Xks/V/5LyWbu/8AJGho/wBX3XkM3d915FHu/wC68lu7vuvJZIz+68mi2P3Xk0ex+68mj2P3Xktx4nfdeSdKV37Kw/8A1P2Vl/6PsgKT2s+6YHu4zRtNrLFFjv8ARjs5B1K3B1G49UKRmtodwoUIhHDUoDDMqD7iubPRY7qDusd1isVisUJWKxRlYrFY7LHZYp4tNLYzVKzzKMsyWpVG2wCOqDYdSH3IMpGYNgt6pgdILjlkAmMDLUZEyobbtKnxonKkMUlHSYxEFGmbymTog1zPTjOYO6a2zmcTmpT2h7SEfNLR6QmWRIjBUAiiaO6phNGY7/ZEika8TmP6pvmgNbYGGGeCoR6yfUXYqkEvo4GIOJ6I6V0OTm7OMJ351F3P9KqQfi0Pcqmxs0fuz7KlworDdvsFGHRPoWO0x3Coy7iac2uzuc1wZVm5rcGVetwX2/RO5e9zmqoRwTqcTVT+kj3EBU9L5D2O0OBTPFC1SkYuc+GjomggAEym1ebRf6jPuqDxDGecxz8LXCqGnoqTBjpiv+IZ5pozgQfuqTxBPimMa6ADjXzCs0kU7aPdshDM3BkvDn8Gj7K21z3MkyFJa4sJmRLUfyz/ACqixomH9Iqdp3Ua7KjdbYHVc47XDTUYcRM9sU1wcJCdSNGGJPTFClBTchWcrmouDN1wZVlTXrVgpCDhJUhcNWiw2UDZEBQFAUBWWk46KEWAxOidRg4yQd0GgDVNY1uVQo7IOMknEoNs4BY7rHdYysVxdEC7osYVp+wUlFSpUqVKtLzOiDgpCkLW4L4+idm3vc5vipuBLaqT8yjH605jHiHNleEa9j6N3lWgcJ2qbkoBwK/g/DH/AC15FEzxtizwlkhNYxvpaBX4rw9EKIvDcQqLw1JDaTy7TZyVHBYIbZ6RFXMKqU+JB/DYHDZUr6c09CTRw4ZBNHjS7Gw0a3IkFUPihRBzHgmDhC8JT0bfMdSHie7ZU5mhtt0xCC8P+SztUVSGYo9XLwv5UahxqIk5kYLyD/rPTGWREynMa4Q5CwycgqOwfTivDmaIbjPunAOzVAXFmOmFZyuH1C4M3XG5VnK4TiprGve4CYVoVG5zGq0Fa6IERWbmtchAiFhUbmtwZV6qFCgKFCivFYpv0TswuLdYrFYysVS28HtGLf6LFH/mGdASsV2Cx2XhybB/mKtK0iW5wJjNWwvMbuPuvManPY5sHVNexrQBkF5jV5gVtsrzGrzGrxbX0gonUebHSgd84xVtqttVoIEKlovN8QaNogTJKZQ01E8WKQGjnI5rxL2+U8WgvOnCjBJ3yCowGMa2VI3TzlG6o2WMSZccyn0LSS5rywnOExrWtDRkE9ri5tl0Kz4j/UZ9k0O5nT8IgEQU2joxPAKnUQJtAlrui8p/+qUxoa0AVnK4cxcGZuDKs1EoPU4i4NayhlVKOneuVaxMXBlVKJwuTxKaxlVKNycTcFetwVnS436J2bbnN8XG/wDM0nRgRAOa8tmy8ujHKvDsZ5LDZVlntCst9o+yIbGQ+yjosNhUdFhsFA2CgbBQ216QsNgrLfaPsrDPYF5dHjwheXR+0LyqP2ryaL2oUFH1+6oqJp83P17ryKLY/dU9GxtHwtA4hegbKyNlAmI0VluwVluysN2QAVkKz3UdSgOpVnqVHUo91HVQd18rbFY7rHdY7rGSsVxdFxITClyk9EZXFssdljssZyUnZT0U9ENa5UqVKlSFaC4d0CJOKkKRupCFZrtQtbgyrNVoKRutTXohXqLgrOlxv0TvULnN8XGf8xT9mq0Js1Unof8AylUP5VH/AC1nK4dO9zmuam41eHM0c/qcvM/FFHu2VTttUL+0/ZAyAazp3uc3xcGtwZCs5XDmLhebbmtEn9gnsp+GKXvlFYyFZhOtRwxPVMJc0EiKtRcHN3rOSGVZ0uam4MlARgBYQFgoCgIASoUKEBgo6qT5lgHSSnYWRuYCxUFQag/iLdVKxQlYr4WuSnopU1SFIRKmsfRHMXOb4uR/xLutGnjxDPE0fEHus4aKj/iy/wDEo2hvdU/5NJ2TPQ3tW7K4dO9zm+LgzNzis8Oaon+IYz8m02Tkv4kfxge5rmixCo6VtNRuImMRiqH8mj7Vnl73Ob4uDW4MhWbmouOo5LnNdZdv/wDlMpDNh+D/AOqexrxDghMYoZCs5ImGk7BAyAdwgxxpXWnu6Dohg4y7AalULi9trrhXIaHEq28EW2AAnDH+tRyNwnLvUaRg5hVqbgyFVpoIk5qh/Jo//mtUqUSAcTcbkKmMIfSE6lWfxrWwwRgCVSvijLh0ioZlPog6CMHDIpzHAh4zjELRCs5i4KzVCgJv0RzCshQoUYqOpUdVHVf9UMeQqkoqQ+KoX8rRmsd14j8p2KGSx3WO6MxmsVisd1jgsVisdwsZXF0XF0XF0WOOS4tgpdssdk0nZeHJDXiMnuXiGl3iPDGzritPSqD8oYbqeinojop6FT0U9FOKtdCrXQ/ZWu6DhirQVoK0FabhiFI3VobonBTXqLjnPZSExLOmipqVjvLsOl4eITz/AMRRDo6oZVSiMKvDmaJnTD7J7Gvi0FSNtObQMy5lbAwaxxDcMECCJFRbajo+VScVJR0Y91p3YVPtRwhMtxxQnW+Wz8ptrWPhbLCbPROexuH/APUKiaWtxwxy2WprpJgRqYVgS0MmZxM6KzbDnzvY+EyHtZIzAKbweHa8b5fKd5jGl1q1GYTnE2Wt5sSdgqI+ppMlpTIdS0j9jZHwnEiAMzkmO9YdHCc017HZGU3Ks1U7Syy3kLx8IkuprIyZi7vshrWUK9RcFZuD6I+ptzW5/wBSP5DX4n8r/cEMqnPdasNbJ1TaYOa6eEjQprg4SDWdLnN8XBmbjclQ503/AHTUciqH8pvz/Ws6d7mtwa3BkKyoGyst2UDZRioUKEMzioTqMOiScMio6lRhmoO6sndRGqtD3hUE/jWSI8zD5XFuFR0dicZJzKNE60S2kLZzTWWRAWKpaby8B6j+yonMaPWCTmd6nebpZjYri2RE/wD/AFWSN/utsE5od6mJoDPSyFjsvhT0U9CqRttkfZW32bIonA76IQG2ROUJsNDQNAvLb5djRRSObZMdTumxaefgdgsqd36gP2Qmjc+GkgmcEfzAaQYFsdlwPIaIsDEp7ZLCIwP7IEQpUoohrhBxXiqJjWMsgyXQBKoW0tGXUct3x1TbU4x97mleouCs3B9FzC5qbn/Uj+U10/8AljekCblUKKaem/ELTKPh22HYku3KFK3yy84Rn3TqSmsl7GgNG+qY601p3COlzm+Lg1uNyVD6qf8A7hqceF3Yqg/Jo/5azpc5q5QOalTUMhWcrmouDN1wZCso0VETJo2qAKtbgjas5XNRc3uDIVnTvc1NwRCgKAiFATqJrntdtknMYcwhZXDuoC4d1hChRV81YrFYrFYrHZfC+E36I+oKQpCkbqcSpCmr/qG/ymul/Moe5Tcqi1js2gqka8jhfZTmw5rBxQbTk78bhHp1Kc5xf5VHhAxOyBf5gbgQMyi4BwbqnCQaua4NbjclQ+qn/wC6aqVw8ql6NKbg1vYKTUdO9zW4Ne9wZCs5XNRcGtwZVm5rcH96zkbhzFzU3BlWdO9zU3G5VnS5rcFe1wVm4NfouYVQKtSoCgbKyNlA/iP9qoKSS+jf62/uEKR1JTuom5Tn2TgPOoh0JQGChQERgqBh4nnNxUL+H4nnzHcS8stpQQOGIzVGB5tNjjP7INdacS4xoFJJIaCYPZNMujGQo6o5epfxDpJg+WOZAZ4r5WO6g+5AO3Tn0lG3xDmwYpMUKS0zzARZiVR0j3UTmDN9pzimzZb2C4+i4uixwyWKxWKxlY7LFY7ISsdl8L4QyyXwp6InBSrQVoKRIUhSN1I3WpuDIVm5rcFZyNzUXNTcGQrOlzU3G5Cs6d7nMprGVe1wVm4NfouYXNTcyp/9pXi3PttpRRuaW8xXgA7jdLf1bpw/Ho/5Sm5Cs5XDp3UDYVEUjHFzBIOYTG0pprbmhvCnvDGyU2jdTG1SYN0an0bXtsnLogM1hW3JNow4+IB968RQnw/CykNl+YXh6CmFGXtpWQRjqqLGiZ2rOne5zfFwXBkKzlc1FzUrBQNlA2QAgKAoRChWVCjFAy94xwhaxaUdUB1Xysd0Zir5WK1CxWKxWOKxWKxQlcSx6IzgsVjssdljOSx2WOyk7IdlPRT0RUqVK1qtKUCIUqRVIrFZuDM/Rc4uam5/n0f+5UlEKR1GTk0yqXwbXPtMdYn1BO/5gfyFNyrOVw5i5zfCpKMUjC0qhc+LL2kEfvUM3KkoWPxyd7gmPpBSeW/HqKm5Kj/Mp/5h/RO8NaprZdI2/sn+CoC63iOmioPym/P9azy97nN8XBrcGQrNzmFwZlPk0lm1ZEfdeUA9hZOeOOiMoZCo0jA6yXCUbnN8INIpH4YOgymDifIxJqCc4CJ1MVHJPYTBa6CPsUQSaJ8a4jvVqLm9eiGVZ0uam4MhWbmtwZVnRQFAUBQoUIhQrPVR1Q1+i5lPRSpQzKlSpRP4lF3d/RWwrYQI8+k/lCBwVobq23dFzd1aG6tN3Ctt9wUjDFWm7hT1q5vi4MyqWksD9RyCoaMsBLvU7OoZJn59P/sqeYY7sVR4UbO1Z5e9zm+LguDIVnK4cxcGqNk8JE9EfwS32ExGypnlgB0nFDJEwCdgqKjbSeH4s34k9VROLqITmDB+EQ85Pj4VG95c5rsxVrc4gMBOK8TSA0RHECCNF/EM/V9irZd/lv73NRVJqGtwZCs8ve5qbjcqzpc1uDKs6Xzc1P0XNcGZuP8AXQ/zlSg4OAIyK/6h/wDIEMhWcrh0WCgbKAtVA2UBOhomyT2Xm0WMmO+aoqO07zXD+UKAoCAwQb+PTdmIwBiVT/kUn8qDcs1HdR1K2xKj9RUH3FY7rGc1jusd1xboWt1juuJY9EJhY9FxdEZWKx2WOyxkcKx2Xwp6IHNPlrw+ySIgo2qUiWFrAZx1VM0UjIyxQIUgrw4sUdk6OKY2zanWklMeaMWCHGDpqqO0XupHwMIAUha/FwZLxX/LP+P6pk2G9gjlcnK4Nbgyr1FzU3G5VnS5rcGVUo6XAVIUonC4Mz9FzfFwZm5SZ0X/AHFE4HJeAcfJLTyOhH/mf/bQyFZuHMXOb4uFrX+oAwbjclIFPTSQMGZqmxoaT+Qpji/wRn2H9k0y1p6VnTvc5vi4Ne9wZDtWbmouDM3BkKzc1UdFA2UDZABUlEH0bm7qyERgoUKFGKhQoQ1rKjqVHVR1RGSjqo6qDutTisd1jusd0LUZrHdcW6M7rj3C4uix6LGVisVisVjssdljsp6Keinop6K1+lSrStBWwrQQzP0XP8XBrceJdRj9RR8DQk4uf91QeEY99KCSLBjBMohR01kEngJxTchWcrhzFzm+Lg1uNyCNFR0niX2xMNaqTwVCGOLZEDdUHgw+gtea4TOC8OIoWjaf61nS5zfFwa97gyFZucw7G4NbgyFZuc3xcFbsrnMLg1rORQyrObbmpuDIVnS5qbmlZ0vmqKuY/Rc3wuLouLosUJxXEsVjssfNZho4qTsm0bWve4NMuzU/8ScP8tA9FJ9qk+1E4ZKehU/pKnotsFPQqeinoVOKlWlIQIxUhSFITSIzQI/iH/8AbC4SCFRUXlUVm1KofR/uNWCOY73Ob4uDW4MhWcrnMPm4M3d7gyFZuc3xcFZyucwuDWt3pNw5i5qa5CacBWdLmtzSs3zlVKtLm+i5rgzNwfnf7T/Wv/qT/wBtDIVm5qLnN8XBzd7jcgh/zL/+2P61OiyVRD8JmGisjYKyNgiBhgrDdlZbsoCgSoVkdfurPUqM1HVR3UdUBhmo6r5RmM1jusd1jusZGKxWK4uiE4rHouJYoTGSx2WOyMr4U9FPRa5L4Xwp7qVaCtBEiFaG6tN3CkbqROakKahr3rORuHMXBm64FNR0uDM3BlXtfNc9FzfRD1G4NbjPzn9q/wDqKT/thDIVnK5qLnN8VTU3m73G5Bf9V/7X96qT8t/8pVGeCj/lFZzFzm+Lg173BkKzc1Fze4MhWf73JNr4uDJPcGCTPwmvDhIKOStcZbGQT32LHV0Vc3woULAbIKBsoCIEHBWRsrI2VluygSFwTGEqyNlZCoADbP8A6jlZCgItEINEKK4UKFqVCjqvlCYzUHdR1WO6x3WKx3QndYrFYrFYrFD1fRD1G43Xvcos6U/qj7V/59L/ACBDIVuuai5zXBr3uN9IQP8AxDv+3/ep2RVCfw2KVKOndSpq5vi4Ne6lWlKGQrNzmFUqUM3XG5BSKnf3uc3xcCd6qPun/h0zXaPwPdHJM/P8R/sXi8KNp2eE8hgcTkEx4foflUjgxtopvmD1WfjRNo20zbbh6vT0XhyTRNnNfmEw4gNMd1ItAbp2RTDaBMa4V0s8IGbsF5VGMmBEwMU10mNV4cQKQbUjlOJCBxI2TsivOiDYNnK1W97WRP2TXBwkGsZm4Mq9rgrOVzX6LmKjqo6r5Q1Xysd1lqqAHym9cUaRo/zArbj6WuPwppfOPCJLNUPPw/L/AHX4+9H+6/4j/wBP90RTbs/df8R+j91PiPYw/KtU/wDpD/yVqkkfgn7q1Sf6Tl5jv9Ny839BXnAHEFeezovPZuPuvNbuPurYXmNXmtXnMTXCFb/4h3/b/urXdF2CoXCHjZ5VsK0EXDBWxurYVtu6tCZkK11QeFI0Q173NKzlc5gpxrHN3uDIKajXK5viuUCYTvXRd3f0VO1/ltJIwe0wnDNM/wCY8QP5CvFUbTQudqIVMykYGG3aDXYyE1uszOKpxJoB/wCoqbCipP5SqMWaNnRqocKCe6ogBRs7f1VoeeG7NKpSQwxmcAg0AAVv/Oof91VM205gHqGiaziLner+iZDaSnBOtr7oCKd43aCsDS4HIYrxBwY33FeIjyX/AAn2nUZpcQRi1E/hl36ZVE2YpD6j/RUPrpo96bL3TPCDh1QcfNI0Df3TrVh9nNNpQ0tY5jmk1aIZVnS4Nazlc5voh6jcbr3rpXAUbuyo2OdRttHCMkHtZS+WQBOLI1VPSP8APoaNhxzKP/Mf+2hlWykFJRhwuEi00SnOstJ2CY600O3UqeL4qgbBRRnRqDGSeEfZWG+0fZWGe0fZWW+0fZCjo49AXl0f8Rl/l/3VIAxjnWn4DdAWqMOFK7EJrHilpAH7HJWnNItAQdRUdKpNuLOG9XMoUDZQNlgrLdlZbsoaclAUBQEQFAVkdfuoHVRiM1CjqVB9xQ1xKjqVj7io6oDqsd1B3WO6xWO6g9FxTmuJcXRYpswsy07JwtQDvKJMZKx+JbxThaBaQrTvamta12AI6aIgGzLTgZCdDmlpacQsIiDCo2tYyzjCFEwc9JGystgWZEZYKM3Eye0QpUqU4B2a8r/1qRNsNwbgpCs0ZcHHMZJwo3eoAoWGiGwAnMmkDpwDVTC35Y0tYqmxongbKnjyHAdAsB2ATGkUJj1GT90ylowxonGMlRyHvLxi8yhqiLT2mRDf6rC0TKlSApUo5i4FNRyucx+iGbrjf71EwJThwPJ2KofyqP8AlVP4Jga5zXlsCY0Xhg+lp58yHRMo/nf+2hkFSPbRiXZIeNoNz9l4fxNGwUoMwXyMFReIo6VxDZ+RX4xzMIcQ9uUJ3jLVA9rgbZC8E5zxng0AAVc3xU7xbGuhzHhUHiaNtNTyYDjIVHSUbpsvafm43IKlpBQeMJgwWrxHjKN1EWtmSvD2f4dgBHpX/Ud6L+hVOPwX/eo8veq0fPs6WcaiQDjsv4ii3P2Ka5rhIMokDMgJjmmYcDjVTPsUTz9k1thobshkK3ZXOYXBr3uA4BTUbnN8XBWcrnN8XBW7I3Nbg171nK4QoArFUDZQNlZGygKyNlAlWRsrIVluygKyFChQo6qOqGZ+iGZuN/vVTYNadA4T2QhwwxC8N+Szpgqai81li1AnHsj4NrqRzyY4hZjYI/8AMO/7ddhnsb9lRUY87xEs1EYKBsKyBIwXjSKWlho9OHdeFpGPohAAIwIq5vit1G0+PEtEeXKbR0YJhjRcbkvElrHtLhLSxwhPon0bWlw9QX8PQNEtYMs1/nf+3/dUvEW0e+J7Co6d1bBMNxKP4NLJ9Lm59UKRhIAMrm+EaSCfw3/ZAyJgjunjD0Bx6qj1/Ds1eJE+UN3qKTV4+yxL2UY2lypuGzBiBMbqkmzAzOAT4ontxNkj+ic6lYWOMQXRZ7p7ogDEousMlydhinGmDS/hw0TSCARqEBCHN3qdac6y19mBK8whjrUWgqWh4JtE0hyUVUphhxTDwNnYV83xcGVbsrmtwf3rd6Tc1Fwa963ZXNRcFZyuai4KzcGZ+iGJKgKAoGyAEKyNlARoKLaOowTLbH2cDbxByX4ntH/kopf0/dNbSOpKR9sYcKsUv+t+y8ul/wBb9l5b/wDWP2CNHSf67vsF5VJ/rn7BeVSf65+wVil/1v8A+qsU+H4w/wDFM8G8WD5mINrLVCipQTDqPHPhUeI3o/sV+PPpZ91NP/pfuvMfrROXmskEtM72SvPo8eIfuvMaeZn3Vrt91xbITGSpm2n0FpvMnBr/AFslNYKNllrcF5gFJSTo1oVGHYvLTLv2C+EdMFMcpU9ELAybHwpx1XmDqrbd1bagRipG6p22mgtItNMhedawaDPXRSaOkeSCbQER0Tmvc5lJYy5dUBJtO+An0dqkY7CAnttGjOcOlNpGh1JbMGf2T3Bz2DknEqlxpqJnyVS+mNXYJsA+WOVoU4x0QdxEGqi/Mp5ztfsiWmm6BhtKil34h+Oye15iy+E0Ug9TgfheJB8l3U/sslaFXN8Vyg7BSrSJltyeL4uCt3pNcqcRcGvet3pNzUXBWcrmouCs3Bmfomc3e43KomASmuDmyEWNpKMA/dWfE5eYzvGK8ifXSOd+wUNayAIFw5XDmLmtwaqGnNo+yNFRH/Lb9l5VAS5tnEZ5ptBRxm//AMlS+HJZwvfIxGKin0ZTfLoRbSEfku/3PwVFRNoxkLRzNZ073Ob4qwGNQ1uDIVQEQoGyhuw+ygbBQ216R9lA2CsMmbKfRWsW4OGSdR0r4HlgQ7OVZGyfQUT824oUVGGkRghQmPzXQrIUBOa0tg6qyFZ7qz1P3UY5lQdyo6p1K0GJd8BCnYDBLh3CxWO6Mwsd1jusd1jOa4t1xbhcXRCei4uil3ROJjRcXRY9FxdFjIWK4uil3RBzscB91LtlJ2RmMlJ2U9FPRTjkVPRSpQU9FKKlSpRzUqVKtBoxMK0N1aG6tBWme4K0N1IQ1+iZr3uNyrwAwTfS3tW7I3DcOYuc3xcGbq7ItWtUMkCDknPaz1GFaDmktKcbLSdgqH8mj7VHTupxivm+EaajD7J++ipQCzHLVAQANghr3UiYnFSv4iXN4DZJgOTchW7JAh2Rr5h2uDXvcGQrOne5zHtW5jg60w46jdBwpWPaRjqCvS1uuQqOVcm3FnCM1rV5jCYtCahW7I3NRcbr3rdkbmtwKQZ6GKjc1rhMFt9rlbgO+6a4OmMt6jVCtRSWXDPIq1Dw3f6JpjQ5q13VrurQQIhWm7qkcPLcQVaETOiHiaCPzAvNo7IdbEboOacQ4KkpAIbmXbJ1MGRaa4DdAio6XNRc1uDM1yJjWE9tGWceQVEKDOjjYwnua2Cd8MJUy2cV4guFC4iMlRNpA1toty2QHm0lJPpbgB1VGYNOdnqlo/wRS8+BlNNIKSjDnTbH2TSS+kM8LcFRn8J9Jq4EqkbHhWt1MR3VNi2mAza3+qe1wBc153gqicHtDt1Qstsda9Vs4pk0jROjod8J5t0zWe3iKJDWSmUjX5T9qqekIaQ3PU7Lw7bNCztP3r1Fwc3evRDKs6d7nMe1x/C+ieNTZcpxaN6nZVPNlrjsFQlzqNpOq1VI6w3KZMLjs2fJw7gKjLml7Xn0iZ6KhcXMDt5rdkVSUlmyNznsqVjKNtts27Qx3q5hW6kYz1OATCHCRlNRDHGCJRo6ODDQOya51tzHZivVOdBAiSU109xmFbbbs6oKgIcwmc3Epzg3/wDCtThBB2Kc4NaSckyktzgRGhTiGgk5BNLiZLYEJzg0SUxwe2RVQts0bQUGhogVFwtQjTTSijo4nmO1TmhwgosNjOSMQU0y0H6FmXzcb6QjHmtH6TCpvyaTsm+gfyoUvhy4BzMeoVLZAE0drsJVF5cGzRlvxCpqOWhzcHNRfSuFn+GPzkqOisMAwUDZEDZQoGygbKGyMFAUBQFGKjqVHUqOqAzxUdVjum/8xSY8gQyWKx3RmM05ltjmzmEx3iBDTRSRrogPEMtNDAZdNrTFCipGS3AhzptKlY97LIjMKyfMDsMBC8kyceG1asoUbhAMFoyCpGud5fDk6U1pD3uj1AfsvKfFlr3Bu2BVG2w2yAcFLqFz/wANxaTIhNmionvcMZkqgpKOPVL3YlA91PdT3VK0fw72sGiBFlvYKVIUiVIUhSEDmpCtDdWm7q03dWm7q0N0SMMdVabuFabuKsJqIkEbhB1IzCkYf5gmA0r2mIYzLqVTAt8uk9px7Go5VPBpg5jThqd+ioKVpaxhMPGEdlqnsttIVmn/ANRn2T2YihHNi89E94o6IujLRUjqRgtS3+Xep3pKLg0EkwE2mY99pzwA30j+6DgRIVKWCLRhUf8ADk8Ax/8Am9XCzisY9BimOcZtNjFSnNpA4vYJkYhF9KRhQn5TGEEveeI/tXzIkClx9mCZhaccJM9gnNtUdK/LVv8AtQd+Bb/TKoqJnk0ctHp+VRgh5DjLt+idDqVoHLmiLVINm/1QH49KejVSgE0TTkX/ANEVZpKSkdxgBuCE+miaIGpVE62wOQqc20IxXiGULRYbRy7faU3w/lZ0YeNd1R+Xyf1qGZQEZfQsyuNyCfR24IMOGRVLSPNG5ponB37IYMH8qBwGNbsrh073NRc5vi4MzU5wbE5bqY8Xn6qP+iblWfSbh073Ob4uDXvXAGQCGQrOVzmuDXvXohkKzp3qgbL4UCTgoGygIAbKAdFAVkbIhOZawmBrCDWgAAKy2ZjFRioqZRwXknFzlYDmkFCgYCHS5xGUnJQiME6hY4guxhWRsvlarHcqOqjqUO6+V8o5ZrHdY7rHdYzmnUdqMctQvK9zi7untLmuFqJCLJoy3SIQBgJ1GHxKDbIgAQgITGOaaTLF0ottCCEGwevVGhkniIB9Q3TrYbDG9B0TGWGNbshKxWOysj280/Kx2Ws2cd1jshrh9Ez03G+kVuyNx2Vw6d7mouc3xcGvevyaK2HhmKblWcjcOne5zDtcGve4MhWcrnMO1xvN3r0QyFZ073OY9hcGVZ/vc1uDKt2VzmuN171nK5zfFwVm5rcGVZ0uDX6JswsVxbLi2QJgcKl3tKtH2lEmDwlWv0lWuhVroUT0KnurQVoIkYK0FaCtN3VoSMVaburQ3VobqeL4VobqRvUNbgyrORuHTvc5vi4Ne9xvpHas5XOYdrg1716IZCs6d7g9RuNyrd/e5zXBlW7K5zfFxuves5XNbgrNzW4MqzcGv0TPSKyhkK6V1lpwJ7Jjw8YVuyqa4OEio6d7mouc3woGygbBWW+0Ky2TwhWWe0KyNlZCbkoUI5KFHdR1KK+V8r5Wqx3WO64t0Jx7rFYri6ITGi4uix2CMwsVjssdlqKsdl8LdY7L4U9FPRT0U9EdMFPQqeitdCpxOBVroVa7/ZWkDgrQUolWgrQVoKROakKQmUjXtDgcECIzVpu4VobpxEZqRurQ3Clu4WE5qRuFI3WG6br3rdlc1uCs5XNbgrOlwZn6JuQrOSo3hzAQn0tlzWjEmqnbS+qj+VRtLW8WetT5sus5xgsKVuNMZ2GEJocBi6eqkWusVO5e9wuHmNG83Ob4uDN3e43KsgzNrCMrjtO9zm+Lg173BkKzlc5h2uDXvXohkK3cve5qbjCCMDW7+9zmqp3FtHw+o4BeXZdQMGibknGATsE1wc0EahOVK18Sx2I00K4nsa5hGUxGaGIyXN8KAoWCH91A2UDZHJQNlAUBaqAoChAKAoGyIwUBWQoUCVHdWR1UIDqVHVR1RHVR1UdV8oa/RNyFb7ccIBXmPon2jRENOYVA/je9zHknLBBUro4QJJVG6kJhwHxXS0dFSTLcRqqFz7VJRuM2dVj/ABUf+nUeXvcon+YGzmDj3FXkWvXSOP7JjLPMT3TiWkkNJw0TadpdZILT1r45MR8q3ZcGvw2OlbcqjkqElzaUnV1T/M5APlMFMPU5h7BO07o01GDEn7FBwcEZ0Cs01r1j7IP4rJwNY173G5Cs3OYdrg171nJDIVnl73OZ3xVSPsxhiTAQotXutH9lR0cOtYDDRCcanadwnB732Q6yAMSgXse1j3Wg7Io2tBKa4OP9jUWhxbOhkVDJUrmeW8Wh6TqvDUrBQMtPA7leYw5OB+bnN8XG/wB63ek3NRcFZyua3BWbgzP0JQyGKx3WO6xjNUlCaUiXcMJg8TRkMwcz3Li3Ce2c4TWWMoXF0XF0VJRuPE02SqKjNHOpOZWPtCl3t/dEnDBfCx2U9FR8PiaVsfqUmMlYp9ac/DQh8p1I1hkyhSOP+U75U9CqS0W8BhyFPZkUjHNP3VJSeawsa0nqg5uGKtN3TXCM1bb7gn2X8E4ZlF3kupMOB2RGion2gTkNETgYiVPiNqP7rZOeW8rj2QNrRw7qkDrDrOeiFMxzswNwcFTPY8ANMvnCKxrcGQrNzmHa4Ne9ZyuHTvc1dUQCIIkLyWj0Et/oqJ5teW8YxPQhNMjLpUdO68O635rt3Kmxd4f/ALieHYFuY/dUnmOc2zRuDh9rgomHEtlCgoMvLavCUTPIaS0HEosYMQxo+LnNcb/et2VzUXBrWcrmtwVm4Mz9Cck30is5G47I3Hf3uHMd65lf9b/7dzm+LjTn3U1U5NkMGb8EwQ0AVnI1QFA2RAwUBQNgoCLGF2LAcEGMGTQEx1u1A4RgDuoCAzUKFHdAYaqOpUdSiOqg+4qD7ioPuWMjFQfcoduuLdCccdVjusei4oWKxWKM4LFcSxWMlYri6Jxe0zZkdNFRh7neZZjhsgFNa8Gky4nSsUZwwGaZReXasjM7oiSDZyyXFssZWOyx2UnZCdlLvaqMWGBuyM7LHZT0Un2rGclJ9qk+1SfaUO2qk+w/spPtKJwyU9CrX6Sp6FajBT0KtdCp7qe6lSiVKlSpxVoKVKBUhSET1VobqRupG6Gf0Lsk3IVn0ntcdlcOne4c2963UbHxMyNRgU2jDHZkk5k3OY9rg171wJBTfSKzkbh073Ob4RxBCAAAAyqGve43Idqzlc5rg171nK4eXvcGZuN9IrP97mtwVuyuc3xcbr3rdkbmouCs5XNbgrNwZn6F2Sb6RW70m47K4dO9w5tucwuc3xcHN3uN9Ird6TcPL3uc/wAXBr3uDIVnL7XOYdrg171nI3Dm3vc1NxvpFZ073Oa4Mq3ZXOa4Ne9bvSbhzFwa1nK5rcFZucx+hdkgBAUBQEQIUKz3UdSiOpUfqKj9RUH3FHuoO6x3WO6OYxXFuFxdFxdFjIXF0XF0XF0WM5BcXRcWyl2yE44arH2qXe1SfagTHpKtH2lWv0lE4HAq1+kq10KtdCi7LA5q2Nj9laHVWh1UifhSFaburQQIxUjdSN1I3QIjNSN1I3Ryuc1wa96zkbhzHe5qbgyFZ/vc1uCt2Vzm+Ljde9bsjcOYuDWs5XNbgrOVzmP0LsihkK3ZXHZXKW1Y4c9E0Q0CSe9ZzbcDg4tIxwucx7C4Ne9xuVbjgbjuXvc5viuYTCHCRlcGQWCgJ0AShZOMKy3YKy32hQJ+FA2UDZQNlAVkKyFZEKyFZCs9/uiMs1HdWep+6jqVGJxKjqVHVQhko6qOpTh1UdSvlfK1zUdSvlfK+V8lY7p2Wajqsd18rGc18qOqg7oA7rHdQfcjMZqDusd1B3WOGKg7ri3WO6xxWKxWKx6Li6Li6LHouLouLouLohK4lLtkZjJY7LHZSdlr9C7JDIVv9Nw3KQ2ROyBlOkDBsoHxXsYO6ObVbaM3D71eKpW2bFrEkT2TX0ZIDHDJOe1vqMK0ImU4gCSqOna+kjEYYTqrbZs2hOyc9rYkq2yzatYboc3dBzXZGUQDE6FEgCSUzFohNdS0gLmkeowN1R0geP69E+jpC2kcaQg4xGSo3EsYTqKzy90x809KJwAFfN8VyqIsLTZym4MhXT4+XR+92PYXOYdq5ExOKGvdW22rMidqohqGVRpHGbDZAz//AEg8ODCN04nQYpjqS25rrOA0q1KKoqQ0j3kegYDvUMhW7L5uc3xcH963ek3NRcHN3rORuHMXN6zc1Fwa1nK5r9C7JAjdSN1KdlcNbDNro6E5eG/IZ8pxIGUr/iToxo+61av4eg/02ptGxnpaAnY+KYIybKsNtg2R9kOLxP8AI39ynkUlNRM0Bkql4qajo9MyvEAup6FozVNQsZR0dgQQ8YpvF4mkPtwC8TAostVSYllEeZ2PwqVjaKzSsEYweoVp3nubpZXA5xBEluishj6MtwtHEKh4aSmojnNodiqMDzqaOk91SuNJLGZczv7LADovPGQa4/CZJzaR3Tw7hAMAnFUTWtp6YDINbXzV+KpLNG4axkqJoY2OtVIfDF2J4v05qj/92P1I+jMjDRNo/D0mNov7uqpLf8S2zGFHr3Q8zms/Co5fxnLlHRFx/iWge1Ol1KKMGMOIqj8yaSjYebM4wEH0nlkTLjSFrSg1rB21TKQ+S58a8KFEGU1EOaHF5Vria3ef2RyPZMJtPbM2Yx7qkdZonnomNsMa0aBAAU7gNRa+VSvsAR6nGGqjo7Dc5JzKdStGEOPYIUry6G0T8d8AnUXA51I61AJjReGH4DKgMBWcrmtwa963ek3NRcGtZiCtK9RcGt85i4Nazlc5voXZVQNlgjkoGygbBWRsiArLdlZbsi0Ubi7lOapYbRlyoaOKJnZWB1+6sjr91AkLy6Y/58dkGRzuPdUzHBzKVkkjAjom+Io3OEF09k7w4c4utuE5wvJsmjscundeWPMtzjEIUf4zn2uVOYTYxydKcymY9zqOHWswV5T3/mOHYJrI5phUtGX0bmyrJtl05gJ1EH55jUYFUdC1uIz6p9CKSJOI1CbQ2WuAdnmTmhQ0jGx5gs9AuPcLi6Li6IzhkrDvMtg6QQuLonW7JjZUb3Pa10ZhcWyPmZNgdU2jDQREzmd02gsEQ5xAODZUu9qt/oP7KZ5SgcBgiyjOdEPsp6KmkPZSAHDB3ZOpg+jeKOSbJ0TKdlljWgkxkoex1uyXEjiUUgYTHGQqNnl0cDOP3TmWHUZYwuDRH/7Tm0tKHAiwIUSwAgiCP2Q/Oc4g+nAr/Mn9CcA5uZHUJjGsB4iScyngPo3N3CFM8Ng0TrX7Joxlx4icVSDio3tIls4HqmuMcVn4Vtu6FIzHiRc1zSJzEKjLaOja0uyVth1Qc33K23deYz3Ivburbd0SN1aG6kTmrTfcF5jBzBSN0CN1I3Vpu4TosnFSNwrQ3Cttx4grQkYqeoVoKUCMcVPWorSs5i5qapqByr2qxUrU1SibnN9C703HZXDXmj4ajlucT6dLnM25PF8XB6jcbzd7jchW70m4dK6WTFGM3f0QEEAaC4NbjfSKzc5vi4Ne9ZyKFZ0uam43Ks5VRVrXCBOOOtZiyavhQoxCsjZQNlZGygYqyNlZGysjZBrdlZbsoGyIGGCsN2UBQNlhJwUDZQNlZagBCshQKoUBQFHWqFCwUKOpWv0LskK3ZXD/AHuHS5zC5zfFzmPxcbr3uNyFbsrhzb3uc3xcGve4MhWf7i5rcGves5FCs8ve4PUfi4Mq3ZfNzX4uCt3pPa5qLgzdXoUMqzpc1NwZCs6XNTWcrnMPoX5KVI/+BSE44K0FaCtBEhWhupG6tDdEjDFWhurQ3UjdahYKaub4uDM3Br3uN9IrORuHTvc5vi4Ne9wZDtWcvkXOb4uDXvWckMqzp3uDM3BlW7K5r8XBW/0m5qLgzNZyQyFZ0uam4Mqzpc1NZyucw+hdlcpKV5p20bNPUi53msY3u7tXbDrUcroKY93mvYTO1e1eCgSFA2UDZQ3YLCclZbsrDfaFZbsoEnBWW7KyNlZCACsjqrKhDIZqO6jujlqo6lR1K+Sjpmo6lR1UdVGOajqVHVR+pCccdVB9yh3uXFv+yEwIIXHuPsuPcfZGVxbhcXRcXRYz8Li6LFYoTiseix6LFYrFY9FjgsdljssVjJwUnZY1CVjspOyM7LHZSdljstcl8LHZY7ITspOyn9KccDgsdl8LHZYyMFjspPtKnopzU9FPRT0KBwyKnoVP6SpywKtdCrXQq0px1Vrup6FSgcFaCtDr9lIUq01SFKkKVggW7qRupG61+hf6TWZgxmhRmioXvIl5xKoaOw3E8RxNdN+FTik5HYOXiKN4e2kZjGYqbSscYDlqE5waJKt+I0oRHV2KJc5oLMO6Ey2aiQ1pJyCB8U/iaGgaSqKlLnljxD26VB7HZOBqGZuNyPe430it3pNw5tuc3xcGve43Idq3f3Fzm+Lg171kYG4dO9zmPxcGVZyuc1wf3rdka5WouDWvdN9IrOlwZm4Mqzpc3rOSFZ9Q+hf6bjsvkXHQQARrV4gUho+ATjiOiYHueCaOw1uQWoVIwOGcY4HqnUtLR+tkj3N//CpoNC46QgZsHcVeL/5d3wm+lvYJw/4xh/QVSH0NPM6E+gYWEARGRVA5zqME55IZm43L5uNyFbsrhzb3uc3xcGve4MhWbnN8VlN1714xmtKzy965U8RuDKt2Vzm+LgOfet3pNwnEXNTcGlZ0uam4Mhf1NzSvW/P+E7JT0U9FJ2R7Keinop6I6YaqehRmycDkvDikaHS1wGxWowT5DmOskgSjSvI4KJx66Kjow2i8syd/lNFkNGOAVodVSAPY5uOPRMhrGjHARkrI863PLCf5dI2yUaG1FvxDiNkLAAAyRpGtpADPFqrTfcFaburQ3QI3VobhSNwrQ3CBEZqRupG6dkpG6+VIR0uc3xcGve4MhWbnN8XG6977uXvc1NwZLWp2SkV83xcGvet3pPZTXqLgOJrKGQ7VnS4MzcGVc5XNSpqlaV6/QvyuHTvcOne5qLmouc1zU97jcvk3BkK3ZLDZQNgoGyOmCgbKBsoGywnLRQ3ZQNlAQA/dQFAUCEAICshWQiAoVkdfurI6/dWeLVQOqjuoVnqfurPUqz1Kx3UdSo6lR1KOmJUdSo/UV/uK1PEVB9xUH3FQfcUBh6irP6lB9yM7qOqs9VB9y1idFHVY7r5XFuuPdcW6Mxmsd1jusd0RiMVjusd1juscVisVihkIWKxRnBYrFS7osZKxWKxWMLFYrFYrFYrFYrFThksdlxKTstfoXZXDp3uHTvc1FzW5zXBm7vcbl8m430t7VuyuHNtzm+Lg173BkK3ad7nN8XBr3rORQyFZ5e9zU/FwZVuyuc1wVnK5zC5qazkhlWdLmpvnS4Nazlc5voX5XHad7hzFw5i5rc5jcHN3uNyuN9I7VuyuHNve5zXBr3rKGQrP97nN8XBr3rORWGFZ5e9zmPxcblW7K5zfFwf3rd6Tc5hVNQzNZyKGQrOimsZurOVzUXzlc5vj6F2S4ui4ui4uiM4d1xdFxdFj0RnBYrFY9FjIXFsFxbBcWwWM5LHZY7KT7VjOSx9qx2WOyE44KT7VaPtKk+0oE+1Wj7SrR9hVr9JQMAYFWv0lWuhRdhkVa6FT3U90TlmrQ6/ZSFIVoSrQVoKQrQVobqQpCBEDFSN1aG6LhurTd1aburQ3UicxkrQ3Vobq0N1aG6tDdWm7hFwg4oOZ7gpG6kbonJT1UjdSN1IkqVKlDIVnJYKRvVqpU1Ct3pNzUXNXVnJDKva4MzWcjc1FwVnK5zfQvyuHTvcObe9zUXOb4uam4NbjcrjchW7K4c297nN8XBr3uDIVnTvc5vi4Ne9ZyUVnl71QFA2WEnBQNlA2UDZACMlZGygbBECFDdgrLfaFYb7QoE5Kw3YKy3ZWW7IAKy3ZWG7ItaBkrI2Vluyst2RAkKyFZCsNQaMVZCshQIUCFZChQMFZ7qz1P3Ud1GajuoRCjqVCjqtQoUdVCA6qOqhFR1XyvlD1H6F2Vw8ve4c23NRc5vi4MzcGve43K430jtW7K4c23Ob4uDXvcGQrdp3uc3xcGves5G4eXuprHqd8XG5Ctzv6q0pUqeL4qmoVu9JuahSFKlDXvWcihXqLg1rOVzW4Kzc5j9C/K4dO9w5tuai5r8XBmbjde9xuVwZCt2Vw5i5zHtcH96zkhkKzp3uc/wAXAc+9ZyNw6d7gzNwZCt2Xzc5vi4K3ZGqauYXBr3rdkbhzFwa963ZG5rcFZuDM/QvyUH3LHdY7ozhisd1jusd0c24rHdY7rHdajFY7rHdY7rGc1jusd1jusZOKx3WO6x3QnHEZri3C4twuLoha6Lj/AEri6Lj6ITAyXH+lcfRG1Gi49guPYfdcew+6xwwXHsPuuLYLi2WM5KXe391Lvb+6l3tQJ2UnZSfaiTsgT7VJ2XwjOGGqnop6Kf0rmy0UnZSfaVjsUJU9FPRHLJT0KnoVPQo5jBT0KnoVPQrU4Keinup6LTJfdT3RKnoVPQqehWqnupqBw1U91KJwRKtdFaHVTipCtBSEDmpCkIkEK00K0FIUjBSFabupG6BCtN3VobokRmrTd1abupG61UjdSN1I3QKkbqRuiRupG4UjdYbpuZ+hflcdp3uHNve5zC5zfFwZm4Ne9xuVZyQyFbsrhzbc5rg171lDIVu073Ob4uDXvWcjcOYuDM3BkK3ad65XNcGVbsrnN8XBr3rORuHMXBr3rOVzW4KyoGygbKAhmfoX+k3Dp3uHNve5zC5zXNTcHN3uNyrOSGQrdlcPLc1Nwf3rORQyrdp3uc/xcH96zkbhzbc1NwZCs6d7mpuNyrOVzm+Ljde9bsjcOYuNrdlc1+LgrOlxpxd9C/I3Had7h5e9zUXNfi5qbg173G5VlNyFbsq5WorC1Pa4P71nJDIVu0715Ln+LgrORuHNtzU3G5Cs6d7mpuNyrdl8i5zfFxv963ek3NRcFbsrnN8XBWdLg1+hdlVAUBEKO6juoRGShQrKjEZqOpUKFGKjqVHdR1K1KjqVHUqOpUZ4lR1KjqVHUoDqVH6io/UVHUoDD1FR+oqOqOWag+4qD7irP6iscMVB9y4vcuL3LHdY+5QfcoPuQB9y4vcuL3fssd1xbqHe79lDvcja9y4t1xe79lx+79lxTnpsuLdcW4XFuEJ3XFuPsuLcfZYxmsdwuLcLi3RmQuLouLcfZcXRcWOS49wpd0XF0QmNFxLFG1hlmuLosVxdFxTouLouLoseibMLHouLYIysei4ui4ljKl2wXEsUJ2XFssdkS6CuLZY7KTspM5LHZY7LFDssdljsj2WOyx2WOyxnJcXtWOyx2QyyUnZfCK+F8KU3X6F2RuOy+bh073NRc5vi5qbg173G5V6IZCs5XDm25qbg173BkKzp3uc3xcbWcjcOYuDM3BkK3cve5qbjPSKzp3uc3xcblW7K5zC4K3ZXOa4MqzpcGv0Lsrjsrh073NRc5rmpuDm73Gen716IZVnK4c23Nbg171nIoZVu073Ob4uD+9ZyNw5tuDM3G5Cs6d7mpuM9I7Vm5zfFxuVbsrnNcFbsrnNcGVZ0uN17/QuyQyFZyzXzW5zd1abusKsJCkb1EgK3xIOB1r1Vpqkb1DVWgpFTcrgyFbsrhzFzmuDXvXoUMqzp3uc3xcFZyNzUXBmbgyFZ0uam43IVnTvc5vi4z01uyuc1wZVuyua3G5VnS4PoXZFF2MKVR0jXZEFP9JQTckYhO0VnomhGyNESMMEYOibCcBstVrkhB0UDZOqw2QsnRHVYINGygbIWdlA2Cst2CgDRANgYKG7BQNkQIyVkbKBsoGyIEjBWW7Ky3YKG7BQLWWist2Cst2CsjZADZQNlZbsoGyAbGSst2VkbIgYYaqG7KBsrI2UCctFZCsjZWRsuGJdomvoHmGuaSrLdkQIT6VgdYawufsE0YCRBVkKMQrIXCI64KAoGKshWQoCAEKyFZCIyVkKyFYCjEqyFZChNGAVlWVCs91Z6n7qx1P3UY6qz3VjqVZ6lAYZlR1KjqUR1UdSo6lWf1Fa5qP1FR1UdUJ3UdSoPuKPdQfcVB3UHdRjmo6qDuo6r5UHdQd18qDuoO6g+5NnHv9C7JP5eyeJsie6ogwUps6BUnodVQ+Zjas/Ceii5NMp2ZTfUEcCmlPUwpTDUfUeyiamHFR6u6OCaahkm4wa25Ct2Vw5tr8O4lrwTix5CoqTzaWkcPS3Ada3eKAdDWOfGZGSa9sgTicRUXNbmQO6nCZVGC1jQTJjGs6d7nN8XGs/iKZ9r8thgDco+HoTygHQhMtWRaz1VK9rGYqjfaEgEb1HxFCKSwX4rmCNK6TYZajPFeLcAygpNBStNUgSSpTi1uLiArQLZBlGkYwC0YTXBwkGoOtWTc1NxuQrOne5zXG5Cs5XOb4uNyrdlc5rgyrOlwfQnJP5T0VJSBtJ8KgbwtO+Kf6XdlR0he9+HCNVRrxNPZ4G+rXovKp7NvzcdlRPL245gwU2rxJijPUoTDewXh3upC+dFSBeJcLQGyD3cDKMz8IYHCqlIYZJhfxNENT9kKRj/AEulNU5pzhMEiUKgYHyUDWPSK3ZXDm2sUb3+K8TRh1lpMu7L+AoZ9Tx1leGdSWqWieZLNV4qk8ugeRnkPlUVGKOjawbKmkeJoY1IA+DV4cN8Q59M8TxQ0aKme2go+FoxMAd6qak8ujc7WMO6/hqTy/MFK7zon/8ASon+bRUT905z6WmdRtcWtZ6iN9kaRrHUbDMnKrmPasZheAwo6QaikM10U0tLTUs8INlipST4yhE5AkoBeCh9C8ug2nmVSnyaFxGjTC8K2xQUfafuvHNnwr46JhtMa7cBA0FLNNTem1wNXhWmw7CGl3COiYPOpqVzsWtNloTLNE/xjeVvEqKj/CPiHiXQSJ0XhTNC091AOC4vCkB2NFyn2qa9TcGQrOneuUDxHtcbkKzlc5vi43Kt397mtxuVWCOlxuv0JyKcQGY6BTL3UjhkckymoaJ54+B2I6I0lLTgijbZb7jqqCko20dkuh04p9PMMozLjsv4ajFC5gzOsapzqZzbPkuB30VEPLpyw8wQVJ4hgdDOM9FSUdK4F7jxe1HxbC3hBtHReCjyj/MZXiaQNAj1aBUVFYz9RzXhrJNO/wDVgsE7xMcFELb/AOipqAhjqSkfafH2VFR0PlNyxzlAUI8WzyzgsFSUji7y6L1HN2ypKKhY+jBfPvKbS0LjhSNUhCIQaA+1aPZWmqQg4QFaarQRIhSFIVoK0MFaCtNXiHeT4mipuVwsuUic1QtI8R4h5BEnBeMbboMJwMr+N8PZBtYnljFPoqak/GyeDLGqhpy840T2Ya5LwTHUVCWvEG2V4phpKMWcw4FSF4/8th2d/VAjBeD9Lm7Ux+y8G8eW+fV5hJXijafRijFpzDaTXgiYI6EKRa+FaburQUhPoqVlIaWhxnNq87xOX8MZ/ZUVoYvfJ/YLyKdheKKkaGOPyE7w7OAseWvbzb9005T/AEVBRNoWuAdm6V4hvmUT2j2rw1M19EzdogjsvFPb5L26kZKgdPhWfyLwVHQ+Sx5aLWSNJmG4lUQDGBqNGX//AMhA4sIRpw7w1hg44sxsvBPb5RacCDkVabuqWS2Ghp7rw9GaKjDHOBVpu6tN3UiSrQ3Vobq03dAiBirTd1abuiRhirTd1abupCtC0cVaburTdwrTd0HCMwrTd1abuES2PUrTdwrQ3CkbqROeikbqRuvlCIUjdSN0asFI3WqlWqhkpFR0Uq1U36E5KAWwVQg+f4gE7KloqJr6EtYB+JsnZFPoaJ+LmAlMoqNnpaBVS0rKNvEfhU9LSPfRPFGWx6SdUPCvcfxqYke0ZJtHRsENaAi3EINTvBC0SylcycwFReFoaL0jHcqzineGpmPc6geMc2lfw/i3+uka0dFRUNHQiGD5RAJgjCF/BUP6u0qk8HROYA3gIyK/hvFOwf4nDoqVgorNG02GudxO1XiGeHmio6EAutd15FC10ijbNTcvm43IVuyuatrIa4QQCFzGsMYDIa0HeENe9ZyQyRDSIcJFRAmYEk5qk8JQUrrTm49FRUNHQiGCrmPa42s5XOYKk8JQUhtQQd24Jvh6Fs4EyIJJlMY2ja1rcgv4UWnOo6R1HOcZJjAwQKpwQs52RO6NFROfbLBa3qOYuams5FNyHas6XBmbjPSK3XOb4qwUDZACMlCgbIxsoGygbBQNgoE5KBsoGygbIAbBQNlZGyICsjZQ3ZQNk36E5IZBUjvI8R5jvQ8ROxVHS+fS8P5bddynZG5RCX07j6rUdl4vF/h27vrOlzUXOf4uQ11sOEjqm0NFRmWsArblXohkK3ZXDm24Mzcbr3rORuHl73Ob4uNy+a3ek3OYXBr3rORuHNtwZur0QyFZ0uDM3G5DtW7+4uc3xcbkK3ad7mtwZVnMXG5fQnJN9IrdkblPR0loUlHnq3dUbaWkpxSUlHZDRgKzpc5m3Of4uDN1xuXzcGQrdlcObbnMe1wf3rOR7IVu5e9zmNUVNyrd6Tc1Fwa1nIoZVnMXNTWckMh2rOlzmNxuQrdp3ucx7XG5Ct2ne5rcGQrOYuMMj6E5IZZKeinoicDgp6Keix2RPRT0WOyk+1HTDVT+lSfapPtWMjBT0Un2qTsubLRSfapPtU/pWpwUn2qTspOyBPtUn2rH2r4QmMlJ9qk7I5ZKTssdljstsFjssdljssZOCk+1S72qTshO37qXe391J2RmMlxbKXe391Lvb+6JOGGq4tlJ9v7qXe391jOSk7Keix2QnZcWy4tkZhcW37rH2/usdljOS4tlJ2WOyk44KTssdkZg4LHZSdlJ9v7ozhgsdlJ2WOyxk4LHZSdl8ITssdlJ2R0wU/pUn2qT7VqcFPRSfap6ITGSnovhE9FPRT0XwpxyU9Cp6FT0QOGRU9Cp6FHtqp6FT0KnoVqpU9F8IHoVPQqehU9FPRSp6JuX0JyRpaOjaLboX8S9/wCTRF3U4BUZ8RP4rWARon+MoBhJPZMe17QWmRWcrh073OYXOb4uDN1xuXzcHpFbsrhzFzU/FwVnI3Dy97nMe1wVnI3OYXBrWcihkKzm25qazkUMhWdLg9RuNyFZ073Ob4uNyrdc1NwZCvUXG5fQnJU3lh9BIGLsZR8Z4cYeZ9k19HTtcIdHaE+xRUTsAAGrwbC2gk6mU99hhdE9KnZXDpc5hXIXN8XBm643K430is5XDm25zH4uDL5rORuHNve5zG43Kt3pNcrmFwa1nI9kMhWc2qa9TWckMhWdLnMVNbchW7+9zm+Ljcqz/eqatazkhlWcwpUipuX0JyXjGN8tj41hBtGBwsaB2qpKCjp4faMRood4WkYLRNG/TZf8T5p9NianZXDpc5hWyjawmzkdFz/FwZuuNyuDIVuyuHNtzmNwf3rORuOzb3ucxrlNyrdka8Qp4hcGtZyKGVZzbc1dWckMhWdLmpU1tPCKybnN8VTU3Ks6d7mtwZCvUVYVMwH0JyT6PzKIswVG1zKNrJBgJzS9rmnUIUfimNgPYR2TfDOtikpH2iMlx9FxdEZ6Li6Li6Li6LHBcXRcXRcXRYyFxdE9zmtLsMFJIGSxlcXRcXRcXRY45Li6LHouLcIT0XF0XFuFjuhMZri3C4t0ZjNcW64t1xbrHDFcXuXFusfci4B0WsVDvcsfchiAbac4tGpJMAIWoxJCh3vRmDxKHe5Q73KD7kZwxUH3KD7lB9y5s1B9yg+5Qd0Ad1B9yg+4ojDNQfcVB9xUH3FYyOIqD7lH6lB9xUHdWT7yod70cs1HVQd1B9yg4cSsn3FWT7yrJ95WMniUH3n9lB95WPuKg+4qD7lB95UHDFFp9yFHBm2ZUH3FQZPErJ9yh3uXFuhagYrHdcW6M7ri3XFusVjK4t1xbrHdCd1xLi3CM4Yri9yxWKnEri3WKxQtLHdcW6xkLHdYrHdM9P0JyTchW70ntcOVw5i5zCrBw7rw0+SJ0JC5vi4M3XG5XBkKzlX5lHas2hOyOEJrw8SEXACSUDIlD1v7BUjy0cLZJ0WnwqP0M/lCGZxqdSUbCA5wEp2Rqa8OmNKjy97nMbjcq3ek3OYXBr3rORQyrObbgzdWcihkKzpcHqdcGQrdp3ucxuNyrOne5qazkhXrcbl9Cck3IVu9JuOuHMXD6hU4PGLPsqAPtUpLYly5vi4M3XG5fJrOSb6RW7KrxLyyhcRnkqShZ5EAYxh3Uk0vhwfaSfsnAiloyNZDk9lqOKCExzpLXZj901349I39LSnYeIoerSKqAzR9nEJtGx7Bh86qicXM4tJB+FR0YfRucc3qgk+HE5gEfZESBjCENgF2NTs2d7nMfi43Kt3pNzUXBr3rdkeyFZzbcGbqzkUMhXq24M3XBkO1btO9zU3G5Cs6XBmazkbnNcGX0JyTchW7I3DcOlw+ptzn+LgzNxuXzWUMhWcqvGfk5cwXFS8pAnElUzX2qN7Bi0nBMbSF9t+GzU4UnLZ+UxlJbc55GIyCDIpqR27QqVhcAW5tMhMpS/JjhvIVELJpG9Z+6aKdjbDWg7ORb5dAR9/lMbZa0bBNbZbSd8KhRnzXPJ7VHl73OY3G5VnI3OYXBrWcitKzmLgzNZyKGQrOne4M3XBkKzp3uam4MhWdLgzNZyNzmrOSb6R/j0tJ5bZ10C8l7vXTPnZuCs2Wxie6E2c4Rp6If5v2xXmnRlKf9qL6T/Sf+yt0n+k/9lapf9M/spp9GD7hH+J9rPuv+K/Qv+J2Z91/xO9Go8R7mfZWab/WHw1eU450z/6L+HZq55/3L+HopGB+6bQMeC7GD6ROC/hXaBn3K8gtGLS7/cVRjw9IYDPuvIovai3ysQXWdROXVR1QGJUdSo6lWepQbjMmFZ7qyOv3VkdUGqyP/hVgdfui0QrIXiGDyKTsqOHMYf0hQJCgKy1WQoElQFA2UDZABWW7Ky3ZECDgoGyst2VluyIGGCst2VkbKyNlAtHBWW7KyNlZGyaBGSgbKyNkQIyVluygbKG7BQJGCgbKAoCgYqBsoCIEZLDZQNlAUDBQNlA2UDZQJKgbKBsEQIOCAEDAKG7BWW7KBhgrI2CgbBQNggBJwUDZQNlDdkAIGCsjZQ3ZEDBQFAVkbKBJVkbKyFAQAhQFA2RAwVkKAoCAzUBWQiMFZChQFGKsjZQEQIKb6R/j0353h/5qqUwwlNoGnGk4umiENwGFTKUOLzOZhvYXHZXDmLlMYb+33QEADat/5tFWPwzZ5SeHp0Qzd3uUbwbYHKazkm5Cs5VHEEbrwpwdRnNq1FwZm42t3pNw5tuam43Kt2VzmFzet3pPZCs5tuDN1ZyKGQr1FwZuuDKs6d7g9Rr0QyFZzFwZms5G5zVnJDIf4/if8k/+pVTYho3cm5BeIpfLc1wIMZt1VN4xhoyGEyf2XhvW4hjiAIB2uOyuHTvcps6IbvuP/Nou9dMJoX9p+yozInoK3ODRJXhTw0xPvxrORQyFZyrwmYxWouau+Ljcvmt3pPa4fU25qfi43KrFOyuaiqahrWcj2uHNtwZurORQyHas5tuDN1ZyQyFZ5e9zmNZQyFZzFwa1nK5rWcihl/j+M/KH8wqpfQTtimEFjSNUaOjd6mNPcKmoXGnpPKozA2VET5MeWWRhBuOyrgo6Yq2z3D7rzaP3hedQ/wCoFSUlGX0XGMHLzqH/AFGrzaL/AFG/dW2HmCfFthnWouaMyAjSmlltEMNXnJMAGG1T/NtSyz8prdXuBcvJoXG04CVgpG6kboFu4UjcK03cIkEZq03cK0NwrTd1IkK0N1aG6tDdTiVaCtBWggRCtBWhuiRBVoKQrQUiQrQVoKQpElWgg4KQgRCtK0iRCleYFaCnFSpClA5q13UonAqe6tDr9laU4hSrXdWh1U4lWu6lE4KeinoVKnJSrXdWlqVa7q0OqnugVKkI6KVKlTiVKlSrWCtjYqUTkrQVpSpGKlSicFPdSpUq0rXQonBDL/H8SJoKRMM0bD+kI5JosDLDordH7irdF7kaSj0tH4Kn/wBN64vZ+6ik2b90WUv+oPsvKdrSn7LyW6uefleRRe3915FDI4AvKo/YF5dH7ArLfaFSNHmUGHMrDPaF5dH7G/ZeVRf6bfsqWjo9GgYhfw9BP5YXkUH+k1QNkAMcFA2UBQNk3LJQFC0QyFbqnusicatRc1NxuVbvSblK8MFo3JFuN0HAz0rblWcrmtRa621wdhqKhrW70nsjSRSto4zFeouDM1nIqJAxKAio5tuDN1ZyKGQrPLcGZrORQrOYuDWs5XNa3ZIZD/HeJY4dCvDmaFiOSbkFgnPayzOpgJ2Rq8weZY1iR1XmjzfL1hG4cxcpPzaHublLm3u243XvcblWcihkK3VtfafSD2wuYXNSvNt09GGnhx+a25Vu9JueLcDwjTNHOqkL2iWtkahPph5nmNP+WfuqFtiiYP8A5jW3Kt2VzmHap9JZpaJkeqahr3rpCGsMrE+Joj/8yr1FdL5oALMdwqOmYZnDGt2RXiCRRYGCU30jtUc23KVzg6AYkr8RmtofugZEhHJaCs5i5qa3ZFCs5i4Kzlc1NbvShl9B4X8ojZ5RyTcgvENc6jNj1DEKmpxSGhsmNSdiqOkoLFhlJOHzV4ukGHC8PYcCqHxDDTvpH8PDgrbXNlpkXDmLj/zqH/dcpM2/zC4ObvcblWcihkK3f3qcQ0EnReGn8Wc7c/dcwT6C06fMeEyisc7z3NTg6ke5mTeY7pwDfE+HA2Nbck9lI700tlBviB/mMcOyd6TXSOcMGCXH9l4mjDPDR1xO5rNHTHKmj4VJQO86xatEidlQuGIc50jldW3Kt2VzmHaqbfiaM6aLNBviG81pNc6YcyKnUUlziZ2Cpm/iUT/hRVqE8PMWSArFL/q/svKd/quVglxLWuVDRuYMTVSPa1plNojSAudmRh0TKQNFl+BCYZBO5wTmMkS4/deVGTjX4jDHrV6KTo5HIoZVnNtwa1uyPa5qLjazc1NbsvoAvDemk/7hRyTclTFoo3EvIjZUTWUL2Opmiy9uuMFDy7Mssx0WCpJNG8NImMFRUPiKHjZZnVkptI544mWfmVI3UjdSN0SMMVI3Vpu6tN3TiPOov9ytN3Vpu6tN3TyLdH/MFbburbVaCBGKtBWh1VoIEAK0FKnBT0KnoVPQonop6FOFsiWmyP3T2UopDSUcYjEFC1w2s4VnxBzfZ7YpoeM3WviFP6VqcFSNeaaheGnBSdlJ2TZ2T/O5A35TTTczW/BRJg4KT7VJ9v7qTsnYwC3VSdlJ2/dSdkGfivfqU9opBDmBCQIsrHZCdlLtlxbfujMZKXe391jsuLZcU5J3nUhizATqJ1ltiJbkqMUgYJAnVR4iT6c0PN1DVxdEZg5J7XObGC4lxLGRkuPouLouLouKTkuLouLoiyTJAlcUaIgn2ri6JzZIkBCjs5GFxLi6KkYXtIGcpgcGNGGAT2ucFx2cSFj0XF0XF0RnDJcXRcXRcXRY4riXF0RmCuLouLouLosZWPRcS4uixXEuJGVxbrHdY7rHdcW6x3Tpj6AmASvDj8EdcUck3IItacwEQ05gIgRkoFWCdcOlw/nUf8rrjvzaPvcHN3uNyrORWlZ/vc1FwZuuNyrf6TcPqbc1NxuVbsrnN8XBr3rPpNw5i4M3VnIoZCs5t73B6nVnJaCs5tub1u9Juai4KzcGZrfl/hUsiieRsuKlJh5bGXdUTnGQ/wBTc7lO7hsDN2CADQANEck3IIkwcJQp2Gja8amPlFwNobZ1ilaaRzPaMSicK6OlLqamZo2Ecxc/zx/27jvzmXG697jfTWcjcNzmFwZuuN9Nb/SbhzbcGbrjchW703Ob4uDXvW70m5qLgzdXoUMhWdLg9TqzkUMh2rObbm9bsjc1uDKs3Bma3Zf4USCN1QfksWXiG9WH9q3lwbLWyV+NRu814nfogQQCEcim5CqmpGikdYPCTa+V4Z7Cx/FLyZdV4rzy1w8oWRjalUT3HgIdFqXWcSVMtGFXiGGh/Go32ZOI0K8HSMa59p2JRzFz/PP8lw/nt7XBr3uN9Irdkbh0ucwuam4301u9Nw+ptzU3BlW7K5zDtcGves5G4cxcGZrKGQrOnetzg0S4wEM3V6IZCs5i4Na3ZG5qLgrNzU1uy/w6NpbaGk4J7LRYZiDdovw6R1Fpm1HJAiFIVLR0niCSRZAHDOqon0xaRSUcYZ7qVTl7m2GA8WZ2CfQ+UaN9CCS3MboOLmAlpadlI6p9CKTxNpzDZA+6pfDUboLQWEbJgc0cTi4zmVPdWuhU9Cifx29WFT0KnoVP6ShPnkxkxWj7SrR9hUn2lA9Cp6KTspOyExkpOyk7IzGSx2WK4uixXF0XF0QNJq0LGVxdFxdFxdFjJXF0XF0XF0QmFxbhcW4TphcW64t1jusZGK4vcuL3LHdanFY7rHdY7oTGag+5Q73IzuoPuUH3KD7ljOag+4qOqj9RQ/mKg7qP1FH+bRR1UfqKjqVGWJVn9RUdSo6lRicVHUqOqMDCc0Bgo6lR1KIyxKhR1KpaEvIg/dMZGEnAKO6s9/uoQGWahQjooUKKqX2Am0VS5YTJyVmG5zgrIUNmNe6pDZjclSPNsdJUJ8hhI0T8aMPoz1TIc0FWQrIRaoCgKyNlAUDZWRsiBH0NNhSULusI5JuQrOVcp2Vw6XH/AJ1D/uuN/Npv9twa3G5Cs5G4dO9RIAJOiBkAjVaiukeGDroEKSka8CkA4trjfSK3eko4SSj4jC0aI2PdVqKi4COpwqGZuNyFZyucw7JxcBIHesa1njpQ7SDFw5iqkfYsmJGqa4OyKGZrc2S07IekdlI3qOldDS+YDhqhmbgyCc4NElebRHnC81hc0WhNwZlNYA5x1NRyK0VMRmDxtVtrqUO0DVQyXOfvUE1lhxj0lUbbIjrWbmprd6Shl9B4n0N/mCdqm5Cp1PPhaS1g4GD91R2/LLqQ4nTYVF7QQJxXhKSQG9C4nuUahSMLi0OxGi87/ijR9P8A9o6J7i0SGF3ZHxVH5TnNOO2q8NSGkYSd4TvzaL5uUedL/NcGve4MhW70m4dKvFO4LAzP9EMh2C1+FYptab7CotBc07I8XiA3RmJ73G+kVu9KpGW2wqW1wUeEuP7VHMKX0JxxoycOi8y34kR6W5KVqVNbchVKdlc5h2Qdx2ekpxhpMShTfocENe9TpcbOif8AmAfoqxqdOEKzTa0gVimytgqioXNeXErU1tfLMeoTfSE6ia8yRivJA1K9tTiaQ2W5Lw35fyUM3XBkKn+UHw6iw0IQ/h7TbIxm4MzX8IHAIsY7NoVLRgUhDNpTGMIBbSFaZ1FBSpWlzU1uyQ+g8T6B/ME7IpuQVJSWP8t7uypiaQupQyGzHyqN1I5hLnMOHLV4qhpqQckNxG68GKYh3lvZpgUPNjjsfFVOyne4FtDiMnWgvDveaZ77Fp22Sa8kiaNze6e0uEBxb1C8V4fy3M4y4uleEaXUfDTnDNsI/m0fY3KDI/zXG697gyFbvSbh07p9IG4c2gQoZa6363JvieACyfMyhRpPLmmtpxE0gjtU91hs/ZUTLIM5kya3MtauHZMYxpH4hnvW70ouAzKohaJpTrl2q5gqeibZc7Ge6LH0NIM8WzgmUjHQGuJwQ1uNyFbsqjVPEqTCy/Y/sUUKUHKUNapTxJa7oVtWdKpUoZmthxpR+tDIJ1GwmdUGxzlHTHVPba58E2y0YLyy1xsPABTRZnFSN1I3UjdAiBipG6tdVhgpbuFabupb7gsJKDhusECMpUhWgEPKD7QIyyUMDrQVpu6lu6tt3QcArTd1abuiRurTd1aClWsVIUonBafQeI/K+QnaoHDIp4L2FuInVNDWtDAzBMoqOjtWGxKnon2ixwAxhfwzmCjdRCHtGPVS6y20yCpPtVM6lsWWMMnCdl/BQxtgw8cyb5sC3FrouLZNon+e6ldE5N6BUnhHl5fRusE5oz5rOxUu2C4ui4lRTZ/dcXRcXRYoT0XF0XF0WKEwuLcLHdGYzWO6x3WO6PdWRata7rHdY7rXNR1KjqnUDXGXF33TaEgn8Z8bKOpUdSn0LXxJd902hooHCrI6qz1RAheRbPGD8ryCw/hOw9pVhQJTqMGO6sNm1GKst2VkYqyFYaoQaFCshEABWQrIUBQJT2N8t/ZBrYGGigbKBjgrI2CgItbjgoCsjZWW7BbYKBsoCshRioAxUDZM/Mp+6bkFAUBHRQK9SorGQrOlcBCJKiqEMqzmKoqFZyua1uyQ+gp/yinZFNyFbsrjv73NRUVR0gpGNcNU782i+arbZicamZDsLguNyFbvSbh073Ob4uDM3G+kVuyuai5q643IVuuFptcLtE7zXCzA7rKoa96zkeyBrOlzU1GidyPjpoqJjwXl2qGQrOne5zG430is6d64XMbgyrObe9zes5XNa3ekofQU/wCU5HJDIJ5IY4jOCqalH8Mx85lqJtMneqlpPLZajUKmpvLpGjSySf7IzAmoEHJM8TapbAGpx7LUJzg1pJ0TvFUDqJxD+U4arwdJRtouJ4BnVPc2aNwIic1SeKomFuIIOcaLw/4viKWlnAYBO9LuyFxv97jchW7I3Dpc1+Lg1uNyFbsrmouDN1xuQrdc1uDXvWfSeyGVc4i5qbg9IrOne5qbjfSKzpc5rgrOlwa1nK5rW7IoZfQU/wCU5cnwhkEbUcMSnUdNbbQYHGQNF5niObw/2NVJ4YUk/iPE6TgqNlK7xFkkEs36IzAndGdFTM8TQgvFLg44wvBNfbtNswMMVqEQCMQvE0TTapGUdloj5VFYorLaegA2fCpIgHTNeMZQihpHWGzoVQsopDaZrhORyTqKjoqJ8TlGa1NxtwZCs5XNrmtwa3G5BSFhunERmpG6kbqQrQkYq03dWm7qRupGKtDdSN1I3QIgKQpCcQi9oEkptLRuycpC1UhSFIQOakKUTgpUqVqFKlSpxKlSpTcgpUolSp7qe61U9CpVvogeinoVPRE9FKnop6KcVPQqeinogcFPQqeinLBT+lT0KnosdlJ9qx2RlYrFYrVYrFOy+hphNE5AzRA/pQmFiv4eneX0sw+1w/Co6V9I02qMtIzWKcHlpAIB3X8IWgOo38YMydVjhkuLoqSi8xsGOiZ4WkZFinjfBYyMVxbpzLcWscZT22xDsk2ja0WBlCIpGiyWW2qkd5osmipD8JlDSWGsiywGcTJKg44qD7lB9xUHdDuoPuKj9RUdSgMPUVHUqOpRUKFCjJQgRrIKhRioCgKBsgBjgrLdgrLdgobsgBAwUDYKBsjlc1ub3G5CsqlxdRDcog2mEaZ9qtfi4aWHWQCTNZyNza5qbjchWdO6eYY49E3IdqtaoqblWbmpuDKs6d6w51qy7P8AqtTWbmtbsvoopKKYFpn7hUZJY0kR0rdlcOlzUXNfi5qbgyr0QyFZyuHMVW/xQz9M1c3xWaJzvVSu7DBUM26VtoloIgm4MhW95xDG2iM9AmPtFwLbLhpXS0nllvYrHWve430it2SpsAx2zqi9owJC5kXtbnXQYhzvc41PZbbCORRIDZK8xnuCBByTiZECV5pHroyOteprEgZym5BPcGCSgZAKOipjwgbuVoHIpz4MQSeiaQSYqtVNyUjcVcrfi4C204TW2LIjJDIJzg2zOpipxEtkpjrQ+aniWn9kwyJrNzWt2X0RyQyFbsrh073NRc1+LmpuDKs5IZCs5XNQpAzTJ85j3c4MVeQwniLj8plHYniMbVUlssNjNULm4ss2XbVPZRu9QTG0TcGn90MhW7L5QJHiX2xFoQ2qlc5r5ZRunXqvNFJ4hrnNMAZJtIHHAO+1Y1uDIVuyT/NLHS0DBNJLAeiow0tmJnNUBkdpVCBZtamuhwtM2dVTuy6OEo6qJEL8PKygAMkcHs+U54b16JjbLQFSn9VkKhBDTNRMYqiEUTeyb6Qmlr6Ql2mQqOipuQ/qWAVF6bW8lMMecfn7pzA1k6o0YsTrEoyQwDN2aa51oDSD90yjYWiRmEx34UnZOmGo0b3f5ionOcwWs9Uck2jh86xU8wOqoRAcNihkqVjrOL5xQa6fWiMlRDgFTvSYzVG2BWcrmprdl9E7JDKt2Vw6d7mouc1wa3BWUMqzlc1CLXvPHAbtOapgXNFnNpkJhJtE4ZYJzGl023jsU0Wf81x7lSN0XvnBk7JjDbtvdjsNFaajR0JMwoohk3HsrQVodfsrQ6p9KybM47Knh1E7piqN7ixpxyVLSlrMAZJgJvhaSSfS7SEwU9smkA9MSFPRT0Q1wU/pKn9JU9EMhgvhT0R7IycIVFbFGARkrDsQDhsmixkEBZEBuCx2WOyLZx1XFZgZ7qxwWIQDgDaxXwpKk7I4xgmtDcmrHZfCa6S6Fjsmh+bon+is0reEAWf6ITATmB3KE0FohYo4iCAgx2HFIGQXl0npLhZRaZwjEYp4c5oGGiIJBGGSc2kMEEAhNZg2NFxdFZMRhCcCQpp8oaOqaLIiQsd1SSXtYD1Kx3Wsoh4daGuYTZhEWgRK4t1jgoO6x3WO6xxxUdVHVRhmoUKFhKhQE4CPonZITGax3WO6M7rHdY7rH3KZ1yMLHdfK+Vrmo6lfNWqjurPdQgFCsqyEBgrIVkIgKBsrI2UDZEDZWRsoGygbLZYbL4q1uDXvWckMhW7LLUL+GofbVAw6Lm+Lm9wZCt39xc5vi4Ne9ZyNw5itzbWqa0NkC430is1yp4viuSm5VnK41kPed7gyrOlwa1nK5qa3en6J2SGVQewmA4FOyuUeX+83NRceSMgD0TKUOwIIOxrGtwZVnIoZCs3NRc1uN17ms5IZCs6dxc1uDW4MhWf73OaqmJFG4hQ/Ah/3TCSMd6z6Sgi6ASmOccx2RzFzmNVpozNTPSKpCpJs4ZrFFWwXQFzfFc5KjBAOM4mtyLocBupqDpe4bVAoiVRuPpOelZ0uDWs5XOY1uy+iOSGQXiDFC9UlE1tGHNEFqeeGYJ7IU2IDmObOU1OMCbJPZUL5ngd6k9xtMYMz/ROfYsziqXF7KM6/2X5NJHK7LumGlFJYfBkSE0S5zpyMBGlb5ZeMYQoGPxfMkSqAuhzXHFhhOcRSMbvKIpIm0FRutCbjcqzkUKzcOYuc1wf3rKGQrdp3Fzm+Lm9wZCt397mtVJFgyqKkFgTorTzNkYSrZEBwhPdZbKklpkaISqX8soI5hNbE1eYNj9lqVSHgdCYxsY4pvC6zOESE9rnMACxqfJESmOJGOYzVMSGYKiLI4U4AzKaxukougYozbonHdNyRmDGabasi0MU7KqE62MWx1VFbknDFEu9sphd7danjgnUJmIBqNwYSpG4VpvuCJG6tN3UhSFupqcfojkhkF4gTQvXqoe7Qm40TewX4s4tbFbBZpKRvWUf+ZZ/JC8S8RZGcyqQE0tCRuvEDGhOz0781iooikbs79k0W6Kljcfsmcs+0JnqpTuVSUYeM4cMiiynfg57QNYzKaGtEDJSFIUjdAjdSN1I3UiM1IUjdSN0SFIUhSFKlSpUidVPQqehU9CgehzU/pKnoiTHpQJ9qk+1Y7IzhhquLZcWyxXFPwuLouJY9Fjjkseix6LHohK4uix6IyseixWK1WKhBrm0r/a4L0fyp00mAOCpAXNKOSx3TmlzSJTX4YmCs+ZAutltrRG1GBQLjnKxk4p7C4Zq2QIMymNd6nHFDLNMJLn44aLHdHugD5z8dFjujRtOOqg7rHdWcZkottCDKo2QPU5HBUXoElOiyVQ+kt2UDdQOqottlgg0BfCcJEICBChFQFZCst2QAxUCo3BWfojkhpVCLQBgo7qFCpaM2muZmF5LqR00mAGQCZQUTJhuaZQ0bMmpzGnAhWRsneHoXGXMQoqMGQ2FAnJQNlA2UDZAZ4KAoCgJuVZyuG5qETAlAg5Vam5R07HGMelZyQyFbtO9b3WR8phJsk+25vcb6RW65r8XBrW7I1loOYC1CocX0h7V6m5j5eGya2yIqcS3TVUYOLjrXzfFxmSe21A01qcRGaos3nc181wZVnMXBrWbgrOn0TskMhW7K4dLnMLnMbg1uNyrORuG5qKmPa8Wm1cxrc/zKLvTWfhUwija8cjv2rc5oB4h900hzQQasVTuLGiN4Tmnw5Y6TZOD1SREHXBPprdAQ71AhUcwz+S4NbgyFbrnN8XB/es5G47SFRNLbUjOvU3G+kVnTvc5rjcq3tacwgABhXzXBlWdLgrNwVnNv0TsihkK3ZXDpc5hc5jcGtxuVZyuH+9zUKmdZozucAqARQs7IJzXF3C+yhRHmpXn9qm4YHlp/6ql/Kjd0VOY1+DhK8ihA/LCAwGFUYrxfoZ/OFTttUTwhxMbOoC8XQ0Ys2RBMqhBcQLVIMLg1uDIVnTvc5vi4Nazkbh0uam43IVnTvc1qkKQm4BSpRIUjdWhurQU8Skbq03dSN0CIUhWgicla6FT0U9ED0WOyxWKxWKxQlY7qOq5h9EckMq3ZVSN6jovlSp6qcc1I3Vobq03dSJVpu6tN3VoboEK0FaClAiFI6q0OqJU9Cp6FT0RPRT0U9FPRPfYaXRkFRnziHWTDf6pvnUYsCinYqjBa2DnqsTIxCFG4c7/usdlSUDnPDhAxE/Cc202OqFuMceq4+iLfEH1UgA/SmNLREz3XH0XF0T22m2XQsd1xbpzLWaiIE6LHdQd1jvVjuo6r5QGGag7qDuj3UdVHUqOpUY5qOpUdSo6lAd1HdQowUBQFARAwUBANhWQoElWQoCsjZQ2BKgbKyNkQEILniyMFA2RsiJWAeBuETZPpwWBqbkoqNzmuNyFe1xtZ0uCvnH0RyQyUDZQE4CFAUBQNkdO6ivW5qbg173G5Cs5G4bnMLgzNxmVbsjcOne5zXBr3uDIVu073Nbgrc8RhNQe061HMIuaMyqE4EdaiYtFC2cZ+K6Pig/ZDjdOgqttt7AlDiJ4taqUSxepzXBYHNeh8aGp7nNZLRW7+9zU3BlXtWU04V7XBlXzfROyTchW7K4c23Ob4uam43XvcGVbvTcOne5zCqahma5TcqpTsipyrOne5zfFwa97gyFZuc3xcGvesh7QbOSBtNKdZ8sN1WP4cqlcWOY7TVQCqPN2FVJkfi430iulBeYVDGRzrPq+FCpuWpuVWqdlc1NZyTchVitRcbXrcBUhSFzfRHJDIVuyuHMXOa5zG4Ne9xvpFbvSbh0uc1wZm43Kt2RRQNR073Oa4Ne9wZCs3NbgUjdSN04vxiITIGqlvROhwzVkupAXnAK0N0CBSd1aCNkyhSgCHGEHN3UhAiFIUhEqyzZT3UrXVWhs77ISXWnNPRT0Vqy3IqjLrOIU9CjOyk+1SdljspM5KXbLHZYwhMLiWKxlY7rHdQd0BgoUKMVCgVCvmP0RyQOCkKQicFIUhSiRgpUqVOKlT3U9FOKtdCp6KeiB6Keik7KeiGWSnopOyMxkpOyx2UnZGVisVjssZXFsuLZYoTJXF0WKxQmFxbri3TphQd1B3WPuRnDFQd1HUqOq1zUdSo6lRVChQgMFCgIgKAoCgKBKgbKAoQiqEcjcOYuamsJuVZ073Oa5ZLyNhWbnMazkbmtwZV61m4Mz9Eck3Kt2Vw5tuc3xcGZuDXvcbkK3ZXDpc1uDN1xuQrdkbm1zm+Lg171lDIVnS5rcFZyNw5i5qbjchWdO9zm+Ljcq3ad7gzNZyNzmuCvmrOVxuv+Bj/hHJNyrOVw5i5zXBmbjde9xuQrf6TcOne5zXBzd7jchW70m4cxc5vi4Ne9ZQyFZ073Ob4uDXvWfSbhzFzU3G5Cs6d7nN8XG5VnTvc1NZyNzWqQpCkKVKnFfCxRWKxWKbr/gR/hFNyrdlcOYuc3xc1Nwa97jfSK3ZXDp3uc3xcGtwZCt2RuHS5r8XBr3rwU4KRUSFI3UhSFIlSFaCtBA5q0rXQqcFa6FT0KnopyU9FPRT0WpwU9FPRT0TcsljssdkZWOyxWKxlSeix6Li6ITC4t1xbozusd1B3UdVvioUIhQFChYSoF7Ws3G/RHJDJSdlJ2RmMlJ2WOyx2R0wU9FJ2UnZYzkpOyx2XFssZWKx2XEhKxXF0WKEwuLosUZhcS4lijOCxWO6x3WMri3XEsd0NVjusd18oZZr5XyjkoxzKjqVZUZKyFAUBQJUDZQNlA2QjFQNlA2WGyGVZ073Nbg1rOVw6XNTcblWdO9zW43IVnTvcGZrORua1nK5rWbjfo25VuyuHS5zXBmbjde9xvpFZyuHS5zfFwa3G+ltbslrWcxc1uDXvXohlW7Tvc1uCs5FCs6XNTcblWbnNcbkFImo6XBrXobgzrOVwa1mqVITMvo25VuyuHS5zXBmbjde9xuQrdlcOYuc1wa97jchW7K4dLnN8XBr3r0QyFZ0ua3BW7I3DmLgzNxuQrOlzmuNyFZ0rkboHNWgpRhSpXwtcljssUZWKxrhQoUVFNy+jZlWcjcOne5zXNTcb/e43IVuyuHS5zXBr3uDIVuyuHRSN1IUhSJVobqQpCBCtBSiUDgpClSp7qehU9CpxyU9FPRSdkCdlJ2WOyMriWPRYrHBYrFYrVYrFYoZDFQd1juiOqjqo6qOqjFQoUIAQoCgIgYKAoCwQjGs3NTWbgr2rOSGX+BP+G3JY7rHdGYWO6xWO6M4LHdcW6x3WMri3XFusd1jOax3WO6x3QlQd1jusd0Ms1juvlHuo6qOqjqVGWKjqo6qFGKjuoUIDNQoCgINEBWW7KyEQIyVkKBsoCOigV63BrXuhkKzpc5rgrORQrOlzU3G+kVnSqauY9rgyrOYuCs3BrWbgr1rOSGX+BP+G2s5IVu0uc1zU3G/3rOSGQrdlcOYuc1wa3BkK3ZXDmLmtwa96zkUMhWdLnN8XBWThc1FzU3G5BSpROSJU1cxr0QyFeouCs6XBcwUqUCp6KelWKxRlD/AOeX+G2s5IVm5zCqVKBxNxteiGQrflcOlzmuDXvcGQrdlcOYua3B/es5IZVBOua3ARipFR9JWle1zU1yhlWYwUhSN1I3UiSpCtKcFPRT0U9Ec8kZ2UuWKErFYoyo6qOqiqFCjK4Mq9a3Zf4Jz/wANutZyQrdc1FwZm4MqzkhkK3ZXNrk41yhrVI3UjdAiFI3UhE4KVaUhE5KVKlTip6Keinop6KeinpVPRWuiBOyJKxWKxWMriWPRY1Yri3WMZrHdYr5W2NUKFCsqyFAQAhQFAR0qFQ1rOVcrUVygVKlEmQprCmuVKlCvWt2X+Cc/8MaqFCgIDBQFCIUBQFCIxChQFCjFWQoVkINCshWQowQAhQFARCgKArIUZKFAUBRioCgVDW4MhWcrmoucxuCs5FaVnS5zfFwVnI3DmLgzNZQyrOlwZms5XOa4Mq9bgyr1uCvVSFKccP8AC//EACsQAAIBAgUEAgMBAQEBAQAAAAABESExEEFRYXEgkaGxgfAwwfHR4UBQYP/aAAgBAQABPyGmMEIggky/Cv8A1wLrjqX5Y/EvzZ//ACa9K6ZJ/Iv/AFT0T+Jf+SPxr/3t/gj8EdEfgjoWCxf/AJZJ6JF/+Cnrf/gnof5qYz+B4tpZm/gtkbYWmN5G4iVqU1Jx+ScJJ6J6Z/8ABX/w3/HP/wAVfhRH4bdcLDL8LQpFOrIEIhaELQ2EbQ2WC2TYNrD5Tm7kNX3PoZyHMT1G9N6bnAQUfxI1o5oXA+B8SdK6EvvTlwkdGR3w9/BbxvIWsiVqSX/9lf8AxV/86GR0x+LLF9bjT8M4wLBf+qhCNg2EbI2sFsYtHc5s5snqJaiBglvOaOaPgTpRsOhqzLkILXtgbgtY3iBOonclE/jQ/wAC/A0KSXSTgJyuh0IRJKKfghkfin8gsH0sgXQvwVxX/wAxY/BDQ2sNt4G4yGrOYnNxMbmFzQ+JwRse+C+pm5wUdGLeN/BbxtCHQsLhdJQJwwrXSkDOdEJfqul97DdG5p6o6Jf47grfnX41+Fflkn/4kfhgoRhC0NhE2RpIaboZzIbgkuJazQMBzRGtEq1YnSTGpkZesT3nMQ0ZEhzJWTKE5zKJM/w06ZJwnFJUFCV+memf/Kv/ACz1L/zz/wCZYb7n69bCnTFC35xghaGwbBVr06ch/hl9LRk9ZvekFuqIQfSCNA5o+BzR8CnBfA4ji7k6EToRMrD6mTmDwb3xvRa3DLcPoRDR9jeNw3yrYbwk1J3IE/hnrj/3RjJOFcH1+w/X8wtxjGC+KwuqOtYzg0V2bTK+fbBam4bpuYDfwW4bhvGyKFhvI3UbhDU3CdRK1G0QJ6LdcEIjYWgQeRtG3gQI7nNk9Q21k9eLcBGtEbT4HxJ0InQwVXAN4cxxZxI4G8bhvG4TuSteqP8A0r9fzD9sJxeKsYt/gXXAiarGj5YQQj9ChCI2QrshoJLQgyREsjYRthRnCJ6wNkbYc9C/QslTxkbJtkevcamruQ1ZzEtQk2liKpQjUiNeCqKUiSkpOtBnrOLOQjo+xDciE3C3sLcJWpDUp+KFoQtCBDQ2sLbZyEdWc2chDEYAjURqRGwXEnSidJOglgOLLbMhhbmChqbhKKEipaIczPW79a356MMaCVkNon/wXixYZov5dGTjo8nrL4sbuWCwu8dHuxduiW9YkXRfsxuCRGAiaCGhsC0CHabBEjuSq7ObOYaaQgoLmX5HwPifE2TZJBtqOYnZnMRI4G8bpukrUpqSutCGloQ0NrFIjByzglrICNZ8SdploqE4DmeY5CI0awI6m0G1qTG6h0ytNWKdSOlfkuljH2G4b2GTjouKIwt4oTVEjzxv5k4q/jo92OXQLnQ+iXRfuxvdF3IjHPwsFh7sb3Q+iv542MVhXB35EEFNCoNpG0h6IUVjYwnYrU5M5iYSk0IQRoFOaPicUThCZ5ji8KBuG+bhK16EDuNCELQjobAeiElGC6oH0yJ9FwUwqEvUaU5BUWG0qjHFsFK0lVmcSHIvQirY4MaCVmI5SUcxpMArlgX3HIS6NkmY/gMBuG6VtRahOolQ6jqFSSSy/R7eDwXRex+8b3RdywWCXaXRb1jBY388XZliK4XcuhYjt0B+XoSriuCsscnRaPBLckNCbI2CacKKd+4ccxPEBfdHwwFPZ/jXVOFwXgwcCeQsGyiFFuJWTTeR4Qi6rdhOSHhDkyskSVx0ROROJqBErJkzKFTCZSBXFYlVsJTqJyqYVV0YZMgIgSQqECGgqVG3vAic2PMM5MlgEScM5HNYZ6CRJqKE6CQ4DmlCQkXWZNauQ+eFEdJRJAlDZhTUla4MpJ6R2YrLF35YwJV4tUEosUryx+RXxXCxYuzCMaMMnI8Vd42dGbG3UsF1U/JWLjChPgm3zLstzwqlNCpsTlwSkqlS1YvcjDQr7CakzJLAmL3ioPKEZ6FooXKxJJF6IwYDyGq+Bjg0je4cvRoZK4t6okodxY4wTLPlEYKpnKKuglZoL4wQG98kXYenAgg6ZMmrCKimcuuqnFSY6QriIkmqFg6PljUX3viyasoky6qXiUyJKtxk0mJImKDsvSLtiQiNIIEIgJXwcmNUdRHqQ9SGHNByI1E7RVOCdBOgmFhNxY4HAbryLiBATQQ1JWpc4FZE9RZ842rnouxW4wK4jBa+Cx/4rhasHZnvEhagvlwImuW+HYiaGZFAVuvsUGIXVaU1fsZIiqWm47X/AEocDjBG26K7HdBdr2UkVx51LXRl5XpzI2CWkMiFY00y+nAgtoqplZFM89StOiGlXF0QSQW43J51LfIyHFYspeQpllArcw0oZO2VbDbSZZienysW422fgezfCuUidB+R1qw+xG5mO5DtflgUU/UJJaSeedSRbl5u9CS6lkNbXzTEJFQcfvgT6hNMd9GavWi9CH8h9yjMaSJxacdmrhEJUo9lqCS042JN/dcSWywW1UxOlj+2rMJa8DZB+Cpf38Vhs5GV0lHJUmg6jkxJJVbFzac5RPBBNNKyKWJTJTwcMiTanfYtcYQJ5dCXiwQy1Eknu6FcQj4GsgSUKG1hNU1g5Mk82KdSGORKD4E6DgS8hOzwNVchhJHngpqULxYwYumOmOm+UVY+J8CpZCSKVSFVk2xBUDJuKKzG+1omloCpJ91ijkUMteFDpZLbmGa0lnUcjVCfyXm0oPUVu431fAYWVEOBtbrPYtv8wawqr97IL6EaetSgSTA4ZqxBJy5SgrfNiuzZyrkrsyW8wrxbUU0YoxcVTcHRalRzI3Z2SeSoIRU23JJVJaE4qE8lyOhUNNGJzER8opOA4nri7l8v56ROkpP2BbKK0/kQsnMaRZoraBOk1SAlByK1DvDET9Qu9RCKaqfBWldUOSUa1RIlIETJ0kV4R/gkK1qzUNvQh/vMVS0eDSHcTxqm8XgkvCYMTqWd8hHgrfkWeT77QeFXUqW40q1I1z2SJSkqyvJSFDGONI1FDXJbITibkHzGuwIhlI8g1cWah/JEZRlrKLDSWnzhIJcc4J4TlZYTg1BTB/IUYMV+EodhWQsLsSITgfUIIGFYggYlyQ9NE4eB/wCK6LTxjk5EoxJLLyo048CkW7E/YkkoSSW1MGClV3YiYipqHRTFxRG/jqRiaCwTHDeFyXBYvoWwiSmqlScVgkJJKErJEQJfkjB2JQwgSi5WEMIUKIhGwbQSVwgXDemW1LVTI5MbaiBNiXuyWpITSvMRrORyEJl/g0Z+x/6ImqpN3kQwy0Tk1wONTfeSKgRXdpL2VPuIyrokpCWxUV3FnyxrNXX/AAEDCO46jalbUTq92jQp83CoV94qtOYycqmbiV3JsVqsl7C2hSXwS5lWZTXPCm+QZNZAuiRaiST3DJoLIK4bEyZTLYsHkONyUSJ1aJJHYyM8TEOIYmJQPCxwUaIH4DwOunSumC8WOMfYVXTY04ZC0SywdvGCQxqyTJTNkPiUuNOuX+h36HqXQl3uxuFCcY2/OEYPwP8AA7cbnQ+hXo6piJCpi+g8jChFGKyIRDQ05IWhHQgJXNBaREhOYvUXTLOTHDPMc8xJBGoTmRoIiJVIUwqEvQmg5QbspyYldiaiEm6NqHUaqKkMnhLCc0EWMlCIiTUuRRkJBmRZ646FjHRfFZxj7sZP1wRO7zVGZciXxlMkLbF2ZR0UsX0C6C18vF2ZYsbVw99Hqf43Xuh35fjBeIxeLIvLjkeJjk56M/HRbxWi56FfxjkWsZ05GwwJgRI0kKKyI5KCBFYEsWpJqKtaCTWZXUbcDIkhshNFblsf4IwfXdE0XHIS1DTpVcTaiQT6hJ0y7EhDFdRG7szcEtQ1AJAICHqSi5D1IYjUObxD1IYiVyJupzRGpEaAqLq58MLvsKhUwSFjcSEhLUN1tmfIhuRE1LIm8JdRoKkrUlalcCUTBKHfoL1dFr5659BdzxeZYxy89Gbh11i56Ffx0WMGJbnCMEqvGxixfoQQaiUYpKCTB/8AjkrFS+b8LIrjWtHB+x86TwlfUZlzfI9MF1XuxdjxsbfldD9vQr9C35xucFrjG1croycdDd0jCNi0RsQtBEmoQtDawGkiGFAQIHy7nJiSlSCN2JQh6nIhisqpAcjkLQHxGHQVhUwS9BvbMl6E7E7CddGTzggKggQGlLklakokz8dFvHIRikEYWMVsf0wRBaIIqOzoSnonoz/FfHxrrj5RJNdEIRrOmrWqIVIlqUQ/kn7yJwXp0WcsXZniY2rldHqfQugtfLxuFixycMZG6OXR5PR42N78A9Mkkk0hDBqsJTs8G1QeE4LEyZax9nRm46LGEIWnyQtCBDQh2ESJCChdnNnMatUjURqI1CqeCug50K6EhL1DEkohqIi5uEod1+Kn8vXH9SKan+I2eh32PvGhIRS1CVkTC7rMStROrghqStSUOq1zJWpK1G1DLBJJZ8lCSRksV0Fr5JwucFix9y6PQ+i7n0WuiWL6BMJMrg3Qm6FIUDZoXJwkbBTJNyobFMMnPRMfAknokyFncpj+uKqMsEmTno1BTB2FZY5BLGEELQhaDrWIcn/5Cm1ohiYsJCGF+GgsMTRXS22psG0bAlKoyNhGwjYKymY2UbYcToKJSjbFpFJziWyNJVMSiQzCOrOTIbi3M5jkGnDCThCAgLFcyNp8T4lm1mTpQ2mTufWxMCcEz1DIDmODKj0HFkN+xDchalJvDReG+RabgMsQWLWCfINdRCKRVSGjV+RjLQ0yGov+hgaqxKJLioxUTuSJ0E4ZOcLVdtRa6qQ3bsTgVcZugyfyWMn6Yy8r4Ukli5xkUSxdhOCODMpJwahOGnOEkjeWE9NOldVfQ9voXgXRm5ZOFzg8DHLw6H4H0LobPnGxlixtXK6MnD6PJ6LHQRiwgS1sgyeuZVo9CKvpshMCI291uqECppQhaDQUWRGhG2FoIdhZ4GwIErgTTdaFGhNpUiWolqIYeolqzBXf6eEbEIUU0ExrLOaG0SpO0eGWA7pUG8ZYBtocxLJkT1EdGPOilAiIppXMgR1IipEkjahiZJIwZxQTwOoLqDJTB5k0w1LPn8i6rVz0e30LwEk4NfnG5wWLjHLz0PwP8DtfONzgsXBXC3g6Io5dHk48fgx7eFwTrXQvip2r2OYP8CkMbKCaWQmFhC+Sk1pmOrBQo7GRSkT/AMGk1jlsqkN9hkiacp5iJU5lSPUYmRJKyPJwlVLVP4Eqxdn3cidjGxciRmfZOGXkqCd6GDtw6fbpIR89H6dC0wgjC5GtiGhDQhKhAaEIqIciHqRJYFGtHxKGRC5IbCjIklfgcw/liqr89cck7M5CWoeSZwZxZHRiTOKC6AHk071HsSzwL+TpiTmCUlcjdN0aSjU3DdwWRLENBuLuStUKEErUlaklvyQNUtLjC5wKyxVxwYLD3OhK8+vX/joeFA5NGUEFk40SHp8HxUqVza1oEWKypVTAt7y4JJoIn2EeX7H6Llim0DsqvvNKg6QumjKIl7BGhued2IGIVWIXLoId26tVhVPkVWaq3CITyGTUF3+oR00PZEg0ss0WYVFlGsv5GT5diPswWBMuPmFNKu7wSlHWEiMLQZhco0/BDHLSS3SyKjDsVCuP64JEFmNq5XQr8TsxKMXaRhBbhAlRBGFnz+ZdHrdD8Dwh3mVlyY7I2f7ih2mEzAkBaU3QzV7QcUNfAhR7p6Wx/eH9gKVJcjYBrN3vH90RFdXWf1Z/YiSdwmnWf2Jp9wL95MU8E93shXlpiLVypvv8l+yHPkC10g2EQqPujKCx2Rpv5gRShyiPmfMtVdyMJrOEMaOD2aQRQtQjAUAqnU5o+B8CkrHxPiUMjijgif7FyCegl6aQv5KK3sTkMj2WpNbSLgKQohXsKxrsRzaBRbjCZ0xRZ5lKrcxDoUNTkJitEWTsWc3YjL2cI5F5NM2IDau9nuhEE6rTl/BCTD/RsTDyyLtVQi1lImLKVS1FhWygpJVQJUKGO23wOXdU5K0Ee4oK+pJZJZtrlOj+xhMnc7IRutxW20W5YUTk+diVIlkoOZo4DK7zC3LCMP0661c9CbkS2IdmJRjk6LMXddFn4H+K/oHbw8IFa78uE4N+5sVVrXsrFYS4yZgV2WPkcRLcJCR/lHaeLNtmSM0lVDWED032bfITnhnyYtsPQ8ZQiH6krpSKU6sk2odnAknQW4oTMI1jvS6FlOrehty9GFnAPyCiETNOHGD8nGCponL+gp2t6MYvcElHI6iqe6gclh+joft6G8XQ9OLUJY3TCdQjt2zwpF08xJQoQGyKCmZtG2LSHSkyTXJ8xk6TKUMUipQk0KTbTdtzJKVKdxck2dSWJYpJH81IFlGZkRqHoDNwnagrDqpDOlMyWhLQ4EE3c4EVkQauIZvG4OIVKY2YQO66LXz+B4ZfjiR28sIQURVcPCvZH2Q4orHz8D4tLTV1GexjQaJTuNuWvdko6tlLM/ZZKMVyKF6yRT8ZbQzlqa5Fh6HhMvgxib8xa80F2cxQvQjGhuzkd6GtrHJKOplzoIQ69OIOFr+zt4dmQURyJZD/AMBqWsr5mRVKdvCuP/fZBu+9kCJWg1PHPA9BoTVrVicixpeWYnhZ30Ije9WK+vR7PR6XrGSz0UkkiEg2ZGF+M5ScaCSCZhk56E+wiVmx6GE8tIFAy356P1LjjXB7wQ2Fq56LsRg5LWCS0GlChDQhphJGjkzkxp0qV1ORyRb8/lnp8kgOaPiek+IqKcfMatdE6CbXF47QTpFKohEl+1e4tq7nx7j7TQoKSmCOFTufwBvLuPkUUOpZiIVcZakc4aCuREffgjW0+WZveBahvkSCBjh2gv7tooWxcSai+5SoVRlB3IeXCvubYopU2kCZK/UI4WQTLKIMRbqbqU5K4UFQbaA3IoNoTzeJwd82nm5Jbx7JKRFAuql3sJw9MTxt8YtQkarCbQzwnjJdyxsZYIFAfAkgS4mMi0kIQ8xdDh8BsyFjQLUPRc4LFSSNUZYscmNSzG7oWPnrnqXT5X4Kp+h7iCEkb/8ApkBvIm82TMjmXVbn8o/mid9YSQqOx9CKbG0rkf8AAfwES/5IpNF5IiP6kNt+2J/8RTYLp3VfI2f9sYVrtRNm4zSqyNZnLMuVsnfBRoiFoOKUzElojbdjVQp4BQ/UbU2RVHP3ZDXuZH/oIaTyNT6GKIJCuOQ3Pgh6xpyEDH8CAi9R8cD4DKkQQZI2Q0LIkGw+8kwDektRLUUOjMnZk7DSHRioVGQ0fYhv2GkrnTC3BRcmSaEb+E3ENQlFNR6KHmiUyRzVFE2nl1UGTnCKjJxM/FhA7iULF9BZjf0LHz+BdCfV5PQumxn1YmNsG+xkUq2YSX+BdYycPoXQt7J3U7yQ3z2scirqDyN4En3xepJ9EnTH2YvM8LH3Ipgz2sYIVqMz5Bts6ZyIn/BtL5w8bCBYCy8TITEFZW6cYep9MnBKixxj7Bk4LxIphCFUKGwSjaorjmxWcR8kaBg9ISbggR1YtzJUcsnqG1WKSdNEPKasYRqJMytkJOXAlyFC6zE0xSR0WKCocCWG6ByHA+QmsBawhtVIErDPzg8H0rGBfh6vfQlTcZ2jRLzFrKkOhQ7mKij4Pc8di1f4Bk5fgNyCeSbD/Z1GqqjWmCm1UVDcYQ7Dz8Hs4xeuBOIsfd0eNjb8rGR+/oyclaHwJNSQppZNUVLF6exy6z1PGxb5SjeofZSbRD7iLtJQ4XAdpsaPoyXoht8MXaUmKjRTKUPTB4wrLHSiR9+wTTUi9eEEHjYOCylmQe047BsjmiDyG5oSaVxW6UhSimmOclkL5XHYayKEXZ8nBECYEpCCspWaHdwWL8QJahC0IaGwWPkjrXUuitJzdyOr7iVZsjTLthFvEtRXdVBHlUSICS4y7sVwrkRgFQFRc5EfyHqZnNdjmj7EWqq2ISCroE/9gtD3J/sIWzEgH+oRWaoSJoiYgmXaBnDKj9yesnrGrS74TmOY23bQS/8AAj/0EdOxmQO+hz9mbpukCR2jbGyF5kQ1JRI/Z0MlOi2vIlyoIV90MWVfewtYXVoeYhqZWtO5utJ+Jp4dGnDEUwqnatBya8ELbbikymCan/COr0SbX+mGTG93CRXRknSM0Wfmq/Q0KUc5pGq8xt9ZyjVFQtN6Et/A/wAKna0nkLEZVPDXLSRW8Uczu5HVVRYstXyTJDThcom3Pw5BaiEmD0MJyAWO0BOqdULdXxObyPFptuM2MdwgaWJ2OF4LGOXnBVorumwl3aTwF2KxlixfQWY5ejPz1QR0L8YV/HRM4h9HctYUFIUycJC9Vp1CrEsfZ0ZOXQ3Q+54Rk8Bl/qEYXdF+vRLuwWHhYQtBFFtDZGx7YRpEgQ37kNWalcjMq+uZLZLyhw0T/kLUm9GFxaCBJ/JKJXLTNooK9TgoWdPuxrIgJUnWo5feebeZwRkJ9jcxvh+me4U3SRXbnjmJ90JwUouHI5YafxAVhPZyG3cEaSHAmpcYG9QTcsc2GtSGmnLVCq4FFkNyiiJRU2grohStoQrNuqvNRqoyst1TZbjNEiqITWljvcQSB9wpN7kaMiK6prBGk5LN5In+jrvyQolUQ1IajqlcxoQkd0UYB1Ar0JzLs5Enh8RGDsxWYvoLMcnRn56n+R9CvVjJ5vDi00v8BZEMUu5RmmIRXHOlGYGhdEGUCJ1igsQOORq8+jJy6LufQ3sMFJB9KgnZPvXG7mSiUTsfphJIbkzOJAbPGx93Q/d0edjkRxrPlEgB6wQISSWiph+vQtThd1gl6nyXODJEEEYjFfljqeMLqiwNoGqEyGwjYFQqK4tIYBuYwyENNiypSFgSf05hSSGzkxNqxqqqVEPXAsDiPYSEvUTuM1M8YH+Zg3jcRshJeNxENcKPUXlJwsd/wWBMaJxGbQsW16TJXsnNjNGtplZ9ChDAzYaEsvImHJVhKsLQYknE5kGTjC2F/LGT2Mp+hOFEuYD2cCw9PVgSy/ov1J6pkeNj7uhrP1Ixu59FjG35WFcP16LXy94+BjGIjBLFyZa68vV0WcfYuiK6ZYVMixYu/QsxydF/L/xNDCNghaCSdA2kbQ2BMi3kHofbyIShEijdIbWfpCoEREiRSVpz4SOTIxUSlpUG9Buuw5Fp66wnegv0EaW5OXQOyd2T7wVVM5CCk2SV2LIWf9DJCHrI/ifUiAoVfAiZk6bZik7MNBI07DK5O5RH6iNQjX2Mdcsx8T4YNhWJ/scV3J/oXKZ4EsSw1FVidxyGgZHfsb77M3DMDeNsbTuJq7mStSVqMtNsbVyuj9ejNyycPG6H0KCMHZnjY38uhej8CEokkmG4xSWMXfoZscnQtaMx9Xx0RisYH430LonchvKRYayxIkqA3c6SIPwsEPWT0Buabc1ZtWwWTvVxD1RkvCE5kdn0EZHnuSuZaaKaCk/h6Jk0nVZZ42yw+1twTcEMUCMfOW2xWePamN/RQEY5+SmQxnjYz7sYH7sFDwUWbP8AQ1owlOwcmSsbRARTk5sjv3Kc33N12HzfKvJS4mJiliWvwMi640xAojVK6lZiMkahp3PBGojUiNQlKpXOSHxHTkUVY4I4jQZnEnS7k/3E5BP9SR3I0JIS1EtRWlR3KMmcWcGSpErcgtSBAISam8NqlTcJR8mbnHJz0eZ1x+N+DoXROZNlHuqUyi40UTCLMaV6eZlgWF7o8noyDOOs9xlqI5dk1w8z9DW7Koso6f7SIslnv9wu51OitPQgBMVWjqipVzYl30t+A9mLPCxt+V0PwvBXKM8khnaulX2yOEh36rMyxCUZnjYK6Bsi1crBN4QFRnwCFBE1l64pGUEFnyyp0QJy8LpJMlReBoVJk1DQVDIGs3CMFE88XdwWOMbueDWC9OMT0bLz0Z+MdStCCEQkbBsGwJKkSIhIjqzkOQv/ABn1uicHMcWcGMHFkdH2Eu/YQnaqG6bo4zRaFJK4LYDCsNkf2j+qOZoX1Ey3eIaCVqiQnHyRduaBVx3S2E4DR8rwJiGdHeBWn9zXCR3MPqCeszc4s8bH9XR4WCwu5k2FJTJSO2FLVZne9NiG9lLs6U4LXBvMPsUkuZqr9H7h+FVUmV3cgCzcqPPCfETlFMHcNaiZGtlJOFUJtpbIlESQnmSjGR3CRg3JdyJwdmeBjd9LdC9XRZxfyJeCFfxjqWicL8UizxtIwYvxinry8YR1Foc/sholOg4qUSmKUV46I6pFNGZGhGwNhELKrG0No7QyyxeOKOwm7u9kjaNryxbS/cVJX/kTzgSuymqxSqsWZyH3MaaeoJ4ARqF3YR/Mj+ZGj2Erhb6HF2OSN4oLWwti7hoWWCQn+43cM80TqkvX4OUZNDuMrSlSVVWR1qCtmhlCGKboOqIHBZO2Y2CyO6m5NmVReGTMjIaSkEkgewrc3USs4lTcTw9zK5Z/gOi+bmCbYqSSOoZE0JH8iuDs+Cxi33SMV6MXYqXjH3dCuHjaJwXYpKjxEgVsJIddP41+GLNZXCjuPXpn7FKPVvZ42CLfno8npMsEx1phPRZFXyXkZbljh/JkMS6EbwK/GN/RRU+gnQeMxt+eh+N9Hm9HgY5OSXrhGyGl2jTQbQ244rZstZhfyJK+BSdkd+41IEIX7kN+5HV9yG4lbj5ZG7Eo6sVCDlOQrVu4t4lqwCTBGqR/MYLBT2I0uxGj2LNFyf8AgJ1dmFcsfE4ossu4qFQRSTdAkJBtIVTHMN8kyu6KVcBao3/iqdBdz6KttS+VewlNs398m5F+/g8vQ8L8cl0HvJ6NTVQla/BVd1xYI0FYzFHGotfMQ15Y38/xkdjwMbfldD6Ev54s8TG1cro/X7xgSnyyS5dKYvxPo9gmsPGLHGPkP1hQnQT8eLseJivkPFAsNRWY3YoEqvFKCVMEC8HXXpgXS5nEYg+JWoVzgjiif6E7J3FBHQ2Q30oSdVSHkZCrsbrwbjwMzSZT/gS1jcupTBch9iM2ttD59iG/Zn2hiV2ZvG8bhCSFq6h1eGNvDUNNOuorU7jK+RBN96lNTlhUdZ7ccjxsfYuh+PofY2xyPAxs+V+At+X1UDVTZ9HswR4Blj7eEkwJhJJEmIcTyENo9xOEkw2LFZiylc4UwV3gy8LDDRlZdEk4Uxr+BX8dHm9ZHc+6ngY2/K6Gc7Ekk1Ccb8SHgu6d2Cgga0qJsXUSXLu5P4xD/kZaq6mzNgbQqWMtSJudwh/0YkzO+pyHMNtQ5pVYlrIesXsCAj+ZH8hr5zI5o5rscuwqWXqcQnoXc44BOl3J/sUKrMliQkOaxL1E7iGnYJd76H0g3/BOVHoj+sbYcHYzcRDVErUZZhTXCvi6PZweDUpVIpySShxDqJCWCWXciSSRromJjsWsXflimJ1eCLCaEsX4gsY6m7XRfy6IODJV3c404g8DCT3Lob85L1JwTq4EiwMMkkj9oV7+6MH+5kT73oJGN3ehOoTi+Ixmm7LG35xk09H0K/Po8RYNFq4dGRYTeFT2P2VzKwklWf8ATpcl8qkKDnkyii+MkbEUKlw00RDQcypVbcROaK5tjaQpSWKNhszYjtBN/sTUYkqwmvz7DZNryyapkKIv2NN+5TfuOjS3IvN9zm+4tzElmHJnIRCuEgqNyS1kUYCNRAVHQczkh0M+BGlHElKdP/F4a/AFnWxYk6R+BhJZ8robVXfoV3GEokvKScH7J26JoNS2Kvs12cDwnrjE4CGS88FNEpHJMbtCcZkjU+UKpGHrYiRBnkfobJJoeEbhTUsXDophIRZ8s8y+yKEv/rvDr2v0G3d+xsYO5SIVUkMaeBLVuyEdEyzck/8AQ/yn2GQ3NRPlMlv26M2Y1ZlG18YJtAKaqulmQQMjahkHpqxRoMOjivcVJ/QhrppIcPRm0gEutSTfyS5j9syPxMoMQ7+i0wgm71dkUt/ArTk+oOzLWLdeWLLn1mf8q6VWrByHIQ9RN3ZkMQDlG3ZXsUQ81mrH8PhSl+D/ADA9js3Upsk9iiCCI1J3EBTf0wKD0H/w1G8B1zsMIX/KN8M6P/CdgUs5RrNOXBL/AIxf82Kvb4aJ8/K/0i0a5QmW/RDJV4qKih1XwEunYLbX7CVX+0cnY3fAzQ8zZi1UbAVKgi8kNAjRsnukYpwYnTwJ4P5Id7inV4TPAyhGTJNRq4kjuRPIlmsLFyiSRI6SRdgbJajmS79kY9QNq6QVb6lLkfOJHYchOw7jHQj9xxkMTkrVGrfBpC18DSiiWj6M2ycSy0v5qJk7y+aUIS+4YpFkoIwRV9I8wQJqxk7N2QtpZRSyaDaNLi4Q8dVXxQp6zao22HpPRfA8bgu4k2atGy15I6f/AIDsgbxbIItBah2qETcWb2GaeNPIR+DQxBEJuqb5wbqoQhxjeJE8LxJI1RLjGauMZ/P6PRZyYzLqSNoOWlNynrpLE/0z1L/6COE67cljjB2G95w9mn0UwTeM4FM1Rj7CVUwkktSWYPcbL9omNTNXoqG8fQVf1j+GP54fWeyKKlFSdG0EvuRtXVxR3Fyc6ZS2iFTCE6k/OF/PCumolZSD9CGhrIbISaZWY9CbUUqCpRwJ6TjC5u7FFRO+rG7Xuzf7hvdw14mrNzfc2r+RTAjb1xNFH8BKGGQqyNXssC0irOqyI1HF2Hq9ho1QckSF+RkozGnAKt56qB6oUSQT0JgNbcoiJoSIw4n4cjZMv4Gh0zN3QOW8qBoF4HBLZEixQNqpnOSyp54GuE15ZM76ietRwrHBECG/YgMklp9sQzatJIUEPZvjRFSVC9bBIsI0CFPVmJLdj4jst9Eqi66gkiJvMw9x0a1XglEoflCv0EpTmRXpgSVUoyGSq1FtoJtL6yIqOqiJoi1qhSVIakJuNmEkiY1+cEjmScFPWT+P1ui18sFMZwkNdcbi2UEHxBVUZJVONBVoLS1byEai3NdfkTsEhnwTfou7b1jEswzuV0qU2MIHVJKYNCDVAlKj3K7WvXPV9A5OieiJMpeaz+BumwJJ6VmLOtG812JDyYqohELwbVuHmxUYCaDJQ+HOChBTLEWfIgmTJBqcMqNNBPKzdwfAiOcHIbpRydBcpZXnM8LCRvJe+hz8bwQi/b+mOoqCthIIy8roziMbe/44Wj5eEFHRZeHjU9wrheFQhEbIRMNKGnIkISSiw2QtDNTMhaI2XYaE6OxsuxtI2A4ChG2HoYSbI0ERgcVn3FuZzCjmJKp0rCOpdVoUwtfLBpC9/MVNkzNVRKJ3SXKI6wXvTIaoeaeyCp+nuxWXGE7l9gU/6yiNhJsjhRjUKX0OQ9Wb/hEnySUfZxIModRNMNSijuiX8VmlsQNYWhb9wNmUeVJ6Erp68UfD2FPu/jd+8LibB9WHsJsApsjFt2c2yRl+7kKTod0XTNpQxLkllkJ33sowZHcQirS+P+xu2FTtoNO/ydhIjmw9fMRdSKU3Z5ijKzRrAc6ctl+2L0JVgacskxCFBJ1tclh5DXyL7pL/AKWwvtSKTexRBL6VtnwLhLCnNuBrLEZbb6IdLe3eCV1HueFC78Ywx+uHzhn5Yrc0xQ/A+hfIRhd6H4sYM3ONzoeBGC35IwWhl/5UqkrM2DaNoOVLXDbQxLU7zWwk/DcHUiPsfonskfJiYIhVEznQnFantFbOiZVKEwaidt+widTpQT6tiqqHaq3mqp8kef8AAKLS9xky9kasfCDXY/E+hxWIoWQYpvKSfoS1PFFK3bI4e5kc+oy1k9JvQWwnmNDaqd5uJ/0Bd6kheytGyJ3jPMuhIrSV8EWobtaRJU3l4EEriyLCTd9jPqTHqE6vM2hIeTVN4yMjnWWEEgfmqrLDH0a6kh66UK7bkmhtl5yU0uykg5bGui0EOnoFG1ZDRlq8I1K3Y/JTylUOCrer4Hx0Oab8C4HoN/xUMtVQWjE26D5E6SWxdoMbmaoLgOKFlQ5CSauGE4Farv2IUKwjMw+SdzcEzjb8sRJUh6dB9k+j3sY1dB4vxYPDNzje6H4sJwceFqF/5Vd0Fvl+8FvbJSJz5TJRVRNJdPVEUSFqBrXtf6ENwghWRpj7l7/AF64yy7n+h3h5QuRo8sYJpcqiRezCDMekOdhtcwNEiu5Y1OwzyEwesfU6MmCUNmkkpbE9z2YIdTTKwo0NhCosro2BNd/KH8ApNF5DPtbWKyCXd8CkUFwy3TJOhDjZwVRUaTMQ2LJp1YoiVBaK9zk7nN3Y9KbVDqaE92Q17iH/AHEZrIWYkf7EtQyqxpw5XUmneIhMxBBKcBr+BH8B9hoKOTsfYidXYUeRz8yH+yTyQIN+AekscUcO42e4sFwbHufWxmaY/OBnrJaxtB5WxLUcGcGPE0d2chwY1GoZwZwZDRjKBDfsR37ERvGlNxYBNtmhf9g2RvEW+tT86t/OF6CUJIKeISSeELG1cro8l/gPMXrFwbIROqHvyqXQnw5FUpTcq4KpRfM7E6jrjkLinTGj4sJLmnMUXPKSMZlGyUm0wuwlftYyBszGiUuiQrBzh/h4WEiensXSlqYpqsW6O7ov+1sXZ8HgY28HQvAwgZK5ft/2RUUprshyiphJxacPesbrmFl4I8cE1V2gRb8vFO10PxPo9gjBrROLdPHRb8ipGo5WFvR+uEYGOa8065hLptPg+MFtyQtCGhKIRwnsRjM9eP8AxQHU2KSGnYQ07Dk7MXRfoiEYMpDtzMQcr2dy2N7M4QtkVqmmRsnIhbBYz1yXgYVGmtST3E4voP16PJ/WPez4EBvWbvQrsv8A9ArRnQkkr8xZqGM5oqnTYQ7SjaDEXF3vGVAlfpEKwTf8EeC1xESSkaGLaN1dsckV5mJi6nuyMs/AMbWlUSmhAd0CWLFPdMZXS3p1/wChGR+DZEopwlkT95XlkQV90XB/0gcXk8iuD8T6L8R3Fjjri8ToeTZNqnbsOG8eME817w3VGXz0nSh+pGOUBEtyaB1CERIahyNRjFE2S2bpjAmMulLT/wBEQ7DKXJ1RqPwMth5KB8anJUgdFIQ4YtJuqEYVBKazTxrHggCtQpi2YidGmRoMaEd1qUiCUt0VWLkjbb5YqUzWyKW+EKs2jEDs4QWyzGrcqNrhEtlfmkq1+R/tCxa/wrFLxQbH5SrAozQrSQQ04e9CvIlcjZyJDCqjH3Tk/gCVWaT/APDf5dIaUvNykfuV3Hr7PQpasjpsac00TAkgiap1h0BZlb6odUkahyQQzTNLQ2/YQiEuiGiFpsM1L3YG15OfuyFFbakf+hEOY1C5PWQFhcl+ZFbu8C3LthJJR2HMUiASt0Eq0m3GE2CSCjaM0rPOhFhJmrkN8epRTaWX6o2RV6spCB7k6jBlZspVjVECDTeRZAtExSIQK46+qG8mTpzZUZuyFouboqfRElTsK8uwS6dgs+q6zrWR+OeLYjv2Zzdil40PtGFvCZqzN82w4rRIimxtzZFsTUf0j+kStUJy1VkU1ET0SKeSNoComVTUaN5DlT+Q4UnD4olDSaqhPJFSJcqjUaP2QEgne8ofqIauLNPRqzNTlTyV1bbz7/0WgKF8oFVkVpm2SWJgoAi7ZPJVdw51/omRK1K50c2bT8DKtD1uW8DqJJnqMKm2KZJCmCoU8OmaIgm9XSQmw0RSyaY5OBvlk1Z1EaL3DYohDlNmtxJKdyVt0NJnQc2q3JlAk013pN4l/OyIZS+98vYmW0HzBrAD4SkO5cXapyJ8bBaqznBbtXNT41GtruZ+HAlMENZpOjhjIlmtL/6C1jM5Khksv5qTj4ZOxeCEhKEdNOldV3nFnhESYM/qZMeSVKtXIRrZpPCGcQkll3o9bofv6M3Q839YSB4b4J7kLJqJRrV+i384+IZLH1ujJy6L8KjoKXC4UHjY+5DxycdF+FLG3Lg8DD4w1NDYELQKChZG2NtGhEaWhHkbIUlMZozyzkI8ySoke8syFNbENX3IW/cr2SJnLJDlG05TUj+Xgm+Bzfc1jEePITdCGISmxD1FUsN2ZV/scmCS9Vxcj5kkzEYBANRrRoXB07KDIvs9vYyelMEdtJnSgiiVRJFIaqzUprsJWklYalIu33JqVneslMTQt7UuES0jGpDKRS3MXKbiLclxoWJ0E/0HTo+qSQhW9MaiQv3PyLq9zxZ4uEs8IVljfn8G/cLFXcMUXYWUNU0IEBLoWfnHxhWx9bofmdF2NkeNhJ7l76H5hBGF31ti7uDwOsLoS1jauHRn46Pc8b+EEGTh9Hs4Iv8AQ7OXRb842EY5+MX0UOhf+MuplLCUVJypdydDuTC3ucGan9pH1kNUimwnp+kkfD+BbX6COnYzk7M5ezO6aG74Zvm0KrDM2hshaLuJJOVYbLuZkCUX88Jw9zx8QVljbwdDt5dF/ReCx9y99Dfeded3B4GP3cEY+CuizjYuHRm46Pc8feveMdJbyYxnhOGXjos+cVpjB+nQtGOTou5f+F2Z7GNjPGWKa4Q6XE9nSjTUNYvVXBRm+cHrx4SSxvzE40moyDzE7E/+R/BE2VldNsYUuQiauCJHfuJDVYpRVnLuwCUVXch6iHrIeorCuTqR/Aj+BGj2EsutxyRzWBRRkOHcfYzQLI4ruT/Yn+g9KsPMroT/AGJYUp0zUkZevwNodQmpXYlqJaxq1KM+xHIfUhLJoZH0Ijp3CC17CYXPpBEVC5NzD3EXkLG+ilcr0GuwvCEy/Z/QNl3G7V17Nt3P6x/aJqwtqf1DZE6HcalSuKakrUhMklEk08MkpgtPnrI8B42LH3dCR1sYT+B2fRkco0NBCHs1kREkW2wnKB0oexGWTerLCFyStASWbedngIV8VD+RJdZ5P/cLujQq5RtjLFX8ScfsbYSIt/OM9NZcacissfT6Jp5dF3ReNj7l76H5n66tA7uCXwY3fe3QvX0JMD4c42LhhOGbgQyZn52Rmt01pCv3ZZEP7MfYtPIa+Sz5Q9OJNPcHlOJexJSOilnkQoDYRDREaBaOiuNobYWGhG0NhGwiFCg9BGwiGgqLZi0MIiVMLk7kd+7H2BHXuZQv3EdX3ENBzHIWKiWslqEmL6vxLrdn0aCWuJuBvVhVbPVEzuds0kVJUa2Y2LKboMK2k3eZxew6VNGpKy2Ma09SYGtUu5BfiNUhMopVL2MH4mTgIVpJTSUwUwKpcT52yW/zjbrHXhohugqXKxt4MkzdkpZPdVa2oKyKNa9XohkozNMR6RPk2id+iYKY3TXsjznvZFC56WtEfDVrxj9/HR4eNvyuj3OvXDwMb/pboXgwR4yqiincqJ7IyThCnKlOEJ7KslTJ4WfVUmITNF5dkV+Apw5WTIoj1KY7DxEppVoNYPn9owz3uXG3ltBFskmoQrMaaTZtRCFhJKyWGToWPl1h+N9GfnG90P16LccnI/zivTaycyEDH8x1Ho0EhBcQ02msaW+AhyrRymPoSHLZx7jh3Ddoto80yoc/MOWxnJsBI39SWJ1SWvwPX0Oj5/o5EMnkypIQzSSc94/wz0lCSVWaJ/A+xErTGmpVHs+RLZgaQ+IIa5xWogQSObhDUm2qi4isp/Rf9QmqOii97HJlUS0GxGhd41GXrIm4RWVrmOWpwnKmHJE0GqzHwPSfiIHtJnkhUrEnKkmInKV3o+R3eF3Lo8bG35Xvob7zr1zgVljd0S9WDMgy6akT8s9nPYxl0EsTWwknpg02y3RAvgHzbocaKKCwktXZSRYM0w7JoSd3qrhQzW41XBEkgzbvUpvCJMa41uVEEqqq6MnHRY+WN3ofieElT3Y3hYu3jonGL256I/i4F1XjwMX7QrdGzxai4D6qSM0nVXNmVfQr+BOLJKWuGZWhss2IshKOxUWAhOJSZsI2BkCuLQROS0z5tRFD4ighmqlTcfeRM3X1I79yO/dkcn3EqVs1wy34yLj7aPoI3HgjhXWD6EfSiM0/g0r4HF2OfYOpVCpVUfA+JUlF6HxPgfEWgPjgXe8anDYdXh1pEzI523UBaUg+PchqsMxW8WwlJG3mq00OHuTlZWknS7k/2PqZEv8AQlNP2Gwdlydc9SdXuS1j1/dEwV21RvPBuH8o3rsM61uo+7/o+0h0q0TKX8cM3UlnhPoRx7BKsrtCGj7HB9ig6MS79iJHXwNKtjcIkBCVzeN4RSMxsjaGqhGUdcC/DdPHx81hOF3o9QnH7W2LhoLDoB1fPRToXiYyPXGqxVSaT5wiaw8YyFg/R5eQqeTVRQQhCWXToPDY+5e+jJw+nUwucCssZz9rdHo4pngY2rh0fr0PT5ZOF/le+jJy6PYx8Lofv6M3ONzocx4wr0rSRiEU/RHTPWi6eCsfEFi1WMnqYTh5X66G8jJ9Cv4dF/0sT1RrunR6vRk5/g3jY+726HF7N1/wBWXGMfoy6F6cdDwMbeDozcdHueN/46MnD6Pcxo4ej2+jezxuCxdvRZ842/OEYJfgMvw3xx0VhZnN3Zzd2KPV9yOr7kNe4+1lILP8T6YPtIRqJd1R9KI/mR/MR8qlD7Ec+w2sN1UTDwJ09xw7i/FjU4dxOh3Nj3IHHuEz/wBH0NG/7oVVTfKF/DE38R0UXJ9MH1o+tCp8Af0R9iZ9yZe1+DN/CbpmmZtsBsCGlZ5Np3NgMnQ817JKYOzh9c8AVlxj9rboXr6PExtXDo/Xot+cWqFjk5dHtYw+IUY+z0ezG4IoSZeOix89clW2/wDCxeMsb5pj7ETjUSL5oTS8WfzP1i2lVsZBBtDXQvtb9EZxkWcalsLG7FjGkaI23CSljQyWdHgmtR2PAIGwiRaIVyCkSHZwfwj+YUahXG2I7YMnTKzNnyLSfdjkUy1FQde7OTuyH9BKdd2reRz7j6WPqbF8AzPoZzHNi0VZyYKgq7rBQ8nI3EaliX8hp6/AlvEnF1yAjVJJ22glrI1SGGoBDMjufBUb9CC+hCyfoUP8kS/wfShqf6TZ9iNHsRpdhVQavoc12I1rsOhy12J1jkI1C9ZjbgG9IbSjgu5se5LY7k6Xcn+xD/2J10y6lgscyem+eMsbmNy35XvoTLmGTpsIRNOjUod1ufRDkuJozk8n9DahF8BQ1KafAjacADjNJoSZBwyJUhh2fI1thK7GVU52EUaEsXJKRG0U2z9ESMkxTUFEr4ORs6TUXI1IJaug6bZNbVFlSSIaItWTtJppwmbaCIATLYSFNVS3GEoq1BtbxvOYoJNWCRpDmIzkYjqvEUwjYm8njoh6YPQZPkMzx90nDL2zMnfrExqKpeaCSDEtGNRTBvCvWu24sZt/CEUqjWWXyM0yhzOjeVcF6SCTbcJZnspjVguFAkpw99JBGFj5YzvY6noKi6YvbKRgj2cKYK/IrglGQoWLxIL8EYKx/X8CF+C+QFRMamy7kNT9ZTUnDLXNYtr5vYJKS3JVNi4kYWn2IqfHOX8QNfG/0KR52w6dQvBB+kPbdjurh1gImt2ooEcUyzKVXwNNKZRalDO+dBqU25nIsnlXz5k24Wx8kLck4h/SqpVmCqGhWuZISDMN8xZShlvcrhRE10Cb8ISOo/kIQSUIqcIjqbRBlT8KnwSrjFX+BZ8QBYVj9MJkUsq8uE5kRObp1bQmVkNKVP0Fd8ik0/8Aok21XXQhFBzcbXwaE2ongNYq5fsevuT2tz5JrOFUuZqO8d1F0tEMzm0nSMLWFCyV2d6m13uyWVv5ZIkFO8ElMVyjN6IO3yCeXbwEjtJ83QXQEHcsMIbuQxJZgW7z+ClVKdZjVyMw53A/aMa+QZU1YtFaWhHvpt9yk3RBiaWqxajM/UTTmMsEex7HhS3bGBtL5imDLueEjVWgohTIhYPoWUpgxu8GS6ROEJ5Y3iWThHh/4b4koVMjYEaERsSNgfzDZdiPbM2BsSOdri9SEK0o51FruZqdXnU+phf3BwEsmS2TRf8ARyV5QTgh1TCBcsiUiiPpElyTkblLTcVk/CG7USpYd3YW+DhighivJSEqiL5z0JtKgriy6qmaFS6UoFanoSeAvO2u6mTSC1QaK0jmI6RUyqdyFtAchSGlPNQijpclnAtfuOjXSaZp8DBonLA3kTuTpI1HcxwhxtZOWJhIxlCYl7+UKGVwJ5DmDOFhimy9YHIK8hLBFa5FLOIuhTyQhNVBWcZl+tpEs7qNiLpTnTN/4QaiMdC4K8sTUuhXbe5GZBQgjTSlFkbnbo4ckY1ioNFbESy7J9u1bMXG6qKKrcWvCoklYfMmwGHpOj0k/ZBYym20M8Qb5F3qIpYRiqUJwbQyY+hyyymrGxNCEmyQS0JED/6BIr3hPsj+Sroux6A/oDNAjof3j+8KkDLmZGnsFqoaajzpEZoj+RNNXGlPgTo4x8noUYGgacFGWmDY35DgkIIakCgyZSFKwdnBOE/mvCy4wgTyXRauVi0khqU7ooBrXqu6H7PWE4Nug8FYyPm19Wk8Xov5kYRWYuvRbiLAhXx0N5Y6jdlYtRconHJy6Z8EITsFiwlwVurMU6jZLP1YTglGNrlYoGvEjCCPmguNTdCo2MjsU0kdF2GllZmyNoPRCdUk4Yk5DRRfBRdA0k4WNibQTdAzYybRthUmMaKygjnBoU+cJpUOR9pG7LyKp1dyHqQ3GkZ9xWX7kNX3NncIaWrtjOE9del4csXGEnvXsnGlLhhOHt6WSUSTTyJwTE+3gnCznJx8bG7+ANf3UnolMMjxsbV9Kk4XJp466naZkwbLvpbo8ERjaxtcOmjBGfl4r0Z+8gjDyP1i/AWOMfZ+A8bH2dCxLnArLH0dc9VRYSXRcuxz9xv+GSNDqbhum6MJVzWC2xsxp0ok2fc2Xc23cbV9Zk6kNNSVqhMJ3xn2yumCPfwh4U8JJJlicZT0Wf7vjPTPHY7X9OjLy6pI1XA1FMiRkJ6Lw10Tjj7V7GsefQz842O2Mjfn6E7uNzg8bCSE8+hevFzBYwR7OhYiVCssW6Wq/wDFq2DQy6FBmnncFcE6l0Abzx2q8Cwd+eEIjSh2JEeQ2R/KEvhGxH/xDSQVfWkCwC2RpOVmfU2Q37sSavuxU3SkrVnLuY017haq9x9DPoZH9hIddxMOYTayWdbYl/IlrE2rsL/hH1I2XYjMosgpofV/0Rm+zk1WrrI+1YnbtOD+J8TYXOI49w6HRWFQqLuTpXcnT3D0FfUnS7nF3J0LuJ2ayzNj3OBXTyNBU8kh9DHdclmT/Q+lkhX4CXuJj/sn+qIE7j6WS1d0MdZYnV8EvUTq+B91zROv3R9BEtQqqHc5DlG0PSIUWRhPtQ/mD70Q/wCBwfYgmp2ENOwj/wAGR0fYTDg5OzPoYbovfRkfqIv48JJLIsyGo3B1IVhtjadyZXjGMF+eQuWYUW5OA65JsNnmqv6xk/yeRZiPGzUK2HcrZP7Yfl/R8fIVW3sNjnZKggsZtU9SwIcOYrg+KhLEcr2XwROZXI1qsGEPNnOHplcEeQxZ4PWPI6JswUIPd6PDY2L6V6MvLFC40XEZIjD7+Oj1hk4WhQyh7kU1xjwwh4Z+WPhYyG/P0Xc8JMgj+Aaw92E4ekLB5liNMWWbMo7FcFfElRYsfD/BkL8D1YLB6PpXoVAGmlHhpoHnPQRJY9ZyPy/oQVXSNOQgd7/exDzmqmiKzVwV0dfYj96wqFnMKTehTOIFcXSUKIgezKNy1g9PoucveEDLLbG/0fQ26I6CGJqeOsbVyvfRl5YoN5MW5XosJ0Y3g2fJRchYyXRaJgTPavYukUzcl5nkiubKHjvGCh8mWK869Yuz4Gpwwk9/QvWbsl6js8dI6RyUxXkJaykbMnUTnBI7f/Ep6yWs3vgZtLcS1k9RLWM3cEidkpLbRFGVQpmOutRvM30HvbaFZ6jUptXKEERCGnawivlFLRsdjHdaQvJwVRaCUqwLsPjcVh71s5T1LY/QPHaRUQlDRy8YZtDZiydF2I56Z8lH9hCUWNn3NkMm8QzZdyVoNwZN8z5xz8SSekOzPGxtXKwphSNc2MjSUky4khJPgVljd9bYJsboK89EThKeZaJsfwWPYjeE01KeNKQ1h7hOWPPZjf5ehNWb5Ysoci4aS/n0MTwboyxi0mWpOKeIbQ9BOgSzwdvXCM+iSfwPqYTfC4pri/KJl8H4njUUy4JxUOdWSOY6PobkakLQhJWQqdDIhaELQSuCNA/iGwESdK5tuxtjbdiKNg2otIbBUUG2bY5lBrg1OTuzk7sTi91myOr7n0MbncGkFNjzYlf9Mjr3ENX3Ejmi5yC3PyNH/oRBy1FqVJOD5w/1MSHmmKGka/SQ1eH4oR8BofQX+H0kL5DYY0jwDbU+wspvAsL3UnrE83m47I+ZUN3/AMiX8yGFQ4zM4Ox9YKyiOBBxdiNDsM+ZkRpdsCAvqV9Dkc0Oh1XYXKWOaN8Gwuc0fEVhjaHxPiOjIVC1hPacUOtURO04o4omqiuTpXcnSu42lsJgJwBNutRS2NOifxP0fS6L+ifv6HbwTiruF0fY26Pub4uxNu2Y3+jyOjNw6xNHweMsbODoy8+vUcB4GFuC/wCliBWwXjxKZLePsXvoimmXRn5eEF8S3Iwft6F516JawucFrgnD24wLAgdmKyxavQ9mDFq46P0wp001/M+n0eR0N0eXjoT7CKak1wu6D2PF2ZldGN3o+1tjIruOi3kwksZ4CxtXDoy8/ZJOHvY+AxUVZFMLvpYrivD0LOKPuXvooCxz8sfH6H7cGmSJGTq5/oigmeIR+BYsp5YJph5X6xvGSxfQLPnrprXWkn8cfWp9KmajAfWpOnuK9KufA+JOnuG7RbVPsZP/AEE/9H/DbW1J0u5P9z6mKpsJ/sSM6vcbNupvPB9JH2EIK51doPpr/T6K/wBJWOAZWh9KPrRJ+kfQhLp2EXl2CJ3tDY7hzdmc3ZlS5pGjPpBu+GIlUrngN8cTqcMYxMpbjYD0psiLLDZGzNmJE0XNn3JP9i0FhlLsSaadx6YrxeeEtIbIUnKsiGpDUhqh1cKHyjezROpGohTVM/UmSJM/LxXt9DXmHIpwXk/WN4SjCRzPIlY+Tj4gssWEY5ueuzcf+HR6L46ej6G3Q/eSUH0i6K7l0e5+ycHZnhYynjJ9rbozYke5jWGeEsXccGFcJ6BdGbFVPgSUoiNkQtBVP0sQtjYRsOwlYsjbGyFouxGSnY2R/OFLFdey96j+Qfxy2jEaDZ/kbc2A4nTN4TZjjQiMawyYkKjI2DbIMvI05LPU5O7Kv/WOZ/onJfuyDXuyO/cid3chr3Mh/wBRHVvkUndfU59xyfcgTqxf2HJ9yGoaoSzkzkOTLlRyHJiUuSEPUQxYTl+RdL14UwePhwnDyv1+SPSJeN+Mh13v3gx2Z4LG5jU839dCu4dFvLhQbUPg8BY2cX4P3MW7DE6LCXqM5+lsFNekETrCwVC4EiWpLAS8CaLXy+sOFWyeBwwX1/SIGeMWLCB2eei/ljc6MnHRZ842/PQv/KN/H0eV+sJw/djTopPQJwkav2tjme1+ycHZjp8eKV9Hk9C8DGS18sYSPAx9To+/yTiruEvDwBTCxvxpIdnGR84kbbIQ4YRhD6KlfLxywoIEsfgfRcUtEyeELLH2eveAK2Lt4FjZ8meGXnoSt0R+Z+hIgYFE5URu/GF9oJcgj+ZH8T7wV/yn2gj+ZH8jwNCNLscPYjQ7EUCdji7HF2FtdhLPwD6kfajn5lKmZn0qW6yz/styhBsXcydHeyRpXwbJ/wC0T+t+iRHXSvqSJP8A3FlvcnLTGpthsB9DKjfqfez72QnPmQFs1Nz3RL1j5mwnrJa/BPV4J1BufB9hDbf8h6qZnKS1jVVWE5T/AJYZs1fBUYATqSyOQ4jmFZUfAT6CxR3R9iI/8T6UTpdtCGnYyG/YnZ9hSsueRH+GfLsxTa/Y0ZEmrsz6EyMHW2hzdjdObsIXJm/4OTsNKm6KSWbpvjnaR6xsCuE25eYwbIbagkspDlNtI2oucjaG0NoKi6NgbAgKi4v+8T5O5OgXc9cE/hSsWPodH2NsJJG+gpiSeh1acPe/eNw8QWF8nHyujNx0e4RhY+DxMJPQFvjp+6mWEHuEYeIK2Pm9FHx4QOgvaIILODCcEy3GKPcyhJPwHGFTJyF1SNZitRlMPb6LeTG/hTB+pCPghaCpqxC0IWiEiKZmwNobCF/8QMlj6nR9bbofhfR+nQuiv+tl0P7+8JLnB46xo+axmCctv0epY0LXyx8At8LH0hi3w/f7E4bxsfLHxn0eQ/XQvXhMMseN15eJYwj2snD3roychYso5BPckgr1uj2eix8vGp10PorcfZ0SK0fXH40rLH0Oi/oH7/wS9f4N7n7xsfB4WLGcFKUrjlctSRlh6mNTPyxucHgY+hipDGajJLHy8fAFj579dC9ODlvBu10bPH1LBkG/gix9KlNcaxwWwaj5Y+MOmL8T6M/L/GFmL+XR7hYv8t8SUK5zdzk7soKrusyGvcyOvcQ37iFmvqcn3OT7nJ9yH+w+hnJ9yO/cs1dj6Gc+4+xiWY8j7Gfez7WKdhU+9k/++HmVqrJ/zJg2hlKj9JL+BLWK01TPsI+gh1T6CJLPmhVv7Ij+CPpApt540I/kUf8AB9SKndoR/AgTUXt0EmS/U2I2HYSic2huXsNZEQ4hs5CKaOxH/EQj/QJFwvYj737I+5+x1pS2hFMdgj/mI0OxcWs4ocuw+1v9OXYKqD7B6OwS3NlQ0WwTbRC4msDkPicBd2dHUiREH2kn+wlSmLrC4dxOhdyctWP6hwXcnSijRLk6Hf8A4N6Xcq5qBNMncnS7n0McD9if6E6XcnT5GeWbXAn+wzgJh9JJDwBv+iJGf7ksASwzpQliXqJaMevLr+OqmEY5WXGNjh76L+if4OXjXRf0XufvFurgevt1TPJfrCMF4l0e5i7Pg8bH1eiuPBY+Xj4nR7eNDyeit+wsGr0P6ujwymHqYvAQsKvk8Ul10eh9Fvy8GfoxqfphA0WsbuWMHu/FHXfFZcY+5dHrdD95OOTjo4rLov8Apbo9nti7uC1xj7ujy/10Z+Fj8nuY+AyxxjDt4IjDjG18sfE6Pa6PJ6NVljf0S9fR4bFbc9Gfoe1+8U6GThk42/LxTyXRm4xZaxv59E8v/hXxlcViVqStUOnQl1mU0dyVqUm6F4nMJlk7k6kStUPMI2HclbCCWxrDgtaEkrUV+kDRmJlkeF3MhdxOs1h737KYOzPGxu9Hk9CdXCxr0RhY4x9crir+HRa+XhUftdD9/R5OLsL2sKl3PoXrNCpUpXtgzYydGYVxsUzfvH9GE4N0cdHuePvXvoz8YslDG7l0Z+f/ABam2DiMOZIJyyHgg7ERWIhRGZCmYWslA+SMmdjQCVWRNsITWgoQRJgbAhLVLDWyFDIKi3sRViuRoRpHYWn7CQqt2fzj+ERnSvgaZC2h/KNsZcvobcemNsQ2FTa9j+MfyhTlGKj+UfwhaIYmi7w2x7DUnRYhKLG1NHFBKI2RO6DZQ9EbIodiSZ1dEbaKmuATahSY1cjlj3Fw1ScwQDTuYLoHmhyLSE50Zmz5wXAyEvbU5O7IbJ92J1Xqcnc5O7OTuyMFaRmzfb+WcvdkdxLc5qtWJNX3IavuNaXvqc+5kf8AqIGy5s1OfcQ/6n0MnT2H3spCJXCcp4Rh0SsTCeslrEZX3JF9hCuL7n3EbnxgMiUwJ9ZvCWoScYDuBpqBufBueyNFuyFuuf8AwrhEFPTJvsGxQoYyPG/ZWKRMH/RBrF65RG9RKEmSStizKCwMQZCMk4ORJQNNUZAEjj9UEYS4WeEpPKWPQTHEe8HZ8DdtdbL5n6wV0Trmd7ZFaP8A2zwginGi3DuYqNsFErNWgaN0RqHVVRCbKm+FS/olfiSEO1Va7hEwqsoaHfe18Hf5HpzrRJKWxD5o6GodCdiNRW7JvKR2dmROFfo7CWZm2hjo2VNSU3fApKVZiSCatwSKSQ4aqRs00EGQnZ4KiVTbh64RgvWRg7M8PH1icERVwuinGXRmiCCCOglHG1yuj9Ca4TQtY3cujPz/AOFahXQ2DFN1T8iWpW4xZIqVkVukuYutTvzCJZp1qY802ASQ8y4ogQsN1cT7EJEpUgYmzMlpXRC2UYjMxHUF0mPiaRmJ4U/8DMZiRPmLoj0NqSUrYVUMhX0ZEko1wdmeJi0OVx8p+sX49yXsLZNRYK69pnaGXUgC+Iirl3EfX7QuexKWluIsqpSqJLQ+K7CkJUSETiqcxSb6aPMd0S3VGbiIM9AZVYs621eC8TBHmH25FhEsnKxWVMxB7UDJQiGZbyYes5aELd2rBKcKNvI987rwT8UXTHdLOBNk3T0wu4mlpzZSHJLlWFuRN4KGiJYhVyRmQJVTUPhk3fXDeWTEkJqqdsVgwOzF7XQKk4G1ErOpIXzXv8ElM42Lh0ccsKkljCdR7hMeErou+ueiOiMPGJhKKhKkCW4ZC5Su0VnoOzR18BD+kp4MQ0mYnISJcV7S0qILUJNgx8lS2zVSM0kgG9GxE5LQyRDG1ZbMqGbIs63cBGl5u7/AsciYpFlUuzP+QgZKgbKTKgTpJZMxLQPlWJjcX1A/1/gJFUNvUIgw9Mzf8MzWry3G26vChveGON/4ys3kbnhmj6YwN7Ch/jHJz0N3wzc8MQgQOpegTLFJmrjqFo2SWQ65aBqh9fwZQhK/G0u2GkfAUQmVnRhu+C3zYtoE2laRkxkpqmn0DiqIq711GuqiEIdSzCaFVTgG74YtYa6pa+YpoL1T/wACX95JRsIrTkqn8JutcpKFSS82mSJciZZED6pbaPiorppc8nQV2ynCv6FRrzXyqDDASZVcGkFdtBNoWbjV3IM2UNyX+wJbk54i5F5uVNkX4cpp2kMYibiMlofPE0pdXHBsVgtMlFhNgNuCXqbQkyG+iGRIhG0P7QnZRFJm5Nj3P7QxYusz+8L/AKxsi5gNsbAlaB4Ko2Hc2A6hckrUnUjYErMrCdZo5E7jwlVhShvIW5ECVqSrz110/FeEjsNQyNpsPWTROMgzuZMbrVzMrrzVXIJpC8sz+CRlozJnZ1kRnuyI2bj05SSepDp/csVFj18stiwlbZJZvN1eUSZvmfIzINoNaiTaKnZFZ3Sf2KFuOZ+ihOi4GbJDOsw7NxQnI6NIqexi86nh4+5dD8z9YIedOGpVD0IRuObpyIme5jc4LXA9IsumiRNVQpMKvknundtE8jbHm7uxoXiYolHy/eN/otwsbW1sCxa0kSHQUXCaEL4NTW3wypTVt3b1Yh1OCBxkaKkxTYJPJfrCNyuosGRuwavJXCR68yqwjVCdpYSOuApoQIotmiFoiNkQQpCERoRsDKhDRGyFgtxtu2GfzCuUOxtjaG2I6bm1g2hsyUqGwNoaaFtNeumM9d48Y3UJMgbOu6QeF0Lq6ibyJj6xL5Rnhdz6H78JR89LMQyKlWQ6NEXv7x9j94u48bHI46PI6PDWE4N5cfGYrLjrrVfDCoj2vePgE4+h4z0J+2xOi4x9ro8pesGO7gWF6JYMv59EPjRBGHhsbF9K4ozdJNYW8HQruMXYtYR0lFLn8sdF7Awtnh4XRlzKLRpdLdrjdz6H7PwPlLoWPk94uzPGxWX6PI6F4HRn5Y+eLFxjd9bdC8CIkksPY8fA6GvP0XcsX7RY4x9voXrxucHjsYzz6F6SuNntjZwYQQLxOhuqDM+LsxI4ugWxQyjv+BfhvjtJUT1k9fgZcEtRPX4JFkDlE9U3HcZglq8G47o3ndDdwJa/B9DNz3RLqkN53RvO6Jau6E3KmKF3dG5XysCoru5uO6J1O6JbzjQX01N13PpY7bKaXJ9LJGf7jbnSdCf6k/1J/uL4xH1M+hn0sZZjONgNn3Gm/cTgqO5sBtRJ+NXYnR7mywAnLsQv6yejuN/1KFPInR7k6PcrKLuToiScfcdCia5k/wBT62TpdxZBfU+tk/3JaFU1E4r9z63gjS3KVJ/ufWyf7k/D5k/0PrZLaf7DQW3Un+p9LGd2Yn/RvO5uO4m0GWvubjuiWseCslrJeooRNVWhLUS1EvUXarH0QVFyECFMvqgeUqrOhAJ1UZwZLUN0dRSWMA7KjkODG+r8BP4rg5U6SS0ZkndCXtyT6blKCIjM8fcuil9E/b0Z+h5nROXLF2+DxBPC7+Ap9v8AbotfLx8dissb/vYjFeITi9Pl423Q/b0ewkkbsHgLHyHhngvXj4BP4sbufRLsiRAzwsVpwdFZdCzjYuehYzszxsX0GvgumeuScLnBNc+NA6ouNDaE5dnbZCg2JT4FDMvhYqAshM5cFdIJd699F3PoftxTKpprZyZ8VDzP1iz3v3i7MbsLrvI/XQvD0L3LHxhWXGL/AF6YThmbLCdBM9jxdrhJJNg5u5MklakkJ5DKQeePAwseR+h4JF6/WNzg8ZY3c+heFEvjDIbtE4WLgSSN4FCSSyicMvAlrBInWSSXB6OMJGKGpuF1iT01/FcHL8puGLEwUqEzG9WTQ+wmo9yAmaJZhUbUN01jD2Lou59D8Lxtq+DJWXR89euj3P3i7M8bG7+ALwrotfLHxhWQsPp7DL4J9hYTDtgfyZJIz+LGciRyhWTwcFC7mXw8YoTjHyP1gngvV6xarg8AqIv54VwXrEjJJoOq6EzkSWuUSWGyQmmBFjF1HAPFNyJwdmeAZYMJ2JkShFCuuv4rg9w0TVHo1Yf5iKSMhJipuQ21QpqSG1m0ZI+tSQpVzYhw8x1236BHpsCBzQmBNCuUk6dsD6QcuwVcc1ZRz7Tn2Ef8BTo7nkc+w+hHF2EihI0g+hCWn2FmlI4I0exGj2I0ew6lc52I/gR/FEfyJEiyWR9aRH8kSQSTUqiECHATFRXkw0aVDcdkItRbRC1PZG57I3fZCamuhuuyN52Nx2IctqPuRvuyFqSJR/Bu+yPsIdOXPrI+sj+cv8IhZTyRuuyJ6vB/CQqld9jRR8IWY3EIRpq7bCaFUbk3vZDoJXvQ+gj6iFJ/iQ1Urej+Z/g/mIaj+hCYk8rY3HZH8xDzG+wyoTovtZRVz7P4yP8AiB/wGs7+D6wJSRUaER/yR/Mhic2g1/MjR7Ea12IlrWNDi7EaHY4uxTUJ2J1LsfchY0b6EaT+CNaJXPwScDWWRxdjmh03KCqji7EfwJuDi7CWtdiNLsMmjwX57h4WLd10e5dHm9D8LHYiBdJ7KDd2l9M3eXR7X7xdnwRvZY38UyPmh5O9X6Jo/wDOSlkhUDyoLjX9otaG2alb1W5bwJCtPQRmralJaYNAFknhsVi9GqU17wv+luhLsrCmHsePgdD8D6Lsbwixxj5b9dHlL1j4B4Sxu59HoYuzPGWPodC8Kxdiz1aBKtjcLMXatsXZln/wSXsFXBuy+iELldHk9Hs4WznN8xBqWZL303mLo+5vilXBQnbBF3C9aiXJOwURtmHdI+eCz/MIgwZyU0pGlqvSrJqWHYDvRfJXFceib9iY6opuqSz5JhczHsLXmX4WQyi4Aesryc8F4j1rd4fU2eFJwXhELH9mNht0ep9Y8sWLjBHteimPlL1j4hD4sX5MKYekU1waoxe2x9IgggXqwgp0K7mPqHiCVFjk4xdnwWuumv4oSkh8WPhCyxtXK6LueMPQR2NSGKWVOBqV0w8kWKR83vGxlKtlj7kQTV70EqSpZ5iMkVWOYJkHaVCnMbkjKjVcWk1CVhDqLCu9Dz2W2HERuiS/07u+qLYlS5nELdCry2obe4m/IQ1CLu+EIVkKobWXRYLXoEuyuhPbrz8DxoXcsfGE6K5Y6nXH5PJPkbNRkU1skSiS+v6RO+MPmR84OzPAXXkvHjkeJjdzxk8nCMArY5OMblcv/AF55nGsyPKzXoEZhArtLFgdD4geRFvRP0Ez0heyE7QtDp0+dqf7r/IkVUfWiOL/AD/w4vyf6I0vcsSuupmurh/Y/QceqJfJMf6hFuchzNQs3yNb7pLPCbIOrCcVV2HgzGuPgFSq45KDLufcyP8A0PoY/eyidyE37je7xAr9zENK9tTm7j6mEM19Tk7j0acqd9Dd0Ha9TbNg2BQEaG0bY2xGqs2bDAL0FjbGzNiS6VzYGyNmKA0I2BsxaIblHM2xshd6ENjsNsfyB2JEM2htG0KVIszZG0hBqLCUFQbY2EOSlZm0NsbYVhVzbH84shbQbZkI/lGx7DmSF9D+Mfzj+cNUF9DaG2HFb2JZCyNkRZBCy7No2zZCj40NkbBS+BhGbRtiRRmbJt4SJozNs2RCaEbBDQ2iGXI2ZsIsBWPE/AuuLQ7SwaqvRLlka5vk1hRRaEqYW1Xp8orLFvJe+jyeh7Yu1+gStsiXbG+erWM1vqPs/R9jbodypq/ONzg8LH9WCJhka7kF4R+/o8NdFj5ePi9EPkfrG8ib+NE42/nG7hQkfheE4K/LFu6GouMfa9dHkL1j4x4aJwern0eRi7Mscdebw4tVcHjY+b0eZ1zhljcHl3XP4KHpJUd2Im9kz8KcFN5UTWPQsUnaAy2vGJqxWWPsXRd0Xx746wiukXkV7mzuseyhZt6EEGnJ7BOUnrh4hH48Y9yxiSKShvMfv6F0T2PfVUjUd36wknQTdvIMToSfswkNXJJGD8TJepIk9mNvuFZcY+W/RmSI8hesX7A/bYv3Ojz16xucHgY39An4SaklSfB4hXXqt3PCS8ZEkkvtxeOIt8ddfwSlWTvDHcyytL4LCSShhLTWQU1IKEpLRWkBuKXFZY+xYQ9DYHSc0Vc2RX7Yh/1wmPWqR7H9LCCtH/I8EjhfYmnZruKZ5xlwQmqBONRHB0gl8IpqIiyJUOViN8RUS4HN1LW/I3qRtu43pwgklS+T+8f0ilEdUf3sO2I3PlZ4LZEtlEir6G6bpuiVTzZu4J5U5G5hbg3VczcK8TgVCbwPUPqQt7syMv2Ib9ji+w8Wu/YWbK+GTWnsNIvZnB9jm7Ed+xDmuQ07GR37C86xGlOw+hiG/YeoOL7HDsNrsFqakNOw4sRKjFQqrEf+BGLPsOuh9iOj7ENOwhv2E0mVvoQ07DY7Bq06WaCUkofYjo+w9J9h1N1GR0fYjv2I79hQfWsFyuR3GsO9tBQRQfwCO/YqXC3OxDR9iO/YSM3YjufPsIEYHE4sjNmWWZX/AIFbRlr87EFovDN+vQJVwKjmpzVTsbB3PvkcTfwGFtG/EeyvOuV/RoI+RFqnZO/bF+twP+DfRrs+WY06nyJf+Iv+CfzC3kTpGxJPrQ3qvaH8+LJKWsUzHMNKc+Ay4QSqV9DaC0EZkBE5Qux6CIaDSlQ0GQsLPlYJmJpaVFNyaD94sV6xPCo/uSSeK8K4JcjSeW45ljKrMid3VJS4GSJ3Q8bJXXC/0ZeHhlJmn2ejW+Hsx8kbuGd6/wCYvoG7uPjDVagtHBASyw8z9Y0H736x8A8BYznkPqfjFi46BGPu67PjdPE/PP2fqJntHZlzDOpKVW25kRbFmySm0NCpdRmFhCuYjRb8ro8noqTvdl0fRajvjd9rdHvfvHwDx1jYuViyDo6J+z9p8Yqq+CpCFejRj7Hj4/Qk5PPQSvnBeiXNyK1BKLlqNY1cS+asEW8bvR7GDYA0tWkYSxGC0UH6jpVi/fi6XUJmzWxVSTzf7j4Q4pkKIcEqt4SIlQ1fQ0Uoqr6DzY95C1WGXOBeDHycYFieGyxY+30WvkjCfdihYyyyFhOMZJxjqkkVSMLIIuYKSkd3Q9UulIzqDUG6fWW9RWGmyqSKjQx9SRXMUPZFbo8no8D06Kl6+3ov+lui38+8fGPEWNi4YNOoksnWfRvhI/aSCzXVJkybXYwXCUxqbEKghRx8YQex+x4pNkJj1TmEsn4PFxhMotNzIQq4vUMy9WQMLDiRyVIFEOk2KnGNnBHtXQ/M/Q4Sl0WpYtEr4CSRw9VKJyFWc0iOalmqrCYtIewRZZVCwNecTJrjak1u1Fgy0I1f2Manmy0wcz5UWbGE2CicL1CdUMrKXYDKpU1KyP5xtaH9SXqrNT3IpLaWjIfAWOMfM/XRdyxl84Vli/E+iz5IIEtz0LEviVF+e5EJlYL3BBKJoqS514HiVA+5GtJZV+iYXQ0xV1J6iKTIZckN9bKhBsu5tjZEujc2w0ZTaE1lWGwNrh5RNAoDd8M3xNzzehz9mfUmcnYgFew9zsR37DrKH2FSl4MZmRdfANUWZL3CwZIVs4I85ahyYF0VexMyaKG8EtQm5tg9SU0/k3fdG9GRL9xpqDzLVzcKyhTU+p4J9bEpp3Veg6v7mzC/oIoMoSvZQTxt5qQCJCUKuhP9iiv2PpZOiHmmHybD64J0+5Oj3LNFtRG6W6z9qUAV0u8+RS1hurNlnpDW85M4i7KwkRKpT7D2I+A96qTo88aToc1ZxpSHaK4pJWwuib4ICrAx/hE6HJYEXlBjNVJXYWkmk05Qo1RxVipWIKuJX3qXQg+GAtZEFmILVsLkjl2Coo12I1LsRqRQq8yNDscXYjQ7CU3+hH8CCSWWKy/En07CJsi3TFwROhkIGmk8mhbDy0akRdJEkskULELQjQiEWzIWiIWhCLuZC0xr22fgr7OOizh8ngCs4xtXDofifR6XRa+cfD6PNfroT8fRZwg9i99GTl0PieIKy4x9ro8heicPGYnYEsPobdFpuvWNzgXgWMfk6F7Y+B0PxYwW98IFtz0iMKHhSKy/C7Ecp2oKyqimWbLMSxpo3aMjFkUZbgslJCLx4QgxSJOmpOhC4ZrcQG6r5YNpCBKw8hSIaNOZiMaBXIT/AEeT0Ptt5fRY/Pv8DsY+MKiXGOXldD8D6PS9E42sdR0ee/XR6HWp2ar3gsMvLrngmSxfv6PIXrF+A8ZY3c+jyV6xTsHhBYeZ0JV5Cw8bodvHQuLLz+AKVPwvbJruLHA57jS1UzE5MZCGoQmoVXUYBKalM8bBWLVZZREKXm1tCsSc6gStRmQrhpSfLHIJlaE1DXxhNtNBqhTpSlXNyeT0Lx/fRY6O+j3+ueF0ezobfwPoXp9dFrG+NkknsYyJ+Hot43ej3OkTh4wrfGPs9CeHGx8HjY3Y0cOozzli7uDxus3csXfxCsVw9T6FoRgtucUhYipxFZFOquK1ma+LHJJ3fKfRdQ1KLn/S0L4qqkrKo1m6SXMUAmrU+BKtewsZdhZPoMEVuo68L6Kn2ISoDzevQyMia+0JCr40R2I6D6VhIGQ6KOHJ96wkv4jVbRXdn0kfVR/aQxTrEtZ9LPoYyLE/k+tn1sZm/YnS7nFC2dw3RKV9SdHcOlwvMqEjunRli1iQnQPrUWlPvDOXYcuwpoa7H2I+xFTLXY4OxGZexH8xr/NI/iiP4EfzEn/iI/gR/Mj+YrUDfdkfYkJD/J9CPoRuPA1Cp2eh/KRLWS/gI66mxuSYOlKuk42Qm1k/4kidSViX/UmUiWYYS+4kJnlHHwSJV2PseAqajU5s+xjpTROgzeSFc59xCb9wdLq+7ENNo1ZHV9yGr7sSqzdkdX3Ob7j3vuKrdWZdWU7Ioe4RVqSWmzKpigu+7MydExKxR0m0KSO2OlYS79yK8uqJuTfFGuS0KYutb4K0BCNo2RiqOgjPRiz0gWX5pwRL71+GXjwsJLwsEjs5PYui7nhJJdcPHRWzZPfR7uteN1BhFEl/Au2klfJ6niluJZxrMVdzhVUejF1SPaGSMUSlsYoC7irzGD9+D9W6wYPR6UmtcPdhOGpqFxFpPsJ2w92L6ERwFZY+zg6stcMstBNMx6ePPnyeKIHZxOF3LGT0Q65R6eLszxkSWhIX7nT2Qqxn0jNyXGlK2sJ2iKCWodndaFfruNxW1aVietro0ZPzlJo2QsLcIGhBOYyCYMmnHXUX4TWYk51qN7id0hT0ZGD8KmTaWsDYyvMrA9FysF7HesYnuIio3iou5m/wK6C3KVHVz2MnSDtUWdufjoeXa+q6PcxyPGxo4OiU88GrdL2QVJasouw5scOW5N+nWDQzNo7WL9GhdcvfBIziq8DQe2qoVEt8PbHW90ZmD7TQ3OJbEtheVG1CcoTIEngn3okcEtF+QMTOtJ65MrQgrImiVNS/CRizO9SiJmglJIm4mhNUh63E/wBJDgbJPJoTjtCr7KdgTyKZlyVTY+GO/gFRii6FaL+RpqEzW+HzbvUjbvcnr4uzPERCdGpQrTa4Ji1ZkTOMpXIXMW6PYJsZF6m+YiCVYuIE1poKiKrcTWbKB78kkN3A3IkmCZPVjdIQiPyrFnsnhFGpD007lI7GrIQl3qeRDE5Wa5kGCg6GmsIaCMpWf94Ru30ZCv3KqPNoXtH02GfuQERpcqq0KcMrCnRlXJ/O6PY6PGx8DpTfMy5R7dSKvTRIucgqbuqCjF2S5akYZTO/CdjLsmrY791XFCeYgeEuhr6xvfHsVypLcYiVp2YHNS1SPXtWORKW7itS9Am27rklNIjMiGUUsj4M0e1CHtgqC2ZOk1uwxooMIRvgfywdSGpMkP5wyJ0uPV5zJWpCUOgZZGQ3VWJrcVsmfcdfEN8obcXHyOhEjKIJ7oRRMiQuGWtHsTJq5iWbLubbuXqBRUKJZm27jSKIN24uf2iC6k/+qE7hIZpHuTqGU4O4qFUahQIgmiAVME3fQgdU5HpCRW8ElXMoDWDSoNbwY2iXIhKjFpMjoyZ6Cs4/HJPQktqoO5YY00thQqaIXKJiohwIZssupLWXizpS9RrqQKqhT3WGVMo0/ImG1Mj7mbq+q5nfLgTp9xBu8IUCAdsUj2yFf9A4dwnoQiLEVnuck6cB8S7GbA5De0UENQR/yEaXYSWjsNfzI/mQEqbiJqJqKK4PcNMrEinqGdlosgnluf8AuA+xmQlpA/etRKSSaJWqQ1dxJr9xVsJapbe05EI4c8rXwJEq1epSKMhSlokzhiJKzcZ1ShkjQQtl0+7Iqwwk692RWVOWL7MeeUZMGzJFYoVGTNI1kxhLR+DaCZYufxjaQkmS2ZMlKNkJFu0NKaBtDYNghJQsh1RGwFUUZfQkzJTFTYRsEO42EQtCBLxENCCFoRbqWwjYgnyKDhCgywKDyK6kIsLSQsTBAgufI9iUJVjTEi6WLrr+G90a94RO1jd6GouGE4PBaE3ojKKWLrZfBI0K6psiaM+606LXy8WeFj4BZ/jR5P66G7OPtXsnH1PoS7i9YRh4WNnyuhNXFodUJMrTupZGijpEfnFBYULufQvQQKOXb1RD7Ok8bF8CcE12OjxcfU6C8CwRTUsY/Y26FcOwrFzoz8dAsX/gQPSeMWLDlykfGCd2Ig2RNfOCJEkkPaXcSws1J5IaCcqecLqmsfKE1qmhbEqxi9aiSIMS6jNBD5ZugeZS2HKqKXPhpYbREn0NDnrL3wuiz5YuzPCxh0V3PGcahJdzwnBu0Th7V7xk9T6PIXro8LGz5XRl4JG6CboMUrDzQ7hxi58uE0JJ8WEiY/YMhFL4uj1LDTDUTj7uhXcLBlC1Y1PmSsbueCbRd6Ff0ahOP/B647Ht9YZWqJqalCrqijnmKERLVdMLd11TsN/n9IfYyFMJiwkHKHFHEwJU5GirLtFze7QfnfohyGtHVCCi5aJt5IeqncR9xUUiCstcbiliCsmdgZ2nyZo8ku7uOjgs+Xi3Q8DG/wBDmeXRXt6PZjIyvZG4idDuZAuvY9MbY3DJFmbUkym2FJUrmzNthkahvm8QL5kGKRI1jfJXYb2B9oE6r6YUd+wmXAlj4I79iO/YbUn6I79iO/YhuQzOxDfsQevYjuNCqny7EdH2EUvc4vscewjp2E1uHYiDdNNJnKimqsBzFiq5wZyHIUM4eG5CWQpKPCT1jbMJ638inlEpvJk/3PqZP9hoVROhE7T4imR8T4kpyxWWFOpMnrartPYhrNBobE6UORS6GwpDpVZ8HxMrGroH/vBEHTKqltcCaZLUpSeolRixzcDRS1J2FxQRJDdErE2umhbzKnImQqzUN01TEx1yoUE5VC3FkVQ3/ZH0EbkRxffAJBKGVFoH3M+9iUdWQ37kNX3I6vuNJ5EN+43CRzJkCHYbBtG3G3Sufzj+EbQekSx/ONsKrFmiFphQmnhk4qJ5dFTtsbflFS2bPwU6VNciwy9BT2VUlksdNkKyxd+ivT0eNjT8BWSwkp7wqMz8EEyCzjauV0LxLB6so1KZaxuwnVOsbiiQ0UasFiWdGbG+Ky66ficbPOUkDALtXdZ7uh+/qpwXQ+54u48DrPJwcY92Z6YRieUpDwRJIoxNc1jkeMVwbbVhXQfI9zXN1NSuCZWcC1FQs2eKvzxqeBjY5RwDYxnBM/QfQ1RVSYkVHdr4wW120m1bZyeMMVhXM3zChNpTzFlSh2YaHImmk06PBevFUU5tTwhpyrLUpBEpOD3C1KsTwIYla6dkGu1qPkmBZZXBSjRbI3FbSR2epWpfoNKK2olTg6qoi6FQ8Q0wqNHgmhCqJc6XLCPZqrboXEzxs6M+L1it10/FfPGxev4/Bn7+hdEuh9j943DwMb3RR/KNBtoSVR3UQldiigrjrYXkPaD4UbBVDpfqZSDltnuVFl5WqxC1+Kjwiwyj4CskQ3KFkZOkipENNDBqp7nQi24bhjdy6PHFhoaoiyO6ssmnOgW3kzqj4XoLiaDiupqzgi/3dHDwkgphxt9C3gNJTuiHqjDiwghIQ91RruETmrRmOhojIZEcjN7Ikg70TvGC18FqRHlPNSvhGkRKHYe4RQ7JZ7HCkX2u7HsUSruAfVdKmdSQdvOE6ouForkKOjtBjyXGOS5X8Db1tTyZ0TyiiHFZlbozEbZK5MNWhS2DKN1EbjpuFaYkMvInUz+CaDSuRUq19kCt6BQbFjc6Esa+hWX/AIbpY6z18WPov06Luhb8vGxljGtkU1Kak1uOLolUGsZfIfbKKidMh4vXBO7QZTDRRLngyCzkF3SUzJ+xVlqYVgaT8DC7S73JvcSEhKZ7D/oDoU7GQ01adBGHORyhy0zei5DIaRa+ghPzXYyjRMyHP7JaiWoata5MJfwE2vwO7iIJZkHcckMh5iauLCts1fKR1gTuatRbR5yLvFp1J/qT/QnwouaZFWahmqRlYee+pP6WuyE3A2fJ9LFucKlkU9ZJJpuJVw5WwmDmHDJ/uTYtqQkG8az0ESklRUG0uTUTIJpDsorit0AxNyAFGojlm1oxl6EC4Iohw+xEXkmBCUEDFNUtcS0D09Ugri6ruNgFqUDgHSiZTNEidLsQ4SUrYcYXDQ+RnVtpbD2lLIplXvA855n1of3WGlIJayReoOTOTIasSkuQxQy66dc43BIB9oPvBSwEfzRGt2RWo2a3I1SHrIeshwqwEbiN2RqdiOvcyGvcR1fcS26vuR37kN++ArIbJskJuKwKNPQbI2wgqIQ5DadjaEKaUJJkgzyELQpPgjbH38bnB4yxi0lHqcjl/wBCSSSShKiJGzSlpWzMlc3Qr8+jTZY2L6V/GTxhWQ8PJxgRNIygUxcmtyxtXKwlEMB8E4TvPmyuHuWEYZmdCMMbuZGKVxLiQmUjgrimZdUkbvFddwt4Pzdomfr6Lvz9D6N/WIzQ2MNjx+8JL+ZOPuePiDdjG3ofRq/jpacLnB4GL5PsycXbx0Xc8XY8TG1cOj9MLvqRS+DqVRhaQ5J/GL9gZwKeWSFcwJqcRnBWeMHQIWD9vEqJRJQzJNywSxTdL4ToZEJSb2+CQazltLxs+UTinRR7iWL4Kzql4STGTgQjVaiEvo8CcL+RJmWHU9CWCFgMh+DP4r2Ee4rwl3ZSeNprPkgdLRxUz3TRg2JByDESW+UpvqTbiVt5pCLVm4lUEThSb50Fu9DryEvamLJrIk280EhamPYuMWZzbglcdS1WQm0QgUgsy016Ob/ros4+IWLFqfK62jNwui18sbGeIsWp9VejJy6FfljkeNjYuHvo/XBkS11A+qhyXYUsipViYqazyJCE5QOYKFBToT5yCSWxocxl6ZdNhwKWIQvQMTrlBR1k82V9b4DYYTBllyiXk2XEq0NSuIFKJrXgahdnqRR3DWQgpYVDsFdzSlLQ979nAFJJ2QQqijsHJRYeJDLUUEswQiO4RnqZzhOm9Q24KcLlyRhEkKjR/eP6g2qIa/hjCaTYjuTa5TqnE/8AivnjDVEpon2Y6IHTZQ0H561848CV+SlzzZORRWWG2SFFykzcaPMS9Ae0Intt+mPJtKS+yDjsgI4sOBl8p+mRTi8Ag1zEpgSWNxG4jYCKVBtO5tBsaiwo74zMKjzN43DcGkogR37EdH2KylmhH/jjJTZJhLWyQqtsQFDd0fQyRmqSzMnR7k6HcnSu5OShOjuJ0I4hV0XY06WGirWxKgpi6OY5o+JXsOQ2cTFHShGeY+RZJqfZlMo51cCaTrdEp1yIghngWKVNRRpoTkokNWxK7LUVWcj0hFMh5RAEapEkpNLLIdbYlZE2jVDEDKDQgEaSqdRRE4at8kao8qa1KhUiboQgrV5EoFPpmZgXzGSNtuESb2yXCXsUsN104ZuO5fU1biRWmoEbu5OqsTQhau4xcL56CUaMCWrnhbBsDJEbQktBFSgljmxy/wDiviyqmRuyO5C6Eooc+45PuQGYa0080WxuH5kRKvVNZJGlN8yPmJ3+BtcxkiwbIkqIpYrFCxtuw9MbARkXNhG0jaE0IhLC9wZLCCz5WMDKYaaaC+W/3tgvEsXCTbokpZEsG5clfgrhc4PGx9MZItTdoopoTbW56Ffn0eKsbFTNfgvYZYeEKywgm1yhi3AezxXiWE4JQK4KwUbLtWNemTVIxT0ELdWNSS4JQZAusxJydH4wgzcdFojDyMYPdjk56M3ON/8A4l08TH3oeN/Poehk+heBdHv6LOPjGWNq5XR+wSMgktTxgvAsEpgfDP8AsEIazr9BqrOSa000CwDUXWEfAedzJP3UDfUgZkVfIp+SjmHcVERk6Pb0eNilFyvwGfF4/Qrl76ktgoj4xXq6K+HGccHR+nR737xT7irYQkkLFXcdFrG7lgrYZ+ccvPRn5/Hvj8ynsXRdz6H4H0LwLo93RZxvdFq4dEFJV/oCk0GTnZwT5sEspk/bKHgV0ImWtfoLXK5LmR3YuSabk41PApIUFFsI1CQ7RhQLIi2kyq8FBtQ+DMub02gShKuN3PF2PGxt4PwHsx8YVljd0UvF0eFhQ3MhKJWqKalO0lao3EbiGVxZkNUQ1Qwo3RtjZC1UQk5yRtsBOqBBK4W6+zEzCRp/wFvEgwSE6B2UE9p8TkhGVGQEvwiSn4bxCBO5K1IeBK1NgStUMprVyVo7jTUhoIRoiDbGyNiVlTbmlg1XybpvvsR37CiXNrsNjsJE6PsWr0EP+BzFio5CWolrLw5HAu41Eu7fpDTjfXpXUT0Tc05sagpKVThjGnGftJvEh7hj4pXTuQIoNnqHQ7XkSuxkr3ZD3MzZy7WRq7C/BNrI4uxGj2EQvi1NRNBoUFwR/I+lEGk61dyNUlrGnrGQ2G5FqBISlrnJhPsZurH2Mf8AYfY2STW7Ujr3Mjv3GiaCljUgU24G0aVHY2SeRaGybQ9EKyq0U4bZCMOlzOAKGbAyQpcIbcdj4FompmhJSahohRZCShDREKbEUvlELCFIrlGWLt0LPoNR843dC3F+D8VPwXxE0k2xtiEkkbCNlGwIJ0oQ0IRC0IUaZMoU0wXi/BExqeLoy8ixfhYlCUdQk9j94+EL9Y+l0fp0XYzszxMbODo/Xozc42Q+6RZV0Lf3Fr4FTSUiq61HzhJZkkUjQWJYOVFYS1fRasdE3E7ETtykmcmiLzgqsH0rqqG1kpQyhCUEbYmIOtZFYVyxcMKCF4lhI7FrF3GQsCcTviy6Cvb/AOK70L3ro8zoy9Bero9vFlvG9x0eoTj6GSjgSN8bWEiQen5wgeMKGK78EXYzszxMbVysY6T3MHYTzJ6WJooaVUPRJnFrVHBo1c+UJVc4QdA0nUVahPDX5h3Y2TYZgsEhVbMZU4lKeR8YQoSCjBVHOR5ljCYsGopmveEvIqL1YzlAz+LCehsswQ7MPkbpcRCqbmEnLf8Aiv47PpPJ6MvHQvAvwTxMfAMsfd0ZOBVqJiu2N48KalB6fnFu0ZBGterfp1h2Z4GOXnCcP1wklajKtUqm2NgXK/khEttZZUnvEUiLToyPDJjBN9aK/wDRao8FtVSF5dkqN2Y1lL1Reo3sCxe43KGx9oOD7E3xZoNX6hT4iw5iMroDSzS23gHgqlU3Hc+lk/3KijubHuTpdx1pgorHwOaLFSCjAFJU5M5MhBEMBpQxFCpip/IR1XuBSScYU6MLeIkrkR3I79iO/YhF1toR0fYjp2HMKDOHgOY5hymq5PUbnAdpBLAXkH0sn+59bLFFcnQidCJ0O5OSSjokEtk7nwNBwI2HxMpBxdji7FTXIScvYbf+RLW7IT5BuSRS1kPMtgPoZzfcSvyR37kNyG4prwRwoypmbZsG2WEZG2NohoJVRXIWhDQ8YS2I2wVWc8YIXaIpGRCWWCyRh6nRm4WLFIKeYjTC1c9C9OPjCsuMXaPBlrH9cbGKyxn/AOLuFkjD9HR5nRl/IU8LGl+i7l0frhGHmda8Izxbrzxn8BrHwUo2x93R+vRn5x8YVlj7I8V68YPCx9DGTP0LONnBhHS/GEqLF+g8HZliHhXs6JWxu5fgn8S4WeiWPm9GTj8A9jFnh9YvKmP6ElcHqFSuKkWAd8fJ/GCxngY+p+A9zHxWKyx8noXReFj6mM1Pv845k4yNknqYSIXrxj8QrLCTnkSjdHBcVCpDBsEsToJRY+JzRyJ93/iWMs9b5PRk6C6L3sXY8DG/0X9Fl0lgtzMu54V1wcpeh8dKu59dKGCVqStUNwdchJCqsbiJWpQVVzYG8bxrcsPl7M5OzErNfQho+x9CHNqM+hEQ5B1UMnrJayWolglrJCRZwRn+hOl3KCork6Xc4ovsiVawsVFFEQZKOxw9ixuIwBLUJVqHJnJlB1YiiQ0IyB6BC0MmK2Kuxt6M3P4J/FcHcMF9LHkwGQkGc7hLEBML0YKf7k6HcVShxXcnS7nBF2Erk6VhW5FFbA+JsD4HJHNdipUjmiNLsRpdjfyISqTiCfpCQI8+ZAxqkPWSaCHqIeoWquAfcyGr7sayOXvhbRWqMsNtDaCZCubQ2A1B7BE0oQtCEeoUFGH69HuxuCtjdz6F6uizj6mOZ+pNSTXBZ9OX4DldilQrYq7HLz0W/g+MF+B2Zbxuitgi/nhOGTj8Cs5MXY8Hrr+f4Kc8+jxsbpKErDyehX8dcdxY4xZdjo/Xoz84vW2LFjdz6F0VnHLz0foQI1wSuHBJ7hyV1EXc8W06xksJ2LvGN/ouxZeSSGo9Ys0/8Tt0d0WN/PoycfgFnJi7M8PGfR8no/T8eV0am4sLufRm6HuYu48DH3Lo/Xozc4+EKyx8no9PrXu6Fdx0qCiITVmStUStTZCZqzN0iOysR0ZxZLEuQkOCKGQjGoh6iUzVnJkRrKEmhCEoyz/4n0syXXHZx0LorHyxdmeH1l3Pojw69J42NzCSVqQmrM2BuI30VNcsFvG8ITXM3CO5RdxEDm7Edxo4o76HDsxg3FjkJasBUbsFOl3Gi6CcFRdzj3HFDqkkTtPifErKxyOQ9xNsUMBBspLXJaiWsnqN52Ob7kdWRqMIbWFIpVzbRDg8goSh1BKJRK1FFwlEot+SgsM+LviuFrrQwvxK82BAVFRKCEaiC12Z9oI/gcQ6NciNDsR/Aj+QlIIJIICRXzwMA1BhHANahD1iuBLUS1EycHUOYlqObN92OfcQ1fcjq+4juI74W0WgMmyLyuNg2xsCKaczYRC0IP16Pdgh24D1Nh4ezo/Toz84+IWLG7oLovFFh7MUs9DBmTLRGHk4Rhn5xtXOMI9xBBaucZM+LsxvFCfgdT/Ha+cbxYsfYujJwLFerGSx1zY3DxsHgSsfJwTwnwweHsxy6Jd6PJ6Ffx0e5j4B4GCPcSTsT0ka84SVHAimDeDOCYSSNjkg4k/yKNhI8hHoEMdx42LOa45+cfcThBm5wbG7ck6iGpAQlY5CQlzY+GGkyxdaLm78dr5xucFixy8rofgYnXBFZMS6GKLHy8GO4ftYSP5oY3g1ccmbgkbcCw0C6sZ4t3ejPx0PfljcLHGFpk5wl4T4jeEikNzcGWGwnRhI3XkSNk1L4EkIY9AmtRtGozHqIpKg2xmwtYhH/BrKjFBKqxLWS1jODDTC0ETpRSocyNaLFScDkOTEqECA4NNyEQPrE5xcVvwXOemSOmHcStSTcHosbFyLFwWfUpL3ODaZc4KeAnD9ZJpUpAxNC43uJM2QmtSVqQGWfMbWpCKdhAVw28ZZkc2JLHMJm6mxHR9iOjPkbLschyYCoe4kJBtw6CZJDkIX+ygpmTpRxRxRwTA02aEXNCTryRrRGh2Gla/4IdIzqIYacg1uS1ZzYq3V9yGr7lYvEY4rBsGyIu4haIRaEF4jCEhNQiUQGylE4KRLQkZIJEsljOCRLG3KJEiUFix/X8YhlKmf4XgqnkQIaDiFNMKIqMagICOFAVVYESYrL31wEDWQ0j2Fp4SkqajLawGk0EdDawoZcjYFoELQTRmQihFDxOipi+h9HRn5x8AVnGPs/AZ+cfEFZfiIsZY4xu5Y/JP58bwrY/pi7FrF29c7MXZlixms3EQ1MtWv4EN1P//EACcQAQACAgEEAgIDAQEBAAAAAAEAESExQRBRYXGBkaGxwdHw8eEg/9oACAEBAAE/EKwanOoSlzBUtcRd9DwuAV0AlE+ehdeoNsVOYpKNkXAQl0zI45jYQ1CIM1WIgyhlWQsuXbdy7mFlwnDUuq6DGqlEKNxS4NXLlvTBc94tQ+4QlwVcYFQuHS2HfoNy9yytVBgqsYB0dwjvfWmoWLqJI0kAI5bjCl3Ht03Bl1vpnBApmY5qBVzEqZmanqNXEiktHEvFStUy6IJcrmalvMzz0q97mQlzeoyu0WUOYsIg7egjCOSNTb0MMxY1KWoiEysTEpqCmOpTyzHeOOIxS66XTKxEnBMV0Ye5aTmIqpfE10ogkMykl+IS3qGZmExBjDpfacQ7RzzHUwlszBpuEXKhRKIQelNa6qrUP/hgypWejqECWS4pcLAqDHPMYqrlXPcIWTMphKmIpzKUme8elyiCkXkmyIksolME7su+Y9GpWI9OY7l9B7ymm6JZWolEwUkyWwlZjZNsqO6lMYwHmX0OlTbCizENzmadc9MDHUNdDnUzcrM26J6PQzOoPHWyKMNF9L6GCDLg9OYsGD0EbjNTIiJrUYtdMy5eeh0olQvpz1LuAXKjDUJUpiQg56gypWIVHHJ1ISoWEYRqV0uFxrjcXVwqDc3ONwal9LOhqX1uVzCLe8Om4wq4sbnBKZTjEpyQi4hHt0Fvo1g6XUvodkqYgnELlwuEoOei4lK9L30N1K6KIK6juJCuZmWwcxW+gh5m2BBNRn0igQuP5I7T/JAmn7pk/mlxr6go0uU7kG5cE6N9BtUsg9pmpSDLGdiMoziBmYmBlk1z1uWdOemjpYjOLjCXL6Z2xzKanELgp0uXNOldKlXuLnfSynEK6iyXUW54IVCV1+I046CkFJzHiM3EYDLizTuWzTNkqVcuFvSm5UNwIgRNdEhgiQ6JmJZiDctKneFw1bDcRh00mJohuaZUSjpazHlOJdMu4sFvU29BgKoGPDszxE8ad8sKn9UVK/CSqq+iZLRL81xG24b7izNP2zQ19mA2mftLd/alOAuCtv5YXjUiFLnXAbr6iXrcGrD+oOc/iABhB/4UDImi7leM3fU8n1sz6/cuv+caMv7gmz82S3MTMKviB7+EjTqnpiAWv0zZPhQfAbimpJwN6ZloNwDesTGVQezLzucTjpslzLVS5Z0sqDics30QiwqpqFXNahubVuD4mIYgCN3Ae8CO6lY61UNblW7rEYS+hTHcRgRTcrpmpdagYjKJfiK0wtmemJpjGoMYwx/8FKlExKxG+JaDxLuVf/xmoXLIIi4VUNQZuYhQx7y5c0y6RQ9OjCXmEb6U7jSWTCQwwy01c2SPW4VNRdRu9womKIQz0rpRKhKuumKgUxOjjMrsIIaKjjsRuGFGSDXkwvFEI82n7Z7vuBaREP8AfKSASpMY7766Acz9Sr4+qNdRG0o6X5iB/JBt0+ZVZdhZlSr+qOWTPUXFn2RqpH6Z50BbBsrFeQniQPZNcRWHEucy0ZZcU4INz4lx6WGLLfTZllQQgsTpp0qqitwcajxEZUsRwSpQwy9tKjcIEcR6aPcWzHIOJZzL7obqVCoFZuLKxCWQp00dMhM7ld3pjtDRMmrh5nExMJE8ztGXPHyQKDvULYsxtYCGIJiXmL0USdkWmFrqKjMrSVjM5qG4k8zCdLTCZvqE6rUvEx664iZOlsQqVxDB0tDpdQbSPT4jUtqU3Nz3HXQTiZinVpJxD1NvTTOGUbxKviVxUo1SdwR4DFzMMvjS/M4AL5uBN/lm9kKlJswoDNcR6SY7jkweME2vhphRnbxDTnP3PMr0nEQsbD0TB/BBXdPiZTKNl0gbVJ2fshoElmcyyiPEVrnUYLAjZb2ZYwEcuIIHe2Y10KWYt2I2Pt8Th2H0xrW5IblZgGYTImFPtmYGoQja6jdYlwuO2A3roeYa6eOXUYOLnDCkg5qomdxJfTUmQb4gA3ERl6ljEzjo2TNQthHGZ2YR8zSXbMd5l1BeleZp6JfM4icktlDSyoZiEN9GUmFnxA6Z630ZiVXRS5cqNk41G+hDzKbvpiFdcy5Y9LlNQZmplmYbjuGCOZTHepcLqBmZJWNwWYgdKgZl+INTnEqOJqUBgDiNLoiuxOWTvCoFVEQWKcIwatusPeVe66ICtB8Q7afEosT5lb2epWej1Czb8ROIrng/cUR+SVX3lbJuuWe6J2w7kBTk+JobeRgSztmCuHEFVmIAwIFkplYhuYlLNdQ9VaZYlKIsLMxAhPAgTCXLgzmUlku2pnpQiy+8OhZLeOlkEuWS2uhKqCMMRLlzPDBaivMqFkuASiXmE7zNRlweh/8AHHTXQVUJmG4sSc9L6XUMy0jCuelPTBBLgbZUuOpdY6F6IXTcYRcrv0srBCswOnL0y9CWzme4FQJmU1uFJExEEcw9+QhmuIxvnpiZTegc6iMzUNkwHpKCagO0q4XPBl92YgWy36m5VypgIp0ElnQWDmprnoXmECG5YMxN6QDBFlFO88o+COn9SFf9YZVfqWhr9XMuFQ/+BA1PlnllHSh+6l90rVuebueP5MupecurWzuyzVP5g5LfDcM+L5gAuj3DlPxFen7lG/2hVvfsl9fsJ4eWQ39qihzs3WJw/hgLeDyhff2qJ8vqJ7gQtFEZjw4nQgHhOCyGl6inDLg830cRYOC+gJcuVGX0pcIMuFx0Qp5hropiXcrzDzKIQMxKlsHMAuVmBnP/AMUVC4y8znoplvaYcQ2mZahhgjmHTGpi8a6C27xld8Vcahcp3GVARTDLcTEzXRWqjr5kJjEehJhDomZ9QMJTNR5mm5aUy4d5dsslnVcpcupTwz59tYmdb90GLt+no6XhAmmcuJu0GFWDc7gg5YY4sY9hHm+0l9j7IU/zQuyT7m2z9zx5YFGD3hDHGBqC8ko8kE4SPhh2uFxQ8wMS7PUIlMN3GkN1Eq7EHxirWPbzgigwYhpzKnf2m/8ANM31zBaOnav4SxxQ5Kh2leo13c+orm4HRizxGSWQyfMOw+5UJxbwqkPmeBUghdo60T4ljQv1C+noZQIJc6yvECmsuDB5SFTmYHRodTbiXxXTEo3DL4nEzXR3U+JxCcRu9wLiB0eJWJ8RunYxt8I8y8TiDLrpjHKHQ6OoXyylGeHQEPESoOQgEf1YlgK4JxAJwRYziVKSJM1ENzxOZiXmXKgMso0WpZfB0GK3lKSjDsRoJ3t0AaCA/wDCEbzSTRhNukND6pS2+XNQql/Z0TTSO0CFj4ndk8ZfEPXn7JTikt2YVZiwGlpnu32ynSr2xq0DwKIEGqbZwP3sxcfbEr0RYuWcRK8vqYMfjG+0dYqen9Sov9ksn/qUAtbqo48fuYcj7hXf7EsyPJDRRMpqJ92LDr6srF3fplpTKnLBcQg7INs3CbJVJbMJLJzxMd4R8zbqULKKlGwhRpECqQfNEwpSHZzwR2/Qsb7KfLAMn3xO5NBicTjcZwH/AMx4TfqJf0RpmkraHDLvdPe5luFLU/olgD9EoQyfEQ2v1KMwLkEK8BmAxJZVIxdLlKu9RLjnb7sIB43LvUzzHosorMz9/QxEjUYmZWkdqi03B8kE5hAs1cDpan4nVLYsdS5Z3hcqJMGty4ZiBtgwZaEHNLfH0oscV1tgRDJC3ZU+IT8R+prmF946lQ+2Vi5wQYPqYAVGu0AZ6dxSxVLdxPwJ5Js6J4c5dwWKlH9UphhlLvklQmoq7eel1xMwKjsvBNblN2dNB5/aJUqEsN1NWCLZouITIQJUy9EdjNGsvWNCZbjli+b+0K3kTcwk4Ymtyshgf1lRZFUqrMAXlA7osuouq1A144mDWd7bzAtXEs0YpczItf6YconxG/dFQo3E3Mu+kd1ZemME4pBJhcJCriYmKu48sQzvVEmBFDWeBPFLaxCio4GCLF6RkHF+Eo2fqb7htzLZW5ZTGgwz5jQD+Ucdr7Ja6IUN/XPGznt9qiHNS1wI8/2ThmUJhANER3i2/gluI2lVuL0d9F+Jpq5bFi0y7ZomI4pCLiGQg5YkG80S3lllZjH3lLZhqgcTdnfPUJgqK28nUaHMND2uWRPMGtoeUHEbZxE/h/Upe9xTiYGd3xgjBhN/bK6NKmp46FWQuPuV9kuc6htjftmyWyrlvgJmDiFU3NScv7S1OlvggJVvSu85fQBuoQLmOsxFa6Y/J++mHiUnR0pi7umF3Nysym3/AEISoAYeGNydpQjcbT3pErmGUqhcUtEvJXdqUFdHaOC5JMMLFN1CEHJW4nj75c0BMu0TYUeIf+bLXGbxLK2j1HWiMcv2Q7f7iTn84UuRC2IAM1fEurD9T3xmOwlxgzxpfBJ5IHmUaucFSzUAi7p9RTjFqv6opFgABAoqYPRDiUwFlUT0liWQWpuBmYPQviow99GtjQRwVIIU4qgm0ote4yiGMhzmOKoxM2VeoDug8lQdu5jItZgePomnn6hQqLshfDK2B9IpVSxIIwsKpshEBS9WgKsU1Se8SbRw3uG0LEeMOx9wGgzFaML6rHWNTSGog0yjzM8eR+5xL5SNbiydCO8LlT0E1Lm529fyIEqH6ppmOhHF/TE9M2iTJViFdoY5mKKhpnlZVeo6sm2O5Utlviei48TCGsYhVStVcTRu2urbOIUuXmMv7KehCC9MfBwRq5TDWfaPwsqMRqMewgd4gOp+HM/VCMQcXD0Qmor+bMnMoawTXoh7aIqTKZHCnD3l7z9soK9SoxWYHOd78YU4/Cbwx+I9r70zEtEeLuEqb7EHvHcN5x0WDFLmJdm7mpSEfEsvMrqZ8upn5hcGBFOoBbjSHJBWq0SpA5ejAiMePKo5RmeaW7YRfPHAVltuuxNKriXzxK2W7IbOmNvtKgaheQhPZoZiwalkxuNS6jrDdx2HGoQ+FJgKECiphlVAoH1M3Ut2EGkDUu1LqUcTDkRyjN/kCFWbjVdsRTATkLjMq4UoyTkRvF4icxAx/XLBioyKwth2SeIjqdu7gtWa9w0xc1ezu4d3B5VQtSQSgCgwQ1T1DyfTDTd/EtjK2YcpLS7IxAJZ4Qs0lhzFyYplYHoM0eel6xPxZX4uldINQOiifMqiZED4olS7MxHLr+ESuSVK5Y/IJzKuHH4lKPHTM/DZW46SiKlissdICNytM7IOpGdSqGEmh1E6B9ZK7y4EZOT3KEEgjGE0x9T0IEGUQY5zMMyNTIZlYI1UCuATqAqK3V0n6J7AF9xhVUa0DWYb+Xq/NaZs7u1zfcESWhzUuQNRDofD/CWgk4ckLC9EBmoC69IfuI0nyMhLaAWxpGDYBlt3iWUGDrzF6De4C5lLBafhCF0jTTTdM1jAInMsDdu2WEQvevUS5uBTFu7S/npfQJp/xmOWZk0x0O61Eq7Y9Cswg6uv29yTWiGLHEH0VhatOWLlhD79RcXboiOVZEHs95QyzFsMFl80y42tLFRbJ0lkpAloiYjAgqp6crU8zrW1Y5p2TTjoiCnJAYfMDlIljElIS5UgP7vCDiKBDemK6JWK4Z3iGLcGatgKRSmtwF7ZxhUV4gM9Qoc5/gQkTldGJWGNQptEobbERsC4uIOksuSxcnBwl7y5lty/AlQAojPA9A9riyeFNNiUcpFbrNQHR4vMvxC1hVsqI8peowpT2dNV0Di4iYgTGQoO88RUH1kYqyVL5Q/TAmJs6WdLgxxxAshVypm5ca6VChMWK+JSS1hEUQ4QuqIx5oLSzykvu7eE7BSv0d2VtBjbWHwMdA+pnv5fRqo1WQNK7trHu2kPhySshAGVsjKxmTAEUOgQ93+iSulCq6KoqbFzRAu0qE7uEsVLIWZpS34cOdQhYaZyDYZexhZco68tV6i3Oo1ZIbfaMwsmDCAe79TC2TfacRoGKq/eYrVdP7I2Zp4ZbAiFeOScwCRB6iOGWRglWVfbDMSWGwontSYwzuyrlGXXHXbdmBekijyN/G4+bny6owzwPVbqqAXZLO6kcxb2aw2FM2roMFxM17LdBbLYV62HZHWJK2u6uEFRVjvNBgaGkDgqIbWKPtS4bGE0vLMpzLq4FkPjAOPxLAVKlqylyig0YuIEgVLB5aiq29NWziCleAlemmkTuPEXqIU7W8CYemg1fIidmFy/dX+EzG3d4d4agAzUiWGSIoCAPZL59zuWliB7SqraGiC+FhIS/wC8nSN25mXpQAJTiU5EOOJsiCalT1xG4sVNG4zFML5irwQX8cCcQmV52iRolEFgF1MsIoXCBqKiHnNwHCy13I0ChIhzmOyO5ExMm4b2R4PRyEeYPdEzdMBwfSBBd/TKNrOGQTOyqivhFg51rEB8c1EyldDuTe5UKdKZVQjpmBKmrhK5e00OFEDWQrmHyQlTbUKAFV3sE9VCk4ng41qoMBsbf5lXflSRd2VCt7G9o9xqczjHLdviyE4FwYenMWmLC0m1PzcsBw2rQe1l6KUU7L5i62cj9sOIqjfFKys1yKk4GAwUIVNYdd0MMkdkAFKsYMCJVoLeYSRuLkdaAFTfsgGIBtbspcOieCjTQEXv1H0dT0RW0x3nbihjQZpql8wee458ythQ1D4/aCyp3A3DSV/ZCNzOwa7IuG8SbX45Sqw+oggt2fTcV/6ICuHm4qjv6NUSUYuH/HM9HcGDbPwTXGmak+egCEbU1aWKsCIk7rDWSJaMiOCRdEC0+TEuBWeXDX3UUmKUKaVAglkJqi/5nOKgcuE5kNOr2gMbL4CR/FJrMXV0v0yiWJ0RhS+blf7hlKUFPsAFB91Ly2FttoqVd4Go0chOBWEqNTXgwA9yiS9yywVdIgowbIkGSV5bcpuNqhlRF2SrITV2qt2x1qo86V16jD4qPFmj6iijwuKsgsOwwEWu8IZyYUav9Api/TbQLD8MQUSZyC4rLA1ZzMb3SZYl9PUUhuC4JsbvUMsIsKEov3JMjbUwVnEpwzvdBFngjtepn64prKRLUXmcZIWwNwIF0xaImsBBfyIlEvJcyzTB4iJnqYK2DFi3mAIAFglStbKwwHSOpf4kJX/xXRG4GYlMquldAySiVVUQj4CVDd0IZ3CZ/FBsCUwVtCHPntEkWkBIbWCgKMAuxAB9EEIxkpag/LAlMreptWdw6hCnZZr7jVML8svUxewlYF/cOSWxG2bn5zLTTFXctMED6CBjbFbeQ+hCDHAFAECKIbkc4AGBRDn6g+CTe4nFsr/1ZlXKOIB2IidF2tFWzxyzhFdp7BjDtWJhoslbOc7hbSZMiGEkBQMAGAJgVO0UUyYxoiahfMaqkEq2plCq7agE12PqAeE8PxEpz4mVVe83P1CNoRetFKx3bDGFbpRACyLWHwkIhotQ+gggLLTuLk6mt0uxnY+3Ln8QfALblNrKeDfIvmBBCurVvdYlTVKYtmNtpoobVjHEAc3MrxUTJ7mB21sgBAuexyGtEFAq9oQ7IViOyoAlBW8CoGrB8y7mrGwUMCqhTaTWXdrzMKLhXs0RmOUbjrhifh3LYCBvJLpTtjxrUuhNTcpi/g6o4iJy7qbRM7jR94DoYYYq6MKxmecYdsmaM4QpauGFrJHFLgdVLyYqKq6Klg1GeMN2Rn6kqcR1NRtrpcUyg46Veos1KhEmzUIDmhS3kSyExfXLl4212uF0LUCC/cjEamX9nfBXBJ1SNVUYlTMUqN+LcwvQYCZwjOIz9vosvUKsgwojLjvfsiQIK9LCjvhCmV4uAp6fuBNpVbgWt1+eo3iV0d+FD8dKvmoYslk/PRtgN9SggSqYE9j+oCTMq5+N0E3NF+ZzLLHggXA2Om1mHqejUSyW9Ii1pidlsTCr6osU1KtQgGBpG7SI8ZQ8+JbY4Yg8EZeT5hsPyblJmAQryNFOqTSxijWPZIV5N+oIiNBHVbLNSA0o1GM1xMM91ZaaJmC69kKtncCF3b5IARsbmtd94JsntqJqEWwwUsIpU4bxFyOZa5T4pTVAsO+hbXiW0grDTyQldwmSpxiUy8xYt9LslJdxxFviDLMDCMWJKx0XHO1qhHEMktY6LDoHCBEig3lYA9JNua2Uo0I08QFJSAKWgwdWvyIiFSp+W/qOowYyrwRY1KxN8/09a/FMAO0SpcPi2+uglLECUHbplgyNW1M3iAdoYHvKplZlTG7WJbUNTEt87oD3hrE/CJ5uYlMvQe7K5uEEDCGOh/NLb6Ksm4dkq2Ixa+DOF2RJUpC4IkAu5+tOelO5eBGF8PpUMSyr2QMQIhaCjd1HcteYEV3AMWAy24xykCjBE7Q1ELbN3qdsXiBcjK1S3U7vfe4HXrW4EWbgkpgqs/ZE1Q/EId989pyAxpJT5hXk+TFcViZOmumunNQhMkCZJhgU51M6lSmyadzVuUDsNS2IFzWeFSpcbMu25Qhk2K1zsKeVK5uIdmPRQjCWbjsQ1ClBhQqkjLkQ4ZP+KYKkH25hhvxh0EKs63UC6ejE7/1R4fohuTYlYtxtxMFjSLWalgqhljp9x0twczitK+UOWGWDgKrvUB2ip1GTF2Q75y9oBy9B2apeD4ynhFOEQliKu4jkSwld2llw9y5il8QTJCDub/bo1MEzXQR+CXPniy4x+bD9TcYaPSfjkI7lE9XUxATsv7GFjMwK5l69KMMw9HpWIjBheBGE4ZUpYuXqqtygbhuUe+AkZhd2gwepVEAmnoUNysQuTtEqVnMwM7wXEqoCWDcubmJXaViWzPclZWHR6c9M3KlKRsZmouNuvVjg+Ssou+akOEps07dmyUuBoq82aLYuzYyoW7f4zXU5nlmYqV9p+P6BUdBOS+3ps3BY78R+R0sj3qZ+olXAm5YftLg8ky9qfgugWSw1f+zKuELjfy5W56laeY3wP1KdEbY59albGk8a4kINVONheG3UGVcsB4mTn7ZVr9y4O1JMB/cDoYUgaBGXmV7seMlL2w7+WreAXlEd84Lir616h4vqah2JtmKNVElgqoOMJYNFzX/KNRdIs25Y25a94p2IjXZ9Ik4Z7CDJcH5lHJDBZpPGhxJKdyCcFUrr3ma1TWo9CNfM01KqVHwcsFKLh4uJanqVqzo0HzC0YICNL9QL0CMoaUJVQC8xDMIyKx6VcwISug31ATTHELhqViBAzBz9u1k0CJF+RA3LFLDTs7vEEALk8lly/MJdwVABFgFaW3MzJSQ30D5LwW8zDD9EIEGhDcxc/wB7vGFy7jq/+C/0wnG4eI7C9F9Mp6D6phd26BMA1v8AZCW8QhPH/ITMTpT/AA4I5puNwpKWXUqBxzLi/FBhkiNz8ljHeIPiL6IGaph3mZXMrAWBYoWWS7ikCppaNyyIIbpxFxMoRp7z9RdYnEUxdpTPujpQNQ4y4zUxW4VUKaluljDPM8MUDUO6oB2IcgSs+k4qRW8EUjNKAp0be/3E0ZhJoD3LVdUUc4wDa4XUy9pDtoeHeInjKOxHVuBAZ6nCqFWYKw06mV4Z7JZhgpOEFLDLe0o6o1HDHTia/cxOR6Xa10RLl5Ju5ZBjucQh2ZgIZZuhMJi/0SUn5gGsKa5XA8sGPdl3jbfpyrckMQjO1hlwgXXxhopO+Jn2QRYbR7SY9JSrLqMBvRAdyOWyMQPZL7iAgI8l6GKXBn60unpcbkKbdSPWp+ERYT9VG7gyyrjS1+L5IMslzu+EJuNSvxy6lk209v30DOZ+/EJcYpm4MS9gAl2tT4ltQMNtrAytw3G2j5S0mESpyjC8zyl5uMfYEtWCAsRwCwhhsRckhLp6pcviAyzN8YwXIsBTMEgG5wGjPzLwqYqVBLj2ywg95ZBUOAOWCViWY8eiJ5hqXq4ZXYS44JW+JX4ulxz6mB3xEFiBcwSIcIWjSFVJuM2vC/calwwp5lT0TXQGpdGpcqzLC+WJ5lR1OOh0CYduSDypnVkC3MNWgSnXJvXK3LUrEA9gjZPHgOjFHWYQ0CX7km4q9S9yIwuOD1FGWa4EQNhHsF1uF2kDZWBKBkQ1VCkKjbrKf2Mt4ZzU/bGvF/bB+wrmYM/bE1R9kMVv2hU9xj2TEXUMqTiWUWuxD/ih/wA0NLnWeVQO+aghdyKvWLmU/dOUo7h+kEBniy4nm32TmtXsiv1XDZE8oGNzvCrVLSUx+qYtfcwHj6MqlqtiOqi40A7TCmuFFYAXNwuh0FNwamNsb0sMoQmTQ+4+UxemDDR5gFVvQfuO3GYRjnUEE0U+pEAWjERIN2QfI2QAQEYrUv7ZLhLiwOeJ3vUKVTBKgWhukzFAoALU0AcsdrhTsfdPEUS3SaQyitKUhEEs1t/9IOZc1m/gg5i1eYlYqRuGiapSCIVGM2cJt3Bj5RvOLRBowS3mPKUznEXQLGXTBUOKYLvAS+lqtXFqYbO4viUui0l6YluMotRwltRmZuzpLIszRLupWUZlSuhNXyQ1LqXFcnxHcvMyS4LLwQW2LHTHMVZayn4Hp5mJ2/yS5UJh0BmSM+qXGK1Fb9umZZPxLF3aL4gw8lMrqHR5pYuJrpT4f6ntlSrmPp6VcPJ5IxXTT9zTUZigruRKvJeLuXOUgB7UksYDLj5lH42OwliV5CLSFfEKtIK7EQGhll+Vn1Ln+EgzHxEKIAnDtCqggEZoH5gVZwxO7fuDq6tECwJKabuWYcnDDBCmt0QhxcEybe4omD2wFbKEitAIrMLSqh7qFrmECQjOAgXKlPWERdD8wGBj+Y44WTTDfActYopmBcdukwWjmcx9EyFl+orobzLe8JM4lU0wGFuGeHFMCVMFemlWkYx2h0d6lrIUzuIzdmoJG0Wi9wwZyEupWYmpkkxNiAwUz2gMR5RsejqF2TFw3KJfNRzCWG4owmEqWRMynwIVUsjLOPiLIkWfgJS8xi87mC/fLlz89Of2RZcbXrlS4S/2v4lz30Rg8f8Ax9RQ3PUq+NS67ukuBu4as/wy+lRy+P5DoQh+n+iV0Vyianjrm8cn7lMqGqgv5HQOlRJdtLb3tCrDsfBiP/SgTE1QH+onkKTIUDM0Kof3FBlaNG9WvYwS8f2+7DGrUvXVJuOMsA5RQQJY0WjXssGsCwZElc0FKDKtRmZoCfJcDVRC2WS2zDPw/Uq24ldI+oXGFUw/a6kSgzhLmWC/SiWGxcoFVMD2k0LZzDVNAIzbpgSlHBL3UgNTMhCwB3UYa8GnSh3AlBD3DklXEDfdiHEpWpVizQmQoQ7Lo+OVDtxxgYle0FBtLJfhx4nFTaMpcH6gHM84mEW4ECGs3mUKyfcqhW51MQwGNAPhSHN+DAcM5S/PRFlJ4d9C76Z7yziDNwp6OiEvM5lZhAfCX0tiCrMC7+OOtiBxUf8AnjjX4pRj8UAiZBx2h6y0llzF5E4Ff6S1KVcVPldIRLpFBYjpnDb9Sqt/UcAuR4hyoQGmd78Gdn8WWKuiynGLBmq2bJlMIqmhZuf9UlX9aXn8xGmpxBuE8SVq7J+1HPHqt9wtyGHSZJmPlNS+CELuOHs/09VsNlYyfZKJpjLv9dREMk2zIz8TqK9n7dMsNyp8sAIEwF1sUNMFK8WAkdBLQlq/KKNd88MNh8WQ8AQZptZnxAldr63be6QjUWhfFCJAKoU7N2ACKt6OBcvumHs0XK4Ri9LSfC2+bjvhxjzZHHMnj2BLvPclQYUl5wj2of3Mh+HoDi+W5crnqzh58kMZV6dl2fDC0GwK7o/nALXIQtaKicsChyuoKuIWNAckByCckvmu9wK0ik2RnKBR4zLg6VqjVgQ9yv6S/wAQLC3cPxUy5NQRg7eiTfkEzZJlMgZVnvKltpC3LKHXFWVmWYkFjHL0alaLktsuULMvSTS5UP1TQ9ifEYK9LGKxcyuCagrgnul2NGBjUNPHKILRK46Ooe5dYlE5q441L1NdcunENXLJTPSb6YWsMMbv5spPMsn4FUfOcNLRtaDbMJ1uD/og/qXgx2UCeaI/oqgg/wBjG2YCINfeNt7GkYxGNVhgksZ90bPXURFdw3OgrDd1I7R2qT1i2U2mWaMtvgqBYm0aHkvg7zvdbMm8Ax/EZQgKf+qQJR/h8VK6oHNrv4UQ7LmsOviGiwg0pxRZAIUXWUo7RFwe1lQAYQ1X2WQOr+0rq7dxlJ243DTJrM2syofej5CTBYPg/kl8iKl0aEnEfjGzOPqf5EGGLum5pUPFle+8SqKVCfr92CuxZNMxr98H/wB0wZPxC3/KiyUc/mRHOgSyAnwFCBvMOzxDdMujThEJZ8JEKRvy3G29Jvfbq7WQDpldXaspay50Bquqvg0TECkPIoD6qFtKrewYc6ie1jtJ4WVezwUvyy/WQFCnMIOGOgTgRrPBOH+JUnwewljEQQoxwbRxcGaU18MqwnHf6JV+rEtKCkC0Foo0ae1xL6DMAKHOYDunfoO9NQ2Q1SuTfm+04GotEeGKckDz5zPT4Wo6qovRaBA8RLoo+mMXVYFvJ+0QSLovEQ9vBLtaAS3YETPs2fsI3DyOVjS+SonchDUrlwelwbme3LKiJKaOEKnPQnrIZF/ETBxcTkOOqTcszgJxBgxMzTGa+YEqXiHP2yieugyiZJRFUu6nEtlv/wAZglxp6kqL1NnZmtErhnI7Uv6lZIriA71kl0mSPjYCWiQXYgMOeI/4GTlcw/ZjCADK4CLDocjEQVX5FKQSLgntwDXIQvTLSydeN4tiQUsFos22x2WhHVNyuhJ4jHenugdv4oj9uL6VUSZiopfGWFWdn3oFLNrUXTVk3pXH3N5rZEzbRqHabbXxSVBeD/vDUWwjxZmABmHK9lvmoDKH+nJF5uGdxwlqKnC8TcWQ2UQIJsRlRBbdfBqJi1tPDKdyBGVN3v8AaY4OgNRVAYmYR6r/AMJu2c3FaY2GWsII/ZNtKQQwAeipdGI7LwzOZVsXLWRZsLTfwMXcjB9VfqIMxg55jUTdXqNxgfEbrkDElm6IR5i4Dqk3NZO4GklLwj5lvRc22M509jORmV1TlT2l+78WT4GFG7zVieMhhugtclWt7ZW+XiDgLPEx8bikwIyF7c2LNNPq/wCWDs9ncMB/JBw+lGFqtOY6ZO9i73gzrQm92lXZ+JZFEYC2/Uog7SWrF8GfMsDp4loWmuetbtj+50vxFcdMS5XiWdwHvCLqLBCEG+gy27hLlkMKgL+35EnqVTUq7v8A5MHhhLvKb0zHfZUIcOXDHaOKWk0rtBllz2/ZCYCodyPbZbUzRsE2NBq/4YIKoCmmVCtOpXFdroF1EIByKBboZTD6AqL2JVRt/wAWpwEsU9ZKPyMU6y11n2a7xmsnVZ7CriBfxCOpRWFFXi+YP69bHKpnb7KFNAksqYfTF0meG4BDAAPhNG7s+SE0uVy9sxE9ENn/ALln7Id/RjBY2Wn1DqpVnqlmosS7t/4RlGLz254g5t15IPuo2SYmzgTF8bos2ZZjPjOQbe0VFsUcrcy4VtXcGRgSmpUk3f7EBneoSwOkPzl0S7IKMb63oL2ZkRcMuD5mXzJgTKASobjwxDdSkfBE3tZ/gTMxUCaRtOWbJyVNa6NCR5lhNxqElXdBLWGzDLN8O14YnpIiPH0isqM5s8CMuRHiWO2doIsbYVAlBbSFdEdyi26CXOWOoQPqbNcEDwQfCOxqqLMXkFzv7ZcLd94GFqxI6pAGbz1RrAN/aNxPMfctnEvokLOZqpmYgmXWpeCapjLI86TwX4gf+eBzfqykdXf6uGfbCM3Y7xpj8IjpvKu6Eq4r7jFDKqFGVtYA2jZzK2UhXfCFC8HesFyfXLS2XALYMrI69kKmvRkg5/HiDIqKNjH2AR0sCNC/yQ7/AOSKbilQbl/DLlWzMi2g3Sb7MVgrVoMIKpOFf2iNXfAwVxNskyuGVOk19GtDDVSx1vYmJbTgVVscEAeBF0K2sX12ZtWm1gH9pLxTxhfmXEJf8PYSgBQmU+u8Vx0LbXm2DoO2HU3L1dfh3+4+OBOD9LL062Cn6lRgYIr7ZYUV6NR6EKpV6HDHgd3ofARMwGVW1XlZS4GJazTsr7lPaeeis3x0HhL5Ij8qeSWRcL0oikYfsjluFKLisgfVRC9QPcFhad6RvmWWRHxMP0xO6i7NkxMdiXcKozAqywKVTML25egOS4zakQim4SEL/keiwYKKccfMuuDsQ7EQrUCE8sBsxH0PTKvTjer6FE3CgAuAZftK8kR9UCevq/jeqAhxqUnT8yJK6Nzd8Y1npUYVKeZnvB8S8y1naJGmaOmYWzOnc3LnNzg9mfkmtdKbuU5z9ymPld1afqU9vX+swPg5BUwXyxTOKNm1OIp7VjYNfoIns0MU09kAFHmwgHj6EryCvBP+Ulu5ValfbRue5PqgSGh4xTbH3JtLk3QJx6sxmiBXRX2siI2u9/2nCDvQfzKrivVTfVrGRRCNtqXoaERQSgGmLPqDWBcUIaVBZvE036opv6UUcutWDGmV2aorccb6oU3FIoI7GItNJTWFI89fITE+atW0QMfYikC+GEqzNh8Vx72uw35i71/U/wCR/SJ+jsSn5XdtGIlWX1HhMB8X4qAVXWcSzy2VTf5Swacqg/bGkX/Mt/sWP4FnMSaq/M0QX7nK/wB0Ni04uFFZnyTTf2EA3BWR5vLVLXf6la4k1KjroKx2nm/Snj9LR2VryTysVuvxYkoZ4VgCikPq5mLJLUwp1mIH8kIOQonmIPagFFfNAm4g0w6bh3iZBwiGYX3IS1L7vRtHQbgijIQ1gwFGtQWkPCFKO0aKuOgTAvDDrXTuy76YZOZRGVCfIjGVqLURcym+gqulXLJ3IQ6EJRwuLSul3xErOM/m5iEqIA5x+qmTRr91quDU5OqyQTXVYSzovhY0K6GmXpjw6X01/u1G76eCM+c/Ua6MAD3/AHGUNZ6ZSqF2/OiIT+ewHtmfC5ZLqKeU/pmTxLly+z3+YDYlkaZk/wC9EdY6aekIeh0B5ZlQ/wAPQNlTyIX4oYVLEozYm6FORt8EW1SoNPSW/lGC0LUXyxjyVuMsA8QGLyReZx3ZXm6g5FpfYIVfUYuK+SXcKnabcm/1RM4ZiYUGmZelLKxONwOHeQTaLwzs8QwdEw8EaWwiWpPAlZgCpOCKj1LDSRmhRdRe7QCCiku7/bEz8lwDXzsxB3mrnamzpwui+DbLeaShldr8RIluYfUB/pjXpeBYDefbKdzuRLDUCl5B0pMyxqLU67y9vrcr5R7LQRCtbxNOIOU3PJKGkYaYYJyTySytkNHu6CcRYjVS8S3xNS0uPVIWc9Lll/Mu5cIvQB+enaGYAFrCC7IXKMFBQNYjHFcGQWsO2URe3+iXAdhSsBNT6GDgqXBGP3whHo4z/wDQhHpgXk/XQ1LmD31q6TfNRPDW6+bZzcVHbIcnR5YM7YGW/wCoy1tMnu/hLuK943wf0y7IUaiwq9+H5iolm4MsL73/AAQcMIkV+n0MS3P/AKEvMtzGwXK2XxFxscwIzlrGTDSbiqmmK/8AVsgAN4jyHK4YcSG4RwNPySxg4dOGE1VPYvMbJuH91JQOg/RuYtgM7nj25l1g2CwS0eVRSIDpeTqVCWP2brarQB3YNkK8W15md8S1hsbPcwXHDcErUygDy+mekzYs07B7SEg2buDNnQmA1fRRl7O8DuodHoCqHuWyklop+YlEuKhaxAv2RVZtwSiEbGY7kQqDY8SrJuMPzQVVbxEp7f8AzbCYHAtavEV4l9gpQgV2anPdsRimm6fw+JdPAy3q8nEOSBfBggBKOZlQd5eI5N9Go+2NdpXqBfcY1aVKOEwQuGqcbSpUYxJiDHRlDTCZ7TT/AOKqQp390P8A3UWo+2FgAG1wr/dKCNS1JDlWHDdUy43o7C3Kj+szbYzHYgq6gKxLdP6geH4hFnDtMK/xnp+odjGfB8Jgsg1f0wH/AGf7im9W3DU8X8pfF08zsH2Y8dMl2t/qf9j/AFP6D/4hzV+0ALEy2d4JGpYSHkXVGyWq+mIQJwAPwYbWkfdhyj9Qbf45bYdXPdQZzfX8sw39MtyPxOUe60WZpIebhDL8v/hOf8U/kl7BG+y1U02SPifEs2YBkQYUIcSfMFaFfcZR3HMH4Qa8wPCQt/iLJdmYU1USDsrHDhzC6ZAJVaQTTCvhz2CJhgpESL4lQCLSgI9h3zAKlgV5BUW9dovKkII3KBWU5IXQTU3lE9mbbHCpBpaKOZe0XcpE2I6SVqZBaIHd4sztKnul+VLbyzNv48Q5WWUui71RvKx2S0w/VCWWRVoT5CeK394YQVOZnJTD7kMA8SsHDBdniTl8MCcSm7jzFlTzRDnG8CHIuovAmf8Abih7Zu5L9xyWWSzJGM1lqvjELcGEEMtykqCk4Q7AuzyuIkhb2UgsY7gQdsDM8sETU2YA2o4I6wiUp2XzqpQXhYWSCr+0Idkhs9cAcY1phKop/svpMf1TaX+rbCPx3Ce2H64s/iLTuGZUldziW5Z3u8zUYm694XUYMADh61mIXGPdiUsWtx1co1EdkLmCGYSzMI+JWduqv1uhKguyKvdlwYyuHKfu47LESyWonvQXR7Z3dsMepVldVln7g5hKW7ncJUERvk/J1GXVFZP1DzDcqIr/AIzKAhVRGFC0xl3+Kl1Dsvi1RisQtt6D+H/4zqTUHxKbMQWXxmVii4cxL5IS+Bi/CHvW7/af8GF2YjjjRd3L+PpYdr7IM6PmBoBoFjvHMT0uJCnzGSrAVgpzUwvbd/0IyDaeIg49VEYbI8UTLuB7aikCNUgGEsAtSjNqUGcDdqv1cVgL5OW489dnLBVC1MoYQVUbyFeWBxs72wbA1ZbQLUwi2Uy8i8EVSgTYwi2VWg90hk3Vql90Sk4WLe/slipvDn3L+zeM81A/KsFtF7JHBfbqLikP0QGdHKvnxONJ8EVgqVMeSuGNNLOiuKbjbBaxVW0YFjwoHaGjUXc1ojJZtjtcStYNqOyjCNx74Qn/ADlY9qCXevE90wqkqiXmERzL78VVhmzpcCC3tZ5bz3YZYfJWZoNywQ+YvwhfVYgx6wg5UkNiEFIo2DNoTJsbgQYmwKs/hJtKzDq7QVJLhZGwLgMSHJe8bmIV+cL6EQvSWpcYE06NT4lwrfTMqBNRb4hfvm5rHRnuItJbMoUL4f0g5lyodqL6sxfTATAohun94JcuMWtaB8R4J9CBCY9hAajkCqI977/VS4gnIZdxu5bW5Zjcn7iC9CN8VP0S1IagxE+x9Mvr1/EdAK7J9KUEbuQWFwp/pqZdyrvK90sysJRJhrEB5l2xmmLynhZaNYl/gQZWYSmeH7lQmWCw7EVTKL6LQ8P1DmUR29QU8jUSJCgr/TMutuxlCPGAB+JWLnGaxEahwxBctVguHvGvClXdiCvehoexHOeUS++ainaWl/WDpQGSUV6T8BFXMc1UwT3B0DEKTEDxaIYlAUFGiqIFrDJLNRSXP+FPFfiUS6xZUBxJfOK4FNvywuGjZez0kw9AASjd/S2VsLXexFonB5mWayONEAEkBtcpv9IRe5FRpNw9J4F+Y3VnfecZFVXLfXLdq4bldAmo5lSkGGNyo6AgIZgYshrokbgCrQXntPBhdX5of+xAommpixK0qksl/wDgrUJW6WCORuLbxY9mM0vEqjo4UAUipgEFSIK1d315g2tCMx2DFhsDADwAdsWRi7CIQNxUKKgXXcxUiFFqqA0cFZj+RLjfKLKY+z9TMyTCGsT/AKTA+X9pcxfVXbs0YoOK2PAh3Jn2S19uf4Mro1wdIp0CEOe7+CBPmOEwAF8JcMwFPT9wqVhxAKneBVpSeIEBic0v6hpzTG43TjifjzMqDHB/6Suq8T/cxLNdMLDxeXoY/uQ0epupk7gRThblS26lFStBq0/BKa2QI4o7QHwwqEGcL/8AE7S5ZOIbjmXHUyWGGqOj6plROQmO0xaNR21KhE9SmXaiBicTjJCqxyyqJU09pU5lJFQXqFnEGZinT4iRKZUIEAgR6VLC4pniJZwnhQYRRUrf4pw/gnLCzzeX5GNaW2sdiRwbwjzz86Iim1v+xC1TNQ5T8stXT9sEmcGrlDHdagS5/LASHYYr9zCmQCysrcEWyYpDYhrk6Ggd3mKw6ewJ22S2jjGshKFGC0QAiNemJeWsK1EkMpMzsl8E8v5EzlCvN/5mPNnC38iS0+4jnGGV0slYZI5wkc4jQVZyyliD4pDm+t/uFv8Ak+4PjSr3AmY5ymJoiZbHhdQ7P8JS20OPGMtZ/wCLI05Uwuf2RTNAMlQbA4/hgKuizieP7oO1S+S/iUG30xuqmyHZwbX3EB2fwh1rSP0TxJY6RlKMwAaBLjqY2/4Y32g9KxJ1Lmqmv+WY+UuW0G0OMwalk/f/AF0c3GBpvkhTp+AxHcwg24gzk30swcSvxRz0WuYaz3jc56Uq7oR1XHKPlE4GxKy2ODHeuCcTRKfMxhKxL17QIBP3RvpmEYxcCK10GU30xGyPDCIgs4iZVypSHpVdDeGtdKLJW46La0C1yahKSgEOeCpd3bdO4fDC7hGXzbgliNAtLm5ua3/BmrMoL6MCVkcb2PNTvmMR9so4EaMWAAtV0EQoGQc25nKrpbVYAoUCA8AJcVSFsUO6TealdoBzd5d2L2qdElL1ew1psbr2TMa/nt8ZR4LNV8/6SpUHx2/DKYB2lNwHx/lGnjrTfvmZAmk/AQlxJ1d0/cublyYeUpBgJKplGbCFYVCH0Zyi/EstT9RsdrsRdXhcTuDt/mV1m0G2ArZ7WODP3wOlPlMFhhzu4XCGBLFNtlcVC3fIMuFzUH1/0iFosaOGIrL6Icy+iIGeJQC/xmoWCwQyELLqfExw23uPD+oqlfVPA+pgXEbL4idx8VMN3CC8IFQawQ0+0WWdJ8stWkqwXL7H3MgEHDSPRxi4X7/SBcn0kexPsjGKg3HjgbpJuBhAWdfiU3+OV/8AGL3DdGKlQtelQQXg+IuQljUDwPcPIl5og2jPNBF0glZ0FGHCASvPRMSWxMwqYgQLlpXEKImZqcwRgQmmXmZceUx1Jj3RM9peJbBSVuV6GbTiCWgBHWqgWtbaCV07/wCCH6yBl0//ABiB/wAOGF119W/7I/FVvsCVObRdkB794xXaaJ+EyierGnh7kLEcsxNVdmJMsqfJMXmvpcp6Rj9GA2tmaOK4lNJw/KUyozNe37QJWCVmUDecPzEjUGOnB3huK3MrmPodDEF8+T7ITE1K/wCDiG9xUm5diNTL1P1GSyDhR2FqoYBE2A2XlKG6yHdIVhIXJulxCUBWp+dW6Fmg/wDJl9maKyrh5b/vGgZAFUrAys+mxFOCuSAhB3d3fbMmLbruUSymOx8RutIjZXcXfOuwfoGFIThbcLEL1DaBc93XPwSvMZf5Ut8SDdQY/wDPsymugSvxQ10aG9VDVnaUJuG5SuOMTpUB+FKzvpxhKpTNQHJPAQaGLhtrCvWHaktWJj1AJtDuaK9ly2W8loDde9znEZUCiEufM0xoJd4mxDOYSui9FYpYVdTw73qMVKU8YlL/AI5/2U7P7oeXwHDFJmvwx3/mJF8j9otYFcIBwIUZM7rUeg91zPP/ADKdnXckMlfVjxOFrBWoBavRYcP2Qf8AulKWmKfmEKNNlky1F9D9QvVp5D3fBN1yrNeJXSlN3KL8zovFocfUMHYF95P3LzFSwBeX2lQl6Y1LbHi/mDLcy87hXnmRTaVGxHEWH1B9eXcrG5+z9umOmS1ymtkROcMb8b9Slu5VCjFxr70g6CmMK4bUrveShD0qmKLwPelytl4YJAxmx8jarjqXtAF+6mFDbKBloBC4rL/cwWHCRMIRlXm4Agq3mWIiTqs1HSqTn2QTA3THyt3AmoKhqMHbzmZg7ncIdotLiCqCVjq7sx6OyWsI3FtX7Mt7xVS5i4vXVOhHUsWttSypUMMOMG23GWn0QShgZW5x6SphqiAdvTCQsHMvdVKX7dAGBz7MFRcrodBXQiV/8pTHHRKZ5IY4g2dKgMa8l5WZlAtgzeumnEtmYlVX7oRwlwVfBPiPAGDQ5uPTHbIZlhDDqLLHJD1K7BKHglDp8PEzfxSnX0EwfiqDVwZ1Xmd9PiLBhDrq0g9lKTNY+Umr23Hp/RF0aY37fbC/CPkic5bwiEc07z3S5w1o0BAqvyN8NEoIKsV8UT5XuXdxGJc0EcmLmFye6/qBNBHipszfBARWsvo1cWo+bSVbEPF8n9WdhXrv7gZ2rX+bhQ3/AAk59jgYLI0pU1UPsw5I9o/iNA7DI83Ltom3B83EnFvgR7llYbJ3g+RgLv8An+0FzEHPDjxEvO9eAGJsgxn1FlEB6G03DAEFoapgxssJg6cRIsSPv2BEx0uvsRUOW9lsbuUzLM2i3flNmL5jwwafcpDWCN2SyzJAWaqv2R5ahJzCxBowXGCrbMI90XVT83cxqvxHIWwYZamWvN/wQtlKmpvryn4ZKSLUup7/ANMsblzO6lpvfQZeorIOYbjM/hh0sJT4ycJcdPqI+GFWFt1KbOel1BjNn3gvcmGi5cCJFYl34hYgCzJnomZZfRZTzBUh0upfQ6AbIkoHPKUTjU04maPc/UogdLtRfP6YUDKd4wKjNXR/CEGs3cPUa1VQhbLS31dTmfYX6hZBOYJMOPZ+5qMylidyOxksI5cVLV6BLZSuU6SotMO2xVKaNW2RNLuXutD9T/plBnomItdf8MSN7CBAVDJT7egnQj5P0Sjo6Zlr/wDCXCyUqYyP3GsQPMR3P8nxKqUQCWPR/UGm7i3uII5mfmEBKIBKh6ovu17jV6Ih/oJSGOdVLLeTxAWz6IBkD0S5VsH6ZcvErJBEFkFAGg1dYIXhsMZZh4fKPHf2wPdr7YmdK7vKDFWPlFH+RF92+WFwKe8rFYPcSlH3xB+J7TiK/X9RhXX9EsJrf1JX/wCMBP2TFtKUPjNR4fmCVXX4IKL29omgCsG/7lujfP8A7neT5n8ys5vZC3Le1BTPwo/lg2vSHItRcO8+7L5C+GLdZxnq5O8QXGvcOw+5YXDzMN3+yeVKSkxytMQbX1qbQvFRRRD4iFrHwwUBa9xhpCaOjDRmXuoMufMais30IZ6hHM7Lk/bpeYS93h+unzNhDygpKFPTO/mLTEPwiguYPRjKJbgS1q8IQ7y7h3P3Al8QKYD5X9S6i4OlM74FfMGXmO5a/wDOppTLRjBRVxD2+7qLFKw12M1lRdJGftXwp4M1F9Siq1CVJjpQuQ/89Qg5n+5gdMyr25folU3Grmyo34nQmR/xmZ63av8AFdHpT/Xg6F8RVfOJgbwel9iJc3/bq6iGB/6KiPcleIRViv8A6QhfKKo32SvEb9S1Ln/ygTFYJce9m5FYWmZ1F9v9QUL2XLi6hKqywFXqCCphVImUN/pBjcVv1H9SbiTJTtggcBANRNXgmBKL1Eaw4hqx4gYhcF+7oGNRtPu4EzKnctgvxMeCXCrFIxoMwSprpdM9IGJ4qXOMvQozEzic5gwtqb9xRWPswcMfZlnj7sSrBw3L/wDXX8S7fzRE1hYSxvDcuYj5GXLBCinkE48WD2GD7YpsgzSPm/7Sqsvgf7RuQZO0L93nH9xz/wCX3MWIqtsShi8lS/8A4kx/piCrgCJFK6SynIDvaacSPOpmCV1Ti0w4oK9R8x7XUKYWEI8yluaJSFMU0KlS0Dqig7h5sojV1QmGhLUlfwwxQyugZvh+5npqpvG2FRyoPoSwvDExHtz/ACHS2oe5f477rowirhw/SbmEuO19p+MmIepcGP8AtF+uiaj4cJm4XLJl/puNCEQeIS1zWZx0NSeL7SV01Lb8uUMwJl7cDH0TiOJb0v6RcswhdYy+l5P1Dsm2WNwONxvsxiiIrwanB1cvtCEWfGIN5gvaXp9TPDwQgQw02wBBUU0EOXzMdoAlIOgYk2LL0qQi14iy2XDxhxJedS+7oIxGSrISpxCq6XmXzzWY13mZ/j8EzMVA5I7JeukuY3+VnwhCs0am4VxHjf8Ahl5lstibDzDuhFYIwaDoQtBWXHb7pi+g6DcxXRcVsnERRjFHwM7gRdtjOxM/tjjvR3fqSlWC9UlsFNIrilmDH1wLi9THNiFgu3eAtg37ZmyHoP0ztaJOeCzbtO38s/6mZF/PUcQLDRU7f0n9THn6yWDffA7w5H9EzYgcgYIVdI8ceZX/AIoCx9sUNfIv7gqmdOVajjZZ7SM38al00+46sNFZlNJJ3z+UaOHFsY8ylPP7JgyoKpPpxD/zizs+p/2sKNmzk8xDd/aZaWe0fuPIN4mWQuDX5B+4pkc9kstMc2MpO390P/Uj2/3KiBlSzw+4JZSRoB5wqtwLaJk3Ms2ovDMcpGwGoWyJISyllkPKUJGsQal7Ox0VOI6i3haCh3LNlROhv9RfXGoMqpGai0HTxfmJF5lbXqK6JVz8rhleiOJn/wCCUdo3TiekBGMtCDLJmEsPsLj1tGrOIMsax88q6XFWDSv2xDVoBBmTNH+sy+lyqr/K6TTcVSd7/wDZmUI2yxMIyh9/6OoJ5mO3DCJXEsMuM82nbH8NGXKPb/TCsVKrM53A3Zp+4Dhi2hkmTmXX5sQmO8YjmajQac6ljNNdn7hdQZTmKZn+zpVtxnzqfrobl/qXX7t9kDMAZh/pzG846vAQ/lFb3LeIECl/vKLQAFkR0BZMwBdIiIcB0y/05+YU+xW5WdBCF7q26sVH8SvZEY1LNdknk3eo00iUhBwtQ+kOumRVTRt9EwVKsrDCG03wS3a/BPU+iVIORsgiDnZH4RZSIxRoXUpsbR3RQgt/zZ20MLDgiRtiIFa7oJop8pT2W7iIgq/lcVZv9oHsvtECbrHFM34mZiv3BcHFpWvluagWTJmv0Ru/piDVVfYgHuPRPJ9Svf4wNxK8RFo/UK49mJukgMIdBA8a+4boDCul1qNyujLO3Rshd5h0xA8Ss9CV1ZhntGpcsF+7pkgxslS2cm/7hTBg5eVK9TGrVOpFa3/N003FhyRlo/EATZFIMXNx/cudyU2Rvy/0dFEsg7mSsgjfR+lAthlh+WSw3H3OBxYwCXco9Kvpgu0JRhhlPh+2U7xrghRhHw77+ieFAFZcPgYgV3okauwmpnpjV8/sl8IqsmpeY4f3v1FeLiOmGLzHQHb+kSGULqP69/UKtD3FZpH5h/ZLGY6enP8AOEEGczY7/shE0sxvK0wUYpeEn5ogWOT9xeGCfdmCLHfQRSUsVq17AcrFLGqhmB5YIDb6CEbcL+QFgIOAq5Im1TyuYTbda80LgIaLVAcryGpbtrWnVbzBZbsIuhhS1iowTpQ2zzSl+yiE4SIgKc8ri5sXRyp4Dlg2dUaXQkR3/wBSM3PSl6/UGmpCx5BYJg1A/FUUPfDTer5C7xKXvLOZfTa2FbkECwKx/hOGOObgwjR3l8MNzD1zgvEwELlXki62xSYT82Jg6UFuF0MXGIagA52JbLdHS4aplYlsAlhxLhB6KKmajqEKOyopJYnaH/KIMBlMjTv9EzP8SM6UFY9pZ9p/JmBrf/gkxzfKNf2iLcoilDau0NCgUZtUStP0yZr+NK5aKq73uNLoftERY9ZfuEB/yPcndTdJDYnyGGC3fyCgwECpbsPUKlVFD8lpEUFP8skNS/maK5tMTrtC3fZ+5UKL6eGyX4Fn7h1Ws4X+0vSowtB+GMJrSFZ5JWeLymjDW7EsdhzmjKGKyhvKeYeLRRji0doEvU3+GHJeHeJuzJSwt6lurJbDrhshqnyme1f8EcqgttCy1Nka9DSX1mXEP8NzKwjMFMsQQNzmNQZDFY2RAKZkr2P0RYqJmJRuWOjSDuJ8yzEfc/8AaPQuFlHHlin5lwKgWox0Rn+0Vu5+oZR9pqjcRGurh6r/APUwWfgAyYgLIU2TP3LsCVqrBzIqUeirOg9KJczSr8ViHWIAnkq4Vlt36tGIbVbPKs1/q+6Fn7YtkVH2SozOhT+T43ND6Ecr6G4Ox3kI+cuVfBaq5u41HIAiZlzTvAsBRnnB9GUCjXvVctcrrrA5DXNzxQ7sJmG1BpVVY1DadQ4WqxzCEUpUdF2jWcpFoaHa9ym1LwNCBcJaWAscZ8DggfyDHNuPxCNg2267XTw1AXorXPe22C/MQ8KLY2K6LqovtntB7VEiv2ShuWY2CKBZepZbmGGap0uArEvOJdziX7lpRLhGpUCYm5ipolb4x3lzkY18kLLcdGpttZtUjC4w47svGKOoq0KWMiKB4CsfQWFRiuXSyL7eEuWtRbTR3YVSmp4BJcHoAo55S1E1HSLENtLg+gIHZAdP7hYOQ/cQlU+S5thWsZQzEpep7yw/+EJXgfeC5AvdnuDqndWdXBab7IUNjKbBaibr3DIJY2ul1qVqDpSi4qtQIwBw26EyLgsTuf8AmPmUJsESNirHtKXqUZ/MivCCbHwQqr8EeoqYWRG3PUcn6YE02sV0nDUc2Sd2Gun7Z4v8vMt+g223yy8H5SCbpeaD9MxVX8393AgOSVgtbCHlBXaPiSBVrukIuIOu3qf8FPEf54jtLiYEBRWCD6kC1Sx4IUVwgoVbXE5E/Urj8tv0xf8AGz+YAwcOxqrh3K8NRw/3lGyyrKbbPmPM1OzZc4lDPmwXYNmouy1pzXMUK9aJtRQvqWZ9YhdH7EdDLu6WU+2Di1lb2W6cJcymlmCVwxZxyDhhQRwzsqpTtliWjcajAFCqOD6hWyVoO1EzfMPZmzcl6S98stOT4Yf9yHZfplsSr3Ee6NMDfGa9drq4FgRy5td1dse4+mMSObExd5OYA1TajObLpolWijc35YIeJqlbJgoxR7BZCYVjd0g/RE6AY/wcfqMK64JgsER8nXeLPFZY3wCKmKumqjNxl8x360OV8viArIgFjeCNmOu7mFTqty1wK9zsktCkQOyZVcFmerCuUiAG4YqlaIWNwLbuNBVFbg0xw3PiEItM9JxAAuFk3MwhGrImY4lxoMkAx0Q/78xQgaxWsvKdBKoSATgiI+6KjUtT9x5zbLXAY1jy0y+FlVAtM1CIepHpA7r9BiUDUNE7r80WDbWtQKTwYS6wwhA9lSS33JqYvwdzT4SymGmTTMgqpVf65lMofauwfJkjFcddiVRy7xHYtiCK3W430q4Rqe/4YsUPVujcSfW7bnWrcFO0EWi36hS00C+xCJnrP2FGzPzMlOD+mU1UVT1bz2A/JDslIqJV7XEtxrg/UypClLw9kZdBOS/aGsi1V4Udun7GqdIVhYi78kY+hLpiTUs/1061O4V/XLJRilHPmh+jGPuLR6QFbSfREc5lss0mM9GoHI60fLCKiahrXn9obhFS9n760TIK1b9kRj6lS5P93M3NonIYEqVG3tn3YlZuVLwlxd5heWWU7hpyU4RzOLgf/C4ktDBLE0jDwQAAoAjvBXqLmv1AN0YdWdMf/DR7DQxQIKZzmWkOH652fomspviIf0wPGKBjBy8WiVxeE/cLE+lqjn97La+tqPCQsodOLnE0ldBFJuFTNkpepU9ziEKMplJ7E2q+grXlT5YFyq94LuhkxICKDCXLsM4+RYi1qsM7hhzngqhIawzKFa7pDX7is298/wCoYbA/MV5FQ2u8gfpKJRGIh5IWqYZzBjZfYQ24BlE0+oqAc/8AGWGpvAHZySwTQzgyVHZDKUSxqWmiOJSt7v7mmwHC2EMnVXbr2heXvUqStjcNCWpj6xfqA1UUdyz7FE2rW2F4MGFkBICjN26hX7TViWGfcvd4b2AXbKrvK/AjInRWR9NwVYHQexC4cxXoFD5bhtTZtYesUwNwT9qgYYraPD+1HhxNTPb4XGDji3yIGq0o7O78EsjZ1Kdg91HtAswYLt5LlxP1oAN+CMuKx3lxiHc2YXL4Jnq5qpNsLxkPwLISgbS8rCe6/wCEavEFtFqCyqDfGMxoO1KVq0HlcxuDRF+4OCExm5hBZn33BtlNFSJ3QsuMR3Byt4Y9MNv4h0/0eZfiDvcN0Fo/tLtmagE0eOkp1AENGfZ+8dKuAJgFmVXQKMx7XQIbmN3tobdKngJk2dKSPE90qUHHQfzyrcyuCB+OFB8dfxmcXESphNu0rUrxML2SqgCamhLg+enECVL6BDW4DAgQxNldBlErWFkOcxfhDGuDUtArf7Rtjg/eWl79sd2mmVxuGXSyacswlDnvuER3Bf6wQrESKNMizxEQlDihLZdPMqqreGCyKWou5KBQveFfI81StKom0JFuRU14YABdZT3lxct2pCw7tRwsvb/KZ2UqzRkPY/7SI402n86HQvYaZEumExdop+5hwqK7P2ljJdkYvuvT/qEgHZ+0zGaYRZAwQEFSxhZZb7FaPtL8qoqYLwD3L2lKaX+TcsWcvqorIKbMKErbXPviLKxtVQh7IR/UvWi+28ozFAPNX6l+rf67RFIfpP3C2b3L9E74/MSuAq80CRkQ+RLzUq0APtFBqBQXRTbA+xbqMdfIBU7acx9kHbJupV5J0g1SWX2YnvwFq4i/cR6tKqmsJlMq/wCGiaWo+EGWKzClvsCqjiRfLW1RyV7XqjWYDXZLdY6HspSIikrtMmpXGVA+wKt8sPwvgT9y5DhR9stytUrJrZE/FgPBiCtYPFkaZudvr8y9F7qVMyux/wChAzR+YjYuMEOFDjmDTLuCkISqq37Ji7TmW7iy9H0xZOLjTiMWYaMcZ3L7MEYuBQn+iWTAbmYXl1vANoH5lvL0HutFeei5VPdGCx7+0NHepdYrog9iXiesXuQkccs2jPyCeUd3xC2U8kDHXie5llE10C4YlZYVjpV9Gez/ADrpmMGY5/a6XQ5Si2iNIG01ThpElnlZlRgug+a08mBZSpvKr1FAY6hWniagsqh/3TpWYk0/L+o5nFSmJHPEuod5iU1srhzwmc9kv2T9IAfqB9GoZSzmLGWBox4zjuLuhdMIoc09+KGMBIwv+QVcTIlCC7qq7Aj8zeyOqvJSwxLLmY3satj5IxThSMAG1ioJeGkz8dCB3YwuspbUD2Ll92/wTPnqDlCH/gVH7iIftJbRiNFIptW5yYTmpnLTo0u3aCCowou+EQRVVMh0DhlT6vcw9I339kjJrBVpTsymOZLESm7Zh4qmKHYTAHX2QJ3/ALcLMUg9VIxPFJRRdqXohIcOZaPJDZemztazAWHFpqYipqI1gEbLCoaQWhQZe/EpVf1RMBa+iJCboqjlqVgfrOzfMFWDA4Vw4HrX/cXh9nP5hb+C39zPrZbvvH/kjZRHqEWoWWGyYN/lDHBerjwAfLKGBtpcln+5/UL+L2/qXLJveWPGocpeS/8ABP8AUwAT4Ehxr3ZEf/P+4M3+n+5c2BV3X8x5D8Y/uNOnqC3Ngj3fTPCBu4eIDn6ZXIfTD/y2KanB2zMWq+0KdD2o8r6xAjhyqi2IByJzUqCCovLFOEfAmh/JDZWXsedzA9K6aly4oGpaMwhAgsHOoPQpNSql/WxHqy8xenzC40FAiUjpGVwEtoKLjoOEJPjoIY5+UVhD3Kn3f3S+vB5/RCczM774fuELelLv9U6qHhSHY0w9mDm8FwlRxpQA/EGPzQ8nwEziYLBP3UqQqoO9IWjKK2rvPM70S+5eH3HtxssXXqXfS6JTQS7RUYiWDgNS7owZ3dxVPxB1/wCHVGNPp6Q4/Ftzy1ESALV0EYWUiC1wPgsX0+gXDEsVt09I9Nm1WGw6gd9+FOhVTMGW+f6dNS/zp+AlTiG+71rmx4fpYVPaFHKdKoq74hmondCu0BkDfeTBTUYL0faHT5mci9M2nldmYGabohgg1S9nF1TNiOmH+2XK8w0+9Lmnc74mHTGHfa/xLVizMDTwdJUBCkcDR0siYe6cRXVRKlrX3fuOFOSwqtnRF/iXiC6ltjGq+0o7zKFnHMTQVxotng0RmyNFaXnLdQCrSA5m47g+pYay7MyGV5Hmd8QA0IupmXDUIsvxMzNkTMC6ldOZfidoVcbqZTYTkpiuJ/0seQj3ldKGTvUc8uWLaQLwwGVmU9mJVC/oS4S1gLRPpBOCs245qBVvgn2RsFNw6xEhBgF7swcqAQNiPJAasjK9M5ZmaIXNf3+oJiWRmtffpdMGVv4TXwJ8QRjXvkq9g1bM/bxYVtZDculFGwmFso84i31hY9AI4QLaGD4YSxshXhBxWYNoKvNTD8zUs/nNS9G8h5LsKJ+jn0zLlxdOmSprRJ4ELZCYAO3dmo8Qj+yF5dR0eWvgj99IddeMYlhIMK4wYi+I1xesw9QYtLT4gNi0twNGViQN0t+CUFcEiX7lmbv1Js0Z8oZ9U/dC4BNyn+vZMSpmXLDd/wAHRzxOJumAw9nRnbawjL8QzMh7fvYD3jcEqNRT7h35KBuV08BtYHiW04v+gxGIAC5fWC8xSbZaiyWmjxKb+DM6x2U3N9FaDUDwXE4gm1pxeZKCjlYa2i+IcMwS0JljOiuIujP24g0Y3bUYneyOEcXF7Gr8SrZ3N+pRNroWX0GYx0UDTDCIDymcL00x+opVR34gaIB1GN0PU/LS+66xtbJRogO5MRdkqE4ZckbzjKOANsNQfDaaseorXKpp/ggsEU5dL2SnubWrfQSsPwCqCxg1bgdoPClbevFKxcVlAgAWq6A5ZaUJSkpFUyrFVZ8prqcKxzK8V1FdC3RGLqNutnq9xWOcLZHCtqarwy21+J4Sa3K6ldSakvvCIkL7yozmUdo4qEEJz0K6HQJ/sdjoS03L2aczlY+ML+ajlhak94Sg3D68WMCYAo/hgzw8pXw1Gp30uidtL8BSl9wBC0Utm7jfvWnc3R4Icv0pfQKTQZuM4Wg+J4lQAUHuczx/ll/L7QqgLtq1Rte5V/ZmB/ZBcTS6wP8AD0f1Oy/VEoud+wcwKlEtwl5gOPqpKBgnxAuphtw/mFSveHmA96kmFCViviiwO5IZXgjFaCrd1iOrEMgVbeJiDW2tBkx2Kg7gvA2eLsEdPWjuy98Ylvw3kUqWNtVa4JseRjRIAK4bRTF8qwur0bhQr4JyJRPLxsUkB+1AJX8AlPLA2KJWQ9qB7nDeos0aDIgu12x6FOJ9nR2C9PaNjbVjaeZ+0T5T4YO4kIubc9Q4jM7VxuARtEMwwtoLLlmr+1kFaHfCRewDtxUvs/AlCV9SBv4rlj3c0Ht/cvRwNspVwd4CXeYWDJEjZT2XA12hBUjtGlrxUszYCJpGMgP+TcBNBfiWSEHraeDuh5cKbmK7USscyme1DldYS8QnmvooS0ETfS89raJauoCxhNCAekFas8LGZWRNULrHzNyMEATB/wBHTSmAol13SlDztlVacoNTaqvzFuIWT78V7rohPUtKkHmoo0ajIQb4VWWgyqD/AJFh0HV1uhLxNcRv5cWktMArLxD4lspUNYNC+i2C/O7i3M/KWibX4UWXglRKEXYKYwzwpJT07jVLzRw4+3mIzpHV3aftOKx9vP4iqgR837Ayx0xWlwpAxz4BVtPmJaiXRfsDPkwAAog1bKr9QkpK8Q6pst9xGzCh9rQtW1BNe35LUckrIsMWLwVahXcCrTlxD9QaIxeOjMSu7oVGGGLFw6U9HJCHkb0Jow5/CZk/qWWlPgZXgAo1A2pnKCemiVezjz4ltixTa3NVrWY7jAJW8OkFQan+/wAdPcIfNT99AxuVRNm+NnwiHGomFeFNcAXFywQFVWKdnhQGC9/t1eHuyCYOxCXNabnXaPqJiLV5/wBCMGfE+z/Al0RAUCJSJYkEykpSt7qVU8JzKairFr+wllWZ6LXv9N8Skq2dzYfRol4jQF4m4tWjdFYxbI0lIgAFGQfhlLCIBfyYi+/riaeD6KzcC17QIbPxQHbdlSgUxVwLgxanR8QaOHtqlCUghncPwPF8zAB5DQRSwNK3w9y+jDLbPE/KVG/ulnTiK1A+IgOpmeVQ1XUxR2ERd7vKVLvH7lRT74t3dd5jCuRhj1LsqvuFGPNd+omx4zxT6YI19pLyp0xBOIKEfG4mO79f1DdPqiAGW/BKZVDzUOJ/UwhtWYoJaXG73VTGwTYtl70om1oMXocMQvguAlRdXqUNYKlsBtuWm6UQ2itS9rtYmCbR7VtzBOQLoAr4qErIjtETSJph+bwWHYuGexgwqrdWXzB4k6OC18EelpXltW1jzRD3M+T9y7FSL1qMgO+5Gu/2i1uwYWOzMm9eyOxUJ0bjVztiNwlEOvroOmo1LzKA7fySsQe8RTiUCvRg1MGFn5OMx9iHMFlEdGv3HoS91rWMt6NfH0E7kIHtj+x6OWAla6/wJuUKCoysjC8J6Uhkpa9M/P8A2lPR/ejw9EHMzN7F6vDLelkVF3/edSN1v/B04xLLWw3w0Zi28Ttj/wB+yNxJU0Hu/SdFu5Krhgy1y/SLLGZ+9PwMBjHT2tPx0LhBmveD7nouG5Uea456VLv8sIjiaIV6D+4fmXPiDb/FzmFQDYKWY+YnE9Jsxx/myTz1BX+rfTaY4L10qEpj/wAJK89GCn7SkNSpy8WTgxO3TJ5B1OGaLl6Kgd5Z7MoiStXPypcXpmVTmCX0tjdEHzFj/wCNdLAsQzQrKl5hS5Pmkq/tf1G48EgAaUpoXEqv/T5mLf6f7wlcpv8AosCfpL+ZRlb0D/MDi/Yv+oxOQy0NzHdHhl4Pj/VDvf7eIlYuCoq5Ti3+PEeX50wz1JcmLL5J4b5gpj74jJ9aLtRwJW2YM/Whj2IbrKiHPsv4OhI9o/X+zoeWGuPKIPRCXW46ya/fL7zGwqDUR/k2S4OkmNyih/lEXoeJ8z+Cety63Msjd/0lS3mXCp7r9JCNRgzlzr6IOMyoatOUw9SZiSt5/wCqZdDDqC/S/uBK1kZVpODGXi6iXH4fmWy4IEK7GJ+YS4ZqZ7f9OlLzDdbq8/sRMsfctGqeV+z/AOFdGv5+heqne+LnuUgsd/n0pY1ZWpnhq37jAvEE+RK8RPMFAzL4SqgR04vEbjupUZg379OCNQViYKlXTCjUblCagEshSwu2VDVwpITHQKmKXolT/TbPBLn4UQD/AKqXc9xjEqitealVhcWIq6Rme8cyhlAJn5lNveAxRUoUibE4YMop5CZOZbhjsGI3ujpOcxt7QyVmz8sTVn2GIi08IY8/0Ya1BMhrCBOA9EOES9qPGUiyWb5htz9w7v3V9QW2ULuAMHBi5hIP/wBopy5M1PV34gX/AIR4PqI4Zndh6h/TpMN0vv0AYotCrbRL/wDLEviLl2fNw7MaXcHV+NQ3v2f1qPM7uXmKZO4YwOEJvdUHY1cc8fmSppvGu2fJMYzW2fUqNvsnb+3+08WntChPKKndkeB+JvDylm8cR5TZ/wBM/wA1BCymFuIW0ftk4WZeGr+0OFadmC6X5RHyxIU6OpQ5/Bnkz6ZbsoA1RQl+T3E2gyqMicG1TC6LQXOUxozd6Q4L/SIK5fJwJ/Z0mTZ5BDU3+sWAUuYEuvi4pP4Nshn4/CHoC8zwty+xBKwiQCLjnzKPJPISmMk8OtkBL7otu5SvbrWz5IamKhcs4kWix0wJm6URbMfHRgKzlldM3xKYdLxUljpZDWITzLgsV5uGO5EsjBAtqFqL4YBjdCmGIx7vVLmYLmv3RAUW1fDcLJauoXseDor6w91IcAplqvU2CocI/QgXooRyDVoDslMzsV7peisp3GPUI1lXF946QG8DLbiRv8WykOnh6fpL6KOIzVWV9twI4hAFckKeAy3xEtKlyld2H76ViM+z+4lkNTLxPmg/RLvczCnf3K2+Eq5UxFG/0ulamKZSnv8Ajeje4kB9v4CA30Gvan0CAypynDT82V5lJctj2Zx1a5IrmhlD9JnoUz/9Ze7YQL3grYYrUXqGQsRfll/Ll1RXtp5IUzcv7ge2h9C4U/0kLgK6yH5iFrWgacoIy+thktuzTELNtkKV2Y6Aq3HmYv4CWYgE6/UJV1OuzMt+zBHk+kg0y8cEN+T0TVRegixu+JUVKpncUOSXGA9RaU4X1cFxmW6QqELhZ+Wdg+yV5/28XEUp+TMWIQCv7L+4GRAKA7XKX/LL3/XG4mZVhU9Erz8eJRy33UvntkqaZUCujPEz04qoo4YVmFXN76bn4zBReOgeIboS8tTwwVOVVKauqKKkyqnhiUZgNFJ4YdTJaAHKxQViWK8CAYWSwxk1K0zAZ8/NpnlEU81+0Qg/7dmUXOIy0CiD2WWBKOfAnQCvPrjfoJna8Lp7DEgfDcnukHVMKETwCyGAjmNzW5bLmmIKUDg2ds6YZ3AphD5/3KY+9ITsEd+oRbpVogvgwQki3aD4DcU8xs49KwD5SfvFpQX7IImbVnfoERULtFq8jHmm51PixuWoFd2WHuoTMTdzP9EW4eZjM5Xb+onmcSwf9W1G5UPRGtGf5zo6uZh7OVyoEry6YWjgBNM4g4/9UpdSno2imsD5zC+Zg0ISyOVwEahZEfju/bKdU9Yq7tcsSIcrJ2dk7kpnb+aEhsPL303BVpFciusiJe1P7FMpMUDfKIOYUSuOaPaXafVwUMBd+xliqSAGRV1UabbQUoblU6Ihc8SrQCgHYKJoirj5P5IGWXL7TOvz+7z0q5fCXiYWJKeCYk4v8NS80RJYcSlXec9dBZy66EQEuRxLmyEr4WVnpXjZA7xGMrt56B0tiQ6EGWjEvIQQ5hVQeq+qFogTsMzifgQu/HGAoNCs5fmHJUh3djZUScLWl+Bcrj9DEPINJRvskArdG3fmORVPtf6mJu+X9QbYg8HViMHVG2aKnGtRMLYGthezUB2HkD/BEaHrzhmE/VgH9hKqr5f/AFEwx18mFw4ag2Ag+S4fUEdMEFeWS/0hSlQpUviUoG0yD5UylpT84h0YK4G/VFvn3Rr5WVS7A7JFG8WQAoktJaFLA2htLQHm4ECu0t2KxJw3+ETCyE2BhBDs1m1MqwRn3UEgwZR5Zfq02Q+UuHZtrJMb2cUBN00Sw2o3kRqxKn8S+wMTWrdWlhMeWirYxTGTvhyjmxogCvVsxWpTb/oRgMRrUL8CA8sC2U+P6E/UvoBwf2HUvtDe3MhQzBBfvQfWdE1Mz7fwZUCbmZao/MYVNBOCD9zxAB/yZBg/fu3g7MsCPk3UNtMBA6/nl8QpfwBFy5X4Oot3FsSClMKlkxhbG8GAINcdA3qZnjW9BXQ4Je3DStnMYyJ01opBgVwQyaiMqBiU+x/uA3XRmjr+yEs7Sp8caOJiW1Lv+zUx1FZ7YU1Li1y1EuXU/IzPS2ouXlhFo3LihwgrLld4MTdlxOpHqAwKY2IoIzVwcV1N+mY2nCCMJSh3RYRZgiPiiUvcu5cTC/8AeKXCsTDDv+DCZu4UxppyXKtcmv7qpjzM3no67gx4yxtncud6gzt8PgjzqXY5qKp3JNCXJdMM+sJ5MpVURgQAVkiJYDCk9N6gf9Ev1LG8Th/REn2NQGieoaciuhze4YhXt/jG0GSFhtDtLqsftEgYFTLtHuL5TTk51Kp/apCXxNUqAP7ZQN3O6fwExKhZVzO6u1P9kx0Pndf0mHl71/SUkpeM1ZNNI+LPF+TAtH0Q3psfKg7yv/S/uVx+5/cNjBTxA04eBhjua1uP0LO6Ynl+45Fc/M9ffMxlPV7lBAPuxLa+z/UTl7pWBTa2Sv0hymL3BaEvN4Ua8TsqSsIOB7vGwhVQAQpwugxouIlUW5YW/DL/AMf8ShIFpeiW7/z9Q5DXM0VQqEkL5XTlhc1eTB80qyMq2sSTDBuneJXTfCd37CoAr6P5mJtmsUWfuCl0+F/gsTpPW/lSI69B/mkOEtI0mFbrLEsfS/yjXz+f7xJIq5r+Fj/y/wC5Rf3V/aDc/jP7gtRQ2I039Upx80Ba/fiiLWslq9zFn4VAvD7RAfzBAB/JKdX9M8pPaCIurcMups/DBeX6Yi5ZQO6PPFsNwMC5ZgkLp/mJ/wAiJqhuOodbel+s1D3AhiYxmXBlkb4iPixQgxm3/nDHRfaMPi/cUtszLlx4/wAs9Gejrdt+0IQihqb8CziHcGq7WAEWeYMVf68sser5PL3QRS5cEK98IbT9j9xBSy/M+Ja4NDEXclVzKGrsTywSpcX2H7iPGBkqkHtDrBoOCFZlbP8AuCN3uUcxygVu6fZA6Ny/2iXmXGNHn/cRZuC3SRN6Yf6OiuzLZ9Whr1kKOg+V/eZhfQZouEYTW49/b0ZjbzM3Pb052cenxCJj/i4KCeYslxNiS+mPP/ISnUqrhxiWqxX98ovMFjZK85j0tv46WCGI8yxxL4uFae0rpjvDTNWzC4toeiPDbyzwM0twXbyTSKUCGMUtQuVK6M3Dgl+Z+4DtMJD3BlsKq45xdQV5jq3tLnguPiWsoIqy1bPvETRLlzuWz9xeZdy0fvC/HQtZj+3+0sqX3gkxXLP2qo+IsuIwuv2MuCd4oVP3Z9J2V0Ksl7LhVQWFf3ZwJ2hMTYG7PoYOHE5nslo3cvyRdFQ8kxNv86JUKSLRidvow8ROSXf9tZYbmK3Us1LKP+sh0uV58v0SzTFi+5N/w6Uyyx0q+0OtZLeIQFQcxmE4zF7lrpjKt1+ycy/MGX9Gp8S4GamOOv55iEfGOcPkjQs5u+jZgK/mJiug5qNx+aPRtItICt9DUDaHH8f/AIBduWY46fjzQHoXufisIge4jcwTXRU0UcIXMGVGv7h0x0YE4lzdiGyyAymp6lqS4edy2L64ulZnLdTs5/65mZxW7/0xxcJy2Ycfbiui9KUMfMVZW03G0efUvQ+S7P4gu5/niUap9f0mIglmufQR7sPSUmbfAldX86zJDavA0wBr53/cG9Y/b+4h/aGUxX1UPFXB5fW7my/DkfxLO/Vb+oISxSy39Sz/AHf6jZZ8b/qXoNV7/wCY6tzlfKif+YYNp+pZf8/3C0ANn9s0X7v7xPF/nmKQRHNP4YMDIVsP7RYuvxAf1yjCUGr212hAiwiaBr/LxLzipHyTmVXpliOHimU7Mu32mxf3Txo6snuGEIApEF/rQyfsl4Bz77CVFtJa5IeC46fFF32QSNXcGtsxff8AogX0C6suJ+N0yTLb/wBJfeWdp8Q15KSnvBh2upiRxGfiZjrXf8szFrpee9YvS86it+37lmMS2pRi7TLM41XRf9nJGPRLhrFBlnMzGagojV+JZLNRxF1KvNTVQlzJczv0lRUGOJahQi/KpzMc9BSW7Tjp+463oPmbW2kq4Wx4lQ6GXUx3IGZYkDs9C7lxYRn1UdfDfUbuXibbrF/cSyDEY3h/0gO0yE5IWdTQV6WOjQMrvd2sb4lkJ/uylsKeYIgAFV4CD3U5RsIS8Q9RX4/suPmXfMvFx4Nf8EWDniIWqjvL3g/JLKlHbN+iJxCEpm7P0suyFJqFsE125/sg0lKRi48iOgIFe7LSUTFRGosUrFRl1GRcbtErqvmCGgNCsBVwt6FoLqWb9lI7flrEDkKUFaSXNsjWZm0uVdcOFe1+EQOiIES3LbiLKL0aKdoia6v/AE8wVEt3fMd2J8XhkpxHJYEdO20TxJ3n2yjj88vcyHeCrX8w5gfMEdWy45YVawnkhdg/XSDa695lxq/zUWn6/wCkXWX4jF3mCoBCrvNQLf0EDNjeD+CVbT6mayjyE8v8SkrtHIErNns0S+kR4ogmPxQhNwFwlR/UmDC+jAOpo7AZwpmdWp7F/pCAC8/7mIpXqf8A3Dm/x9ww/wCf3LaAlGKrJ/139w9ueKQpK0dmBw+UY0CB7Gou9sDdRaYX8qQan6LB8vpZk1tzayyb/kfxEd/C/wCo0XTju/iJ1TfT+JyJ9ZSwVbvpETauW7nEysx0rc8pR3i3TDNNQqFQ0xKZvFQZdxE1xyYrEFusX99BrmHdGBr/AGI1UvFMRN6hgktBbUWfgIcjNISjVPAuBL5v9kLnFVehtCDBoQY6zO6siY0EwcTbA8cBYCqxDUAqFFtPQwE3cLinhVwep7SHB/U6Eq0WDqNHD8SZ0TQBS+CzE5KAZVeqmR0AdvAAR4KGlIH1LkK71QKgRntAHyxYrxaB9ka/DTY13BY6YN+jtRGQB0TZZzfNwV5xCtl07Id4hsgpX9JMN4DwZWIqVNiKoGTB+5bCAIwRVpXNzCiihBQWUhECXSxQVCMmv/lB9KW3UdEsD4tBVTj1EKlNRcR/lJhdwb5iHBrb4Ee12PQBCmhgOC5hWAWvIrtXKsBppYQVmk5GaubbkRkrMpKRSxOEgoza0ey7Qnko2zhekCHcf4RHQFqaCP0VmLO5tAriYnxAzEajBP8AmGO5uGGK2xin7jFiBm5el7v5jDJuMU6B+GNXREvbN7ajfzI4YJZ3E7Q25f4Edwl3utQUW+Jmm3o3fP6RlwMclKDUN9UE9ECpluY8DmUYuI3iMAQ8xKimBFBZcfUocQ37w7jSxIPcmOnz0cpb0q3VxgjArFxiRw4iiawspc7l/pPC+4hVIt/S8ywaRPKSy7GaI/8AUx95leMzLxQR2AS5ARAxu0Y+AdRU2VW9tqLfsOX7KEyl7L85QC50rpaxjdIU1dRvyDoNg1fqUKZQAIwHbMbjuwYzgG0ND6ZgfQFYd+CMlgp2ac/AM8uBaKswtQMcCrYdvKoazcYTm7JoRLPlhW3i+nyQTbFVZ0MxzYo3VcEYXZeMYDVIGok+0biyLkxqCmyOYcwaD8izEmYDgMEuZPTA17ia+6El8aRiqh0JTUO2A2b2XC1XcmUZC/KKjd6gBdcQbKgDgi3sIJ5YOiMksCGHDy+E/GHEHEGHq4rSgVIQGQsZexN/pIkqgdgJUbkK2DPagbdAvenzSXgTqWgMeZhdoavSBK+ioU3tj06ThY/t5mlve1dRdmqUXQU+Mx9eg56gtSKHLrHFqz5hWXfqz/cDYX3ED7WCAp/RHqgrpZhNckvPS1PbA/LB2AB+FrHKoW7K1PcpGJ+RPEAiVjeX+CFwxiGzuxnZBh+jmEqBGZqxyfLM0KfZlQwEOLONkKYpeYRDwxfM+GYsLJo09mmK7p/3Kpa9opBnWY0LZQ79R5EMbhfhE5gQxyy+7VBiLhUKXbOEqf66JYkZxC1awjTlLDEHdwjweX9THaYOOg9bJGoiBQGag5Q4lSmtzH2sdQ8MxhtEKXqKu4Gk7QqHioW1FlENZ6CMSXUW8yvEKtzAz0NQcx3DExK6NyIujqWF0egmr9UIZsGa8w/88gn9Sd0XwIE0Swa89COaeNoKrTNVYSCiKm3qU3M+frWXFu8vA/zB6T/vvAUi75eCbcJq7j3DcX5Rf4jlFibXH+QRjV+KhwKDUExmNYxeWrKlobgRfH0VLEsuHXbD44jIbOAYD+mmD6FVgw5IAub5Uu23bHYhba2FcTEJ1tC2y2Cp2ArqssaaBbwDta1MhBVb+5Y4/wAz/OGG5hyClKu74juvbs/KpglxsRWFBKL3QizGUv4bl24PILpiqOOwQ6eqi2qfD/Il5z4WWLyJqHzmixYi79f4jaM2fIFBbN9fPkkzElJwaG3bLWL7m0vvN8vkSN5Adl/BY5xA1DbPSuldV/EWcQ1kgPpgUeCBQq1pF3nPyjROAh2cA9+JagvTmViso8HUS1srY0ovM0fI9zcsZgtUS144ZohXY3kNaLgnSrsDYfMQ0t1etBa+SP74bRRDsB7+wlcbYVgZINMVgvMFrsgIyBdIgA+o2veygCrusJPIW8A8oI3UCaWCZr2QdAHgdlXHiG8hbLcpCtcNQG592iGV63UtSi9l/lAwekivAwZpF8tQxmhhiUOqbqFyhbwraF4YwhfKY4PngMPXK4ucs2g07sask+hBvwRuJYQXuIDv6EerdxaaiqGsOSN4LvSPaqfcDdgmIhu6UMVKVps0GWilQvbTmjT3Le0HUKvstn4lLTCUhdMbtcYhi6UhZFhl9v3Kr+aRG9Ssl7T2i5TzEsQcMscGSCXJZ35hruHiOJkMlmmKRsbuU2EkLTDKLKgMx1wwJQwKgy4OI42DkUp6OEbH/FkrsQuLiVQ/0NyrgxaclJpJVqxyVDMfUAqYHUN+/pEDpIg52r77J8S5m9Tyv+8a4it2RRVxHsUfVErDCqqXTEl26g9DEu6Jp6ZrbBeTBf8ADFQGX6WK88z86ITlEDxgEqemXQQrw53KrmV4i0QyjzdCUVGOD+yNktg1dYHtKzFT1H5I083Nc4muMQKcspd4juBA+bLfEQY9xNis0z6jG1EdrOEWZWvNWgqLUGVliryzZEMG5a4tmZW/+0SUxKck4JJZtIlsEYwwBk0aiOTAoE06TEJgKbiUhSfUiUz9JMo0+oPVow7wBX8BLXP0kw6I8BFwdgsIfRm8StbZ3QIm+esNEqCqG6LhvBe9EHbbK7TDFa6I2fgJjMZVkgErIriDloimEJKF4WqWKobQZRz9FMQNteWXqiZ2LFvOBbv7QLKT2mrpKotLjeBm/sy60+ULyS1ltLP7U8V6i5Xcrlku+otLnx0HpmEMJ8TGJcorteFS4KWWG/1iK4g95ZqUs/8AV6AuCl8x5tVf1l9FqN9jc26FI08/7iW5+5cozc/0XeXWSKhcqB5Zoy7I6ix3eMJkYrHxCqIY3iOtS/8Ahwy1l1MWPir5rtAqvw+4bZgriVM2+c/0QLQjtzLW9y/ZBddHuf8AglIY0RoJcwu7/oZriZlz979Eqoaqpoav+KDHrMjmZJ9z+aN8suLrJMKXCH7mkMGI1WpW+VKWCtnh9xWZjfMrvi02wVA15/ulJEzDeza4iQeh3HGcsEwblUk8Kqr9I+JV7JXwWh+lAqE3Nw9E7QK1cRL6N0+mCgu8Mykl4jbzxLnRCJfEBDxKwS4taUOTxKxAigWcv1iMEgy7LgMOgSD5l+IYhMuguUYMXDBov87+p3vv/TKtOBmXIrD3nY/BgxZ72M5q1HQuDfmK6Mq/ugh/LECwZ58Tjp9iUf1pZ/Wi2Ki2/FTtXSzSPuNWLvcBDZtDLsqFuojWoNq8TQW2SnsxFELQPHFzTiIXmFBbCiW0MVdVice046FOJct1UKwmLP0nQee8GoPZoH2xm5QczhFn2wqV2l4fUR6v0TPEzKoH/gx5l2Q9z/N5IS0g9ybV5TLJvKVO+fCkwiKnKPZ9MNanBmMw/wBO5a9LBzLryt4gwu94jvB/5pknG4vaWfoHuWdBRMwUZ84TXEFmws3dL1L7CLnGalFGSZCzX9EqVBftS2y2kbCFCZh9fqLRBg3xKv8AhqGCKzIxxAaM0RCsxdiUuAxQ5lvDKnulc3O0+hZX4pVSpXS2v110bhGDL8QAIEvUu4M03UASeJmO3LA6BTCdqQgiXaW6omqHKC6HBMkbYlEsjQuKhquHGKbXW646q/68MbmjB6Y3WfWRmiRsqVisR2zBjNHqO4u70luIrPUFEVOSp/BKQGkadio0kH7Zl0Q7WxwhQ9sp/usTbMjClw0UOP8Asyl3MKsvhkZgAyBWJSt/dlbjIXS2U0/YnjG3c/YlAGut34WKZx+z+py19sf1M/T8f1DZ8/21qI/6fqW0fLRMGvoRWCKYqHMzbfWf+lf+ZQPD0U/mBoAhLbh+SVXF/vUHI/SP5TCY7oRm8cxrnB5d/uFnD9GNKz+U5FbKq6q5duz5ua6mho+dx6id/wDtZzur2/qXk0WzcYq1Q7Bv88TD/M/qZr2ax/qf1BgU8/i39S2FmU4bh2T/AHxL7f3F7dwUgpB/2z5MZ6As+0y63HDT6SzX5Eum8jS4iNP5EEsqvSbc4KgeS2JzKap/SV7/AMHmAdFsuzA/MxW1e/7QPP5iXNHuv+0SyisDZjwwTf8Ap8zvEe/7zt3+yP3qB8/jgtfpiQ/E/uNooGom/wCKLaqjvrGuwVYslf8A0wr/AJcBVeHaDHZWkyo3+mx3m2ShkVO4hbbK7GNeYvH8F/iYRrlg/ZBay/KjhKnyfojsv1hlrvb2ZWpjv0I8q6YgAyGpXx/JHyvZFwNBOG44l2z2l4i6UdpmF8QmuhDEuCyyV1iXb2ZmM0k18DTBGY8wEQr1ttjxVdW7c/SVTKlGqJpxzIUuoHbRxwmIMqxTpiYQXikuu53GZqy6+0XK0oAsNA5YoGGqReAKGKc0J6OfFuJ1b0EgfbU1KhiF8EOuy8p9ywZrtTdohTxHJq0hr8QMQ3eJeP1ApUrVTLFyyleiErIw4uo8HjDDN7Jf4IOitS2qjS5qMMH+jKxLpqXKK7A/me5lCG44/wDAlp0dOZ5f/lDwy4uL/hmpTMRf9XJLhMmjcqLGkTViQtSWCmrsKfUT2JUwe9AfaGKxEqU3Af8AFzB8QWmZWgm97iLO/BHsmI/1mYyhNcTk8523MESnUGK8pEY+SX46vDROZQgVmImvf4cQWriwFZUOmwfoZbUEazF3bpiVQtN+5QZ3Ew3ZBbePcKYgt8xFF5CA7qN6mBbtGV6Umpbyw+VYXMpfCIbuIKswobhVxbA0MFp4jZGkyQJRQKuX0uLBal+Z8M2O5KPQMssqEzUo6BZOWbQY1d07vQjS9DUsQIBZhiu1yymEjiC2P5gSsAaTDVGI/t4+URi3zC17vVQhHyDXnII7Wz8dkSO+tF1pUGXTLGkafidXrH9IgykL8F7jzQ2N5Gh8tEcX8UmbLZc2G1osL5hbbvP6y4jCGv8ACR2qUagwsCOTAL6CTF+0rMyR3iG/Gn8yZbIsDxDK+H7lWzEKjsfOdujdejN6v+Uroq/14dBHonw/sJriXLa1iFRZNcMVqyU0i0MfUE9QtZ4f/LKahfdAUpeZgmr8HMu2N3GW+6No/jvAj5f5Eyu93AqNdpY65vT86lxJFu50DVR4h+ZYykFZIjLqVMZlNG/wuLUXqDL28fwJzLi7G0GxeF1BRahk+om6X/yxBiZjcrg2fwhY2QZvSL6o/bRLeOhjN7kjeY6qc/cX7AJhY3d2Sg9Sq2wuFTLxk7T10aqX0MNMGtQsyPS4tnRcbh0q1eWHL95O39pDk+6L5Zh2iZ/MQJz+OWY/X/cqCFBNcTvj8ELPRYWVim8R0YUEXvDBKlpbPgmIsbwNihRTmo7UQt3O97gctVUPIIcVgUil4x4MdKtPQBYDYxEynMGirSJN2Hlu7XKZSwIAtCyUx4uLrVsZ2nEMqXkVGKYt5ZzYPcGaG8T/AKsBKFbfdidWeyDLfcETV5jBSU1tpeYNpe9BgWvtINqytNyz+tN/7JY0CIdlXt7YhToPzBE2QHZA/wAnLKEAwDExq8piYuXjceCnUtS7pC5mWqv/ALQ1LEWWlwQq+SYwiMY+Es10MqDNuYNt0cD5S/xkrp2B/wBJt1K2cwnTNxqbnefPRcoUfCMMTzNfIZTbHMsXrz/JE0f1ZSUniO5eA9/7I5kCxbxD3NLXn9kA5XZCETe64o0GK1GqmPArDSQeJdOoGkiuNshGZ+JSNEYoyjYt7zHEtcF+C/4Z8yrY1KB3qK2VWTDLaO0VKtYnG5eIQA3zheXLGF8kQUcyyrmINUYZ6JYWJYJM/ES2X5hfDOYJCp556Qp60qCJSw3BJSzncN5ei4l6z/7wYaJxHQ33QpSXdS/Mxz8v1EG+ZatvS2r/ALEFL6Xbcp7Vf2yxzL5FgOEuGlm5bjkI2pmN1RPzCWpzBRITdIsJoaxEtF9xMFonjSugbOPM8RXgmb+JH/zyU0PPGypbv60SCsGsTv8AziN+tyNhV3AtA+CuhC+gxa3MRc0NI5GNkavbEJG0OFuFOoAeP8PMJpRS9znmPGHyja5PqD/lP3NEC3NsN3DUEfNMH8yZsfaiFTnlCBdqPLYpm002EjdWbbtn2Q4ljUX8Xsg0Li3kw5dYXEV7Vu3UVkBfn+kH5SxnLyKINqChDt84jjQ/RLMZfZ/WXFq8D+sag+K/kRO/CT+AQWj8L9kFniNgfqL6q9EBYL0Epqg7wFc2iFhkuF1f6SnTatYEe/8AogFI0VIS7lV+rPRfKmU2pTUJWg+rlc7vEUlMGWgUp6SkogrYDXiC8L9ShWVC9nXuFzT6iI1fEORVUNZTYxUba+l/uBur+BmW72Imf6WLWr96ZmjYdglkqwZ4jeqQznbOV4RqjA5SlSCov822FW7bMwUCvuy+f2ysF+yGTYuWaj/67+o5T87+pUUUq8wogao5lIGU7XASv3geynIMGYGXF4hMHQJuqioy5kb6WxvhgnMWoVzWZku4MCO3wlcvwTMDedn6Yd4QJ/s8S43GuIkqecKQ3GmPay+YwWZWOx+kyyw6DJef2JdRmSDdRINqfZNxmRumv3EzzGG42ju/0wnG4XDOdx+56EHtKo/KemXuOpxaV/3alkxKXPjfmEwS4/X+wl3TXWv2k5xFltJz/UsBzS44MsLTWzcz8N/yjhLAHMoY7PH/AEmrjAFpGZellTREm5/eJzKIkTbax0yitSjhlc3AVf8A0yi5QqEdupRd7QjjUrk3VfqYlnaHqHL3/QnAjnbKntSgomRAVuFVgm/lr8MIkpbK7+Qqa10FaHiXqriYIsKvuvSgauOZvgxzHUBHvBohzC6J2SEcLi5l3Lg3PR9xtjKZb0GVUselLrq8x2zEEizLiFag3xA2j5fULSDBgbHmpdkWGorxVf8AZ0qpfeYutVfbFwqLUvUaGd9sfohRFgynb/7x6IKO0RnFYPVRW+hEnxNMuYuBwcN+lDceKlKlvBXpiF9PV0Kmvif73bpxFTn+3pZ0strQfYiJ2EuFzqVVsl6gdP8AyjLKyGW7B6dv/rmm7ipMYlcP+L6Nuie5ze0Ji4jA5/oMaGckccxVS85fmWIg6mMSydv8szeujpCqhxC2ckZQ8n6wrmWKV9wcI0YFfRisqgWnbZM/clz6lSXBb1OA42+IrhJnDmdpx/SVGDa1iHc4lTOoT7OmSCxg+6YlE2YzAKhRNuIA5tGYrcLiYg4hfeYc3KdBncS6z0u+IRSEslc90kaaflcq46QPMfpiri0qr3Pavtl719oBP539ROzs6XdS9a+7CpdP5f6nZ+RH8QORW8P7Et5/L/qZqC+f9T/v4FDb/nZP93+pXsvoytpv8ZVm6XkxDBSv0hUK77WQahL4JDP2Agd39/8AaOG/t/vMiXeb/vKrnZNFvlJg5/j+41WP3/UXjQw5Q/hlboBLMMS//g/uaSXdbS7pEBf0JijV7U7afcluCw9o4g7VD5/og8xe6eZGWbHDxPqXHP2gXPP+NSi5aPDClsVOnUF1b4S5cMao0mmUylgImliYLpKALRuEoXhg5hImqFnPNk/68p/tInlH2kKudumyeF+ENL6kHQ1K6SIVbRaEF/hoD+yC0OL78QHI+5yvWpDvHphNypzGkwnh/cy0fdK9TXeX3H3LP/aMRWX809V7gSA70rN2vQY0FA3JQtUxaOlzWptvt6Zqql4d2Tg6NkbCjRDKVQkTqyOskZajr+kGwbYbuvmYemNyGCNnEbEqwsEBxCmBKWytfRGY7TKjmC16yhmVYdT3nkxuZng5wy4jQS9qO3RuJUy+AQgtw61Md4mcQcEOlS/P/wAK2KmyXlsnqDGvKg3xPc5hfev2ly28MZ9LoXwixDTkt+5U9xcbiv0FS8VM1LMZgyvP8elGLYBcV43/AOqAvPRdjTGXhsyu0IcLxLbwS8y8Z2Mv36L3j7YO3s/bBnzFXMVl9yzzL8RcA4YGx3mgQhsnBcG7ljBPMt8l+5bcGWE7FwY4nOsxbxAWmnBmZYOpSHj/AFABVXw9mVcfSGT9ZDh+lGlZRw7wsvLrUbr/AAkCYP0Iy94zYhTVb3omGlL3hDtF4/CLI/GlhlD1hf8AwY+f2qVdwIzVgwxCqvwwPAfxLUCVfTDRSu0dGJiCeV2gpoXzFBRjVSiLTirlNRMB/NmivzZau4drQLtAVl2iONO3/tLrU/AQ622Hcy4L2blwPjK/tfeJI2W2z+4cf0UzWB6o/cqr8iwsk1URdoE5vbYm/wAdoT3GXVxKvi1B2zPaPmV8AW7muZXqLzZu2NzLn/jBn88USviFG0/1E4LRcxQb9zPB0cdLlyyag51Le9SrlKqOYbzKshjEK6sCXFgwxlRNP3MwFTFS/wAv9od7nEXzHmvT0JvEABnb/cuW3LYsfNQI0y8zmXMLj+BDW+mEqU1+tS6d2RJzUd4uJ2//AA63SHkj3qXfES04Xf8AvOCPhnE8mqA+XpqZnN4GNkvkQntS/wBcHrpQjKHYTYWeorcGNIz/AIwvliQmXqUyRoleL/lG+IltbeizcusftK3klrXRQ8p+jECsnThbPJElNsagSq6H7Y7KAuLwd1lub/3CQuSO3iBOQc3tlEZVs1UIwCO6EHGDcTXKZYqo7Gn8MJS4GCr++AoL0RItg0K7oGZlqFYlI8alU+YX4JWCVGniIX1yi3BoyzcwftCGZptopDiJN1U1KLojOYN7iYnbqY6YWulveLcWfMbmyFlS2ZmESyzMxcPMZRV2v2lzSqnqJWHNQbG5Yw8mX38v3LQIXULRZ/EEFDroopfP6SyWyoND4/VojvLxmMMxpiUYE1OIS0r3UpOOlEQX7tX1M6h00D/Kws5mWe0yWoXjMvvF8BjGrs6ExCuEq/Mvgub6Jh4cezLggZlFlybqMTNwLR31GNmp7uOIB37fp6GOIKK1/uJhJQMwYRdbG5zrM2E7rdP5g21UMVlYgCsK/dY3fEJQy9pfP9wbNT6l9S4g2oEbisyyrWp5X/sQWI8w3PE9PRAUKNwU0Ci266FtEBm6AJiK3wZO0TogwleYY1LvvdRTN3t0GGaWzjPUbOIrcDvsQqjMd4hUVKlsvzFRnaCQupbfTCQmGYP3K8C+YGO0volhlV6JRFuqwj470JWF/iSv+KU2K1GjGIWWW+EP6VYHa9VimwXTTFdl9RyUIOEwGOl8/aN37/8A3ArX5v8AcRo/KhS6Za/+oH8O/wDcA3j+f9wNRH5P8yzkslXujzEvw8W/7ibiZ1YhnX4IszVAyPDNd/IEvi+RqIMq4b2ZjC0VljiWPL/RAN+Ov6IyKrz/ACCeQ9M/iDc+wX6h7W85f1L7jbU5cepVr22/qXYuPcf1B4r7/wAQBZkbMTcAcN/viXYSa4t/EcWP1lWlxTYamgz+ELco+Moi1WwQ52qlIJnmV+7VkpWC6LT+FgFv6Znz9/8AaUV3e6/mLyL+Fl1cqf5/7R7Q+1/MU0P+cMEZ3O9S1f0/3MnD8RUaVW6hQLKOK/lJ/r/gywf1f3Fspq9VvDON/Qf3E0lbZ8gSoGTKX5H2T/IjTueo0NpqrqUjf0EpfmqOgpN1VedSl8sFVkDevxNmKeNyuWznNgHtK8/aJnfgG8zPVfSlcY+ZQwC+NovPdmSshwjAb++nj/y8R8sOUarfyRp3+mH/AFINtdumeZ9pz38kQtcDk3EFk+GcmsOIxnEXmoEtwl0BhQhaIrTzBbJ4joyQoyQrC/mKKbfczUeBc4JjuU/2S2q+yNIflIKjdbzEUv7I8f2TtwC5iaT6EoPH4Qr/AJCUSWusR6B1NS/YhhCVNRzM1TBdV0pehYAdVeP+Gd+gxb2i37Qo1DoJ8LO8Ze2DyZ/t0bY7WfM7viLddM4ipz/0JslISmph++0ZQwN18MRuyCJo6WsO5+5R1D3A8Qp4F+pz0xW5gtdnosyQ2ZNQoQVm/wCUV3llc/HQ9okxvP75ltWZRKqXjysnxFXa4jDkyjvB5Q3KfMjoeo+oM/JJ9RjrpfsXH6lFp36ADJGsLIvNobAabPpuF3GuKhgVcKG81jKxNuWXwoo/ZL5SmC4j4r+0seZUCmGNdmv3k1u4+5puG8nlKhQYi0nEECWmInaavPjpRLuWWSMNCGWqYjVQBwSuGoCpxFSYIh2TFqQDY2wr1i+5GMeTO99E1/olb/FAFK2dPTUqm6hXJGpadLlO4S5g7zTKzN+pYcx/VLVGro6NznP9s0weLjuMozt+0FzBjH0ASpbqoaE6ljAzMfSQSXWp+puutJHQcssLfNvtNdFqTul1HDm+oMuKxzR+zq7qYqZu1+osGm7xMy67X9kPUxV7ncR7cQzMROLdvwTg6kYme8Rfi0F1FYFBipj8xcO/4kRgGkzNlkU4maf4uJCyiX/3agUF1rifLKhfX+70GaldGnL2S8agYWqx+4Q31WWzDDn19SMr4/mYeJZDBbzFi6r9jDuj3Jjk/wDowuqlQSY2cFe0ijG2N8H74FZBKOo2V2GCAFmZdSw5qcLIF5cdwvmBMvNK6EQ5o/Mz01A1zjoZR3hUvuWEvG4VkNMqDMhFCdGyFz29DLKdoTEouJA67mmC5WzHB1CH+GegPMvGphU/4M5uHaYsgVKzHuDctuavnb1uZS4N8QXxGUeP5S866aaubmv9CK8E51DUNV/2qWm4M/KT8XLq7l0QFHdMfMVcsgcAL81MbVF5PFMtqLco9jCjVs/LLzMVxLwqa3hfclkoe1FXqQYeo/q0xcuyt3K6DZEZXr9mFRmJMkrdTEJFy53e1EIZrEsYYi/zc+jCVKO8E1FS1q6mDNQL0OfTG7AxXMEHMO1j+yXZjEyCUu8wUfJ/c9Es23UvkP8AgnJYsJZe5QRqrfsgy+4l5na//eCckuXFTnMjTBmNsWHnoaemguVSvqUv7Id4YYS9K9vmF1NVHV1HZSps1DodziVctcBc2Q6CEx5jknJmOGZYalkamoSs7VeQcsWrI82hxMxnyEnmFzKeJvbYHdP3R6jlnaZTjytoFf5cob+xEhtXeeGLldv2JVxXDov7omiu1i7gb/HeAH9UHdAKWss3mIbQYLUuaKVS0khhbiW+7J4fUh/5T+oUfxKP8RjbNFFcPkZkrD2v+ksr+H+oJ9B4/qJVCmtP1AxvB/nEw/0xidDCHeZP8PxEmz6/6xUU00h/SJWNVLFii5of5PUC0/lImKAe9JkTwZoTHv8AJldvnjKeb5rKKEZ4TDFeHrG68A1hFMlBKYRDKiWYs7X+Hudv/X3MaDjVEpgcl6r/ADH1iOMv5m3+X5gCvmOy/ccy3vw/c21Q+f8Ac/vL/cdRMu75+5/3kIV+1BFpLXVP5YU0TXN/0kwV+T/czH739zlVfA49yv17X9zM/TAZU+239y3OrLtJr3BSwvtX7hkAPO0/cqy2vAn8y9hWlbnHQ5bf3MtxwqrjXD9SS+I4K38Kw0HRd3FfA+4FMnxWb6+zMKYsXdy64Pa39QK6X5hYA1U83LJq3tl0/mf1EP739S8mXzdXOCr5/wBRXVfe/qOLf7lSwF7a2ysx9+Ldf7/EqgK8Mcp/x9Ttwa8X6SzoGnEF5jD/AJn8TFdYaNCWuLpj84g1SGsxLM2Tlp+Zfj+E/wA0lm2ftFVWHqnfX2TFlHwiAD8iGhf2RHk/JOwcwq3lcDLili532Ql5m6iSqhKYomI1MkBlRfEw6Zlyk0/CPqX2I7wXUR05nY8f09CyXUqe1/U9zdSyVQq7V62dOZZK7c/hbgriML7Ti21Wvgi9yEossgQ34ftLzBIyHlhl3eGY5KZhmL9krxiVnUDZBdni+0KY2bJTbKVcy3CZuNryll0y3MZr5SlfFa+pWcTJiMp1CiMrFVDIWUWr2y/EDiFDEpj3m+5mKcyu7N4VRKOHoL7t/pNyqY6UzT7D9SpncAp1U90PRYMRM5H6Yl3Aoldlga8tRbCUMsXQEUVvMBQr/rKgeILlLftX7YIInaU/zbmWVrEa6qyolqwIHMdtmPzV0vxMyqnnJ99BkZbwz+3S4MJkPbHoSlWbhG4FsF3QYY2wpvc3y5TlOjrpbLuV5iB0YHNHSyYg1UxMoK6zYlXMc/U/afmLSwczE2gUYAyipR9v6Qhrpk9n9kqa1K7wDdaVLLCZgdxf9UGELuZBf9OOIeCE+VFtvSYlkz+D9zOI5IboIdjzr7SssqVCZVsZVuY1gZmJ/wBWouPQmYOog2xYEqoC3McJWRXD8MtM9oVLvZ/kjUIG/wA4YCFVGKvf+kU3LGWGJl6n6Jq4XHT6lMNqExtOhNPx9Tk6ZuGB4LuVKAsgo7uGC7OjIztleZzMQPRX9y6lMvFZuFq3f8alNbhUBfs/coablMNVEeXpHiCwn+nM0S5dv/0hMdoGYYDxmZiApgZVirlYlNUVKosm4k2pSD13mL6vE5bI1uU+JuViAxYJFnqJjXRVHPgoGUJXZT7uf9qbAOw4Yt+X0hoD9y1Qu9kVINHTcpdvJYP3Ktl8kef7yMPzvPiHGvoTyfaUgh5Qg8JVrloOrZeYgpsnainHh+4rk+xsiP0DctN1GF1ed+CNEm5m1enouQDXvZaXbLMDuM+BjDHmpMEwsA5KbP3LnGJeYPtY+IbnNkbiHw/wstQzLCB2zAwrKW7jvEs7MDC470leG5SQ7ppOjnoHwfzMpJdFy8R9jdXtlKYldkQPm8zuZ7PTLkGLQZlgkCJbkUfE7YlyllawzsGksixn/rqaJUuX0HlMrSOWI4sGUsDU+KiXFwoZIGQjZNwGx7D8wimoXcLQ/wDXhVNkoqUXXf8AaDRKRdSjZV4Ny/MFuXf8NxWXct+H9JXMdzcLLuDUu+elEbJkn/47W5a6J8TWQGyZ7ypXTEz3leYXOJVQwRmQx0ywFFbJ2ggZhZq5VzLqmamCwgTHmWro84iFd3qDAudFEroF1lhYfCWAtTFkohvTVBMlS8nKJMbO0dJvPBGZ+2jcQQAp0Q2gWampDzibeTxKiFE4qACUSyP4IYQeKpARwAPxLxKvRA1i+FzEfwpbrcF0LhguvoQJ3exFmYzoEcDqMomYxehP+QQGq0zSd35Anh9dic/4oAwCbK3icv4UwVzdkH/gE4LSlFbSNP8AEZir8aD4/RDm3BXXaeJ7jby+kWtC2ai1vw2Sn+mUjQF3Chq2B9MzW0IvSkwBi7S9xVPu5X4uYlzAtL2SredtQXGJqYP4BhVp9sXymO6xOfC+1cs7UU2WXBdhljF37ZV62W+JRx+WFgA1tpaLo+oLl9sutUVMva4bL/aLcO+7D43XdZbXJC5Q5SAdfwKJYAewzsA+UP7sm3H+3uC0fEKrlWxH+tztHp/7RM39llHlFTQygg/tXOX4bQxdYkypSMHhR8wV5fkVN3Ct2uV7T7wDB91lebvCgI7+kG5xIOx9kXyJz5gj9iQuz9ktr8h/U70m05wH4/qFot56lK2v1MZEtqpx/qK+icP+nxDFXKFNVucnx0P4gHl8fyJ3H+Ja4Kh41G7+klDq+CeS+owUiHAj4J/ZURy63Bt/VDAD/QPxCcsqxromIRejco89GImJSSoEzMLEn4MuGwlWmg2jiB5mOlllfgfpELe0XdXxdRoJFVWa/d6jB7S7fr8VwUKBO204jY4GiEWEbs+GEDTMAVMiXzMy880RRL5j+YLqXHxBpmNWTPMRoLJuDDE11TXDSO+TTCUDDD3mSCxumkXTKaQzlLHc0mbqpyu6cFV4pmFnM3W4s/c5jXSi0w/sRMSubVly70g8ltM1SI3dumVLWBEdCoXTvPNQ4jT6KZXZhC/sAK+2JyLCCFeI9QhVW1l6VS6a5iMPb+mKWUy4LE8GnvfSiWIG1i52xcLcsXLneiacSgwHA0qAPTMc5Jy59giV+jJA5hiXGTZiseAVKGB7xidfq2DuYtsscWHlgUXZlQlboGkMEELEyJMpLoEPzG8wyANHcixfDLb6DMAcew5I4FUALVwAcwZ72dgNniAWMD2hhogL+XL4JYlrxN7xA5m2uZiVHmj3IQmIIA/3ZYjMXEC2CljU4gXtm5kfyRKVUO2ul+X+0qENmIchzb+5RKgsP9jfQmJZak1gyi0QEdsGqUWniZelYCWdpZESY66VojjpX/w3AjM3MXHcJ9cvia+Ddx1etS3OX8xiAjy1dRT1lVHrMJ5VQ5FN+ZQA2ktRhsKB8+YU3hn1OcuviomWM4N7GKmtjK2uVgCyBU0ubYpcBR5QCwwGO/kuH1UoIwkuEa2ztzad4sliSQI27pogFgURyRhxNPJ7HeLR9go8xQWiwexlnLKS2h/EQi9FL4WApyrqOhChBh1KXM+0BCheXlbhh3PxmWO7WCy5cuyfuOTEuGOZcynN9+lBVz2Zews+VwNhAQAkHR7v2e8a3D7Sr9TEbXvmTHeStNBK+kitOaR1WjaIdvcUIkC+ZYp2QESFKg/ERdcR8+YCOAAsS4uCUh3t07ScVGyx5Yj7GCalaM3f8WystMDTKZnFJm7Va+B/EsahWrlqXtvkBJV+KnGRczOXFmIy1oobusMvr55amgW9rgrm83lFxShWn1/mUir1fNmEikZ1s07WXBFZkOFVsILk8I0WOL0QSpSwWjANdCjgcVRFA7hSTLZyyv1OKXACjIjpJ5thSEbo5P10VzKlxxCo8Zpit5jrAvCWGY4ijVXF/wDYDFWZxU0srq4jPKX2rX60zBl5lbc/2nxEIVcYVZzde4J07c8nuCTNyyOWuhzEuqgkBlo0u3LzAPOIcHMLqYQTmXYBVVdo4gSpjpdT2mLlSplcqoniUhdTJlMx9iBWsl06C2K2jJsmpfxBeCEVctDhjpKq6I8A1co3Yum9EBXTSWrtjmGRvEpfi5Q3Ya6GGni4g8Aoi7MD7gWABtqJGJ1PyMyrywF8RCrUnDVtSFjbYIaaKIqI/tOTdSptW1ML/wAuZp1S2VRaAwPDHqlGqBfdUfoWxagKIdwOUbWy/ErGBEWCZRtmVtK4e6am52KssVzflsUmcXULIDgKr0VDWP8A14jwbXhZ3aFOlqt7PZq5Y7j/AL0SkW5Hg/ZM0LDbSw8/x/5QRyWD0Hk4e8bNvpnLbXpjkWyVVwtrtA/GAwZ/68RWzqqBThgVxSTTwxnxKaIrZEFiuI0EdnFxV3qpCziUggqKFlt2bYrAFhrSkZZeJ3VLdATxiNXrFKIb3C/KL8mMsaKmwVTLtDAeI9RvZE5pUqzyLVxyI2UTPtTUDfNKLswStpBp4YWDb6YW7QXpPwxhayfHpFLTFll8xd2COCTg59yyQzLg+m4w21NNtog0MAsEm6G5Rd9zoQAhnNZBtQQ91CrVk3QZempRdsaG0d31UL7VhodDNnXRmE9tQl2VpsLaKmFlvgXSa3UlGtwomalekUVMVTApb8mpasv+olG4FVSY9fnBNlDKaPhqNwud4U2IkMsG/MYneq3EXIxHtiKAbEB7Qi+QhTrMNlXuXwALSIOS9tS7i/2TFd0HAcLME198f/MTFlvsYXmppBGw/SnB+JDQLmwXTEP6kTr6E+r7kOFEF2VG3l9xp/kg+vtgwS83OM+tAn8FkZSjZ5lZafdy4v8AMT/oRtrocxaivtZcs7MSi1gftkuKUifJDWiNQAXmOLg5wMq2Y0e+PTjctCcdLkXGVKS8TBKJTW5np+HBLuueEhAyzooTIY9ShbwwKHcbfwpQNFLK+SVcdaeqiqe2YQ8NNWfWIfPpqlBBxsLCUcobH27YlBupFqBV1poiPCgL6ph5fCn6noIoO++ZQWdHl3FzwfFtHxGmNFzdfdFNJQWB4Zi9irt8WWQQKaW2/wA2WgGhvT9QUkk7kZRFZR/iafmHXZc6QDVMva9n7egq7YrPBKFQmFRVcsHWYled/smm6j3j2n5tvylBeCJqKCCKZFWNMG8O7vzFBpAoyyuC2Q7yE1vJVYkuO98wM7MRXkFIjTZYzCA7mIFJi3MbA8jfkGMIKLGyX3WMQpddfkFlt3GbDKt8YftG3bCuI64cTNkLl3MeXX8VHZltul7svYXiU7F8XHa0l22ru1l+V2knd8DMoFttbtpyxURy9cQqWlkkflYAL6pZWSw4sju7K/sRutxTBSHZXiz9TJzGPuksNkfIxM7GXxnMvCcDSwFniTV4gWMsYVlgisQpY2SlikQlVBjHJa8wIoq9QthANAQOqK9QqExTjm4cQTzXxLGwvgIw2u81Ky/wS7bm7QmkNNFRbbj4MLG2PRG+wnvS5a5wBqnMcbmNWE7H0Si2hrdRaEzNFx/8WZafpJTagsBz+Mju/EQ2fQgp4BaVcWYxB632Sqbjx0OZT0o69jxLnepCc1rJeBVnxAiara3IVKfIhqblXuC3UTLtgqbv/GARpTUqfS/j0GYuVMRkgcSzxMWVBlPb+XTgntgwvoAEMHdG6q7CmpuVqGclVLzB9DDVLo7mmFMCunI/MVZiXmYXd36lziFE0v8AOYTDMGWmOh95geelvP8AxS4dum9yuhz6P0y7mq6YM735ZTbbCnmLvMdv+qam+I3C5iw6gwjCt8kubEyV2/gdLlTcn6pk/CXmCRXkrP6RuMqUpOP0JUFcy/yoAFgIGY2wFy2g9/UCtzNzANwRBo10U6mmh4IErMw/3YRuZ6Ax01ToTEeSZFvpQ2Q4ZXjoDGZpM9pTibfUp46OmEG7uzExqeoSjlvTnowelMrcHExCuqs5jHFlz8NmNDiooIgOxLIuA4NHEy9uFAU8Q2ZmOSEcHKFB3dXFquOcryQMdKF/jMHPWvN/zLZZPiDlf+XPiXAhf9mp8TIQ3uBSW5c+bSy6iEP1sxG+MVrpQnVn4YPmPuW0RbMZfqW8QYVHT25GvSxZdeYM1qf2XL74l+ZRybD8RXfukvpsBw+rQqcEZZ/xZYkEVaZWZkq/09AuV1zUEgMzXiAz0tn+vwSjgqJUsDi0W04dBxCW83+kJdmo+CHL/lEvt00eLRC3fB8Su1TxKMTBXEqjESV25rGDF3uNU7hbjkBcA6E/17lR6AcLh+y2BHGCVLLjjp8waVx6VmCoB8JOenv4esVSiPuoD0H7jgAXBSrgysyqly/M5mOxF0czUMyqly58Rp6YF2FdyOGvvJ3Pv/tE4spzjVQrMzXiUJn+f5MO8+ybVBi7SKTP2EVpvSTV9VMS+1lYe6jv/LFJdsBHEy8cTiybhP5/tKzDv1J4Z9krQZwqzvGAPl4eOkJCVFLO1Tcy9oNdvuJMu9+yKKTLmkudUA2qoVGws7kJTQAGmYYsXxjwv6RiIVlH8QSrZ8Jk7uSxqBbX0jHtaIs3STufQQDJ+CDNUPMK2i8xfuF2hNG/oYKf1wSml10y/DN1+D/CFGPU/wDmK0ioJoa3FdlnZw/iGlD1b+Jm5zTbbbxHcylp2M/4TRgecv4nLzkL4zOynxYK4hRxvx/5iF+R/KZCv9fUf83+Ime4pijsd/8AiD8PdP6g5dr/AHU2OBSMmn++pY0g+/8AE/rv+YVyj6cep2D+P8R3IfGP5qM5sI5/wTXi1Bsqf74h2/x/4irQUstmoHeEmlATVin++oXhdciuMTvZ+koimEmIGYKpSYSvu+BAdv6RK8phmGm/nCCas8iC/opEsWasslt/qSgGzxRF7xfJKTdjdkxD+mXb+4hIShrv+0p/uJi/rmLP4oU3NcYl+9/nmHYvdf3BlfwxiCeSk/c5P0f3Mf4P/UNlNJmuPTMj+AlH/wAv7lfB8f3MuZghpclv64tVbTuq/cQBSjZVfuNGt3giyv4v7mVuK4Uu/DLFy4EXhmXOIz2QzGesx36ATNxvtMypVRh+uXWYwbVrsFsrrhrFOkXfys4ssewtTfN+0mp6Q7mxHT0rzMf9Nk1iXLOZaguf4Mtbth7lvbMu5KxLBlwqzn+0qBUxA7nX9TnNx3FmcTDT9yoQos8oaprUiFWQeWXQOalzHTDnLf1Ksmalz/HcwvQWXf8AVmalvEVZP+UqH4ISoDf/AIoWNxOJudjw/lioU8wS8Sp/4zNsLpjUjVlTNz4hiOmR1LccG5UedcfxgTpayuUaX0sqYS/1X0zUc7SuLj+39JeM9BSPCn0eVE1K5kP/ADK8TFQgCXiqSyUNMBMD8ISu8zV1X7ZcvWKmLzDwsI01M30ZFbJVROHtLmio3UrMtVxRK4GoDyQ6uzMvQjKhrz3AVmolupZ7lsIKzuJe+lkUnp/8EbeINdBhKGAfel7AXtMDN8Sz1YAI9IVGAcpg06GWGvmgC4B5WBpVAdhQ/U1x07KIEHklRi9eJZh4PpMNzMDO4T1X/HTJK9S1/Yn4J8Qk4eQH2TkOCfmXPiBaW0GtfToxSxbj+dLSViXKnhl2P/l1OdtFkrow141+3TxcI2kf8MuZlFzGx3+2WV+40ReWm16Iz40uC1uN4f7JcFrofvX3FMLAjW0oqf4PPTXMWisXgkO8w3M2tiWWZW/VT5xeilkpjMzZPcYiLSaXf9Erq4TmFLcdMVt+0TU3O1j+39HTMw9omAybIaJbg5fiD4mIRl4uk/MbDMUcQV+EzZ2VG3FTMs1/5Ygh4xKgZ96S4VKblxWwf3F1FlkOsn1ElVcLaKjlFPSSkHe7idvDLHOyXZK3UBt8wHcaSVERmqWHNzLwRizPSujXEubJfRqsQqVCwcFhL3JaSPowU9gsbqYroAtVwEC4q4zWQk8FrbYXXq4Toc0YdUGblTIcv85K6ErmX/no3OIG22o2zxQ+4o5cUBQcjCnY/tLh76JcGi+w9G9znctcP9qXWGFd5xO2p9czzKx4mKPSmZlMzi39S4QYV/x7mel9prhr9sxXboK9iX1VgiSO4tmv7IwpjhDQESt1/dNahY2FgHhlv+m5atdArzEZ7VLxOJVMhDbfxLiSEKSp5P4zAuGN4IPtyowwCLMNd5+c/aXawOdxM6j3bv8AV1T5043ZK7oKMxJXrH1hYzS6xLja81UA1zzFhniF7JNPLW0g8Ohq21IwRhfKYdxV83h+5ZygKiWN3cSxGaCMN5hoMvzDUodaCWSniGTDG1PaN71CoIaS7jcRZmAvMYnEoMQQFFr0uty8QJUvZUqLIwgWTPRhKKj+uEWEqKotQ1ON5YOIzTpbWEUC7RgsD0duZtmgirOcHo/MVaNGr7y+38p4fa5d4HlF9d1DuPzi9/0YN8/Uf5Y+baZ7+tP9xFDWiy6jhVAULYlnMLIZ86Z7fRnePrb+5oX8C/uME7AyHjiknCtGbX9yuLfL+40aS+7+5bcgE2nn2R7Pc/8AqBZv7P8AcajddZL/ANwg0Ri393A7Tx/3LFgnz/mWRViw8/c8f939x/8AOz/d/uA5gINCmrgK2H2Z5cm3FPhFr+Q3d1dCEo5Pv+KFVrok3McpQjpIlscCy2tujuwEhmWVeyxgW2eJpywNp4vRChejX/jB5Ye0+KoNu7YtCpUUN7kCfwJXVfQhSrxYoRtxj2rFExfJLJe7sTJCLcVlTObH2/8AGHw3b+kGKx3qP/kf1mLAfH9YUxWeItTor4hVVvl/gItv2AIf7H9RNQqooZfZG2/kn9ks5Z4d/iPd5axMiaNlGgn/ADj+ppofk/ZL93aqljHgqbcfo/kM4Pkq/wCoG1nhP4kCRSbIH7DMAMw4OHj/AMYJKwDh/hJWYsNV/SHe/f8ARNf+H4hm7PedngjtFu6P4qIztA0D0WqOM/0+oIQ7KzTMTeV96EOIOLB+oAvj6ROrGErBeB9J4v1mQvsBVC2KLpfiL0VPE4szW8ccmEMce/8A7hZnVxWVrIy1HgZ7Ax2NHh/3KA6OoDoQX4zZ9VQ2DFYM1a4ob/29zF/ghta67RYVNdsz/wA0Nq1TghAkZHiBZ/b/ALmVcmDZiBVYeSpbMmVTL60S8TEMQczMf/ivxy5dBWYMxz/gho9dTh5/dL456bg2/wC0zjUUnaWICBNOBcF6hlQuWcgqJJC+/FCrdRQ7lw8fwSujD0b2zH3o7ZwZhTKnecn76UxEqcUs2cQ1lGT7SylBRERXYOmPxXV5XsHLA1tN4RY8MNWdGvUEuTNlFNqWUkXoZOQIB7oHwIVWKsRSufOZdzUVJb7a0RV3j9URR4CLlXQBUvWAQmvpVX2ZR3qVKqZOuP8AcwSoCDs/6MMwJUV4TGriXCDXudNZWF9Dw0n8Bj7lSvy7+oL36TTv4gDhmP8ApziTtCm2Jf8ARgTGqiFm46oNKPZ/o6Id5Xk/5ZZGVLUVfF+IjcohcHaGhZVLgKtgS+ZkIXDM4VwrPTkPqU5arEI+IbpzT9R7URIx9anFSrTMsL2GZD112yZWJUPMw9XQVL7TVdLJUqDLxjp6lyvMRmMRpmWw1qY5sVLi4h/ixBEl4nEss/09OejpJWLCoHE8QMdpfOoeZ2YUaju7eEKtjP63/wDCvP8A8oJLISik/wAKY6fcIOwBIzAjp9tn7lAxEKQuRelPNQBbRaVXMtD9oYIZzLwgsfZFw4JB6RhPgA39qg6TklptkfP/ABmJod1e5f22C+WDez4dVuLTgc8D/YQkb2WXWoSCa5y2Wo/ETkrQLxlUNanbMK+aIYlbeby+InQoZv8ATLEslZwEGfs/aEN6htXNJt6UVzH/AHeJbLYQ9qZfOCUQlP8ARqL60WCD7/2SsNyr6H/BwiRolvn1LsXH9QYUzHyV/CwqXF5lXNZf6SqYV9un1Eq7mW+9dKblKFSIIpC38UIlVcfCIBzUys7EIkvCMkpmCUfaSsygnAgjJxK6YW5J+OlmT1mpxCfMZ6JUudMIMbJmGetXoYwELAi5cVkQsYRZc/yu8ahe5c0qu5vxMzyIlb0H6xEukm0CniJ2v1Abgrt+yUnTEG6PQ1b2/qAOmkjIeX7t0pCWrOzD4Yr9EpgQXT/Fy3ZisWZLNIeYgV3BTZYJ+4sUQG1TySncvsFtMs0PhY/GZymJaK7+pYW4DNHGBOJhezfygVMhbF5DulymkKY/kEKng9SuZJe73helGPZcruRb0PPEUJq4iPlRzVVK8SzPpP4SUMfSQmSdP47ihMJDOBIIAxm330KmZeCXe1mtT3KmT/sSzvFx/MPSavxJfC9K193C0NJiGsM20YfyKj7PuFdz7hXIlDPhD+INwA1ZEIHLFTTYT7qYNkReyUaR8vKA1SWHJFO5KqaL/RFMWJion4mM3f2VMpKrDKrWtJaOiF7sJiol3iKfcBdRBXphM3IlCyghWri/4lYmbnpAfAr6Ik9odRkIAFsDzLG8xy0j6l90ldLaYld43Lgy4V0DzKYa3LOITPTidqYtqCcx41gQsHgFQFM1Yh/a7mgYZso+WWrrkb+gyhQe4V+xG2rTlP6Y6GnNH8mDYH/ZzFy/hT9QiuYMXf0TCr+dILj8/wDQgr+pT/iN9+cKpfqDfRftKYp+Kbyltex8xSF3b/6wXEBPoGa2LULyn8JGyHLaeA8LBhd5R+zAyqV7Rh8HipHl7ckyAqLHKx0xXWhm+5C8C7+hyj/fiVlAL6s2qUq/uR/xP7ig6Bok1rmOZO//AK+4cNPX9sqBxbTt8sL7t/KH6qHJ3GYXVuZdhTCDalTl4I11evbArpnyzT/NnGwH93L9znuROe6XBnwpNUrnIieEibCFYt6T/kygwPxDlUNGvULyvEVcBxVBwY4a49ebjZj6ocv0wKAWeAJYFq7Hmdv64WfwR5HcNVLA/RK2/wAMNh9CODYnHJUp19U8KAuD9RqDw41gn/IlP9UawqTgqP3lFtFxam99EK/447NC2K7Fz/jEeT6xmYo/gjhUAVjWIAfwR0/iwKGFaERzK2QdkqWvqwor8aFE45FO027vWB6q9Ib/AMWBeoVhWon/AES69neoB0NDmka69ZaLyQBoT4uZiX+piwASicpnC66w2wuAUYeLIo7mVqhL3UTaAIpX7KDPDZmv8EMIaVZ3xKBok5qTwRZoaBDxY8hj3wTSnCXlM0cY1itQry14IFR+KdtS0Srq0iEzF6WzM+5TXQo6gysyk92/wVC0uUs3y+7RAOZtw+uWIB4sYwOwRVctsbFwXyOfmzY8QhKh/nCEYQ3b/tTHVANoHtB/cPUpvoVLro7Uy2PDO3Qs9u8pz6o0Xs/SGokLeIkSaXKLa4ZuVUw9qUx9sLlTHXnoUIpW+wqK8o5XhUfpJrf5jqNz/N8y66ARWV/95m4XTHT+cNGZcU3Hh87vafMtuCoW4gM1j/LFbGcQpYEtrf7QJUrruyYuXymDiJf8euhyqMvGOSLU0Gz9ETP2S5faPzZgJpi4wEESMauP0JT3jXMf2ZU7n8UIbIeEZV9M1zLly3NgV9Sq6N59MBlOExMW4iLucP0zNQlwKW9T5qoku7Np3xpKNyjiDLyL9RCUQMxDFiCdoqzBiDpjq5csoK84bq4x0/YYVhsGP/xdkFxL9puKmp2agEHM5JWYeEAvZZLgeWZDKB3Eh/VAtmFgWtljQuVB2q8xpspih7TVsp4K6ZgEc/2S+ly7x31XFagqz5Mpa7juEJdf+PQh5C0Q2OBIrJa2+cszUzVy/qq0ZfZICTLNKFXCKyAR8M8ShddWjTcV/UxVZgOIVRayfTLp6cYRRLBwsK0uv4S+8tl9o31H5XLqDDeWP/Hui+ei4OTDAeozsuMZFtEXcoOWb2LYy/8AwYghm8Km4kF9/wBmKlUyvSRmt2uNBllzKqY6NU9CehmUrZzc1zzLKmfeB9kf0oPaCsRo3+xLPSW4ipqKq/8AQmzJfQD3oVlIcnqXzLMQDBtn46fExK8klsY6XyjD1Jvozi/4elnfoTQ6MJWPKYPyizeEWV2cXMsHL+pbxLNS6zLrWjIkyiM5BQS8bE7Cia0x4uGri0ICFAMRshKmKhue56TCSx5gy/MJcIBkrzwEN+bP3AptP3/3JnQKkPEeACxLZ5cFLqhwRxuUWzTIz8A6EWw1/ZM3plnJ+J5f1H6q4pxHQfuFTP14/wDo3+iLqDe9Ah4ibcFvpLrUcFihldpsCirUshdboMRAu5kKuMNKcPeoqJQ55wS1in3K069ZMzICSu15dBdgzJmdjQA4pLWv5CcmPvSES2nSMHGgAlJnvF6Q/wDGSh2mh7MG01eEFKPgY3H74AmByvVlRKrE/wCvC4MqWxuZ96uJb/FnNIuvxZzBs06W4V3evTH/AIEhQyWah/zM879M5bV3pjHZBOnGI2mRfhhkqfDGoy58QHeA6eLlLb6YyzJ8ph/5fUMC2t5d5haPsgeWPCjMFzWKeGOLBfKVQvSvlX5XBcarTeaiV/kQbRf2mfX3SxtvsZfWLzCt190ZTks0m4GDg7oX1gef6JhE/NDXqhfDySl5+2wA1+ZLH+TDG5RqtUBCv+fE4sPiIt0dpWYtDRMBf25jJT5gHG080n/Zww/sSl1n5RYb8E8TC/sxuDP7wyrtbYTRbA24iO/tSxj7UVh2NQbh+Ux2lfaOez7IHYRpxUS00rww/wCZmPl/JUO6NFaYNv33qFuPyQVwwXiIMOHdE9h7TEUfZHFlbwoOWH0SV7egopAJ7EhQx9IDlfUqFfgh3hXaCLH0Ymi4DRxJMcdFQRIPQ1Dpb3m4AQohU10z3gcZu+hZcLsPuk5FLWYLSiDcF9sRAFBzYf1EqwrdqP3DOWtkQadYUf2oVD8TV9mWfbL/AICKtbppGe8LG14v2WFZ8g/4IrlF2tP5lTXNMj+0CoI7aQGgfWYv4kaGdZRTtFCbEpc0BCTyk+5hQsLY5V4lsyr2ZWFvm8xGGwFFE491ApjEDGvog/6o37HeiB1k2Bwp0Vpw+oWgFHBCLJFDKBogBU05zVftj5uCBlLcO58Eto4l27yiTUzi2WrmP62fmJcu8sLVTLAnfw5YKWiR71LgrtCPguE/k5s6YhAVkxApTK0OoNLVpLjeWm3wA1qDlpguKiu7u/uDbaU5n6n76U3AjGxLZA3YhvsQzN5bm+f+hO0+Y6p/wS1sTN+Wn1BBaCic3zHe+jPqH6gvMUlX240xo7zFUwDdNC3+4JFXcv8AVulTKWDwEPoy9QqBfdjtP9VGIkVqhL39PQVUqLwNkOmh5QD60ACeSLV5iKWFJK8zb2T46AXVmSVbFNXMQ4+Ah0xNcVKYuyfENQZmEHpTAy3qbYTXSoC7AmLU4f3CL6WI+KIMFtRoeTQ7jxoiIswvdsPEGj0ghWq+XAtcVUXnI0F7vfiacf8ASFs1ipS5ln8v4etNQUBro0Z6htNo1SKXuOI5lseSn6S3dMLjNNf5XTxKFi7RjdvNXqGIUwH+LcWCkrNOaio5ekjb65zu0UegdM/0homCNJr8EJjcIf6b6FxHcLyqoNES5XeUOszjRXE1D5RGFPuZKJ2Sj/szSUHldRgUbrtToTiJy939zZiBK791NrGGo5B4/eSpnYB5KlQuVZ93QJXKWry9iFrdWX2KIeSAzV/zESB4gEZ0WWqlcJL+JBWJdVUZOI4zBucXj98DRFZWyJqryzy0WxQJhf8ARETh6VUaMV3VlkQ5+0IAdxrPzEnsrGLlzabnNb+pdQjaLNr+osc1HlADm1B+oVUzLeIZ9VKfATHroARM1HE+C4bgN/Oe0Ix8H7nEx0G/hgE5xCSUsqKc4BbBhFcQjmYup6S8QdX0JcBcEsIgrbUA0HplEJ8bN/xFhFCFW5a+YvFegyF+qlCHjaFrKoTRZxLTThec0jqPLh9AfV9oLeisO7OGmcvQZS283/T0vUE1Kv8AowhqXBSMvQrj2lbXoS/xP06D04Dz+yZ7xqWPZgLw/wCXQmR/5uBArD09cfMaAQBdjB9k/WbdiTr4yUQFbcKs9qgczHqqmsHPxDV14e01LLfma/8AOUYDwyCL8zP1jTfhrmY13vUqrthqXS8iY+/EVt8N2BhtUNoL7SAmMebkd8WM4XDAHLWKC6lgFsKeSouBTuAw38/7jo2QEqs/xZ0vMrOoK8n74bmoLVoIp9g/FLcB1L7gJjHklWxTYF96YllpCxEhQ6hWKJNYafEYnh8Dn+4hZ2lTl+f0maEuceKvEHlC9r6yiPNNqpfyNR/tgq3NQMI3z5OwRLB2LHG4RK6WoDVVyShSJ7qgX81cbNsA62XqIR1NWofdyi+mY+IfSBKMIh5MoUqpiFizaD4RDJMAxY6zb9pZNkqWL/8AKgPbEaxLjN/wT8YmZUPr/o6XW5VsWXtLS0ah4ROYERuEvOalVNwRqzcSoziBRqYSErxNyyHS93C+n5RDQKVMzmWR+2MHKgj4PlLwHDURspEkAVSAYK37iEWYYAcJeoYkO2RiUgWhTW3GiVf0p/1CVbH2kt+U79Ygn9k2g+2CYHjkVH6CVJdTHvj25gWx6puFz6PXm5yvxYcT/wAeJbn9WZmXaZPARLCxG7CQ14PtQp3FaTtuUNfFw7PzRCQZRMqEEWgL0xPBvRBLX4IgNJTKQzrN6JRsuNCGir1ElqQcKhKTJKtVgVoFd14iKtmFleVQcl4sie7Uyml+0hrVvgmKIoIA4wWL/Mbu1Chto9kGrJbTSNDGNtjfgIBR3dD9JGIo2sYn/qrPT80hTXHxjVGKDYiyPVm3ItYvt/BKOpmEeJsNAgUStlNLF6QiJAYdoo4hdrDFVz4TwX/fE7D/AE/iYVjGrO/UeOvve4r/ALv9TNR9v+p898/6i5Fdky+2ooIuaW3PyhTbEVdlwe6Cuav8MN9la+qn/esWBS10sFFFy1cr7RcF9rPGbcHAypqHJ8DF4f3g8P3h9zTZujVRt2fDLbSk9N/uVBhiG63GyZQ3SygWOLTATeHuWJoIIJjzGFoO2C+JX/hY05+Qx5qkCUJzU5ak7apUsE6KYWZsaklNVMFYYf8AvTM/+ptDbFXFX/c836s37PX9oHObzdzTCWLj/aWpYs1c1U/kzzfqztv84tG718Rrp+jLyPwsr/1P7hOhbseVzSX/AE/mUf0QMAaVRCxu3t/1K2YMJbfSYGN5jvH8J4X1AfpYfqIEKgy4S5UJywILMdAxCacfWFzz1L2tfxD9ctoabzMPVkCRK37CJSziAAHioVqGu0Csp0Kk0DD9z/mR7aeA+oigD4Q3RQRhaXIfNEx26c3KJUc/kFhiXjbDtKtDit/CZ10YnPjf7lYlVUXzYybi5bwlvapllsuv5Z2mO8Vyy2LufqD0ybZj7P0m8zWpRZZKfN+0fccXcVNWoxmc4Zqf6vdLMS25uF639Jh56YuoctMoego/82OllQ8xxjaf3EthxmG59FRZcde3O+ip2iIr8VCYjdfa+ktRZGmkifX+qUVUFJYzTGqHCv7dDVXKivsqL8w+JRwwXj5QhX4vVTZCPLedfTL6VN7mv4kCMry1eGiYmmYe5OJ6ICVbnfbw9QJ64BElWBBftIQkSux2h3YxqBD1/wDAkx2idoZI8bWSiwup2D5BOMJ/Qcj7lJVdC2Jwe3Jmo6+oiuvtNFhmCILSg0e5d4Y0ysJ6TTTAUlUho9SgFC3FtWxhlu3xIRwJocIsXxNinDXzNLBHiwFeRjT7/wBSyHQW1pkkeehFuGBH1FnX979EsIvQ0Pv9yoFTQvnDTvQIHmGmaTF8y8y4s9/7Ol1C3REnYX9EIurhSmYxpvb+5mX3mR4WVFbVJiWQZh0r6wmIOJcXxP5E4lzmX+6/uZ6FK2X9KO2A1KqYym/2EE6FTh7LpdRh78K+ImKjkjNP+HRvEACcb/QncjbD9yUA4C6XCXf5h/8AjClzlPQgmInaN8n9THPoPomRvM+Jj7H6nmaqU9NBOmFeWDREOlEw5yqmYVUL7P763CoXWVGVzRPyiJzOZW2cQqFcTtmD4hKjdkqpfiGSC5pV9KnlqvtYmCKG8lWQnEsMMBzvlqUKfxS6lGHhaRmXsQPwRsXAp214bmGaykKb4BMj6i0FBe/YlbHKyCsQQPq1yWFK1KvUKMJtrzB5leZPnnsxV/rpgjBemfinvpiO6g/DYT+eg4g1PzJ+CdopKxEOW6KXokwz7UKoPEKlS+XYy5c9zINf1QcLBbl5nz1/RM3cHy4g2lbmPtf3CWkY4VxLVYg21AOm4rprF36i5lswqYr/ADEuiDCuWOI9Hie5+4531Wux+WycTL0xpfKpaLceK+cWHpBx04JWf0mCo3XiGpi6wv6SkZQNzL3pkgYRUGXK2VnbtplxZkQgWUXLD7v9EthLvtShZjHpshb60v661cCK3POo43AMd0zDWwlKqZ55ir2v6IXMsL4zEzO7LYslRU9cRnsiLgcQJLYvHRStMNVcHQ9LmeJb0gy6yMoGbcPnp9MtXsurQUn/AMIIBCkdIy9hWUuxbgPwzGohkpg9Fn0zeW84uVrRFWum0r1wEXXHc/qPaKx45FvllY/2K+SHVha5QYCx4hPvL8I07Oh65mFw6WmtQfTUA4VQJVW7tUQBJX/ygZnwLLEFDm8P7n+QTiG71/ZijUoDW7z9RAb+O38yjmDz/eD4S9/2ww3ZuE/lmPm9kt2/pMJmeKYhxSNUCWZQfCDPCClAVuCkqC//AFRD+ZH8M1JxrLf1H/0n9RbBrFtJYpzTX1GyLr7u8OA9G54k9N/uW/8Ax/aJZr2Xh7EuuP8AT3Lxv4V/cP8Aq3+5a9PO0zv/AC/7lZZfmP7iOBYv5RLYP/e7FK0ncj0gM5oS4u10gKjUZS8z6TBb+KN0Ur8Iu1j8J26vkQvF+NYEtBMYMQFpTECnL/14luLSzCJx2+kKdvgQr2+yMB6sNQDz/wCe015/OLhq/B/SW6hVUP7E8n5alC/RZUPVXC6t2J6uYD8eI9q9f+IVfzlwzIV5uK8VcR/04d4+ZaOuvbcU00emPc/mPH2FzfKEuvDTUBzvjFfiLlHKIfhH/rYDf5Eq1yNyZ5KjlN6dhsN4hxfkUoX6g/DA8K4/9orECXVs8Maa/KlWh9pALjIWr2uXVf2J/gp/0UANwPdIlCiBYvvRJ3opbgMIwqtoRQVcdqK6YGreF7hIrQs1dMUyqqti7MTEBp7QLevasLyTXtkt8igOAGmUM1Dftged+2FawpzAsEL1UYOGIOeYTsE2LI1AXchoCupQMOjDfS4Nu5npuV0BBlAxanw/zDtJaQouIr1H9cRXQtQFp8mGMC33vsl0s9Euo687/TCoLiA7TCs6s9ziXU5uVFbr6YpbubYR4y59asbg+iWm4TF65dPiXDxOEFxiVrGv2BcZRq3FWCyL3v8A2IMzHIyi7aE9LfiyrFi6F2VK42yosuXC/wCWSnC5HAQOXNgvODDqVDePP9IypVSuVq4Opt+f0leYEK7QVi4lqnKW946DXD9wzdyg5dx4wRq5B/eQWWUc96RzLVPJKSPPxrCKBa0GViiPydTLPxiZqcairwv6S1l43NWW7V2Zi8GzSexlK6/0iSyFgzLrLSVVMjQxoEHdhcqyyLCf5UWcN47vYiB4ZrIGmfm/p0xPwmf73aIlqBaXfqaSzyf4pa/EAbLruYhXRLcQCfNkFNtpXB2ItEylXZSpiO6hkaoib6sKSzbdTWVDtaDiacxDsCMCAV9ZJVI+18XhlKNXxsbrooIw+ZHcAa6dzLqpSiFGs0GYgjYhJeZfSklO+lQvEDoVOehLqCk5GHtzDVPnMd2ck5gUECYeCviCtjGgjCu7tg4MRe1XaRvUNNrG4rkYh0l9svmI7uswV2urj7Kqq4Mi8Q+N/pl7fenTuzG6+aIYi4eNQ1QLqyie0PiBzqLDM5r0vFUdL6aqTqbJy9Sp6cbamYrPZsrAvTcxF0pIwhw/lV381MTpHoCoKcgY1g4pSDbcK1+3hgM35mTYrVrfeXigu3SI9Ao6BBpoKjCX2/4wN7I3dNrpriPG+rVkVTcUWU0GlK6zRTbOae5CikKmggNyx2mP+TE3qypmagCGInUqBMi0MBWmKynP8kCl3HpcqbsjTBxX9pKLJW3gXR8Rx8q5Gpk2hlghPsKYYmBIMmX29TAqUtPGJcvBGhT8QsIGI3NIoYmCB8n8EcP6nePqLqU6bNPHdUKHRdKJy3qGQKi8xlzkDSsXMhKs4PUeFFBKxEl9XT9BM5EUVvTHm2qLVi9qBfPT+JSeQHqxKVHDfw1K6FSmV9j/ABSghTCJYy1DCw0JyWVBIPNkU17SEVnK0d5jQJhmIMqNTazeI29DSX7aGdfsUxADEBtRumUijTalPrULdKgW2+WFcAd4m1RWSC6tuZtiHQ7Em25iUjhamfiTUy1KF2uY0g4TEyejLehVPQ9QRivSxdTXRxMvAzKQMYMYszVoPKj9XQoGm4PJCUFX3LNDESzQwOhosyHueoMNnGZRtBrzzyQhmhqLevrcDimDG706MBbbqpclDwRHLSopceAQeLgi5oFwdoGcSE93kW8MpmreHmulzREb+yPemut3UtUCdGgYQLsZnmLRDY3uHa92UeehF8SwHgwhuKocdOGfSIVM0mMlksXJF4MpgU+Zyb5kZDmDYLgO8YJR8tJyrvEzKhq0Agvt3NMxblumbKpgEel0AzdPpEx3yqj0jH9mJGM8pTsxZT21cq0y+azIs2tHtLpmiaoQoUVMh3H6l6uquGPaC0c3csQXCU0Rkxbl3sP0NzWzvFE1tgYGUEgiLT9/0G5Yo5vETIxpbB9sZE2N5bWWU0OBzHHK+MMRWgpouIzm5cWk8Au/VVOekSycwx2jE2IU5bqELf2iUWIS+UJ6Iw2cLOIs3kqCrMWDHaP3AVE7AaN5uO0mEwjuqWpyxU87Uy7cGGBi5WlZZn8KBYRfSKFNHeVa6WewiX9aLpS5LJfSIXUojVj6kW0DzeIGcniR8ExTYQFVpxTMT0fuZKdNlLzCgzBOYmlXGyqcFLzNtNrf2qNUMvFsQ2PhuYSl7mklwcW2os0MACsx5iCpmuwvyfoiAC16SDWy/DC04a1E3Q+yCtaPEIdsnJCU4wOjqVGZYWEt7RgRCCCodWIaTYe0WPklDsoBX9mNEVymheeYjNrLo+W9rBccrbBWgy0QpLL5Jw6rgWKjUXmvkuGjZRkm9DGylTySZUbMJbacRzAmllOE17S3GKr/AN/qZgDU0XvlmzbIo22pUxC26nklDkDhS9z7kGKWnlqP4TueaHg+5g/15luXTuN3cfM+aZ/qMxH6NwMRU7XDBfxP+400yZqgGYsvnwYcn4IY354ICFVV4JQYAIiwcXAtt9EyXMXMRoLtnF+o/wAJZCwna5TiHrUbPKXQurrnUD5vcca/OgRutRXbvB4iUbMA0CgMoI6PrZHAGiUL7zAYiqiXGShK8Gc8PlkCjea6HwXqBaVVlsH9kci2ckbI28jgW0Isg1sie03LSBBOdWQ1NP2wGsBswUzOzO2WPQSmcB9DDELcBCvplm6r0pUA55HlCNFF9szKwCAMGh4lyNkZdAQ2AtXHMazc2hgeoZolIyXHbR8I8sh6EYqX8bAqUd3vUKob3rcPrFbx4gLgPiY9fVR7CoO5KseJjA1y8Q3ZPUawgLcEu+OBzAHEruD8QDAC4A/ome6Sm6IQfiG26SnAfUwJBTlk6gAUBEOxBoMwGWJWVIm1ZQaLxEUAXs9RuXBItaI0agDipQADK/qJdQDjMTAemMM4QoziFh3DVVKiAju8UR7y9VLTt8Us1BIuZcsDUxL7mXib6lQ1Llz5I/QmzeMz6NMmYRU98QCpqsy4AudEJgYl3cZ8z+pkl/l2P0XMRhe2umN9w/lMGFigRuW8Eap4YcbsCuhne4xhOpU0cR59lKe8yS4zIQinhhfeZubUf8OhqVBsBnP9nS2E7zj+nQhiJ8WXm4o1H3VcTsMZRzEial92AIQr+/4BKLiplamfqSoEAntdXpja4CFsIkHM08xjOo8piIxXpWFCDAD0Y6N7TKXLqIe4+agPqItS1xU/KfroXOIdb6TLZPND5j0OpYlYzSl3cqpqxjtA8zVh3mQ+EEeZTvLKu4RrpqMOul1zMKK1lkuZkFXcaWoEck7XULlI0HC+S4eXgnicxf4crrUP2TOAMvAS8XMV0wh4QVxVQlWxarMoVt4OmOmP/hIdQrodLzrgl1NcP1O84TMKM90JKDpdHuGn8MHAglzWRMMTOUGqVW8ETEQAzlCe2LDaUcJ10IsyN03kpPYzF0JPfJKvsf1KmiV5ouiGVkFwHSqjVawaxgC4t9ViowdSwgKNA6aI7aQ/AqNcgFfqCiNFD8QmN3MM25v+2EtSfgM7MqtBBmHMOUWVmNiy7jO21/GW1qDLMfPX8uhpjoQf46I9Cuc8QteKsbS8Rv8AjodL1cYX/F2lw9dF/o4RsZfMPDEBxUbiQ53+6LlhRBl1mN44TSYFpqZ1fKYtkEdRtBvB7qUtbQQVLWDcoHZ39MXEsyLlYYdbIujcXWanAdozn4zLtUtm83Fo3ir3DvUfUuXTNyNYi2w6lCvEbiwUJrk1WYM1NZY7JQHmDNdzSwKYqPxLIoR+j/GU7ZxYwLJQKGMInqW4BZlqVLgL7zRCBAJOkgoGgEL7w666XC6/+PUEnxCKnuqPtZH7C/YYUwcEbnClfIEtjlVEG2l4jdZjLsHgjK5ZbzJ9peLYZrYQUtiuHWmtl4uoghdWULhTFxl51Rrzg3FIMhYTdx5jrHv9iIHYpCz2MYBXV0xa6mC24pVzTzCpqhjYpqsVB3VoVrhslZSS9F6PCN+A6LsIAxaEqF76WmCH/TM9AtjiH6kvMIeFqZHpXiHT/wBGGujcIwd9LmDZitMzuINsz4mFizCv5yc2H0nPiPs7Ijf3zHZ98x3WNljC3ypHIZfZMQLfc3VZ7hrysP4qOX9kwQoaBCJOCp4sa9InxD8MeAHLcwApspGH/Kxrua8JlTL4Y95+mFRl+0Wlwe9qGUz9M8f2RQ25XDAC3IDAzsNOwmFP9kaC7FvLVVA+PujW/wAkH/8ADCyz1pP6gw5vXKiYK+yXNufpgkCKrVwNa+6FX8qcLhbUpQxA3d+UsKqY9RhKmKvwRAKtlQVosYAWHuBUr/4SlafiWHBHTt42hs3YGjEVg+TH9xaUv9QGxEeHiKWP5KlxK/FFcHypHqSp0MTMfAEcfUUmMAe0ldd30JYOnuTlJCHQQ/8AUng+zPIrFiVdFypY8/SU0VVPxuhFlS4sOOrSEx0KuXC7hPymL2uFoX2aqEpEUVmFGfgYb2VegcZD2kdKI+czNax6TrG4HsygRumkmD4Z52Wyr0viXbf0f7jUgWpESsLzFTQBAnlAMC7aa7EH8FBVNwh8PMtNz6krvAHMpW7hGFlAhpy0j23sbK7jxF1WjJF4OoSytmctE/xn8S7CHx/SZH9RHtpywBwxYqj1X9QstXxj+pT2jmotoojbLkAbzBS2fyy4y/dL+X5Q/wDVQG1vue0rzX2R/DoW0vhMSvyTXrGXzc59mOlMc/6JwRVMcUTILd6QNqo9JufxESnqLwbm9o+Eov8AWQRpO0eZ4koW0Ig4ja3/AEkKanFSvBLPGP1CcRFalKarEIlcQ4SttUeZTH5jD6ANaFfDL5lr4l+5QMwy0llUmBdysTPQgLlaE1cTMzH9z+pcx0eLoqUXdyx61wcwiLXtfcYqilPZcQkOxZ3NdAaXiQwmC+JTtMb8b/cGJmcE6VLHUy6RQGgAVVoIYRRMI2MNV9o1UI2vvFsKAaSgbIQlnDAfp7kdBUYgsNOdowIBC2FwibpJj6INdR6XPaHaBL6kGos7nEFtQQqziWIQWWhdFwl+ZYV6s6U1cufoxZbCO8v+EJfQ37fvcuKdzJGnkT9TiExPN/0i95ZHs7T8Z0qXFjknqEo4YPsfplRgil28HB+IwTgNU/cCuKmBHcpVYttJ8GEsP8Ahl2u6lbqKHx3aip4VLq6xha+0qXuzyUvHlK6gLuzQaMRAXdxzvMvo2j4FXKzYkMdXzUvo6Liv6IFRj2bh19sInmYU/wC2e696dyltMCrRdLojdL4cwG9gLEAXSWS5DukueMy8Gg6NthVU0FJv9nLGgxWcW1ohSoyAa5wGxivzVQaor0xTy+hPeCEuQETkZ7JyCv8AxAmIJIr1CxWtQYBsIWzR7i7EZZZ42WXU+TGLomCey2IKDbrmPHGWlR5tJawqd4Dp8ktakwZiXpeRfwRvYsZR+c+mo2su+Bl8eg17qNkzu33ZcEalSrYaOaFkl+IBAFIiPZhNVOUbKgqRGp1zSaud6iQbPLrG5xlGBtocPSuGvPAblHsUlkpm+HB0zC6bCHSjFGU7VFIOCpcGXBleEKgTGOgy5bdS8S5d9MxsePRYj7P2nuKmulcOxeg4g9CrBUGpcyd1R/KZGLFMT84/Uz0pj/y7pm58xXb2Z+B6PuXxbsmDmX5lhli0NFNvqpe0RfYI8Ug8hgZzbCL2l5LbdVVEBlRE3Te4Yl9UlK1fIHhgm829b335Y0qKgkq1JGNvXWuxC7eBHWJNTBV3f9kf2GvLXl3Y2MNhdG53Vu0JqjC6hSpYDNkKHlgiyq6Ie779Le0bj/ypfS+ZrXwm0rMuDlgHluC+BPYOwLNyAoDsagzw2j6J6JuVmX3QPm0kXvtMEFI+ZQ8TTzmHorrjRptUGjcC/qKmUBM56bJFo1ioVCWgKmdUO8UIFZhQV5RDlBw0W3XxcDauU7ZGF1KmwjFzi4rZafIgWTzLurTRlCYYu3q8NLAzuCy1awgBQl4VETQHtUQttsOA/wAEROCP4AxlgLLt2Zw8JfSFwrTPwEEUe4BghUhnIQ37BW7tiqqui7axAMRUdli4XXL05PiHkCKOSr7RFKRQwX4JFKAuagYqPSrhfLMe0nTywWQops4gSGYEFZxhA1COkkO8L5HiFZqEuM7TjAk7T2Z4H2QA6frQlTJMh09TPvISq9BUqG+glw6XOMsDoEYh0OiYcXsdOLit45Ol6IlR8R8EXMEiqMcPfqYIOWP9Z66VA5jk/UxWZXmUwbvc+2HQCxemV08EoqYeSHKF4q4vHaLsjEC1pq5Y1Nq5NVCe3WKmauceJWGzADygT14yoLbjusdpqKaCEIw+Pirova4/R7U/MojHioDUy1Cw5yidz2hI+wlc0i6Sv2kw2UBtHoAqeEjlO+QXW7x3V2OaiASgXSJCLpVKe2e8IEuUsu3LMsZCg1eYVlVoNsNC1HcnW/1Rf4h2Jbf5K/uHZfN/2lv9/wD6g62opszM1i9WTLlfZEg7r6YJmZimLKlKVLBKWGXrv4UC1oeJbI4tsWw6CCTLVro8TO6R3zG3mpiPqOYAC9/Jgtab02wqJcDJxoMyir8oFj7x4H+epjicv0d6i+ydxjqR9xp7YM27kq4rvfNXhlWg+Irs8aCQdiKIBy5TZC2YIldBUYHvYUX6gCwItbCOl9SqYud5nFS4pVotEeys0BLlwrFSrLeioMMiVWngmcgg3qypcVFudNagcBaLl5uAKAPA1HH0oGGhLNbQLwGxl/c8h/WWYcXbTmZhR+xlDFDDk2TIzKYWNPY7qJ4ZGJWaFy/SF4ah1qawTBYAzgWG1Fs8agVoS86yk/akCz/EiKKvLRMOW+o05UqTZ8wN/wA0P+qUOYKO0lN28yrv9xbf5YLGGkrowgwZfY/U4JeIXe5T0tgpcJl65gOFHEqlFfNH9z/AIA17MUQLmvwTy/X/AITD/h+pdx+ZUCm69TPq+pfd/STjt+pUd93lcy438V4n+rL8/fArMGV3G/X6lQ/zZVr7c4L3umbu9p8r2ns+2LFrnnzLr/kx8F72wYjRU2xDgtM1mFqhvcIf+ZDtHJoIf0GO/wDGlOT6SIFzOK3ifiYEodFJ40AVVq15uU5EAog1KNSfEuUyvKaSEiiYh4tag1hdXFpW23lfxBeCAOAwEUdWFL4LIo8j+Qj9xw6l6n+nwQlx5jMdKEuEbjeL7B0s6WfZ+yYxcuMWV3TBOiNlFo79JMHpTS7a9TMWMOZZo3Kr0PtjpiiokYjV21lly43DxK8wCY8DHs5/tLzFuCAJTEbX+yXhlmPMr/YrmDgagJURVEbutF6ieYWcShgUqiDK0N5nCUXKJweLlSuKgWGF0XuOrivJPc4gEgpKJRWiyGBBWX1GpaMF3iGug6oQb6Ky1NnwT1BQnYLjLN8/k1MkvBLi5LfuLcMxjdLetuoq8109Le0+Zb63p7jid3R/iqUztPyn8ifHRdwrmav8ZlSpsPdNF2dBnt2TEzquldlWsOufrzFdLixl/wBOi+8/PR/UhTU0xg/5FLgMwc9PysxKxmNSvN/zCrlTYwUR2S+lc3+XrncDs1/OVcRhDonuXprQaLKStDiHdVCKQhXVpQ2Golu0yte3PnSS2N5f1L1K9yXcdK+fxG+CNiW+YN0ksx7gs4iaFqvaJkbA2hWCD5HuLKXgBWdFQpTWSnwtywcTugLAN6XlpbUPuJ6qaIxviZH/ABmCVBHhpwxNCzLcNwKWUeS+0uF5y/ZFKgFWNJGsCWnnsgUxCbtaPRbC0c7irnmeSEyXslo1mU4cR8pohuVZqJyS+8vtBwy6JxiXHoCXTMcHRuperl9K6YJ6ojdL6EQYgDGb1ZBizRFYKVRLXu6VaXxro3T5YlmWQeDCNQRU0OqW1Li1mXEMO6csSsXAY2OXxMlK4tvFqVEyCVyMSLblDFoFq+4z9Cg1tQMqqDKxvo8CJfta2uzECLze1BoI2UpU0AzS3CUlXbLunBhKYeZoeX9wlMJ8yUrqsEqN9pcbvH7ICkpXcumD4Llal1FnEHD1l1DXZwHzKJQTH1wgfaVdCFdH6UfZ07RvwH7DpfeIS/o/iQ3Fi5THFw6umdftghUZjTvj7lMC497S4tqlVHWn4huvxtx/ltc57Q2LLB3LLKFSOxlBDhLwDKCANoIR1WEt+oSLi0OaVqJOrlrfGMqO2OSF7DITYLlIR+yFrwyz7TJ33QpzlV1qNS6WGFACL1A+lQsBTMSnPaqtOYpXsSt4hurTJatCgAcqncHLpytwGRxrksqLXaFkxfuOyl6/kUWAMnavi4y2+FoY22sDZdbjRikeYM2LlfRHuFckTq7MvLb/AHMUMMhRmQtMjrLNnaMA0VnfMWvoP0smtw5Qa6AOcTO6lqlzykN9XsQ0X+ixbYSsDAmqPlG7f4jVZ+o5BteCNGvpG9qkAoKL6D0uEuLLe8sohnnqH/xbPxZfK8JZSH0Biu1sV9Qha/RiadaiOnmhVkBtgMbwOdy+YCoUx9mA8TU5ZkEboKw28UxaoFh4pg5NCj4hfkARaQtBxTYDVK7s9w2IIHZCkhU4QnsYJWMmk6ezXE1q21cUrI1ZhlPzTh/PA7gTZ7cKXKTMR/7sORHSmUGN1DsiHaSvHozLmvxP9hmb+jLPbReaZXy/TMuT7pS/yoA9yg7iecmqXV7I7U3wRDIWtV/csWw84/udv5wfuUAG1lcIcl1QNFwXNj4S9r9ogoC82yNhqPie4/6mZ+HP+pn3/I/iGQA2xb3JbSfc/qAbt9su/wDK/wBTRZMrXtxHHXnl/qD2jxmZBwBvdxNZX2m139GY8r4YzkKyQ7bPIzDWns/3Pf6Rx0l+EpgU+plRtltGFWQm1gOEl3YiAa1fwwOMLjh9wxGejk4huOG5D0DtCOBF4cmSGjj5BXMNLFWmiG1d2ltJRCqRhZySmDw4YKAyqtAyRWbnmtnbEr9eKLhZ7gnA0gWEL8A1WpdyYXuxmLf3UWF1C8c+oSHwIdkBcH4xUwp2nFHL43KFwFhRs4qrSvdVHgVDd5E0kQmteFaw+oPaFrLSqHl1bUOTFKUuRxDi1TlaaCH/AKKCFFStopffgtWVIh81ACE25Ng8Tl/Ih4x3tAyugBmU7src2Yd1N97iuywav1y3lU4xPDgcVhTyQOiBMn3lF9M6rzNVKjqVXXEuDUuD1DzCmJjpWYK2A7mL/Iy/DY7W1AoNABaq4jtfKcb+1M/P2xtiyzQ/FxJytm23amtqFNKHlYFWtLKrHuJ+dbwZbeFWoD8WWD7CWd6EYo8kXYxVqpmK+tF7d8hMePRUzbgprxP+dMl/imC6XBpeRYMsC5QRZ3hVKMgWBmpVzwhxs/6SramZlNH3COIFoLfghOz3HA9rJCbxC8b6NOEE7AWszXfEgjylim4XPz0tQ8AWZlROhbbUtTA021UX+kl7Db/EBEiorOJUol4gT/f4JmN4ji3wwSkqFjLY9v3QC/MOlGNcn8wYTE00RYk4ABWgxEJlRhvU5laIxNFNILAV9l/URsdf2vQgF9MKJbVtSpi24TjcPhVu18sq9yktxjMLC0qDxdwxKwww4xz+ZZjEr6hvcbLavyXMSCsO4QaAUBRA2aywp3nA9H4P/ZR0givbFqqhcWhYUvOJbmJmEBzb0Fw7pb7Z2lO4OlrocZ8pUqFa2s9Umodcwb6UbhuAy6hOZQ7n48z9Sal1E2p/6TLUpIBKfBlwPPReNsjDEWPBz/MyumZg4f6EPPRxuX89soZWNxh7MNPRFhHX+rMN2TMRjnjxFiZl2Fd0Ur2eJxdMpb3tglxFhtCVagI8OOiUMhR1g0/hKSHTPYPbU3HnYcRJXFJY1h6ZrK7iDWIvSxyRh3D9CLk4lQL4Yi28yHPUiERV3bNMrPQ3A3lu/wCCHrpw2cRm3FY+5TAT830w710rcrejhAjVzeiaY1lBzDTGjdnAKOgkThC4cONQpC4h3V/76Yn48YZUS7j7K4qYYhRg/n/+ABev7lDPiOCGq/5tM9D6K10tZQqyDEAwEZV8SwdYp0smctQV6ujL4zl+ozOCppTulzcy3gIHeUwY9k1EhVhSrXzKJvpqXUtufEuADmYqY6CdpRDqPon4xCfMxt/i4dci/wBxKl1LlIlEWO4MNyOlQZnjnpcvpI+GVH9cDB6I46X2/wDSBrpXiI+BlxK+y2T0TXBl8rMLNq9kfshIADzcJVjdpVPpcxTgSUEZKnbZ9kbvCLgChPmgUW2HB8VE6oVYX9sDEAAFBAtnt+8yDQ4+KYb1ruHpuEV3cF5Qw5oiotJX+42nD01Csje5TBNAWtsDoWzj+pKI4Za3qY+v13v8XB6XAMs1/brSMvftnxL7QifdwXVupyHMStkVe5itymyVewibzUVuopOHJDv7ItZ4l0uyVQU/gueUhw0Re19yy2yqTFn7J/0ooP7oFEm1s5bmH+aZ8fdM5F2fTcrX9pMX8kR/dKVEEszA7p/YwxuLT0n7h26Bwx77fpl3c9EsyR6SUR6BfNhBpOZ5v3Ds/uO4TvvLGhMncVncADTntLt/jG3aNgWuHcvqgdQxLyhLJRCFwzC+lzv+Ixe8QF4H3MiUj5Bb5eZro17mRH5En/XI6puTcL9vwYHjMP8AJMrsMrCqx/kmfmjdydoG6SwMyhpCW5t+GC4PwYKqp6LP9Bgrj7E7P5CC7odlnEJ6bLM/lwRVwEo0xzMhfX0y/wAwZa5miWCvkslxKmWq4rmYoaKXXgjGuqAhFcrIda7OZqEMRlTOcNMvqC7Vcfsg40YuzFAqm1kU/ChbVmFEIbKtLayhnlL4vUGdObTb8hDlo5t+vNxK3V8n8k0/uf3BuA6hDd4RuUaAKxFrj8n+Yq2MpYV3RyiGFYBio2N/inl/Sasj4I7Eq8Y/+YTh/Af1KLa47H8Esthp2lxo+CA/84ljlAYu522y8vxIWV087zPbPaW4fuQONZwSGyqkYRCupzov7I8213WCER13Zd3b4tmrGvMGdbWJ8AW1fENelazOKkCloYZYDL29QWcgbqXIeIZXtcatMc1C0fxjK0MiaiWUEoy2Zua/wFRuQ2t27qHAbhXMHxpeYfXMKNhhCNoC9BAtA5YV4+qFTCVjRr+2pVYGIYIWZR4A5iTEZeC0Ruo1eIxdusxshfLCFdWbdDU/L6BEwsBXqbTspdTt0x0pnE+YZ3A6MEHr6hZNfmo5guiLVf0SpwfqAgMlYhO7H1Tn+SoQyhyK3iZ9ZXwRfhKDpUqtolPhKoCsQGCtP/hvvaYiTIQPgh0ausj6fPQoPuSYQhUpAIAA4AoJ3iT9OHQi2by/5TeOn5eBoK0JWJmb+DfXQejb/nmVliEJXZy/RHgIygycMoB4Q9Sowt7f210pgs7p1GENHv6Yi0Xlhge5ZesFmNgwrQCr9RbAqdEK2OlSHq2wXzEEsK+gH9wgkLEe74ha9s1Ck830KUiYm6buczYkUdw2xoDVXTb4iUmUH2kL3AaLyppc4CbiiueGdwEey3f7iGAoLJe622Hs3Qw0MTlhaLxdVEoUpTJ2m3PEdN/m5dMVRZajmWEwl1QJ65fRY/cWMDUUYDm0ZcNdMRqotLHExM4gSlpj944YkOg8MXpfQm+h/wDA5oipfEB8BKh2uZI/xccZhUJ2XP8AUbq7jqVK293RwRZr81GpfaG55c5PcQgMWH1Gxei7vCGrehLpThJtULrcGsSslyAMyjqMpiew+y5e5UlrFyzOuf2ihzDCXElffPQIEz0dZdghfeWkvFTs7fzlE0Qan5D9HSp+JEYu2J56Yr26RCPw/tCbgVPrkmYBQ6Smby2CWhyhDSyp2VI0WbAK9m/MN+BVu4UxrVS1wiZSUgw5EzsUK8FsGG1a1FUjVWxVxWN3FXRoYCzZuUCgC28Ttmbnkbd2DUthdHWGWGoUqqlGOx0UGWWLKwYYWdfNEYvtMfc1T5muIXLSR2gf1x8xiEGdsbbXEMrc2AwLLS1kOIsy0VFfsuLiCdpkMNJq7ZeJpMvllneKQA6Gpoy6lWzO2wkGqOlzEqY0/wDzTiHUz0t6Z09p+J0og/kQ0XCEcHMRmo/k9CV2hfTBTt0IeyrT1sdxOXcXuCG5fDl0IXGKhKWr4yxl6lxUXzjyhBjGAkw5/To6XFwGrN/tMMwSj3ogCxBSoWLK4pL6CXK/z5nMd9K48WhLzN/xBXqQUdTmASvbByyzKQLjVfM3W2UOSF+kOXJerQj/AOiQ/wDdIZarXYmDmVt1UAJsel3KoxkM1L572ML+IUw4/qGv2IBcZiPVPZC3SFUB+mUlLekbIKDhDAgYWEe6/UOqlguuI7XLW6RLlOy+UTTX3oGw0RGjuA2v8sBg+NeiIi22GlBlje0A0GGC/wCUVwBuoXc3kTzfpM3AgwllFjDwelr/ABCls35TIglN5gIBrPOf9SIipdbqPYfUtrD6inKIqMvNTGQf/SWZmrifEo4l6oqorA1KrFEx2j8KXGYl9KemYBXTEsTFdCY6P7zBpcQTS/TLm7fplXts2VOAv6hWZfTDz/UI96g970wvo/JBr4e0SqPMwpiJq5Dsp9QL7UNFxv8A1Tl+mWonSee3joRZij2RVOX2QRE43PL+49x9k4g+ZeYcdq3wJos+4SulwzLTN3uf96aoMBprvL5anSpHjZ7P8EGuAxXDNS7vgl0qvyguyKGmMe9HvEs0H2gWLY+EF1CCj1/Zb+Zsq+aTBFoI258JbWOu1T33x/U7kS6Pbtlzws8t9IwK+e0N3bGbnKP2Ru39mJjQvaxReQ7nbuHIQA8ifceY4hXrPFnCa4VMH8E00YGtCOAtSNSvhAeMIKBhwaMNSt6dFPSxfqG4zgNQQUMEJ0WuNkrYEskytDUCOCY7RAYdApNRLqU0eb8sqoBuC6qMNuE4sygFMBEYSlePSpVan4s0dBXvQ/UnEonD0DNITVfEH0xmImDeujiYXMNZOIPHS24ovDKZmc1MTL0JmBHpdMRhCDLbmePiaPQNR03ecPmFT4Omg/7T0zcZZ5BMuXPmBx9jos03HY7xapczxGqVYK9eXUVxFZeCDYTcZXL010uzNdBUHoTX1ElYmbZ33Xt4aKVPcDEIyf6S+lo3p2fueYV0WVfLoc3LetQAnZ0uKhWaSremuZa+P9+nO4wWXM3OtfkSnxTV56fl/p0MplvggnEEFXLWcNpcPcuYvc9dXSpb8D6tmIDKboYz43fuU3uVBeG+l6SohDkr8kJU1vKfRENxCWpWoWDoqaV18RQuOzgnmM2QUIdBcVJ0auc9Lh0sYrpcG+nMqYrrnax6PL2RFHrpUVL5kubmZVv2YzUSpcX45Ub6Uqg46mF+oi7OsdypkXr9zECp6mFZwjGJhmsO9ljRbMsrBp3Ccmv4DLpia3cuzLTF58S4UD0YeuLaJUGcc/0Y9GC24x/c4uXLtla98blzu+GW+BMQLlau1fSqc6l3/nnoTcRrwUbg3O8zJbngmOn5avpiRnES/DDzCOKbMQUfYdB2TtwOmAhS3OhXyhLqXCJq3P7igY5iqlmBZaolCXuqHfRILzecLVEYrBZFKqIceSJbMuaEMBV1Ne5Tsy2jcTtqarmvIUy6agOUAgBkk3R0zO3Ulu8GyX0Jev8A5426mr0wzNGskxiXUGXfDeDCXUb4tul9K/CdF6GtOboytvU/BQ6U8DUrXWj4RF6FRX/SyS1XMVjyl2qj+T+MpXbALlMXDuXeu54DBa4RDdjE5CpSRKl1+38WENxl140/csil7J5CFum0zYHq5nz6rmvPlC2l7T/rQfQjXtnMrf55x1jhN4ZGRObb9M81v9cRHnaVs5N2n/VQHc9KETedoCg4/lBteqos5oyhiZ/pJgv8pH/3CZwaocnETQfsJ5Z8ktHL7IMCxze54XQRK3Vd8zRoi64+6D6LvDELURK6fc7z7DM7LHq5cjPkRzHL3QCZu8SKF2FNT/YlBBSQR4hOm8vsgiOjvNunXeaxuMw6GxUUln6hrpFAg4gKw2TmZdUWfcqDXS6Py6c//Na6iVArnoPTMFn4kLUXP9WCOafaPuoYzcE5V3uX3n9zHj43MpUkQr/eP/VMEs8bno/MqqhBKK2b1eZZMP7R0VfD51naG12u5/1oPZ92LdZrKACtQeJ+UXPEsJWtnErK28Dl9bHskt2F2Ylb/gnZL/PMpG0h0Bvx4ij2XL+ZnsQ+xC/+IxpVM8bwTPYz4Jgr8BHl+gP0QpDmboA91l7MrSvuja7+1ARN/dv3CjlzW2VW/uh2n7Z/sst0Ffu5xUi+09k7YeiKyTPiaVT2Tn/ATSw2qXSNEBxSF2Ah4EE7JYRqmYwS4CEC9yuFac4nMr8bFj660+Z+ujd7nxPL1G+JVGZaEqU6rpjvKO8EhvMsi85BSxhY0kFuLZOoD2YvRMM0Ij0p+p81MRZ64glCSyLF9UW2LxKlviDDPENwlb+ug8JXRwPqb/bLlYhc4uEqEuC+i4ziEtlWE5qH6p+Yw6WFlES4iNK6qc3DofyY1362v8HQmZb6aU3Mzf6g2ZazMqFvRmyFkdSicJnvU9SrmcPf8yrgBCBZMTm8zUAmaPudK8xVlzUrJodTtMu4g/31KHT0vovO+jBh3tMJbMMvDMPSghBzBeNH29B6GtXXXm2DHv6Lq4R2Ci+o6EI+5+ovTEfrogXGJhlgarHQuHHrlMuG242sqUTTMO6JkBBri5ThuNHzMXBmuVNIae7sX8EY6gwgb1CtkbqXSoRXeQTnoIGjr2XMpllRHLUBq7OiQMNuaNvQs/8AkaZmDAjshSSoHQel7eoxGeWNy8bmc9D10GN4dbh6gbhoiF3n046d32lxl7jvxGfcXpdzcM/C9UUm7I3fXPLq346EtnOQjUalFVf4HSpwwUd3RPUDvNi4MKGOg+5+pYDiVcwYhXoB+Z8RYSmvSvU5uqZZ9CX0pQa6XPTHv0hDcvXvl9AUnLJteIkZb0L9dBlxc2KpLqWyqJl6JXiHaaenqXmEXbupOYzhn4UcsweQj0U/9aV8IbvyQoO1iFFz734iAVd7qAAaPEz1PzICpBr/AG6bUSlwYCkMsnO46xMzNzAtyXMROZ2eBcEC6uJSFYhL6ZlPaGeI3f8A5Bqb6VUvpcGViJp9Rbd16oq8QfqlwI29dJzBhmJ8NrnHS52vB0cyqIyZfS93hgQnt6XUyeayR4uPjoXE1G5eDEJtam2+jqHPsr6JWZrmoYMHBoyl1L4dwM7N3ABLOH3GEpZDYX9ko7U7EqETVcw4Ay/jEWRb7N0w22+mFJVvhgVXauzKLbgOIaX8kyYPoztFhUJGvJ8Txb4IPPfpiX/5wgeR9wFC/tNH8oFJkZCuGeMfdLYfsRa88zmw8zJmPGW88VtiVzH1PV9QVz+Ex5EsoGZTP6J5n0QoVFI27vqX8Mw3LJjrN3Uz/tTtfZLLW37YwpsLzOyIU6IfUNPxMjChxKsajtkYm5RSIJZsh3554K1SNL3QwC9BnM0ljno3NPfqXrYL4m6Qvct68S+jI556sPQlkGELl0zRVBSVAgItuVEeBCySzT6gGVuOJV9YNNfcB/5oK9bsjUFk7xjx4wHIDieB9T/hTt/hCmq5cTH/AEnmwmfUS9goolLBTt3+ag2qcnSkpn8ApNwVcS+X88xV+WYn88A0p7rZTX5sSq/sRts+1Hu2K7jpv7Mxcvyygrs5j7jdRXCVAVqo8o7GFusCce6p4sGQMq/q49i+IVXSU4CAXwYP7ZQupVQmnt6bbnfaUs7wSyKbgu0Ln6s99R0xNk8yiZD8zp8QfcmTVxMQsmJ+WXmfHS/wnRrosAV2M5dHp4sWApohQZhklcfkWF8X0ISBj7dFYhPlfqVAPS/3dExAfC62QFrmK8kowHwJRjEMGOlFezBl30JXeYhPDUJR7Q6HQhuGyNqNsuFyyumpcE6XGH7nQ9TT8T8KEo7xaSvPVaw8ohLl9K1+FLzMQBHeNb+yajWJ+GxDfyZlmXETy5IJz0uL7n6lMC9zbBWJpYWuhz7424lMXKO28S2Gp6uv3N8wjDw5VX1LgzNURZvCfMvpp5JDEufnJZu3W4JcRvzHleM9Jf0mRM/67xa2MESYZQVzn0Scwq0S1mIo9S9LixsHdv6lhAsXMyfqBqDd1GRrUSpRQYg5JQupSVWds2MagFYRAQT0CJcSmag3PEFZbxplr0r6LhRl8QHcqUpd1EjqPPiehbxLExvFnQ1rMR4kJmvbEwq7eOkOFRUpVqWQxHoSnNBie0qnoERJ89BTH8pzDXS2Axub6GCG4lx/bhuXFt5Ur8RCMvVTpFlzEU5hQDipdy3klXIwXG3Uucu82A4vqbcx0al/hnyJiu+ihp/hgJYAdKfYy6CmGJSX9WGEYioqC5su/wDAI25eh0zLJx0pm1dCfuLSZfRj3v0xYJzHUz8XqMRMf+nVfSyvwo6WBrNPXBQS56JbUFeWl1p6H0Uz4l+s4hKj2s3j0+CFUwdhdWxsEOJfeUpKmcvDdhGgImzMoBiGonYJ3ZHZgwViBkfphnkI2RghCG8twv7RAOjtDGJQCieJh2z5JykDVxZTCJqyluoXYCrYnAT/AI0zltbFUWl6Lh70vV94OGGJiVArNw9ogd0TTEaCEz3l2fUWblDi+yascTEa/wDkaqL7UsvoPEHoadcd5eY7Fou3QUOYi3hPoyXW4OItTw6LDmXAmdgzjmCRQJh2aIe+ijUu4OcyIwbcX3o8vVYi8Iy4Fx3f7RVFs1yRbG47zTDHFHylWDRlm0gRaKZfRWHcIVsc33F4RDQPyxdF3pl33qAGBCU1At8QGjInaBdk70wyA/RiH0Ty5J4P2o8P0St6jY7xioS24hm7XKqFtLgzmev3jfBgQYh3ixRu7XBUFd4uEZ0w5n/Wly3IF+kNVhZab+kv/wAEbglW4mivqiG2v0l2VBehLELAJgllA75xCqlQAWqLi2xTjrzKI2/tgNYGNIlm09pm9TfuJCriIUeRmDSoagkAiinoDNKWMAF0QGs3E4wQ+KlVfabhwSgyx7kNDgIpimVDTGnDE1MWyqrFR1gVACCtndqM/OQyqsrCI3MdfLOCeiUrWo7LoBDeMMIdvJDR6lQv/wCLYp7ic9H3CLVZiF30IXBczUZeawnjnhQiUmC+JRoiuxhLhyXPA1UexL4M8nzGPhfuHn+4SIao5h5L9xuMsdgfOWVlezlUfJ9sDw+7lUq6O8aRsQWqfMO2/bMZVgb7s7DpM90QvGWFrZleiR0VDHpRBJ2SBNU3CvBPgJQ4Iiz4gu7iDHEo7Q5+yaXUA7TTG/O/qLGug3g4y4swEunuhro6bspmvcMrvAm8Fh0otnu/PRXose2WrxCI1YtDg8SpqV+R/XXEH2komRndcT8VLKJ8THPn+kYnJuA90ayOK/iCxuP6ocMcQjV4lX6SVcCoy3roGVNXsMCJUrDBg9Kg+qGCBcErSLGoQFq8RoOkqC5KYhgldL6Go9FqQNz/2Q==;clipPath=inset(4.33% 4.44% 44.33% 4.44%);" vertex="1" parent="1">
                    <mxGeometry width="1154" height="722.4227642276422" as="geometry"/>
                </mxCell>
            </root>
        </mxGraphModel>
    </diagram>
</mxfile>